<svg width="581" height="581" viewBox="0 0 581 581" fill="none" xmlns="http://www.w3.org/2000/svg">
<g filter="url(#filter0_d_103_2)">
<path d="M290.497 169.646C357.196 169.646 411.35 223.801 411.35 290.499C411.35 357.198 357.196 411.352 290.497 411.352C223.799 411.352 169.645 357.198 169.645 290.499C169.645 223.801 223.799 169.646 290.497 169.646Z" fill="#ED0606"/>
<path d="M290.497 169.646C357.196 169.646 411.35 223.801 411.35 290.499C411.35 357.198 357.196 411.352 290.497 411.352C223.799 411.352 169.645 357.198 169.645 290.499C169.645 223.801 223.799 169.646 290.497 169.646Z" stroke="#ED0606" stroke-opacity="0.66" stroke-width="11.3477"/>
<path d="M427.807 154.094L431.142 163.356L440.981 163.665L433.203 169.699L435.949 179.152L427.807 173.62L419.665 179.152L422.411 169.699L414.633 163.665L424.472 163.356L427.807 154.094Z" fill="#ED0606"/>
<path d="M190.64 119.947L193.57 130.239L204.263 129.845L195.38 135.811L199.06 145.859L190.64 139.255L182.221 145.859L185.901 135.811L177.018 129.845L187.711 130.239L190.64 119.947Z" fill="#ED0606" stroke="#ED0606" stroke-width="2.17875"/>
<path d="M469.222 272.346C471.414 272.346 473.193 274.125 473.193 276.317C473.193 278.509 471.414 280.289 469.222 280.289C467.03 280.289 465.25 278.509 465.25 276.317C465.25 274.125 467.03 272.346 469.222 272.346Z" fill="#ED0606" stroke="#ED0606" stroke-width="2.83691"/>
<path d="M320.568 452.203C324.952 452.203 328.512 455.763 328.512 460.146C328.512 464.53 324.952 468.09 320.568 468.09C316.184 468.09 312.625 464.53 312.625 460.146C312.625 455.763 316.184 452.203 320.568 452.203Z" fill="#ED0606" stroke="#ED0606" stroke-width="2.83691"/>
<path d="M119.148 223.664L129.831 231.426L125.751 243.985H112.545L108.465 231.426L119.148 223.664Z" fill="#ED0606" stroke="#ED0606" stroke-width="4.53906"/>
<path d="M186.665 427.809C191.362 427.809 195.176 431.622 195.176 436.319C195.176 441.016 191.362 444.83 186.665 444.83C181.968 444.83 178.154 441.016 178.154 436.319C178.154 431.622 181.968 427.809 186.665 427.809Z" fill="#ED0606"/>
<path d="M448.436 410.42L415.193 415.685L427.254 384.263L448.436 410.42Z" fill="#ED0606"/>
<path d="M129.107 337.926L100.294 351.499L109.412 327.745L129.107 337.926Z" fill="#ED0606"/>
<path d="M324.164 94.7983L331.655 122.742L306.359 126.735L324.164 94.7983Z" fill="#ED0606"/>
<path d="M405.711 119.901C406.287 119.249 406.843 118.62 407.377 118.018L405.711 119.901Z" fill="#ED0606"/>
<path d="M405.711 119.901C406.287 119.249 406.843 118.62 407.377 118.018" stroke="#ED0606" stroke-width="4.53906" stroke-linecap="round" stroke-dasharray="48.79 48.79"/>
<path d="M252.152 483.7C250.741 489.01 249.452 493.833 248.38 497.798L252.152 483.7Z" fill="#ED0606"/>
<path d="M252.152 483.7C250.741 489.01 249.452 493.833 248.38 497.798" stroke="#ED0606" stroke-width="3.4043" stroke-linecap="round"/>
<path d="M109.894 144.023C109.709 143.859 109.525 143.695 109.344 143.535Z" fill="#ED0606"/>
<path d="M109.894 144.023C109.709 143.859 109.525 143.695 109.344 143.535" stroke="#ED0606" stroke-width="3.4043" stroke-linecap="round"/>
<path d="M475.974 345.552C490.243 350.624 503.857 355.465 513.518 358.899Z" fill="#ED0606"/>
<path d="M475.974 345.552C490.243 350.624 503.857 355.465 513.518 358.899" stroke="#ED0606" stroke-width="3.4043" stroke-linecap="round"/>
<path d="M106.834 428.83C105.881 429.482 104.962 430.112 104.081 430.716Z" fill="#ED0606"/>
<path d="M106.834 428.83C105.881 429.482 104.962 430.112 104.081 430.716" stroke="#ED0606" stroke-width="3.4043" stroke-linecap="round"/>
<rect x="245.434" y="234.655" width="135" height="10" rx="5" transform="rotate(42.521 245.434 234.655)" fill="white"/>
<rect x="340.035" y="238.118" width="135" height="10" rx="5" transform="rotate(134.619 340.035 238.118)" fill="#FFFEFE"/>
</g>
<defs>
<filter id="filter0_d_103_2" x="-4" y="0" width="589" height="589" filterUnits="userSpaceOnUse" color-interpolation-filters="sRGB">
<feFlood flood-opacity="0" result="BackgroundImageFix"/>
<feColorMatrix in="SourceAlpha" type="matrix" values="0 0 0 0 0 0 0 0 0 0 0 0 0 0 0 0 0 0 127 0" result="hardAlpha"/>
<feOffset dy="4"/>
<feGaussianBlur stdDeviation="2"/>
<feComposite in2="hardAlpha" operator="out"/>
<feColorMatrix type="matrix" values="0 0 0 0 0 0 0 0 0 0 0 0 0 0 0 0 0 0 0.25 0"/>
<feBlend mode="normal" in2="BackgroundImageFix" result="effect1_dropShadow_103_2"/>
<feBlend mode="normal" in="SourceGraphic" in2="effect1_dropShadow_103_2" result="shape"/>
</filter>
</defs>
</svg>
