<svg width="24" height="24" viewBox="0 0 24 24" fill="none" xmlns="http://www.w3.org/2000/svg">
<path d="M5.33301 7.33333V8.07999C5.33426 8.16792 5.3702 8.25178 5.43301 8.31333L10.2863 13.22C10.3491 13.2815 10.3851 13.3654 10.3863 13.4533V18.0467C10.3862 18.1091 10.4037 18.1704 10.4367 18.2234C10.4697 18.2765 10.5169 18.3192 10.573 18.3467L13.2063 19.2867C13.2572 19.3116 13.3136 19.3231 13.3702 19.3202C13.4267 19.3173 13.4816 19.3 13.5297 19.27C13.5777 19.24 13.6173 19.1982 13.6447 19.1486C13.6721 19.0991 13.6865 19.0433 13.6863 18.9867V13.3933C13.6956 13.3032 13.7384 13.2199 13.8063 13.16L18.553 8.32666C18.6158 8.26512 18.6518 8.18125 18.653 8.09333V7.33333H5.33301Z" fill="#141115"/>
</svg>
