<svg width="231" height="33" viewBox="0 0 231 33" fill="none" xmlns="http://www.w3.org/2000/svg">
<path d="M12.152 25.384C17.304 25.384 21.112 22.536 22.36 19.016L17.976 16.904C17.144 19.208 15.032 20.904 12.152 20.904C7.928 20.904 5.08 17.736 5.08 13.064C5.08 8.424 7.928 5.256 12.152 5.256C15.032 5.256 17.144 6.952 17.976 9.256L22.36 7.144C21.112 3.624 17.304 0.775999 12.152 0.775999C5.24 0.775999 0.12 5.96 0.12 13.064C0.12 20.136 5.304 25.384 12.152 25.384ZM32.984 25.384C38.168 25.384 42.328 21.544 42.328 16.264C42.328 10.984 38.168 7.144 32.984 7.144C27.8 7.144 23.64 10.984 23.64 16.264C23.64 21.544 27.8 25.384 32.984 25.384ZM32.984 21.064C30.36 21.064 28.6 19.08 28.6 16.264C28.6 13.48 30.36 11.464 32.984 11.464C35.608 11.464 37.368 13.48 37.368 16.264C37.368 19.08 35.608 21.064 32.984 21.064ZM57.4968 1.16V9C56.3128 7.816 54.5528 7.144 52.4728 7.144C47.5128 7.144 43.6088 11.144 43.6088 16.264C43.6088 21.352 47.4168 25.384 52.5048 25.384C54.6488 25.384 56.5688 24.68 57.8168 23.336V25H62.2968V1.16H57.4968ZM53.0808 21.064C50.4568 21.064 48.5688 19.08 48.5688 16.264C48.5688 13.48 50.4568 11.464 53.0808 11.464C55.6728 11.464 57.4968 13.448 57.4968 16.264C57.4968 19.112 55.6728 21.064 53.0808 21.064ZM82.0503 15.752C82.0503 10.92 78.2743 7.144 73.3783 7.144C68.3863 7.144 64.5463 11.016 64.5463 16.232C64.5463 21.288 68.1623 25.384 73.6983 25.384C77.2823 25.384 80.1623 23.688 81.2183 21.128L77.3783 19.304C76.7063 20.488 75.4583 21.224 73.7623 21.224C71.3943 21.224 69.8263 19.816 69.5383 17.608H81.8263C81.9862 17.128 82.0503 16.456 82.0503 15.752ZM69.6343 14.088C70.1143 12.072 71.4903 10.984 73.3783 10.984C75.3623 10.984 76.7703 12.232 76.9623 14.088H69.6343ZM97.223 1.16H90.663L82.535 25H87.783L89.383 20.136H98.503L100.103 25H105.351L97.223 1.16ZM90.791 15.816L93.959 6.152L97.095 15.816H90.791ZM114.515 25.192C115.251 25.192 116.115 25.128 116.755 25.032V21.256C116.307 21.32 115.923 21.352 115.635 21.352C113.619 21.352 112.659 20.488 112.659 18.696V11.688H116.755V7.528H112.659V2.28H107.859V4.84C107.859 6.632 106.867 7.528 105.075 7.528H104.851V11.688H107.859V18.696C107.859 22.792 110.291 25.192 114.515 25.192ZM139.486 1.16L131.774 11.24L124.126 1.16H119.326V25H124.286V9.288L131.486 18.92H132.126L139.326 9.64V25H144.286V1.16H139.486ZM159.595 7.528L155.467 18.856L151.339 7.528H146.219L153.067 25L152.619 25.992C152.203 26.92 151.659 27.976 149.739 27.976C149.035 27.976 148.171 27.848 147.563 27.656V31.592C148.299 31.976 149.291 32.136 150.315 32.136C155.019 32.136 156.491 28.584 157.131 26.92L164.715 7.528H159.595ZM177.871 25.384C183.023 25.384 186.831 22.536 188.079 19.016L183.695 16.904C182.863 19.208 180.751 20.904 177.871 20.904C173.647 20.904 170.799 17.736 170.799 13.064C170.799 8.424 173.647 5.256 177.871 5.256C180.751 5.256 182.863 6.952 183.695 9.256L188.079 7.144C186.831 3.624 183.023 0.775999 177.871 0.775999C170.959 0.775999 165.839 5.96 165.839 13.064C165.839 20.136 171.023 25.384 177.871 25.384ZM199.847 7.336C197.703 7.336 196.007 7.976 195.111 10.152V7.528H190.631V25H195.431V15.592C195.431 13 197.031 11.496 199.367 11.496H201.671V7.336H199.847ZM203.6 5.96H208.4V1.16H203.6V5.96ZM203.6 25H208.4V7.528H203.6V25ZM221.424 7.144C219.344 7.144 217.584 7.816 216.4 9V1.16H211.6V25H216.08V23.336C217.328 24.68 219.248 25.384 221.392 25.384C226.48 25.384 230.288 21.352 230.288 16.264C230.288 11.144 226.384 7.144 221.424 7.144ZM220.816 21.064C218.224 21.064 216.4 19.112 216.4 16.264C216.4 13.448 218.224 11.464 220.816 11.464C223.44 11.464 225.328 13.48 225.328 16.264C225.328 19.08 223.44 21.064 220.816 21.064Z" fill="#011936"/>
</svg>
