<svg width="25" height="24" viewBox="0 0 25 24" fill="none" xmlns="http://www.w3.org/2000/svg">
<path d="M17.834 11H7.83398C6.72941 11 5.83398 11.8954 5.83398 13V19C5.83398 20.1046 6.72941 21 7.83398 21H17.834C18.9386 21 19.834 20.1046 19.834 19V13C19.834 11.8954 18.9386 11 17.834 11Z" stroke="#0559FD" stroke-width="1.5" stroke-linecap="round" stroke-linejoin="round"/>
<path d="M12.834 17C13.3863 17 13.834 16.5523 13.834 16C13.834 15.4477 13.3863 15 12.834 15C12.2817 15 11.834 15.4477 11.834 16C11.834 16.5523 12.2817 17 12.834 17Z" stroke="#0559FD" stroke-width="1.5" stroke-linecap="round" stroke-linejoin="round"/>
<path d="M8.83398 11V7C8.83398 5.93913 9.25541 4.92172 10.0056 4.17157C10.7557 3.42143 11.7731 3 12.834 3C13.8949 3 14.9123 3.42143 15.6624 4.17157C16.4126 4.92172 16.834 5.93913 16.834 7V11" stroke="#0559FD" stroke-width="1.5" stroke-linecap="round" stroke-linejoin="round"/>
</svg>
