<svg width="25" height="29" viewBox="0 0 25 29" fill="none" xmlns="http://www.w3.org/2000/svg">
<g clip-path="url(#clip0_308_14033)">
<path d="M21.3474 2.20354C20.0411 0.714599 17.6797 0.0762558 14.6588 0.0762558H5.89134C5.59245 0.0762669 5.30337 0.1829 5.07607 0.376984C4.84876 0.571068 4.69815 0.839872 4.65131 1.13507L1.00068 24.2882C0.928122 24.7448 1.28165 25.1582 1.7444 25.1582H7.15715L8.51653 16.5359L8.47434 16.8059C8.57118 16.1965 9.09243 15.7469 9.70968 15.7469H12.2818C17.3347 15.7469 21.2913 13.6946 22.447 7.75747C22.4813 7.58188 22.5111 7.41097 22.5367 7.24401C22.3909 7.16676 22.3909 7.16676 22.5367 7.24401C22.8809 5.0496 22.5344 3.55588 21.3474 2.20354Z" fill="#27346A"/>
<path d="M10.5877 6.45351C10.7356 6.38304 10.8975 6.34653 11.0614 6.34663H17.9349C18.7489 6.34663 19.5081 6.3996 20.2018 6.51126C20.3959 6.54221 20.5891 6.57916 20.7809 6.62207C21.0528 6.68207 21.3216 6.7555 21.5862 6.8421C21.9273 6.95601 22.2449 7.08866 22.5368 7.24401C22.8809 5.04876 22.5344 3.55588 21.3474 2.20354C20.0404 0.7146 17.6797 0.0762558 14.6588 0.0762558H5.89059C5.27325 0.0762558 4.74806 0.525693 4.65131 1.13507L1.00068 24.2874C0.928122 24.7447 1.28165 25.1576 1.74365 25.1576H7.15715L9.97744 7.27288C10.0052 7.09709 10.0752 6.93067 10.1815 6.78793C10.2878 6.6452 10.4272 6.53043 10.5877 6.45351Z" fill="#27346A"/>
<path d="M22.4483 7.75751C21.2926 13.6938 17.3362 15.747 12.2831 15.747H9.71025C9.093 15.747 8.57165 16.1965 8.47575 16.806L6.78459 27.5268C6.7214 27.9263 7.0304 28.2884 7.43465 28.2884H11.9975C12.2588 28.2883 12.5116 28.195 12.7103 28.0252C12.909 27.8554 13.0406 27.6203 13.0815 27.3621L13.1259 27.1296L13.9859 21.6794L14.0413 21.3782C14.0822 21.12 14.2138 20.8849 14.4124 20.7151C14.6111 20.5453 14.8639 20.452 15.1252 20.4519H15.8081C20.2282 20.4519 23.6891 18.6562 24.7005 13.4629C25.1227 11.2925 24.9042 9.48054 23.7875 8.20779C23.4487 7.82229 23.0281 7.50392 22.5381 7.24404C22.5115 7.41185 22.4827 7.58192 22.4483 7.75751Z" fill="#2790C3"/>
<path d="M21.3277 6.76189C21.1475 6.70927 20.9656 6.66268 20.7822 6.62221C20.5903 6.58 20.3972 6.5433 20.2031 6.51214C19.5086 6.39974 18.75 6.34667 17.9353 6.34667H11.0626C10.8986 6.3463 10.7366 6.38313 10.5889 6.45439C10.4282 6.53109 10.2887 6.64579 10.1823 6.78856C10.076 6.93133 10.0061 7.09788 9.97859 7.27377L8.51777 16.5361L8.47559 16.8061C8.57168 16.1966 9.09293 15.7471 9.71027 15.7471H12.2831C17.3361 15.7471 21.2925 13.6947 22.4483 7.75761C22.4827 7.58202 22.5116 7.41186 22.5381 7.24414C22.2454 7.08964 21.9286 6.95614 21.5875 6.84299C21.5014 6.81445 21.4148 6.78741 21.3278 6.76189" fill="#1F264F"/>
</g>
<defs>
<clipPath id="clip0_308_14033">
<rect width="24" height="28.3125" fill="white" transform="translate(0.988281)"/>
</clipPath>
</defs>
</svg>
