<svg width="24" height="24" viewBox="0 0 24 24" fill="none" xmlns="http://www.w3.org/2000/svg">
<path d="M13.0252 16.0248L16.6252 12.4248C16.6811 12.3691 16.7254 12.3029 16.7556 12.23C16.7859 12.1571 16.8015 12.0789 16.8015 12C16.8015 11.9211 16.7859 11.8429 16.7556 11.77C16.7254 11.6971 16.6811 11.6309 16.6252 11.5752L13.0252 7.9752C12.9125 7.86254 12.7597 7.79924 12.6004 7.79924C12.4411 7.79924 12.2883 7.86254 12.1756 7.9752C12.0629 8.08786 11.9996 8.24067 11.9996 8.4C11.9996 8.55933 12.0629 8.71214 12.1756 8.8248L14.752 11.4H7.80039C7.64126 11.4 7.48865 11.4632 7.37613 11.5757C7.2636 11.6883 7.20039 11.8409 7.20039 12C7.20039 12.1591 7.2636 12.3117 7.37613 12.4243C7.48865 12.5368 7.64126 12.6 7.80039 12.6H14.752L12.1756 15.1752C12.0629 15.2879 11.9996 15.4407 11.9996 15.6C11.9996 15.7593 12.0629 15.9121 12.1756 16.0248C12.2883 16.1375 12.4411 16.2008 12.6004 16.2008C12.7597 16.2008 12.9125 16.1375 13.0252 16.0248ZM21.6004 12C21.6004 14.5461 20.589 16.9879 18.7886 18.7882C16.9883 20.5886 14.5465 21.6 12.0004 21.6C9.45431 21.6 7.01251 20.5886 5.21217 18.7882C3.41182 16.9879 2.40039 14.5461 2.40039 12C2.40039 9.45392 3.41182 7.01213 5.21217 5.21178C7.01251 3.41143 9.45431 2.4 12.0004 2.4C14.5465 2.4 16.9883 3.41143 18.7886 5.21178C20.589 7.01213 21.6004 9.45392 21.6004 12ZM12.0004 20.4C13.1035 20.4 14.1958 20.1827 15.2149 19.7606C16.2341 19.3384 17.1601 18.7197 17.9401 17.9397C18.7201 17.1597 19.3388 16.2337 19.761 15.2145C20.1831 14.1954 20.4004 13.1031 20.4004 12C20.4004 10.8969 20.1831 9.8046 19.761 8.78546C19.3388 7.76633 18.7201 6.84032 17.9401 6.0603C17.1601 5.28029 16.2341 4.66155 15.2149 4.23941C14.1958 3.81727 13.1035 3.6 12.0004 3.6C9.77257 3.6 7.636 4.485 6.06069 6.0603C4.48539 7.63561 3.60039 9.77218 3.60039 12C3.60039 14.2278 4.48539 16.3644 6.06069 17.9397C7.636 19.515 9.77257 20.4 12.0004 20.4Z" fill="#141115"/>
</svg>
