<svg width="24" height="24" viewBox="0 0 24 24" fill="none" xmlns="http://www.w3.org/2000/svg">
<path d="M20.588 11.3325L4.08802 3.0825C3.9587 3.01782 3.81344 2.99191 3.66973 3.00788C3.52602 3.02384 3.38999 3.08101 3.27802 3.1725C3.17109 3.26212 3.09128 3.37979 3.04756 3.51228C3.00383 3.64477 2.99793 3.78684 3.03052 3.9225L5.01802 11.25H13.5005V12.75H5.01802L3.00052 20.055C2.96994 20.1683 2.96637 20.2872 2.9901 20.4021C3.01383 20.517 3.06419 20.6248 3.13714 20.7167C3.21009 20.8086 3.30359 20.8821 3.41012 20.9313C3.51666 20.9805 3.63325 21.0041 3.75052 21C3.86793 20.9993 3.98353 20.971 4.08802 20.9175L20.588 12.6675C20.7109 12.6046 20.814 12.5089 20.886 12.3912C20.958 12.2734 20.9961 12.138 20.9961 12C20.9961 11.862 20.958 11.7266 20.886 11.6088C20.814 11.4911 20.7109 11.3954 20.588 11.3325Z" fill="#141115"/>
</svg>
