<svg width="24" height="24" viewBox="0 0 24 24" fill="none" xmlns="http://www.w3.org/2000/svg">
<path d="M18.3142 0.0952606H5.68574C5.10674 0.0952606 4.63574 0.566261 4.63574 1.14526V3.42676V19.9523V22.8555C4.63574 23.4345 5.10674 23.9055 5.68574 23.9055H18.315C18.894 23.9055 19.365 23.4345 19.365 22.8555V19.9523V3.42676V1.14526C19.3642 0.566261 18.8932 0.0952606 18.3142 0.0952606ZM12 22.0695C11.643 22.0695 11.3535 21.7793 11.3535 21.4223C11.3535 21.0653 11.6437 20.7758 12 20.7758C12.357 20.7758 12.6472 21.066 12.6472 21.4223C12.6472 21.7785 12.357 22.0695 12 22.0695ZM18.765 19.3523H5.23499V4.02676H18.765V19.3523Z" fill="#141115"/>
</svg>
