<svg width="569" height="64" viewBox="0 0 569 64" fill="none" xmlns="http://www.w3.org/2000/svg">
<line x1="284" y1="21" x2="544" y2="21" stroke="#0559FD" stroke-width="2"/>
<line x1="32" y1="21" x2="284" y2="21" stroke="#0559FD" stroke-width="2"/>
<circle cx="20" cy="20" r="20" fill="#0559FD"/>
<circle cx="548" cy="20" r="20" fill="#0559FD"/>
<circle cx="284" cy="20" r="20" fill="#0559FD"/>
<path d="M548.354 19.72L551.342 16.03V14.59H543.44V16.066L549.434 16.084L545.978 20.35L546.194 21.268C546.482 21.196 546.914 21.142 547.274 21.142C548.984 21.142 550.154 22.276 550.154 23.914C550.154 25.57 549.002 26.704 547.292 26.704C545.852 26.704 544.682 25.894 544.178 24.562L542.81 25.246C543.494 27.1 545.204 28.216 547.292 28.216C549.956 28.216 551.864 26.398 551.864 23.878C551.864 21.736 550.37 19.99 548.354 19.72Z" fill="white"/>
<path d="M1.064 60H2.394V55.996H4.788C6.93 55.996 8.372 54.736 8.372 52.79C8.372 50.83 6.916 49.57 4.788 49.57H1.064V60ZM2.394 54.834V50.732H4.788C6.118 50.732 7 51.558 7 52.776C7 54.008 6.118 54.834 4.788 54.834H2.394ZM12.2976 52.412C10.9256 52.412 9.72158 53.196 9.30158 54.204L10.3796 54.764C10.7016 54.036 11.4016 53.56 12.2976 53.56C13.2776 53.56 13.9776 54.12 13.9776 54.974V55.184L11.4016 55.758C9.90358 56.094 9.02158 56.85 9.02158 57.942C9.02158 59.244 10.0856 60.168 11.6676 60.168C12.6196 60.168 13.5016 59.706 14.0056 58.964V60H15.1816V54.974C15.1816 53.462 13.9916 52.412 12.2976 52.412ZM11.7376 59.09C10.8556 59.09 10.2956 58.642 10.2956 57.942C10.2956 57.34 10.8416 56.878 11.6816 56.696L13.9776 56.164V56.808C13.9776 58.11 13.0396 59.09 11.7376 59.09ZM21.992 52.566L19.71 58.306L17.428 52.566H16.056L19.024 59.93L18.702 60.7C18.478 61.218 18.198 61.89 17.106 61.89C16.812 61.89 16.476 61.848 16.336 61.806V62.884C16.616 62.996 16.98 63.038 17.316 63.038C19.052 63.038 19.584 61.862 19.962 60.924L23.392 52.566H21.992ZM32.4733 52.412C31.4373 52.412 30.5693 52.888 30.0933 53.728C29.6453 52.916 28.7913 52.412 27.7693 52.412C26.8873 52.412 26.1313 52.79 25.7113 53.434V52.58H24.5353V60H25.7393V55.506C25.7393 54.33 26.4393 53.574 27.4893 53.574C28.5533 53.574 29.2393 54.316 29.2393 55.506V60H30.4433V55.506C30.4433 54.33 31.1433 53.574 32.1933 53.574C33.2573 53.574 33.9433 54.316 33.9433 55.506V60H35.1473V55.114C35.1473 53.546 34.0133 52.412 32.4733 52.412ZM43.5037 55.968C43.5037 54.078 42.1597 52.412 40.0457 52.412C37.9737 52.412 36.4337 54.036 36.4337 56.276C36.4337 58.516 38.0157 60.168 40.1437 60.168C41.6697 60.168 42.8737 59.342 43.3357 58.32L42.2857 57.76C41.8937 58.516 41.2077 59.076 40.1577 59.076C38.8557 59.076 37.7497 58.124 37.6937 56.654H43.4477C43.4897 56.416 43.5037 56.178 43.5037 55.968ZM37.7217 55.618C37.8897 54.274 38.8837 53.476 40.0457 53.476C41.1377 53.476 42.1597 54.386 42.1737 55.618H37.7217ZM48.115 52.412C47.205 52.412 46.407 52.79 45.973 53.434V52.58H44.797V60H46.001V55.506C46.001 54.344 46.743 53.574 47.849 53.574C48.969 53.574 49.683 54.33 49.683 55.506V60H50.887V55.114C50.887 53.56 49.725 52.412 48.115 52.412ZM55.698 60.084C55.908 60.084 56.202 60.07 56.44 60.014V59.034C56.286 59.062 56.076 59.076 55.922 59.076C54.648 59.076 54.564 58.208 54.564 57.732V53.728H56.356V52.58H54.564V50.172H53.36V51.488C53.36 52.146 52.94 52.58 52.296 52.58H51.918V53.728H53.36V57.732C53.36 59.23 54.2 60.084 55.698 60.084ZM60.4136 60H61.7436V49.57H60.4136V60ZM67.0506 52.412C66.1406 52.412 65.3426 52.79 64.9086 53.434V52.58H63.7326V60H64.9366V55.506C64.9366 54.344 65.6786 53.574 66.7846 53.574C67.9046 53.574 68.6186 54.33 68.6186 55.506V60H69.8226V55.114C69.8226 53.56 68.6606 52.412 67.0506 52.412ZM72.2676 60H73.4716V53.728H75.2356V52.58H73.4716V51.908C73.4716 50.998 74.0316 50.536 74.8436 50.536C74.9696 50.536 75.2776 50.55 75.4316 50.578V49.514C75.2636 49.472 74.9276 49.444 74.7036 49.444C73.3596 49.444 72.2676 50.312 72.2676 51.908V52.58H70.8256V53.728H72.2676V60ZM79.6444 60.168C81.7864 60.168 83.4664 58.53 83.4664 56.276C83.4664 54.022 81.8004 52.412 79.6444 52.412C77.4884 52.412 75.8224 54.022 75.8224 56.276C75.8224 58.53 77.5024 60.168 79.6444 60.168ZM79.6444 59.006C78.2024 59.006 77.0964 57.844 77.0964 56.29C77.0964 54.736 78.2024 53.574 79.6444 53.574C81.0864 53.574 82.1924 54.736 82.1924 56.29C82.1924 57.844 81.0864 59.006 79.6444 59.006Z" fill="#141115"/>
<path d="M446.255 60.168C448.341 60.168 449.769 58.992 449.769 57.27C449.769 55.87 448.915 54.988 447.207 54.47L445.345 53.91C444.323 53.616 443.777 53 443.777 52.202C443.777 51.222 444.603 50.564 445.863 50.564C447.137 50.564 448.089 51.236 448.523 52.468L449.685 51.922C449.209 50.536 447.767 49.402 445.849 49.402C443.847 49.402 442.447 50.592 442.447 52.286C442.447 53.574 443.287 54.624 444.953 55.114L446.899 55.702C447.935 56.01 448.439 56.486 448.439 57.368C448.439 58.334 447.571 59.006 446.255 59.006C444.869 59.006 443.791 58.25 443.301 56.822L442.125 57.34C442.629 58.922 444.211 60.168 446.255 60.168ZM455.17 52.412C454.022 52.412 453.014 52.902 452.51 53.714V52.58H451.334V62.8H452.538V58.978C453.084 59.72 454.05 60.168 455.142 60.168C457.256 60.168 458.922 58.53 458.922 56.276C458.922 54.022 457.256 52.412 455.17 52.412ZM455.1 59.006C453.616 59.006 452.538 57.858 452.538 56.29C452.538 54.722 453.63 53.574 455.1 53.574C456.556 53.574 457.648 54.722 457.648 56.29C457.648 57.858 456.57 59.006 455.1 59.006ZM463.2 52.412C461.828 52.412 460.624 53.196 460.204 54.204L461.282 54.764C461.604 54.036 462.304 53.56 463.2 53.56C464.18 53.56 464.88 54.12 464.88 54.974V55.184L462.304 55.758C460.806 56.094 459.924 56.85 459.924 57.942C459.924 59.244 460.988 60.168 462.57 60.168C463.522 60.168 464.404 59.706 464.908 58.964V60H466.084V54.974C466.084 53.462 464.894 52.412 463.2 52.412ZM462.64 59.09C461.758 59.09 461.198 58.642 461.198 57.942C461.198 57.34 461.744 56.878 462.584 56.696L464.88 56.164V56.808C464.88 58.11 463.942 59.09 462.64 59.09ZM470.948 60.168C472.39 60.168 473.636 59.3 474.098 58.208L473.02 57.648C472.656 58.46 471.914 59.006 470.948 59.006C469.548 59.006 468.512 57.83 468.512 56.29C468.512 54.722 469.548 53.574 470.948 53.574C471.914 53.574 472.656 54.12 473.02 54.932L474.098 54.372C473.636 53.266 472.404 52.412 470.948 52.412C468.82 52.412 467.238 54.05 467.238 56.276C467.238 58.502 468.82 60.168 470.948 60.168ZM482.033 55.968C482.033 54.078 480.689 52.412 478.575 52.412C476.503 52.412 474.963 54.036 474.963 56.276C474.963 58.516 476.545 60.168 478.673 60.168C480.199 60.168 481.403 59.342 481.865 58.32L480.815 57.76C480.423 58.516 479.737 59.076 478.687 59.076C477.385 59.076 476.279 58.124 476.223 56.654H481.977C482.019 56.416 482.033 56.178 482.033 55.968ZM476.251 55.618C476.419 54.274 477.413 53.476 478.575 53.476C479.667 53.476 480.689 54.386 480.703 55.618H476.251ZM490.647 60.168C492.789 60.168 494.357 58.894 494.889 57.536L493.699 56.962C493.209 58.18 492.117 58.992 490.647 58.992C488.421 58.992 486.853 57.27 486.853 54.792C486.853 52.314 488.421 50.578 490.647 50.578C492.117 50.578 493.209 51.404 493.699 52.622L494.889 52.048C494.357 50.69 492.789 49.402 490.647 49.402C487.679 49.402 485.523 51.67 485.523 54.792C485.523 57.9 487.693 60.168 490.647 60.168ZM499.717 60.168C501.859 60.168 503.539 58.53 503.539 56.276C503.539 54.022 501.873 52.412 499.717 52.412C497.561 52.412 495.895 54.022 495.895 56.276C495.895 58.53 497.575 60.168 499.717 60.168ZM499.717 59.006C498.275 59.006 497.169 57.844 497.169 56.29C497.169 54.736 498.275 53.574 499.717 53.574C501.159 53.574 502.265 54.736 502.265 56.29C502.265 57.844 501.159 59.006 499.717 59.006ZM508.287 52.412C507.377 52.412 506.579 52.79 506.145 53.434V52.58H504.969V60H506.173V55.506C506.173 54.344 506.915 53.574 508.021 53.574C509.141 53.574 509.855 54.33 509.855 55.506V60H511.059V55.114C511.059 53.56 509.897 52.412 508.287 52.412ZM513.504 60H514.708V53.728H516.472V52.58H514.708V51.908C514.708 50.998 515.268 50.536 516.08 50.536C516.206 50.536 516.514 50.55 516.668 50.578V49.514C516.5 49.472 516.164 49.444 515.94 49.444C514.596 49.444 513.504 50.312 513.504 51.908V52.58H512.062V53.728H513.504V60ZM517.736 51.208H518.94V49.57H517.736V51.208ZM517.736 60H518.94V52.58H517.736V60ZM523.842 52.496C522.946 52.496 522.232 52.818 521.84 53.504V52.58H520.678V60H521.882V55.576C521.882 54.344 522.596 53.644 523.66 53.644H524.444V52.496H523.842ZM533.675 52.412C532.639 52.412 531.771 52.888 531.295 53.728C530.847 52.916 529.993 52.412 528.971 52.412C528.089 52.412 527.333 52.79 526.913 53.434V52.58H525.736V60H526.941V55.506C526.941 54.33 527.641 53.574 528.691 53.574C529.755 53.574 530.441 54.316 530.441 55.506V60H531.645V55.506C531.645 54.33 532.345 53.574 533.395 53.574C534.459 53.574 535.145 54.316 535.145 55.506V60H536.349V55.114C536.349 53.546 535.215 52.412 533.675 52.412ZM540.911 52.412C539.539 52.412 538.335 53.196 537.915 54.204L538.993 54.764C539.315 54.036 540.015 53.56 540.911 53.56C541.891 53.56 542.591 54.12 542.591 54.974V55.184L540.015 55.758C538.517 56.094 537.635 56.85 537.635 57.942C537.635 59.244 538.699 60.168 540.281 60.168C541.233 60.168 542.115 59.706 542.619 58.964V60H543.795V54.974C543.795 53.462 542.605 52.412 540.911 52.412ZM540.351 59.09C539.469 59.09 538.909 58.642 538.909 57.942C538.909 57.34 539.455 56.878 540.295 56.696L542.591 56.164V56.808C542.591 58.11 541.653 59.09 540.351 59.09ZM548.477 60.084C548.687 60.084 548.981 60.07 549.219 60.014V59.034C549.065 59.062 548.855 59.076 548.701 59.076C547.427 59.076 547.343 58.208 547.343 57.732V53.728H549.135V52.58H547.343V50.172H546.139V51.488C546.139 52.146 545.719 52.58 545.075 52.58H544.697V53.728H546.139V57.732C546.139 59.23 546.979 60.084 548.477 60.084ZM550.535 51.208H551.739V49.57H550.535V51.208ZM550.535 60H551.739V52.58H550.535V60ZM556.879 60.168C559.021 60.168 560.701 58.53 560.701 56.276C560.701 54.022 559.035 52.412 556.879 52.412C554.723 52.412 553.057 54.022 553.057 56.276C553.057 58.53 554.737 60.168 556.879 60.168ZM556.879 59.006C555.437 59.006 554.331 57.844 554.331 56.29C554.331 54.736 555.437 53.574 556.879 53.574C558.321 53.574 559.427 54.736 559.427 56.29C559.427 57.844 558.321 59.006 556.879 59.006ZM565.449 52.412C564.539 52.412 563.741 52.79 563.307 53.434V52.58H562.131V60H563.335V55.506C563.335 54.344 564.077 53.574 565.183 53.574C566.303 53.574 567.017 54.33 567.017 55.506V60H568.221V55.114C568.221 53.56 567.059 52.412 565.449 52.412Z" fill="#141115"/>
<path d="M257.064 60H258.394V55.996H260.788C262.93 55.996 264.372 54.736 264.372 52.79C264.372 50.83 262.916 49.57 260.788 49.57H257.064V60ZM258.394 54.834V50.732H260.788C262.118 50.732 263 51.558 263 52.776C263 54.008 262.118 54.834 260.788 54.834H258.394ZM268.298 52.412C266.926 52.412 265.722 53.196 265.302 54.204L266.38 54.764C266.702 54.036 267.402 53.56 268.298 53.56C269.278 53.56 269.978 54.12 269.978 54.974V55.184L267.402 55.758C265.904 56.094 265.022 56.85 265.022 57.942C265.022 59.244 266.086 60.168 267.668 60.168C268.62 60.168 269.502 59.706 270.006 58.964V60H271.182V54.974C271.182 53.462 269.992 52.412 268.298 52.412ZM267.738 59.09C266.856 59.09 266.296 58.642 266.296 57.942C266.296 57.34 266.842 56.878 267.682 56.696L269.978 56.164V56.808C269.978 58.11 269.04 59.09 267.738 59.09ZM277.992 52.566L275.71 58.306L273.428 52.566H272.056L275.024 59.93L274.702 60.7C274.478 61.218 274.198 61.89 273.106 61.89C272.812 61.89 272.476 61.848 272.336 61.806V62.884C272.616 62.996 272.98 63.038 273.316 63.038C275.052 63.038 275.584 61.862 275.962 60.924L279.392 52.566H277.992ZM288.473 52.412C287.437 52.412 286.569 52.888 286.093 53.728C285.645 52.916 284.791 52.412 283.769 52.412C282.887 52.412 282.131 52.79 281.711 53.434V52.58H280.535V60H281.739V55.506C281.739 54.33 282.439 53.574 283.489 53.574C284.553 53.574 285.239 54.316 285.239 55.506V60H286.443V55.506C286.443 54.33 287.143 53.574 288.193 53.574C289.257 53.574 289.943 54.316 289.943 55.506V60H291.147V55.114C291.147 53.546 290.013 52.412 288.473 52.412ZM299.504 55.968C299.504 54.078 298.16 52.412 296.046 52.412C293.974 52.412 292.434 54.036 292.434 56.276C292.434 58.516 294.016 60.168 296.144 60.168C297.67 60.168 298.874 59.342 299.336 58.32L298.286 57.76C297.894 58.516 297.208 59.076 296.158 59.076C294.856 59.076 293.75 58.124 293.694 56.654H299.448C299.49 56.416 299.504 56.178 299.504 55.968ZM293.722 55.618C293.89 54.274 294.884 53.476 296.046 53.476C297.138 53.476 298.16 54.386 298.174 55.618H293.722ZM304.115 52.412C303.205 52.412 302.407 52.79 301.973 53.434V52.58H300.797V60H302.001V55.506C302.001 54.344 302.743 53.574 303.849 53.574C304.969 53.574 305.683 54.33 305.683 55.506V60H306.887V55.114C306.887 53.56 305.725 52.412 304.115 52.412ZM311.698 60.084C311.908 60.084 312.202 60.07 312.44 60.014V59.034C312.286 59.062 312.076 59.076 311.922 59.076C310.648 59.076 310.564 58.208 310.564 57.732V53.728H312.356V52.58H310.564V50.172H309.36V51.488C309.36 52.146 308.94 52.58 308.296 52.58H307.918V53.728H309.36V57.732C309.36 59.23 310.2 60.084 311.698 60.084Z" fill="#141115"/>
<path d="M13 20L18 25L28 15" stroke="white" stroke-width="2" stroke-linecap="round" stroke-linejoin="round"/>
<path d="M277 20L282 25L292 15" stroke="white" stroke-width="2" stroke-linecap="round" stroke-linejoin="round"/>
</svg>
