<svg width="44" height="15" viewBox="0 0 44 15" fill="none" xmlns="http://www.w3.org/2000/svg">
<path d="M22.565 5.37636C22.5402 7.33535 24.3109 8.42848 25.6447 9.07847C27.0151 9.7453 27.4754 10.173 27.47 10.7694C27.4598 11.682 26.3769 12.0848 25.3635 12.1005C23.5956 12.1279 22.5676 11.6231 21.7504 11.2414L21.1135 14.2216C21.9334 14.5994 23.4517 14.9289 25.026 14.9434C28.7217 14.9434 31.1394 13.1191 31.1525 10.2907C31.167 6.70101 26.1874 6.50232 26.2214 4.89785C26.2331 4.41133 26.6974 3.89215 27.7146 3.76015C28.2181 3.69347 29.6081 3.64243 31.184 4.36812L31.8025 1.48476C30.955 1.17618 29.8658 0.880694 28.5097 0.880694C25.0313 0.880694 22.5848 2.72979 22.565 5.37636ZM37.7458 1.12906C37.071 1.12906 36.5023 1.52269 36.2485 2.12675L30.9695 14.7316H34.6624L35.3973 12.7006H39.91L40.3363 14.7316H43.5912L40.7508 1.12906H37.7458ZM38.2625 4.80361L39.3282 9.9115H36.4094L38.2625 4.80361ZM18.0876 1.12923L15.1766 14.7314H18.6957L21.6053 1.12889H18.0876V1.12923ZM12.8817 1.12889L9.21888 10.3875L7.73722 2.51528C7.56337 1.63649 6.8768 1.12906 6.11437 1.12906H0.126833L0.0429688 1.52405C1.27218 1.79078 2.66879 2.22099 3.51492 2.68131C4.03273 2.9625 4.18039 3.20831 4.3505 3.8765L7.1568 14.7316H10.8756L16.577 1.12906H12.8817" fill="url(#paint0_linear_3772_39468)"/>
<defs>
<linearGradient id="paint0_linear_3772_39468" x1="20.0638" y1="15.2255" x2="20.4709" y2="0.782894" gradientUnits="userSpaceOnUse">
<stop stop-color="#222357"/>
<stop offset="1" stop-color="#254AA5"/>
</linearGradient>
</defs>
</svg>
