<svg width="203" height="129" viewBox="0 0 203 129" fill="none" xmlns="http://www.w3.org/2000/svg">
<g clip-path="url(#clip0_725_52859)">
<path d="M172.117 100.054L185.503 128.989L187.011 128.985L175.437 98.1759L172.117 100.054Z" fill="#DCA86E"/>
<path d="M158.271 100.673L144.88 128.989L143.373 128.985L154.95 100.029L158.271 100.673Z" fill="#DCA86E"/>
<path d="M124.248 122.789L117.453 128.729L109.432 123.082C109.432 123.082 112.161 122.17 116.842 123.416L121.632 119.388L124.248 122.789Z" fill="url(#paint0_linear_725_52859)"/>
<path d="M163.644 89.947C163.644 89.947 148.604 97.6544 143.276 99.9601C137.947 102.266 119.889 120.365 119.889 120.365C119.889 120.365 122.211 125.062 123.376 124.247C133.58 116.951 142.982 110.421 149.04 108.144C161.004 103.631 164.341 102.649 167.404 99.1006C167.388 99.1047 165.591 94.8354 163.644 89.947Z" fill="#0447CA"/>
<path d="M140.212 119.766L138.253 128.59L128.443 128.786C128.443 128.786 130.101 126.435 134.615 124.667L136.094 118.589L140.212 119.766Z" fill="url(#paint1_linear_725_52859)"/>
<path d="M164.007 87.9917C164.007 87.9917 150.018 89.503 144.921 92.2487C139.825 94.9943 135.76 120.174 135.76 120.174C135.76 120.174 139.723 122.325 140.212 120.989C142.625 114.432 145.411 108.02 148.555 101.781C153.582 100.865 165.225 106.531 173.637 98.2411C173.637 98.237 166.361 92.6968 164.007 87.9917Z" fill="#0559FD"/>
<path d="M188.11 70.984C187.43 72.1763 186.884 73.44 186.481 74.7522L180.725 74.2226C180.725 74.2226 183.698 69.7415 183.47 66.9918L188.11 70.984Z" fill="#FEC4AD"/>
<path d="M186.873 61.6878C186.547 61.5982 185.317 61.2601 185.068 61.362C184.726 61.5045 185.125 61.9567 184.881 62.2337C184.473 62.6778 183.703 62.69 183.194 62.9588C182.63 63.2412 182.157 63.6776 181.83 64.2176C181.361 65.0323 183.052 66.8777 183.337 68.2546C183.895 71.1347 187.537 71.5625 190.494 70.6785C191.588 70.2681 192.508 69.4962 193.101 68.4909C193.782 67.4073 193.399 65.5945 192.829 64.515C192.426 63.8566 191.879 63.2992 191.228 62.8855C190.694 62.5189 190.547 60.9872 189.904 60.8772C189.904 60.8935 187.61 61.8793 186.873 61.6878Z" fill="#FEC4AD"/>
<path d="M195.13 69.4197C195.13 69.4197 195.032 68.939 195.867 68.1528C198.625 65.5538 195.676 60.4698 192.666 59.598C191.13 59.1459 190.144 59.6225 189.594 58.0949C189.631 58.2048 188.971 58.5022 188.905 58.5389C188.735 58.6493 188.595 58.8015 188.499 58.9812C188.404 59.1609 188.356 59.362 188.36 59.5655C188.311 61.7856 190.299 63.855 191.802 65.2686C192.478 65.896 190.812 65.4642 190.144 65.5904C189.704 65.676 188.571 66.8737 188.327 67.0529C188.958 67.8391 189.521 67.1303 190.364 67.5091C191.15 67.8595 190.653 68.8616 189.92 68.9797C189.627 69.0524 189.32 69.0374 189.036 68.9368C188.752 68.8361 188.504 68.6541 188.323 68.4135C187.802 68.6946 187.72 70.3811 187.309 70.8211C187.875 71.1307 191.162 71.7091 191.936 71.701C192.643 71.7141 193.335 71.4993 193.91 71.0884C194.486 70.6776 194.913 70.0925 195.13 69.4197Z" fill="url(#paint2_linear_725_52859)"/>
<path d="M187.924 71.8802C189.146 85.3234 173.637 98.237 173.637 98.237C173.637 98.237 163.522 98.6158 164.007 87.9876C164.007 87.9876 164.793 86.0566 171.059 80.3779C175.242 76.5894 178.184 70.927 181.125 71.041C189.166 71.3506 187.924 71.8802 187.924 71.8802Z" fill="#EF3B60"/>
<path d="M150.348 98.9906C150.348 98.9906 159.676 102.474 172.113 97.7685C184.55 93.0634 187.94 71.0248 187.94 71.0248L189.361 71.7458C189.361 71.7458 187.98 96.0535 171.604 101.333C159.09 105.37 150.348 100.563 150.348 100.563V98.9906Z" fill="url(#paint3_linear_725_52859)"/>
<path d="M186.428 85.3234C186.428 85.3234 187.919 90.4847 188 93.0634C188.082 95.642 186.982 104.368 186.982 104.368L189.353 104.665C189.353 104.665 191.459 94.2529 191.508 90.8554C191.556 87.458 189.597 81.9544 189.597 81.9544L186.428 85.3234Z" fill="#F8D2A1"/>
<path d="M186.281 85.5474C188.001 93.0675 187.288 103.142 187.288 103.142L189.858 103.305C192.677 97.41 192.416 84.3416 190.925 78.8625C190.05 75.6321 189.532 72.3772 187.345 71.8721C185.98 71.5584 183.169 72.5605 182.794 73.9089C181.976 76.8134 185.434 81.8526 186.281 85.5474Z" fill="#EF3B60"/>
<path d="M185.923 105.667C185.357 106.747 185.108 107.541 185.434 107.81C185.662 108.002 186.033 106.951 186.481 106.588C186.638 107.233 186.594 107.911 186.355 108.531C186.037 109.309 186.066 109.977 186.656 110.034C187.247 110.091 188.212 110.034 188.424 109.562C188.636 109.089 189.125 107.024 189.39 106.344C189.655 105.663 189.304 104.877 189.39 104.49C189.475 104.103 187.642 103.447 187.642 103.447C187.54 103.602 186.97 104.38 186.97 104.38C186.774 104.624 186.559 104.851 186.326 105.06C186.159 105.239 186.023 105.444 185.923 105.667Z" fill="#F8D2A1"/>
<path d="M171.885 0V17.9242" stroke="#D4DBE2" stroke-width="0.101842" stroke-miterlimit="10"/>
<path d="M175.058 24.8169C175.01 25.4371 174.779 26.0293 174.395 26.5184C174.011 27.0075 173.49 27.3717 172.899 27.5648C172.307 27.7579 171.672 27.7713 171.073 27.6033C170.474 27.4353 169.938 27.0935 169.534 26.621C169.129 26.1485 168.874 25.5667 168.8 24.949C168.726 24.3313 168.837 23.7056 169.118 23.151C169.4 22.5964 169.84 22.1378 170.382 21.8332C170.925 21.5286 171.545 21.3917 172.166 21.4398C172.577 21.4712 172.979 21.5836 173.347 21.7704C173.716 21.9572 174.043 22.2148 174.312 22.5285C174.581 22.8422 174.785 23.2057 174.913 23.5984C175.041 23.9911 175.09 24.4052 175.058 24.8169Z" fill="#F9DC5C"/>
<path d="M186.73 25.9086H157.041L170.036 16.4577H173.739L186.73 25.9086Z" fill="#D8D8D8"/>
<path d="M32.1328 0V17.9242" stroke="#D4DBE2" stroke-width="0.101842" stroke-miterlimit="10"/>
<path d="M35.3059 24.8169C35.2581 25.4371 35.0274 26.0293 34.6431 26.5184C34.2587 27.0075 33.7379 27.3717 33.1466 27.5648C32.5553 27.7579 31.9199 27.7713 31.321 27.6033C30.722 27.4353 30.1863 27.0935 29.7817 26.621C29.377 26.1485 29.1216 25.5667 29.0477 24.949C28.9738 24.3313 29.0847 23.7056 29.3664 23.151C29.6481 22.5964 30.088 22.1378 30.6304 21.8332C31.1728 21.5286 31.7933 21.3917 32.4136 21.4398C33.2448 21.5043 34.0165 21.8963 34.5589 22.5296C35.1012 23.1628 35.3699 23.9856 35.3059 24.8169Z" fill="#F9DC5C"/>
<path d="M46.974 25.9086H17.2891L30.2801 16.4577H33.983L46.974 25.9086Z" fill="#D8D8D8"/>
<path d="M0 128.847H203" stroke="#A6AEBA" stroke-width="0.203684" stroke-miterlimit="10"/>
<path d="M73.7949 66.4826C74.2476 65.4397 74.8411 64.4638 75.5588 63.5821C76.6954 62.2174 78.4104 59.9443 78.4104 59.9443C78.4104 59.9443 77.5957 61.5738 76.4632 63.3907C75.7294 64.546 74.8304 65.5877 73.7949 66.4826Z" fill="#50CC85"/>
<path d="M74.957 63.8184C75.8846 62.9822 76.5794 61.9197 76.9735 60.7346C77.7312 58.6366 78.4197 57.0438 78.4197 57.0438C77.5403 58.2999 76.7599 59.6224 76.0854 60.9994C75.3929 62.6207 74.957 63.8184 74.957 63.8184Z" fill="#50CC85"/>
<path d="M73.8752 66.1852C74.2574 64.7743 74.5217 63.334 74.6655 61.8793C74.7958 59.9647 74.7795 58.7629 74.7795 58.7629C74.7795 58.7629 73.9648 62.2337 73.7 63.7084C73.5382 64.535 73.5986 65.3897 73.8752 66.1852Z" fill="#50CC85"/>
<path d="M73.326 67.778C73.4317 66.2032 73.2692 64.6218 72.8453 63.1014C72.4452 61.9293 72.1961 60.7109 72.1039 59.4758C71.9156 60.9065 71.9362 62.357 72.165 63.7817C72.4538 65.1404 72.8418 66.4761 73.326 67.778Z" fill="#50CC85"/>
<path d="M73.5176 67.2159C73.5176 67.2159 75.2733 65.7208 76.1573 65.3664C76.9169 64.9955 77.6283 64.5331 78.2756 63.9895C78.2756 63.9895 76.7562 65.9367 75.9048 66.3237C75.0534 66.7107 73.5176 67.2159 73.5176 67.2159Z" fill="#50CC85"/>
<path d="M72.9195 69.326C72.9746 68.2064 72.7638 67.0896 72.3043 66.0671C71.9005 65.1463 71.5774 64.1922 71.3389 63.2155C71.3389 63.2155 71.2941 65.8104 71.8074 66.78C72.3206 67.7495 72.9195 69.326 72.9195 69.326Z" fill="#50CC85"/>
<path d="M73.0781 68.3442C73.6799 67.9485 74.352 67.672 75.0579 67.5295C75.4751 67.4926 75.8859 67.4022 76.28 67.2606C76.0942 67.5502 75.8459 67.7946 75.5534 67.9757C75.2609 68.1569 74.9315 68.2703 74.5895 68.3076C73.3999 68.4705 73.0781 68.3442 73.0781 68.3442Z" fill="#50CC85"/>
<path d="M72.418 70.6133C72.6379 69.766 72.915 68.4542 73.2042 67.5825C73.7862 66.0393 74.5089 64.5529 75.3632 63.1422C74.4385 65.1994 73.7623 66.3522 73.2938 68.1243C73.1105 68.829 72.7927 69.8026 72.6176 70.4422C72.585 70.6296 72.4465 70.7762 72.418 70.6133Z" fill="#50CC85"/>
<path d="M72.8665 67.1751C72.772 65.9709 72.513 64.7853 72.0965 63.6514C71.4244 61.8834 70.5078 59.0114 70.5078 59.0114C70.5078 59.0114 70.7767 60.922 71.2737 63.1503C71.6056 64.5624 72.1422 65.9183 72.8665 67.1751Z" fill="#77E6A6"/>
<path d="M72.6053 64.0873C71.9629 62.9257 71.6318 61.6179 71.6439 60.2906C71.6113 57.9238 71.4688 56.0784 71.4688 56.0784C71.9192 57.6459 72.2461 59.2463 72.4464 60.865C72.5931 62.7348 72.6053 64.0873 72.6053 64.0873Z" fill="#77E6A6"/>
<path d="M72.8828 66.8451C72.9879 65.2939 73.2223 63.7541 73.5835 62.2419C74.1131 60.2906 74.5489 59.0685 74.5489 59.0685C74.5489 59.0685 74.1823 62.8448 73.9257 64.4131C73.799 65.3017 73.4392 66.1408 72.8828 66.8451Z" fill="#77E6A6"/>
<path d="M72.918 68.6416C73.358 67.0226 74.0687 65.4896 75.02 64.1076C75.8205 63.0712 76.487 61.9379 77.0039 60.7346C76.698 62.2357 76.1766 63.6846 75.4559 65.0364C74.6981 66.2979 73.85 67.5028 72.918 68.6416Z" fill="#77E6A6"/>
<path d="M72.8812 68.0306C72.8812 68.0306 71.6591 65.9204 70.8688 65.2564C70.2338 64.6198 69.6784 63.9085 69.2148 63.1381C69.2148 63.1381 70.0703 65.6271 70.7914 66.3074C71.5124 66.9877 72.8812 68.0306 72.8812 68.0306Z" fill="#77E6A6"/>
<path d="M72.7676 70.3363C73.0967 69.1921 73.6945 68.1432 74.5111 67.2769C75.2361 66.4899 75.8904 65.6407 76.4665 64.739C76.4665 64.739 75.6151 67.3625 74.7596 68.1609C73.9041 68.9594 72.7676 70.3363 72.7676 70.3363Z" fill="#77E6A6"/>
<path d="M72.9395 69.2934C72.4701 68.6906 71.891 68.1819 71.2326 67.7943C70.8227 67.6139 70.438 67.3811 70.0879 67.1018C70.175 67.4559 70.3402 67.786 70.5714 68.0679C70.8026 68.3499 71.0939 68.5765 71.4241 68.7313C72.5769 69.3057 72.9395 69.2934 72.9395 69.2934Z" fill="#77E6A6"/>
<path d="M72.8222 71.7987C72.8955 70.874 73.0666 69.4604 73.0789 68.4787C73.0269 66.7342 72.8141 64.9983 72.4434 63.2929C72.6633 65.676 72.9444 67.0733 72.7978 68.996C72.7407 69.766 72.7244 70.8536 72.6756 71.5543C72.647 71.7621 72.7367 71.9576 72.8222 71.7987Z" fill="#50CC85"/>
<path d="M71.5335 67.5377C71.0787 66.4959 70.4854 65.5202 69.7696 64.6372C68.6289 63.2725 66.918 60.9994 66.918 60.9994C66.918 60.9994 67.7327 62.6289 68.8693 64.4457C69.6004 65.6018 70.4981 66.6437 71.5335 67.5377Z" fill="#50CC85"/>
<path d="M70.3561 64.8735C69.4226 64.0384 68.7209 62.976 68.3192 61.7897C67.5615 59.6917 66.873 58.0989 66.873 58.0989C67.7527 59.3556 68.5344 60.678 69.2113 62.0545C69.9324 63.6758 70.3561 64.8735 70.3561 64.8735Z" fill="#50CC85"/>
<path d="M71.4496 67.2403C71.0674 65.8293 70.8031 64.3891 70.6593 62.9344C70.533 61.0198 70.5452 59.818 70.5452 59.818C70.5452 59.818 71.36 63.2888 71.6288 64.7635C71.7882 65.5905 71.7264 66.4449 71.4496 67.2403Z" fill="#50CC85"/>
<path d="M72.012 68.8453C71.9126 67.2653 72.082 65.6799 72.513 64.1565C72.9068 62.9888 73.1518 61.7762 73.2422 60.5472C73.4305 61.9779 73.41 63.4283 73.1811 64.8531C72.8895 66.2106 72.4987 67.5449 72.012 68.8453Z" fill="#50CC85"/>
<path d="M71.8069 68.2872C71.8069 68.2872 70.0552 66.7922 69.1671 66.4378C68.4081 66.0658 67.6969 65.6035 67.0488 65.0609C67.0488 65.0609 68.5724 67.0081 69.4238 67.3951C70.2752 67.7821 71.8069 68.2872 71.8069 68.2872Z" fill="#50CC85"/>
<path d="M72.4138 70.3811C72.3557 69.2617 72.5652 68.1445 73.0248 67.1222C73.4312 66.2024 73.7543 65.248 73.9903 64.2706C73.9903 64.2706 74.0392 66.8655 73.5218 67.8351C73.1095 68.6644 72.7397 69.5142 72.4138 70.3811Z" fill="#50CC85"/>
<path d="M72.2507 69.3994C71.6485 69.0045 70.9766 68.728 70.2709 68.5846C69.8536 68.5484 69.4428 68.458 69.0488 68.3158C69.2336 68.6054 69.481 68.8499 69.7729 69.0311C70.0649 69.2123 70.3938 69.3257 70.7353 69.3627C71.9249 69.5256 72.2507 69.3994 72.2507 69.3994Z" fill="#50CC85"/>
<path d="M72.9178 71.6684C72.7019 70.8211 72.4208 69.5093 72.1315 68.6335C71.5512 67.0968 70.8298 65.6172 69.9766 64.2135C70.9054 66.2708 71.5816 67.4236 72.046 69.1957C72.2293 69.9004 72.5511 70.874 72.7222 71.5136C72.7385 71.6969 72.877 71.8313 72.9178 71.6684Z" fill="#50CC85"/>
<path d="M75.1348 77.5834H70.3808L68.9102 69.2119H76.7724L75.1348 77.5834Z" fill="#D8D8D8"/>
<path d="M129.434 79.885L137.271 128.891L138.783 128.887L132.578 79.8728L129.434 79.885Z" fill="#DCA86E"/>
<path d="M75.3996 79.9054L65.191 128.965L63.1582 128.969L71.163 79.9176L75.3996 79.9054Z" fill="#DCA86E"/>
<path d="M143.67 77.0212H59.332V80.7975H143.67V77.0212Z" fill="#DCA86E"/>
<path d="M147.711 77.0212H55.2871V79.5265H147.711V77.0212Z" fill="#F3BA7A"/>
<path d="M121.865 75.6973H118.586L115.307 54.7707H117.8L121.865 75.6973Z" fill="#A6AEBA"/>
<path d="M120.923 75.6973H108.119L104.84 54.7707H117.643L120.923 75.6973Z" fill="#D8D8D8"/>
<path d="M121.865 75.2247H107.949V76.7849H121.865V75.2247Z" fill="#D8D8D8"/>
<path d="M139.411 75.2247H121.865V76.7849H139.411V75.2247Z" fill="#A6AEBA"/>
<path d="M113.893 66.2504C114.263 67.8554 114.003 69.5826 113.31 70.1163C112.618 70.6499 111.758 69.7822 111.387 68.1813C111.017 66.5803 111.277 64.849 111.97 64.3154C112.662 63.7817 113.522 64.6494 113.893 66.2504Z" fill="#A6AEBA"/>
<path d="M93.9749 76.7116H92.1621C91.7986 76.7121 91.4469 76.5827 91.1705 76.3466C90.8941 76.1105 90.7112 75.7834 90.6548 75.4243L89.9297 70.7518H96.2072L95.4781 75.4243C95.4234 75.7834 95.2415 76.111 94.9656 76.3472C94.6897 76.5835 94.3381 76.7128 93.9749 76.7116Z" fill="#A6AEBA"/>
<path d="M95.6596 75.7176H95.4599H95.3744L95.3092 75.6647C95.2603 75.6321 94.2012 74.8011 94.2012 73.6278C94.2012 72.4546 95.0159 71.424 96.0017 71.424C96.2759 71.4141 96.549 71.4644 96.8016 71.5714C97.0543 71.6783 97.2805 71.8394 97.4642 72.0432C97.6396 72.2718 97.7609 72.5372 97.8187 72.8195C97.8766 73.1017 97.8696 73.3935 97.7982 73.6727C97.5579 74.9559 96.7839 75.7176 95.6596 75.7176ZM95.5944 75.1433C96.7391 75.1799 97.1016 74.3 97.2238 73.5464C97.2783 73.3487 97.2876 73.1414 97.2509 72.9397C97.2142 72.738 97.1326 72.5471 97.012 72.3813C96.8813 72.2434 96.7221 72.1355 96.5456 72.0652C96.369 71.9948 96.1793 71.9637 95.9895 71.9739C95.3133 71.9739 94.7674 72.7072 94.7674 73.6034C94.797 73.9019 94.8854 74.1916 95.0273 74.4558C95.1692 74.7201 95.3619 74.9537 95.5944 75.1433Z" fill="#A6AEBA"/>
<path d="M89.3079 77.1231H97.2598L98.5267 75.7176H88.041L89.3079 77.1231Z" fill="#D8D8D8"/>
<path d="M47.1693 46.5745H9.12109V128.879H47.1693V46.5745Z" fill="#B6BFCC"/>
<path d="M42.7898 50.1715H13.5V58.7996H42.7898V50.1715Z" fill="#D8D8D8"/>
<path d="M31.649 53.4386H24.6423C24.4623 53.4386 24.3164 53.5845 24.3164 53.7645V55.2066C24.3164 55.3866 24.4623 55.5325 24.6423 55.5325H31.649C31.829 55.5325 31.9749 55.3866 31.9749 55.2066V53.7645C31.9749 53.5845 31.829 53.4386 31.649 53.4386Z" fill="white"/>
<path d="M42.7898 61.1501H13.5V69.7782H42.7898V61.1501Z" fill="#D8D8D8"/>
<path d="M31.649 64.4213H24.6423C24.4623 64.4213 24.3164 64.5672 24.3164 64.7472V66.1893C24.3164 66.3693 24.4623 66.5152 24.6423 66.5152H31.649C31.829 66.5152 31.9749 66.3693 31.9749 66.1893V64.7472C31.9749 64.5672 31.829 64.4213 31.649 64.4213Z" fill="white"/>
<path d="M42.7898 72.1328H13.5V80.7608H42.7898V72.1328Z" fill="#D8D8D8"/>
<path d="M31.649 75.404H24.6423C24.4623 75.404 24.3164 75.5499 24.3164 75.7299V77.1719C24.3164 77.3519 24.4623 77.4978 24.6423 77.4978H31.649C31.829 77.4978 31.9749 77.3519 31.9749 77.1719V75.7299C31.9749 75.5499 31.829 75.404 31.649 75.404Z" fill="white"/>
<path d="M42.7898 83.2417H13.5V125.543H42.7898V83.2417Z" fill="#D8D8D8"/>
<path d="M31.649 86.5088H24.6423C24.4623 86.5088 24.3164 86.6547 24.3164 86.8347V88.2768C24.3164 88.4568 24.4623 88.6027 24.6423 88.6027H31.649C31.829 88.6027 31.9749 88.4568 31.9749 88.2768V86.8347C31.9749 86.6547 31.829 86.5088 31.649 86.5088Z" fill="white"/>
</g>
<defs>
<linearGradient id="paint0_linear_725_52859" x1="113.157" y1="119.219" x2="122.69" y2="126.163" gradientUnits="userSpaceOnUse">
<stop stop-color="#343A44"/>
<stop offset="0.3" stop-color="#232D3E"/>
<stop offset="0.64" stop-color="#182439"/>
<stop offset="1" stop-color="#142138"/>
</linearGradient>
<linearGradient id="paint1_linear_725_52859" x1="3839.17" y1="3214.13" x2="4179.18" y2="3214.13" gradientUnits="userSpaceOnUse">
<stop stop-color="#343A44"/>
<stop offset="0.3" stop-color="#232D3E"/>
<stop offset="0.64" stop-color="#182439"/>
<stop offset="1" stop-color="#142138"/>
</linearGradient>
<linearGradient id="paint2_linear_725_52859" x1="-2912.65" y1="-1170.2" x2="-3112.28" y2="-1397.04" gradientUnits="userSpaceOnUse">
<stop stop-color="#343A44"/>
<stop offset="0.3" stop-color="#232D3E"/>
<stop offset="0.64" stop-color="#182439"/>
<stop offset="1" stop-color="#142138"/>
</linearGradient>
<linearGradient id="paint3_linear_725_52859" x1="14549.1" y1="6885.52" x2="18285.5" y2="6885.52" gradientUnits="userSpaceOnUse">
<stop stop-color="#343A44"/>
<stop offset="0.3" stop-color="#232D3E"/>
<stop offset="0.64" stop-color="#182439"/>
<stop offset="1" stop-color="#142138"/>
</linearGradient>
<clipPath id="clip0_725_52859">
<rect width="203" height="128.989" fill="white"/>
</clipPath>
</defs>
</svg>
