<svg width="127" height="99" viewBox="0 0 127 99" fill="none" xmlns="http://www.w3.org/2000/svg">
<path d="M52.1974 29.6058C52.2404 30.0719 52.2507 30.5404 52.2284 31.0079C52.2165 31.2445 52.1911 31.4802 52.1522 31.7139C52.1307 31.8337 52.1018 31.9522 52.0657 32.0685C52.0468 32.1294 52.024 32.189 51.9974 32.2469L51.9647 32.3199C51.9568 32.3401 51.9506 32.361 51.946 32.3822C51.9195 32.5779 51.9637 32.7766 52.0706 32.9426C52.179 33.1339 52.308 33.3128 52.4552 33.4762L52.5669 33.6017L52.6247 33.6629L52.654 33.6931C52.6704 33.7097 52.6853 33.7277 52.6987 33.7467C52.7526 33.8241 52.7755 33.9188 52.7628 34.0123C52.7565 34.058 52.7417 34.1023 52.7191 34.1426C52.7011 34.1726 52.6813 34.2014 52.6597 34.2288C52.5083 34.4452 52.2823 34.5979 52.0251 34.6576L52.0969 34.5985C51.8982 34.978 51.6774 35.3455 51.4359 35.6992C51.2035 36.0601 50.9298 36.3927 50.6202 36.6902C50.4597 36.8424 50.2738 36.9653 50.0708 37.0532C49.9636 37.0967 49.8499 37.122 49.7343 37.1281C49.6753 37.1302 49.6161 37.127 49.5577 37.1183L49.3969 37.0896C49.1811 37.0515 48.9691 36.9946 48.7633 36.9195C48.6549 36.8783 48.5515 36.8253 48.4548 36.7614C48.4012 36.726 48.3523 36.684 48.3091 36.6365C48.284 36.6093 48.2623 36.5793 48.2444 36.5469C48.2337 36.5284 48.2248 36.509 48.2178 36.4889C48.2067 36.4592 48.2013 36.4277 48.202 36.3961L48.4306 36.525C48.131 36.7713 47.8809 37.0723 47.6935 37.4119C47.5989 37.581 47.5223 37.7595 47.465 37.9446C47.408 38.129 47.3666 38.3178 47.3413 38.5091L47.3399 38.5184C47.3339 38.5561 47.3163 38.591 47.2895 38.6182C47.2628 38.6455 47.2282 38.6637 47.1906 38.6704C47.153 38.677 47.1142 38.6718 47.0797 38.6553C47.0453 38.6389 47.0168 38.6122 46.9982 38.5788C46.7805 38.1805 46.6032 37.7614 46.4691 37.3278C46.3322 36.8972 46.2392 36.4539 46.1914 36.0046C46.1398 35.555 46.1521 35.1003 46.2279 34.654C46.3011 34.2103 46.4553 33.7839 46.6827 33.396C46.6851 33.392 46.6889 33.3891 46.6933 33.388C46.6978 33.3868 46.7025 33.3875 46.7065 33.3898C46.71 33.392 46.7127 33.3954 46.714 33.3994C46.7153 33.4033 46.7152 33.4076 46.7137 33.4115C46.6326 33.6147 46.5664 33.8235 46.5154 34.0363C46.4678 34.2477 46.4348 34.4621 46.4166 34.678C46.3872 35.1085 46.4079 35.5409 46.4781 35.9666C46.5505 36.3919 46.6597 36.81 46.8045 37.2164C46.9453 37.6216 47.117 38.0154 47.318 38.3944L46.9749 38.464C47.033 38.0327 47.1777 37.6175 47.4001 37.2434C47.5093 37.0574 47.6367 36.8826 47.7805 36.7218C47.9239 36.5571 48.0866 36.4101 48.2651 36.2842L48.4937 36.4131C48.4936 36.3839 48.4922 36.399 48.4932 36.3978C48.4944 36.4029 48.4964 36.4077 48.4989 36.4123C48.5057 36.4268 48.5145 36.4403 48.525 36.4525C48.5515 36.4848 48.5821 36.5136 48.6158 36.5383C48.6935 36.5952 48.7769 36.6435 48.8648 36.6827C49.0513 36.7682 49.2449 36.8372 49.4434 36.8891C49.8261 37.0452 50.2261 36.8668 50.5409 36.5991C50.8547 36.3208 51.1245 35.9966 51.341 35.6374C51.5607 35.2793 51.75 34.9036 51.9071 34.514C51.9126 34.5003 51.9212 34.4882 51.9322 34.4784C51.9432 34.4685 51.9562 34.4613 51.9704 34.4573L51.979 34.4549C52.1743 34.3896 52.3388 34.2546 52.4409 34.0757C52.4536 34.0563 52.4653 34.0362 52.4758 34.0156C52.4804 34.0044 52.4827 33.9924 52.4828 33.9803C52.4831 33.9571 52.4756 33.9345 52.4615 33.9161C52.4577 33.9117 52.4537 33.9076 52.4495 33.9037L52.4167 33.8729L52.3519 33.8103C52.3092 33.768 52.267 33.7252 52.2263 33.6809C52.0587 33.5019 51.915 33.302 51.7985 33.0863C51.6594 32.8529 51.6114 32.5762 51.6638 32.3096C51.6733 32.2745 51.6855 32.2402 51.7004 32.207L51.7427 32.1228C51.7668 32.0762 51.7878 32.0281 51.8055 31.9788C51.8431 31.8748 51.8743 31.7685 51.8988 31.6607C51.9513 31.4388 51.9923 31.2142 52.0216 30.9881C52.0852 30.5324 52.1282 30.0701 52.1628 29.6064C52.163 29.6018 52.1651 29.5975 52.1685 29.5944C52.1719 29.5913 52.1765 29.5898 52.1811 29.59C52.1852 29.5903 52.1891 29.5921 52.1921 29.5949C52.1951 29.5978 52.197 29.6017 52.1974 29.6058Z" fill="#020202"/>
<path d="M47.1566 34.1526C47.2165 34.4749 47.3179 34.7881 47.4583 35.0843C47.5284 35.2278 47.6154 35.3623 47.7175 35.4851C47.8242 35.6109 47.9423 35.7267 48.0701 35.8309C47.903 35.7824 47.7491 35.6963 47.6203 35.5792C47.4889 35.4617 47.3814 35.3201 47.3035 35.162C47.2265 35.0055 47.1741 34.838 47.148 34.6656C47.1199 34.4955 47.1228 34.3216 47.1566 34.1526Z" fill="#020202"/>
<path d="M46.6968 33.4037C45.3884 36.4813 47.1567 38.4866 47.1567 38.4866C43.9211 37.7904 42.2412 39.7374 42.2412 39.7374C41.3694 37.8719 39.3597 38.1466 39.3597 38.1466C39.3597 38.1466 38.1275 36.8719 39.6996 35.8309C40.8001 35.1022 40.9429 34.4256 40.9295 34.0851C40.9109 33.7777 40.9472 33.4694 41.0366 33.1746C41.176 32.7475 41.387 32.3471 41.6605 31.9906C42.1097 31.4143 42.4473 30.7592 42.6561 30.059C43.1036 28.5164 44.1624 26.0605 46.3455 26.2069C46.898 26.1546 47.4552 26.1832 47.9994 26.2919C48.747 26.4506 49.4581 26.7485 50.0956 27.17C50.8867 27.6588 51.5864 28.2819 52.1634 29.0112C52.2303 29.6377 52.0911 30.2689 51.7668 30.8091C51.1778 31.7617 50.1735 32.0509 49.6148 32.1386C49.4249 32.1718 49.2297 32.1556 49.0479 32.0917C48.8661 32.0277 48.7038 31.9181 48.5765 31.7733C48.4866 31.6668 48.4189 31.5433 48.3775 31.4102C48.3262 31.2152 48.2359 31.0326 48.1121 30.8735C47.9883 30.7144 47.8336 30.582 47.6572 30.4843C47.2212 30.2685 46.6875 30.3337 46.4343 31.6456C46.2236 32.7376 46.4188 33.212 46.6968 33.4037ZM66.4965 52.5503C65.9049 52.6536 65.3079 52.7228 64.7084 52.7576C64.1122 52.7973 63.516 52.8183 62.9197 52.8206C62.3234 52.8237 61.727 52.8047 61.1307 52.7687C60.5309 52.7376 59.9335 52.6716 59.3414 52.5711C59.9329 52.4672 60.53 52.3977 61.1296 52.3631C61.7257 52.3236 62.3219 52.3012 62.9182 52.3008C63.5144 52.2987 64.1106 52.3162 64.707 52.3534C65.3068 52.3848 65.9043 52.4505 66.4965 52.5503Z" fill="#020202"/>
<path d="M52.9538 52.6092C51.7875 52.7065 50.6178 52.7571 49.4477 52.7922L49.0087 52.8055L48.7892 52.8114C48.7123 52.8157 48.6352 52.8141 48.5585 52.8067C48.2204 52.7791 47.895 52.6658 47.6128 52.4776C47.3448 52.3 47.1063 52.0815 46.906 51.8301C46.7046 51.5859 46.5308 51.3202 46.3876 51.0379C46.3823 51.0275 46.3779 51.0167 46.3745 51.0055L46.371 50.9934C46.0295 49.8472 45.6806 48.6996 45.3242 47.5506C45.142 46.9774 44.9529 46.4059 44.7569 45.8361L44.4433 44.9891L44.1061 44.1512C43.8718 43.5964 43.6303 43.0446 43.373 42.5C43.1165 41.955 42.8446 41.4172 42.5729 40.8799C42.2985 40.3437 42.0188 39.8107 41.7337 39.2806C41.6212 39.0549 41.4501 38.8636 41.2384 38.7266C41.0267 38.5896 40.782 38.5121 40.53 38.502L38.7456 38.5685C38.1401 38.5865 37.5339 38.5981 36.9253 38.5962C36.3158 38.5857 35.7078 38.5678 35.0833 38.4959C34.9268 38.4753 34.7693 38.4507 34.6054 38.4146C34.5191 38.396 34.4338 38.3729 34.35 38.3452C34.2368 38.3104 34.1305 38.2563 34.0358 38.1854C33.995 38.1527 33.9589 38.1146 33.9282 38.0723C33.8839 38.0101 33.8549 37.9383 33.8436 37.8628C33.8388 37.8223 33.8386 37.7814 33.843 37.7409L33.8553 37.6825C33.8628 37.6454 33.8738 37.6091 33.8881 37.5741C33.9108 37.5184 33.9389 37.465 33.9721 37.4148C33.999 37.3716 34.0291 37.3305 34.0621 37.2917C34.1742 37.1598 34.2979 37.0383 34.4319 36.9287C34.9226 36.5516 35.4378 36.2072 35.9739 35.898L37.5341 34.9861C37.7904 34.8334 38.045 34.6771 38.284 34.5112C38.3453 34.47 38.3999 34.4279 38.4605 34.384L38.6608 34.2443C38.7306 34.2026 38.803 34.165 38.8737 34.1258C38.9462 34.09 39.0221 34.061 39.0961 34.0298C39.3958 33.922 39.713 33.8714 40.0313 33.8808C40.342 33.8841 40.6497 33.942 40.9403 34.0517C40.9484 34.0549 40.955 34.0609 40.9588 34.0686C40.9627 34.0763 40.9635 34.0852 40.9611 34.0936C40.9587 34.1019 40.9533 34.109 40.946 34.1135C40.9386 34.118 40.9299 34.1197 40.9214 34.1181L40.9182 34.1175C40.3454 33.9937 39.7478 34.0628 39.2184 34.3141C39.1575 34.3497 39.0942 34.3798 39.0352 34.4172L38.8638 34.5368L38.7057 34.6727C38.649 34.7234 38.5892 34.7796 38.5299 34.8289C38.292 35.0321 38.0437 35.2094 37.7964 35.3879C37.3018 35.7434 36.7941 36.0699 36.3001 36.4103C35.8072 36.7297 35.3341 37.079 34.8837 37.456C34.7862 37.5398 34.6962 37.6318 34.6146 37.7312C34.5988 37.7499 34.5848 37.77 34.5728 37.7913C34.5643 37.804 34.5572 37.8175 34.5517 37.8317C34.546 37.8397 34.5547 37.8316 34.5528 37.8313C34.5529 37.8301 34.5525 37.8289 34.5517 37.8279C34.555 37.8061 34.5549 37.784 34.5512 37.7623C34.5464 37.7089 34.5216 37.6592 34.4818 37.6232C34.4732 37.6167 34.5211 37.6433 34.5737 37.6573C34.6336 37.675 34.6944 37.6896 34.7558 37.701C34.887 37.7265 35.0281 37.7453 35.1709 37.7603C35.7448 37.8255 36.3435 37.847 36.9391 37.8621C37.5359 37.8827 38.1357 37.8901 38.7358 37.8911L39.6366 37.8872L40.0872 37.8818C40.2393 37.8818 40.3768 37.8709 40.5673 37.8836C40.9211 37.9092 41.2609 38.032 41.5492 38.2385C41.8375 38.445 42.0632 38.7272 42.2013 39.0539C42.4435 39.6084 42.6772 40.1662 42.9094 40.7241L43.6002 42.3996L44.3003 44.0696C45.2246 46.2954 46.3238 48.471 46.9662 50.8216L46.9496 50.7772C47.1758 51.2576 47.5129 51.6775 47.9331 52.0022C48.1305 52.1499 48.3624 52.2446 48.6067 52.2774C48.6748 52.2873 48.7435 52.2918 48.8122 52.2909L49.0299 52.2993L49.4653 52.3176C50.6267 52.3658 51.7885 52.4296 52.9538 52.5399C52.963 52.5407 52.9715 52.5451 52.9775 52.5521C52.9834 52.5592 52.9864 52.5683 52.9856 52.5775C52.9848 52.5856 52.9812 52.5933 52.9754 52.5991C52.9696 52.6049 52.962 52.6085 52.9538 52.6092Z" fill="#020202"/>
<path d="M60.2859 50.9959C61.2408 50.9694 62.1956 50.954 63.1503 50.9391L64.5823 50.9156L65.2982 50.9059C65.5472 50.8985 65.7963 50.9142 66.0424 50.9528C66.5406 51.0325 67.0186 51.2081 67.4499 51.47C67.5604 51.5372 67.6556 51.6027 67.7564 51.6683C67.8644 51.7383 67.9679 51.8151 68.0661 51.8983C68.4663 52.2427 68.7529 52.7001 68.8881 53.2105C68.9219 53.3378 68.9459 53.4675 68.96 53.5985C68.9694 53.6638 68.9701 53.7298 68.9746 53.7956L68.9801 53.9764L69.0153 55.408L69.0807 58.2715L69.1327 61.1351C69.1687 63.0441 69.1889 64.9534 69.1933 66.8629L69.1867 69.7273L69.1844 70.4434C69.1833 70.5642 69.1855 70.6788 69.1815 70.8048C69.1686 71.4607 68.9096 72.0878 68.4559 72.5617C68.0977 72.9354 67.6339 73.1907 67.1265 73.2933C66.8806 73.336 66.631 73.3535 66.3816 73.3454L65.6649 73.3461L62.7989 73.3424C60.8886 73.3379 58.9784 73.3198 57.0682 73.2882C55.1582 73.252 53.2471 73.2213 51.3371 73.1371C49.4273 73.0571 47.5159 72.967 45.6094 72.7992C45.1324 72.7616 44.6564 72.7115 44.1798 72.6683C43.7036 72.6265 43.2264 72.5743 42.7487 72.5198L42.0324 72.4394L41.8534 72.4186L41.7639 72.4082C41.7411 72.4053 41.7184 72.4011 41.6961 72.3956L41.6399 72.3816C41.503 72.3435 41.3706 72.2909 41.2449 72.2247C40.9955 72.0939 40.774 71.9157 40.5929 71.7001C40.4164 71.4847 40.2798 71.2394 40.1897 70.9759C40.0394 70.4738 39.9936 69.9462 40.0552 69.4257C40.0871 68.9714 40.0899 68.4935 40.0898 68.0224C40.0848 67.0761 40.0503 66.1268 39.9966 65.1789C39.9407 64.2309 39.8712 63.2836 39.7881 62.337C39.7045 61.3906 39.5942 60.4468 39.4793 59.5039C39.363 58.561 39.2288 57.6207 39.0765 56.6829C38.9196 55.7462 38.7526 54.811 38.5635 53.8805C38.1947 52.0173 37.7264 50.1751 37.1606 48.362C36.8792 47.4553 36.5667 46.5591 36.2359 45.669C35.8888 44.7861 35.5327 43.9045 35.116 43.0512C34.9201 42.6181 34.6913 42.2022 34.4779 41.7775C34.2421 41.3532 34.0468 40.9077 33.8945 40.4469C33.749 39.9832 33.6586 39.504 33.6253 39.0192C33.6067 38.7731 33.6305 38.5257 33.6957 38.2876C33.7299 38.1656 33.7899 38.0524 33.8716 37.9555C33.9562 37.8599 34.0658 37.7898 34.1881 37.753C34.1924 37.7515 34.197 37.7508 34.2015 37.751C34.2061 37.7512 34.2106 37.7523 34.2147 37.7542C34.2188 37.7562 34.2226 37.7589 34.2256 37.7623C34.2287 37.7657 34.2311 37.7696 34.2326 37.7739C34.2341 37.7782 34.2348 37.7828 34.2346 37.7874C34.2343 37.7919 34.2332 37.7964 34.2312 37.8005C34.2292 37.8046 34.2265 37.8083 34.2231 37.8114C34.2197 37.8144 34.2157 37.8168 34.2114 37.8183L34.209 37.8191C34.1044 37.8604 34.0121 37.9281 33.9412 38.0155C33.8703 38.1029 33.8231 38.2071 33.8043 38.318C33.7581 38.545 33.7493 38.778 33.7782 39.0078C33.8337 39.4746 33.9437 39.9333 34.1061 40.3744C34.2755 40.8131 34.4859 41.2348 34.7345 41.634C34.9734 42.05 35.2149 42.4655 35.4297 42.8946C36.3153 44.5999 37.0663 46.3717 37.6759 48.194C38.8832 51.8416 39.7327 55.5979 40.2126 59.4099C40.455 61.3132 40.6336 63.2248 40.7181 65.1425C40.7605 66.1015 40.7838 67.0613 40.7769 68.0244C40.7708 68.5077 40.7633 68.9853 40.7223 69.483C40.7096 69.6155 40.7079 69.7093 40.6997 69.8238C40.6918 69.932 40.692 70.0406 40.7004 70.1488C40.7087 70.3585 40.7446 70.5662 40.8072 70.7666C40.9259 71.1492 41.1887 71.4707 41.5401 71.6631C41.625 71.7095 41.7147 71.7467 41.8074 71.7743L41.838 71.7823C41.8444 71.7847 41.8511 71.786 41.858 71.7864L41.9461 71.7977L42.1225 71.8203L42.8277 71.9134C43.2974 71.9772 43.768 72.039 44.242 72.0909C44.7151 72.1441 45.1876 72.2041 45.6615 72.2517C47.5563 72.4491 49.4553 72.6227 51.358 72.7582C55.1632 73.0295 58.9766 73.1494 62.7983 73.1177C63.7525 73.1099 64.7065 73.0874 65.6602 73.0612L66.3752 73.0353C66.6034 73.0353 66.8309 73.012 67.0543 72.9658C67.2689 72.9112 67.475 72.8274 67.6668 72.7168C67.8545 72.6015 68.0252 72.4606 68.174 72.2981C68.4679 71.9716 68.656 71.5638 68.7136 71.1282C68.7283 71.0208 68.7349 70.9125 68.7332 70.8041C68.7333 70.6916 68.7269 70.5674 68.7241 70.4496L68.702 69.7338L68.6164 66.8707C68.5694 64.9618 68.5369 63.0527 68.5189 61.1434L68.4919 58.2795L68.4782 55.4153L68.4738 53.9832L68.4734 53.8061C68.4709 53.7528 68.4726 53.6991 68.4661 53.646C68.4578 53.5393 68.4414 53.4333 68.4169 53.3291C68.3672 53.1197 68.2867 52.9188 68.1781 52.733C68.0678 52.547 67.9308 52.3781 67.7715 52.2319C67.6895 52.1586 67.6029 52.0905 67.5123 52.0282L67.2239 51.8281C66.8456 51.5784 66.4224 51.4045 65.9778 51.3161C65.7534 51.272 65.5253 51.2491 65.2966 51.2476L64.5806 51.2247L63.1487 51.1748C62.1941 51.1423 61.2396 51.1093 60.2852 51.0652C60.2763 51.0648 60.2678 51.0609 60.2616 51.0544C60.2555 51.0479 60.2521 51.0392 60.2521 51.0303C60.2522 51.0213 60.2558 51.0127 60.2621 51.0063C60.2684 50.9999 60.2769 50.9962 60.2859 50.9959L60.2859 50.9959Z" fill="#020202"/>
<path d="M67.1863 54.6382L67.2044 55.1579C67.2045 55.1616 67.2039 55.1653 67.2026 55.1688C67.2013 55.1722 67.1994 55.1754 67.1968 55.1781C67.1943 55.1808 67.1913 55.183 67.1879 55.1846C67.1845 55.1861 67.1809 55.187 67.1772 55.1871C67.1735 55.1872 67.1698 55.1866 67.1663 55.1853C67.1628 55.184 67.1597 55.182 67.157 55.1795C67.1542 55.177 67.1521 55.174 67.1505 55.1706C67.149 55.1672 67.1481 55.1636 67.148 55.1599L67.148 55.1587L67.1517 54.6387C67.1517 54.6342 67.1535 54.6298 67.1567 54.6266C67.1599 54.6234 67.1642 54.6216 67.1688 54.6215C67.1733 54.6214 67.1777 54.6232 67.181 54.6263C67.1843 54.6294 67.1862 54.6337 67.1863 54.6382ZM67.2221 55.6776L67.2375 56.1973C67.2377 56.2035 67.2367 56.2096 67.2345 56.2154C67.2324 56.2212 67.2291 56.2266 67.2248 56.2311C67.2206 56.2356 67.2155 56.2392 67.2099 56.2418C67.2042 56.2443 67.1981 56.2457 67.1919 56.2459C67.1858 56.2461 67.1796 56.2451 67.1738 56.2429C67.168 56.2406 67.1627 56.2373 67.1582 56.2331C67.1537 56.2288 67.1501 56.2237 67.1476 56.218C67.1451 56.2124 67.1437 56.2063 67.1436 56.2001L67.1435 56.1986L67.1447 55.6787C67.1447 55.6685 67.1487 55.6587 67.1558 55.6515C67.163 55.6443 67.1727 55.6401 67.1828 55.64C67.193 55.6399 67.2028 55.6437 67.2102 55.6508C67.2175 55.6578 67.2218 55.6674 67.2221 55.6776ZM67.253 56.717L67.2684 57.2367C67.2689 57.2535 67.2627 57.2699 67.2511 57.2822C67.2396 57.2944 67.2236 57.3016 67.2068 57.3021C67.1899 57.3026 67.1736 57.2964 67.1613 57.2848C67.1491 57.2733 67.1419 57.2573 67.1414 57.2405L67.1414 57.2384L67.1425 56.7185C67.1425 56.704 67.1482 56.6901 67.1584 56.6798C67.1686 56.6695 67.1825 56.6636 67.197 56.6634C67.2115 56.6632 67.2255 56.6687 67.2359 56.6787C67.2464 56.6888 67.2525 56.7025 67.253 56.717ZM67.2838 57.7564L67.2993 58.2761C67.2997 58.2972 67.2918 58.3176 67.2772 58.3329C67.2627 58.3482 67.2427 58.3571 67.2216 58.3577C67.2005 58.3583 67.18 58.3506 67.1646 58.3362C67.1492 58.3218 67.1401 58.3019 67.1392 58.2809L67.1392 58.2783L67.1403 57.7584C67.1404 57.7396 67.1479 57.7216 67.1611 57.7083C67.1744 57.6949 67.1923 57.6873 67.2111 57.687C67.2299 57.6868 67.248 57.6939 67.2616 57.7069C67.2752 57.7198 67.2832 57.7376 67.2838 57.7564H67.2838ZM67.3126 58.7958L67.3251 59.3156C67.3256 59.3398 67.3166 59.3633 67.2998 59.3809C67.2831 59.3985 67.26 59.4087 67.2358 59.4093C67.2115 59.4098 67.188 59.4008 67.1704 59.384C67.1529 59.3673 67.1427 59.3442 67.1421 59.32V59.3181L67.1402 58.7982C67.1401 58.7755 67.149 58.7537 67.1649 58.7375C67.1809 58.7213 67.2025 58.712 67.2252 58.7117C67.2479 58.7114 67.2699 58.72 67.2862 58.7358C67.3026 58.7516 67.3121 58.7731 67.3126 58.7958ZM67.3375 59.8353L67.35 60.3551C67.3507 60.3821 67.3405 60.4084 67.3219 60.428C67.3032 60.4476 67.2775 60.4589 67.2504 60.4596C67.2233 60.4602 67.1971 60.4501 67.1775 60.4314C67.1579 60.4127 67.1466 60.387 67.1459 60.36L67.1459 60.3579L67.144 59.838C67.1439 59.8125 67.1538 59.788 67.1717 59.7698C67.1896 59.7516 67.2139 59.7412 67.2394 59.7408C67.2649 59.7405 67.2896 59.7502 67.3079 59.7679C67.3263 59.7856 67.3369 59.8098 67.3375 59.8353ZM67.3625 60.8748L67.3749 61.3946C67.3753 61.4094 67.3727 61.4241 67.3674 61.4379C67.3621 61.4517 67.3541 61.4643 67.3439 61.475C67.3336 61.4857 67.3214 61.4943 67.3079 61.5003C67.2944 61.5063 67.2798 61.5096 67.265 61.5099C67.2502 61.5103 67.2355 61.5077 67.2217 61.5024C67.2079 61.497 67.1953 61.489 67.1846 61.4788C67.1739 61.4686 67.1653 61.4564 67.1593 61.4429C67.1533 61.4293 67.15 61.4148 67.1497 61.4L67.1496 61.3977L67.1477 60.8778C67.1477 60.8495 67.1587 60.8223 67.1786 60.8022C67.1984 60.782 67.2254 60.7704 67.2536 60.7701C67.2819 60.7697 67.3092 60.7805 67.3296 60.8001C67.35 60.8197 67.3618 60.8466 67.3625 60.8748ZM67.3874 61.9143L67.3999 62.4341C67.4003 62.4503 67.3975 62.4664 67.3917 62.4815C67.3859 62.4967 67.3771 62.5105 67.366 62.5223C67.3548 62.534 67.3414 62.5434 67.3266 62.55C67.3118 62.5566 67.2958 62.5602 67.2796 62.5605C67.2634 62.5609 67.2473 62.5581 67.2322 62.5523C67.217 62.5464 67.2032 62.5376 67.1915 62.5264C67.1798 62.5152 67.1704 62.5018 67.1639 62.487C67.1573 62.4722 67.1538 62.4562 67.1534 62.44L67.1534 62.4375L67.1515 61.9176C67.1514 61.8865 67.1635 61.8566 67.1853 61.8344C67.2071 61.8123 67.2368 61.7996 67.2678 61.7992C67.2989 61.7987 67.3289 61.8106 67.3513 61.8321C67.3737 61.8537 67.3867 61.8832 67.3874 61.9143V61.9143ZM67.4123 62.9538L67.4223 63.4736C67.4229 63.5084 67.4097 63.542 67.3855 63.567C67.3614 63.592 67.3283 63.6065 67.2935 63.6071C67.2587 63.6078 67.2251 63.5946 67.2 63.5705C67.175 63.5464 67.1605 63.5134 67.1597 63.4786V63.4772L67.1553 62.9574C67.1549 62.9234 67.1681 62.8906 67.1919 62.8663C67.2156 62.842 67.248 62.8281 67.282 62.8276C67.316 62.8272 67.3488 62.8402 67.3732 62.8638C67.3976 62.8875 67.4117 62.9198 67.4123 62.9538V62.9538ZM67.4316 63.9934L67.4409 64.5132C67.4415 64.5491 67.4278 64.5837 67.4028 64.6095C67.3779 64.6353 67.3437 64.6502 67.3078 64.6508C67.2719 64.6515 67.2372 64.6379 67.2113 64.613C67.1854 64.5881 67.1705 64.5539 67.1697 64.518V64.5169L67.1647 63.9971C67.1644 63.9618 67.1781 63.9278 67.2027 63.9026C67.2274 63.8774 67.261 63.8629 67.2963 63.8624C67.3316 63.8619 67.3656 63.8754 67.391 63.9C67.4163 63.9245 67.4309 63.9581 67.4316 63.9934ZM67.4503 65.033L67.4596 65.5527C67.4603 65.5898 67.4462 65.6257 67.4204 65.6524C67.3946 65.6791 67.3593 65.6945 67.3222 65.6952C67.2851 65.6958 67.2492 65.6817 67.2225 65.656C67.1958 65.6302 67.1804 65.5949 67.1798 65.5578V65.5566L67.1748 65.0368C67.1743 65.0003 67.1884 64.9651 67.2139 64.939C67.2393 64.9129 67.2741 64.8979 67.3106 64.8974C67.3471 64.8969 67.3823 64.9109 67.4085 64.9363C67.4346 64.9617 67.4497 64.9965 67.4503 65.033ZM67.4689 66.0725L67.4782 66.5923C67.4789 66.6306 67.4644 66.6675 67.4378 66.695C67.4112 66.7225 67.3748 66.7384 67.3366 66.7391C67.2984 66.7397 67.2614 66.7252 67.2339 66.6987C67.2064 66.6721 67.1905 66.6357 67.1898 66.5975V66.5963L67.1848 66.0765C67.1844 66.0389 67.1989 66.0026 67.2252 65.9757C67.2514 65.9488 67.2873 65.9334 67.3249 65.9329C67.3625 65.9324 67.3988 65.9468 67.4258 65.973C67.4528 65.9991 67.4683 66.0349 67.4689 66.0725ZM67.4876 67.1121L67.4969 67.6319C67.4973 67.6514 67.4938 67.6708 67.4866 67.6889C67.4795 67.7071 67.4688 67.7237 67.4553 67.7377C67.4417 67.7517 67.4256 67.763 67.4077 67.7708C67.3898 67.7786 67.3705 67.7827 67.351 67.7831C67.3315 67.7834 67.3122 67.7799 67.294 67.7728C67.2759 67.7657 67.2593 67.755 67.2452 67.7415C67.2312 67.7279 67.22 67.7118 67.2122 67.6939C67.2044 67.676 67.2002 67.6567 67.1999 67.6372V67.636L67.1948 67.1162C67.1945 67.0775 67.2095 67.0402 67.2366 67.0126C67.2636 66.9849 67.3005 66.9691 67.3392 66.9685C67.3779 66.968 67.4152 66.9828 67.443 67.0097C67.4708 67.0366 67.4868 67.0734 67.4876 67.1121ZM67.5063 68.1517L67.5156 68.6715C67.516 68.6916 67.5124 68.7116 67.5051 68.7303C67.4978 68.749 67.4868 68.7661 67.4729 68.7806C67.4589 68.7951 67.4423 68.8067 67.4238 68.8147C67.4054 68.8228 67.3856 68.8271 67.3655 68.8274C67.3454 68.8278 67.3254 68.8242 67.3067 68.8168C67.288 68.8095 67.2709 68.7985 67.2564 68.7845C67.242 68.7705 67.2304 68.7538 67.2224 68.7354C67.2145 68.7169 67.2102 68.6971 67.2099 68.677V68.6757L67.2048 68.1558C67.2044 68.116 67.2198 68.0775 67.2477 68.049C67.2756 68.0205 67.3136 68.0041 67.3535 68.0036C67.3934 68.003 67.4318 68.0183 67.4605 68.0461C67.4891 68.0738 67.5056 68.1118 67.5063 68.1517ZM67.5249 69.1913L67.5314 69.7149C67.5316 69.7352 67.5279 69.7554 67.5203 69.7743C67.5128 69.7932 67.5016 69.8104 67.4874 69.825C67.4732 69.8395 67.4562 69.8511 67.4375 69.8592C67.4188 69.8672 67.3987 69.8714 67.3784 69.8717C67.3581 69.8719 67.3379 69.8682 67.319 69.8606C67.3001 69.8531 67.2829 69.8419 67.2683 69.8277C67.2537 69.8135 67.2421 69.7965 67.2341 69.7778C67.2261 69.7591 67.2218 69.739 67.2216 69.7187L67.2215 69.7116L67.2149 69.1955C67.2146 69.1752 67.2183 69.155 67.2258 69.136C67.2333 69.1171 67.2444 69.0999 67.2586 69.0852C67.2728 69.0706 67.2897 69.0589 67.3084 69.0509C67.3271 69.0428 67.3472 69.0385 67.3675 69.0382C67.3879 69.0379 67.4081 69.0416 67.427 69.0491C67.446 69.0566 67.4632 69.0677 67.4778 69.0819C67.4925 69.0961 67.5041 69.113 67.5122 69.1317C67.5203 69.1504 67.5246 69.1705 67.5249 69.1908V69.1913ZM67.456 70.2666C67.4083 70.4465 67.3386 70.6198 67.2485 70.7825C67.2291 70.8178 67.1966 70.8438 67.158 70.855C67.1194 70.8662 67.0779 70.8617 67.0427 70.8423C67.0075 70.8229 66.9814 70.7904 66.9702 70.7518C66.959 70.7132 66.9636 70.6718 66.983 70.6365C67.06 70.4952 67.1193 70.3449 67.1595 70.1891C67.1646 70.1696 67.1734 70.1513 67.1855 70.1352C67.1976 70.1191 67.2127 70.1056 67.23 70.0954C67.2474 70.0851 67.2665 70.0784 67.2864 70.0756C67.3064 70.0728 67.3266 70.0739 67.3461 70.0789C67.3656 70.0839 67.3839 70.0927 67.4 70.1048C67.4161 70.1169 67.4296 70.1321 67.4399 70.1494C67.4501 70.1667 67.4568 70.1859 67.4596 70.2058C67.4624 70.2257 67.4613 70.246 67.4563 70.2655L67.456 70.2666ZM66.9217 71.2319C66.7949 71.3676 66.652 71.4872 66.4961 71.5881C66.4632 71.6095 66.4231 71.6169 66.3848 71.6087C66.3464 71.6006 66.3129 71.5776 66.2915 71.5447C66.2701 71.5119 66.2626 71.4719 66.2706 71.4335C66.2787 71.3951 66.3017 71.3615 66.3345 71.3401C66.4694 71.2515 66.5929 71.1468 66.7022 71.0281C66.7292 70.9991 66.7665 70.9819 66.8061 70.9803C66.8457 70.9788 66.8843 70.993 66.9135 71.0198C66.9426 71.0467 66.9599 71.084 66.9616 71.1236C66.9633 71.1632 66.9492 71.2018 66.9224 71.2311L66.9217 71.2319ZM65.9965 71.8298C65.8206 71.8893 65.6381 71.9269 65.453 71.9417C65.4148 71.9449 65.3769 71.9327 65.3477 71.908C65.3184 71.8832 65.3002 71.8479 65.297 71.8097C65.2938 71.7715 65.3059 71.7336 65.3307 71.7043C65.3554 71.6751 65.3908 71.6569 65.429 71.6537C65.5901 71.6397 65.7489 71.6059 65.9018 71.553C65.9199 71.5467 65.9391 71.5441 65.9583 71.5452C65.9775 71.5463 65.9963 71.5512 66.0135 71.5596C66.0308 71.568 66.0463 71.5797 66.0591 71.5941C66.0718 71.6084 66.0816 71.6252 66.0879 71.6433C66.0942 71.6615 66.0969 71.6807 66.0957 71.6999C66.0946 71.719 66.0897 71.7378 66.0813 71.7551C66.0729 71.7724 66.0612 71.7878 66.0468 71.8006C66.0324 71.8133 66.0157 71.8231 65.9975 71.8294L65.9965 71.8298ZM64.9248 71.9551L64.405 71.959C64.3687 71.9592 64.3339 71.9452 64.3079 71.9198C64.282 71.8945 64.2671 71.8599 64.2665 71.8236C64.2659 71.7874 64.2797 71.7524 64.3048 71.7262C64.3299 71.7 64.3643 71.6848 64.4006 71.6839L64.9194 71.6696C64.9573 71.6685 64.994 71.6824 65.0216 71.7084C65.0492 71.7343 65.0653 71.7701 65.0665 71.808C65.0676 71.8458 65.0537 71.8826 65.0277 71.9102C65.0018 71.9378 64.966 71.9539 64.9281 71.955L64.9248 71.9551ZM63.8854 71.9611L63.3656 71.9617C63.3322 71.9618 63.3001 71.9487 63.2764 71.9252C63.2526 71.9018 63.2391 71.8699 63.2388 71.8365C63.2384 71.8031 63.2513 71.771 63.2745 71.747C63.2978 71.7231 63.3295 71.7093 63.3629 71.7086L63.8819 71.697C63.8993 71.6965 63.9166 71.6995 63.9328 71.7057C63.949 71.7119 63.9639 71.7213 63.9765 71.7332C63.989 71.7452 63.9992 71.7595 64.0062 71.7754C64.0133 71.7912 64.0171 71.8083 64.0176 71.8257C64.018 71.8431 64.015 71.8603 64.0088 71.8765C64.0025 71.8927 63.9931 71.9076 63.9811 71.9201C63.9692 71.9327 63.9548 71.9428 63.9389 71.9498C63.9231 71.9568 63.906 71.9607 63.8886 71.9611L63.8854 71.9611ZM62.8461 71.961L62.3264 71.9588C62.2959 71.9587 62.2667 71.9465 62.2451 71.925C62.2236 71.9034 62.2114 71.8742 62.2113 71.8438C62.2111 71.8133 62.223 71.784 62.2443 71.7622C62.2657 71.7405 62.2948 71.728 62.3252 71.7276L62.8443 71.7188C62.8763 71.7183 62.9073 71.7304 62.9304 71.7527C62.9535 71.775 62.9668 71.8055 62.9674 71.8375C62.9681 71.8696 62.9559 71.9006 62.9337 71.9237C62.9115 71.9469 62.881 71.9603 62.849 71.9609L62.8461 71.961ZM61.8065 71.9552L61.2865 71.9502C61.2589 71.9499 61.2326 71.9388 61.2132 71.9192C61.1938 71.8996 61.1829 71.8731 61.183 71.8456C61.183 71.818 61.1939 71.7916 61.2133 71.772C61.2327 71.7524 61.259 71.7413 61.2866 71.7411L61.806 71.735C61.8205 71.7346 61.835 71.7371 61.8486 71.7424C61.8622 71.7477 61.8746 71.7556 61.8851 71.7657C61.8956 71.7758 61.904 71.7878 61.9098 71.8012C61.9156 71.8146 61.9187 71.8289 61.919 71.8435C61.9192 71.8581 61.9165 71.8725 61.9111 71.8861C61.9056 71.8996 61.8976 71.9119 61.8874 71.9223C61.8771 71.9327 61.865 71.9409 61.8515 71.9466C61.8381 71.9522 61.8237 71.9552 61.8091 71.9552H61.8065ZM60.767 71.9436L60.2473 71.9357C60.2228 71.9353 60.1994 71.9252 60.1822 71.9077C60.165 71.8902 60.1555 71.8665 60.1556 71.842C60.1557 71.8174 60.1656 71.7939 60.1829 71.7766C60.2003 71.7592 60.2238 71.7494 60.2484 71.7493L60.7676 71.7459C60.7806 71.7457 60.7935 71.7482 60.8056 71.753C60.8176 71.7578 60.8286 71.765 60.8379 71.7741C60.8472 71.7832 60.8546 71.7941 60.8597 71.806C60.8648 71.818 60.8675 71.8308 60.8676 71.8438C60.8677 71.8568 60.8653 71.8697 60.8604 71.8818C60.8555 71.8939 60.8483 71.9048 60.8392 71.9141C60.8301 71.9234 60.8192 71.9307 60.8073 71.9358C60.7953 71.9409 60.7824 71.9435 60.7694 71.9436L60.767 71.9436ZM59.7275 71.9263L59.2077 71.9156C59.1862 71.915 59.1658 71.906 59.151 71.8905C59.1361 71.8751 59.1279 71.8544 59.1281 71.8329C59.1283 71.8114 59.137 71.7909 59.1522 71.7758C59.1675 71.7606 59.188 71.7521 59.2095 71.752L59.729 71.7513C59.7522 71.7513 59.7745 71.7604 59.791 71.7767C59.8074 71.7931 59.8167 71.8153 59.8168 71.8385C59.8169 71.8617 59.8078 71.884 59.7915 71.9005C59.7751 71.917 59.7529 71.9263 59.7297 71.9264L59.7275 71.9263ZM58.6878 71.9034L58.1686 71.8899C58.1501 71.8894 58.1324 71.8816 58.1196 71.8682C58.1067 71.8548 58.0997 71.8368 58.1 71.8183C58.1003 71.7997 58.1079 71.782 58.1212 71.769C58.1345 71.756 58.1524 71.7488 58.1709 71.749L58.6899 71.7512C58.7101 71.7512 58.7295 71.7593 58.7438 71.7735C58.758 71.7878 58.766 71.8072 58.766 71.8274C58.7659 71.8476 58.7579 71.867 58.7436 71.8812C58.7293 71.8955 58.7099 71.9035 58.6897 71.9035L58.6878 71.9034ZM57.6492 71.8775L57.1297 71.8644C57.1125 71.8639 57.0962 71.8566 57.0843 71.8441C57.0725 71.8317 57.066 71.815 57.0664 71.7978C57.0668 71.7806 57.074 71.7642 57.0864 71.7523C57.0988 71.7403 57.1154 71.7338 57.1326 71.7341L57.6518 71.7426C57.6607 71.7427 57.6694 71.7446 57.6776 71.7481C57.6857 71.7516 57.6931 71.7567 57.6993 71.763C57.7055 71.7694 57.7103 71.7769 57.7136 71.7851C57.7169 71.7933 57.7185 71.8021 57.7184 71.811C57.7183 71.8198 57.7164 71.8286 57.7129 71.8367C57.7094 71.8449 57.7043 71.8522 57.698 71.8584C57.6916 71.8646 57.6841 71.8695 57.6759 71.8727C57.6676 71.876 57.6588 71.8776 57.65 71.8775L57.6492 71.8775ZM56.6101 71.8498L56.0905 71.8338C56.0744 71.8333 56.0592 71.8264 56.0482 71.8147C56.0372 71.8031 56.0313 71.7875 56.0317 71.7714C56.0322 71.7554 56.0389 71.7401 56.0506 71.7291C56.0623 71.718 56.0778 71.7121 56.0939 71.7125L56.6133 71.724C56.6215 71.7241 56.6297 71.7259 56.6373 71.7292C56.6449 71.7325 56.6518 71.7373 56.6576 71.7432C56.6633 71.7492 56.6679 71.7562 56.6709 71.7639C56.6739 71.7717 56.6754 71.7799 56.6752 71.7882C56.6751 71.7965 56.6733 71.8046 56.67 71.8122C56.6666 71.8198 56.6618 71.8267 56.6558 71.8324C56.6499 71.8381 56.6428 71.8426 56.6351 71.8456C56.6273 71.8486 56.6191 71.8501 56.6108 71.8499L56.6101 71.8498ZM55.5708 71.8162L55.0512 71.797C55.0363 71.7965 55.0222 71.7901 55.0121 71.7792C55.0019 71.7683 54.9965 71.7538 54.997 71.7389C54.9975 71.724 55.0039 71.71 55.0148 71.6998C55.0257 71.6896 55.0402 71.6842 55.0551 71.6847L55.5744 71.6994C55.5821 71.6995 55.5897 71.7012 55.5968 71.7043C55.6038 71.7074 55.6102 71.7119 55.6155 71.7174C55.6208 71.723 55.6249 71.7295 55.6277 71.7367C55.6305 71.7439 55.6318 71.7516 55.6316 71.7592C55.6314 71.7669 55.6297 71.7745 55.6266 71.7815C55.6235 71.7886 55.619 71.7949 55.6134 71.8002C55.6078 71.8055 55.6012 71.8096 55.594 71.8124C55.5869 71.8151 55.5792 71.8164 55.5715 71.8162L55.5708 71.8162ZM54.5316 71.7762L54.0129 71.7544C53.999 71.7538 53.986 71.7478 53.9766 71.7376C53.9672 71.7274 53.9622 71.7139 53.9628 71.7001C53.9634 71.6863 53.9694 71.6732 53.9796 71.6638C53.9898 71.6544 54.0033 71.6495 54.0171 71.65L54.5357 71.6684C54.55 71.6689 54.5635 71.675 54.5733 71.6855C54.583 71.6959 54.5883 71.7098 54.5878 71.7241C54.5874 71.7384 54.5812 71.7519 54.5708 71.7617C54.5604 71.7715 54.5465 71.7767 54.5322 71.7762L54.5316 71.7762ZM53.4938 71.7343L52.9746 71.7125C52.9673 71.7122 52.9602 71.7104 52.9535 71.7074C52.9469 71.7043 52.941 71.7 52.936 71.6946C52.9311 71.6892 52.9273 71.6829 52.9248 71.6761C52.9222 71.6692 52.9211 71.6619 52.9214 71.6546C52.9217 71.6473 52.9235 71.6402 52.9265 71.6335C52.9296 71.6269 52.934 71.621 52.9393 71.616C52.9447 71.6111 52.951 71.6073 52.9579 71.6048C52.9647 71.6022 52.972 71.6011 52.9793 71.6014L52.9798 71.6015L53.4985 71.6266C53.5128 71.6272 53.5262 71.6335 53.5359 71.644C53.5456 71.6546 53.5506 71.6685 53.55 71.6828C53.5494 71.6971 53.5431 71.7105 53.5326 71.7202C53.522 71.7298 53.5081 71.7349 53.4938 71.7343ZM52.4554 71.689L51.9361 71.6636C51.9205 71.6628 51.9059 71.6559 51.8954 71.6443C51.8849 71.6327 51.8795 71.6175 51.8802 71.6019C51.881 71.5863 51.8879 71.5717 51.8994 71.5612C51.911 71.5507 51.9262 71.5452 51.9418 71.5459L51.9424 71.5459L52.4611 71.5746C52.4762 71.5754 52.4904 71.5822 52.5006 71.5934C52.5107 71.6047 52.516 71.6195 52.5152 71.6346C52.5145 71.6498 52.5078 71.664 52.4965 71.6742C52.4853 71.6843 52.4705 71.6897 52.4554 71.6889L52.4554 71.689ZM51.4168 71.6365L50.8976 71.6074C50.8894 71.607 50.8814 71.6049 50.874 71.6014C50.8667 71.5978 50.8601 71.5929 50.8546 71.5868C50.8491 71.5807 50.8449 71.5736 50.8422 71.5658C50.8395 71.5581 50.8384 71.5499 50.8388 71.5418C50.8393 71.5336 50.8413 71.5256 50.8449 71.5182C50.8484 71.5109 50.8534 71.5043 50.8595 71.4988C50.8656 71.4934 50.8727 71.4892 50.8804 71.4865C50.8882 71.4837 50.8963 71.4826 50.9045 71.483L50.9051 71.4831L51.4237 71.5154C51.4397 71.5164 51.4546 71.5237 51.4653 71.5357C51.4759 71.5477 51.4813 71.5634 51.4804 71.5794C51.4795 71.5954 51.4723 71.6104 51.4604 71.621C51.4485 71.6317 51.4328 71.6373 51.4168 71.6365H51.4168ZM50.3784 71.5765L49.8592 71.545C49.8415 71.5439 49.8249 71.5358 49.8131 71.5225C49.8013 71.5092 49.7953 71.4917 49.7964 71.474C49.7975 71.4562 49.8056 71.4396 49.8189 71.4278C49.8322 71.416 49.8496 71.41 49.8673 71.411L49.8684 71.4111L50.3867 71.4488C50.395 71.4493 50.4032 71.4515 50.4108 71.4552C50.4183 71.459 50.4251 71.4641 50.4306 71.4704C50.4361 71.4767 50.4404 71.4841 50.4431 71.492C50.4458 71.5 50.4469 71.5084 50.4464 71.5168C50.4458 71.5252 50.4436 71.5334 50.4399 71.5409C50.4362 71.5484 50.4311 71.5552 50.4248 71.5607C50.4184 71.5663 50.4111 71.5705 50.4031 71.5732C50.3952 71.5759 50.3868 71.577 50.3784 71.5765H50.3784ZM49.3408 71.513L48.8213 71.4788C48.8114 71.4781 48.8016 71.4755 48.7926 71.4711C48.7836 71.4667 48.7756 71.4605 48.769 71.453C48.7557 71.4378 48.7489 71.4179 48.7503 71.3977C48.7516 71.3775 48.7609 71.3587 48.7761 71.3454C48.7913 71.332 48.8112 71.3253 48.8314 71.3266L48.833 71.3267L49.3512 71.37C49.3701 71.3715 49.3876 71.3804 49.3999 71.3948C49.4122 71.4091 49.4184 71.4278 49.417 71.4467C49.4157 71.4655 49.4069 71.4831 49.3926 71.4955C49.3783 71.508 49.3597 71.5142 49.3408 71.513ZM48.3024 71.4425L47.7836 71.4039C47.7724 71.4031 47.7614 71.4001 47.7514 71.3951C47.7413 71.3901 47.7323 71.3831 47.725 71.3746C47.7176 71.3661 47.712 71.3562 47.7085 71.3456C47.705 71.3349 47.7036 71.3236 47.7044 71.3124C47.7052 71.3012 47.7083 71.2903 47.7133 71.2802C47.7184 71.2702 47.7254 71.2613 47.7339 71.2539C47.7425 71.2466 47.7524 71.241 47.7631 71.2376C47.7738 71.2341 47.785 71.2327 47.7962 71.2336L47.7981 71.2337L48.3154 71.2814C48.3367 71.2832 48.3564 71.2934 48.3702 71.3097C48.384 71.326 48.3907 71.3471 48.389 71.3684C48.3873 71.3897 48.3772 71.4094 48.361 71.4233C48.3448 71.4372 48.3237 71.4441 48.3024 71.4425ZM47.2649 71.3631L46.7464 71.3198C46.7214 71.3177 46.6982 71.3058 46.682 71.2867C46.6659 71.2675 46.6579 71.2427 46.66 71.2177C46.6621 71.1928 46.674 71.1696 46.6932 71.1534C46.7123 71.1372 46.7371 71.1293 46.7621 71.1314L46.7642 71.1316L47.281 71.1838C47.3047 71.1861 47.3265 71.1976 47.3417 71.2159C47.3569 71.2342 47.3642 71.2578 47.3621 71.2815C47.36 71.3052 47.3485 71.327 47.3303 71.3423C47.3121 71.3576 47.2886 71.3651 47.2649 71.3631ZM46.228 71.2747L45.7097 71.2271C45.682 71.2246 45.6564 71.2111 45.6386 71.1897C45.6208 71.1683 45.6122 71.1407 45.6148 71.113C45.6173 71.0852 45.6308 71.0596 45.6522 71.0418C45.6736 71.024 45.7012 71.0154 45.7289 71.018L45.7316 71.0183L46.2477 71.0762C46.2739 71.0791 46.2979 71.0921 46.3144 71.1125C46.331 71.1329 46.3389 71.1591 46.3362 71.1853C46.3336 71.2115 46.3208 71.2355 46.3005 71.2523C46.2802 71.269 46.2542 71.2771 46.228 71.2747ZM45.1917 71.1769L44.6739 71.1239C44.6434 71.1208 44.6154 71.1057 44.5961 71.0819C44.5767 71.0582 44.5676 71.0277 44.5707 70.9972C44.5738 70.9667 44.5889 70.9387 44.6127 70.9194C44.6365 70.9 44.6669 70.8909 44.6974 70.894L44.7004 70.8943L45.2158 70.9577C45.2447 70.9611 45.2711 70.9758 45.2892 70.9985C45.3073 71.0213 45.3156 71.0503 45.3125 71.0792C45.3093 71.1082 45.2948 71.1346 45.2722 71.1529C45.2496 71.1712 45.2206 71.1798 45.1917 71.1769V71.1769ZM44.1563 71.068L43.6383 71.0091C43.6218 71.0073 43.6059 71.0022 43.5913 70.9942C43.5768 70.9862 43.564 70.9754 43.5536 70.9624C43.5433 70.9495 43.5356 70.9346 43.531 70.9186C43.5264 70.9027 43.525 70.886 43.5269 70.8695C43.5288 70.853 43.5339 70.837 43.5419 70.8225C43.55 70.808 43.5608 70.7953 43.5738 70.7849C43.5868 70.7746 43.6018 70.767 43.6177 70.7625C43.6337 70.7579 43.6504 70.7566 43.6669 70.7585L43.6701 70.759L44.1854 70.8282C44.217 70.8322 44.2458 70.8486 44.2654 70.8738C44.285 70.899 44.2938 70.9309 44.29 70.9625C44.2861 70.9942 44.2699 71.0231 44.2449 71.0428C44.2199 71.0626 44.188 71.0717 44.1563 71.068ZM43.1002 70.9168C42.9227 70.8541 42.7566 70.763 42.6084 70.6471C42.5803 70.6252 42.5621 70.5931 42.5577 70.5578C42.5533 70.5224 42.5631 70.4868 42.585 70.4588C42.6069 70.4307 42.639 70.4125 42.6743 70.4081C42.7096 70.4037 42.7452 70.4135 42.7733 70.4354L42.775 70.4367C42.8991 70.5365 43.0386 70.6154 43.188 70.6706C43.2205 70.6823 43.247 70.7065 43.2617 70.7377C43.2764 70.769 43.2782 70.8048 43.2666 70.8374C43.255 70.8699 43.231 70.8965 43.1998 70.9114C43.1686 70.9263 43.1328 70.9282 43.1002 70.9168V70.9168ZM42.2282 70.2342C42.1261 70.0778 42.0469 69.9076 41.9928 69.7289C41.9873 69.7112 41.9854 69.6925 41.9871 69.6741C41.9889 69.6557 41.9942 69.6377 42.0029 69.6213C42.0115 69.605 42.0233 69.5904 42.0376 69.5786C42.0519 69.5668 42.0683 69.5579 42.0861 69.5525C42.1038 69.547 42.1224 69.5451 42.1408 69.5468C42.1593 69.5486 42.1772 69.5539 42.1936 69.5626C42.21 69.5712 42.2245 69.583 42.2363 69.5973C42.2481 69.6116 42.257 69.628 42.2625 69.6457L42.263 69.6476C42.3073 69.8016 42.3732 69.9486 42.4588 70.084C42.4785 70.1146 42.4853 70.1517 42.4777 70.1873C42.47 70.2229 42.4487 70.254 42.4182 70.2738C42.3877 70.2936 42.3506 70.3006 42.315 70.2932C42.2794 70.2858 42.2482 70.2646 42.2282 70.2342ZM41.8919 69.1888C41.8778 69.0083 41.8778 68.8271 41.8918 68.6466C41.895 68.6077 41.9134 68.5715 41.9431 68.5461C41.9727 68.5207 42.0113 68.508 42.0502 68.5109C42.0892 68.5138 42.1254 68.5319 42.1511 68.5614C42.1767 68.5909 42.1897 68.6293 42.1871 68.6683L42.1869 68.6703C42.1719 68.8354 42.1696 69.0015 42.1801 69.1669C42.1828 69.205 42.1703 69.2426 42.1453 69.2715C42.1203 69.3004 42.0849 69.3183 42.0469 69.3212C42.0088 69.3241 41.9711 69.3118 41.9421 69.287C41.913 69.2622 41.895 69.2269 41.8918 69.1888L41.8919 69.1888ZM41.9237 68.1342L41.9345 67.6193L41.9346 67.6156C41.9356 67.5746 41.9528 67.5356 41.9824 67.5072C42.0121 67.4788 42.0518 67.4634 42.0928 67.4643C42.1338 67.4651 42.1729 67.4822 42.2013 67.5118C42.2297 67.5414 42.2452 67.5811 42.2445 67.6221L42.2444 67.6242L42.2264 68.1471C42.2249 68.1869 42.2077 68.2246 42.1786 68.2519C42.1495 68.2792 42.1108 68.2939 42.0709 68.2928C42.031 68.2917 41.9931 68.2749 41.9655 68.2461C41.938 68.2172 41.9229 68.1787 41.9236 68.1388L41.9237 68.1342ZM41.9357 67.1028L41.9296 66.5856L41.9296 66.5836C41.9294 66.5627 41.9332 66.5419 41.941 66.5225C41.9488 66.5031 41.9603 66.4854 41.9749 66.4704C41.9896 66.4554 42.007 66.4435 42.0262 66.4352C42.0455 66.427 42.0661 66.4226 42.0871 66.4224C42.108 66.4221 42.1288 66.426 42.1482 66.4338C42.1676 66.4416 42.1853 66.4531 42.2003 66.4677C42.2152 66.4824 42.2272 66.4998 42.2354 66.519C42.2437 66.5383 42.248 66.5589 42.2483 66.5799L42.2483 66.5811L42.2504 67.1025C42.2506 67.1441 42.2343 67.1841 42.2051 67.2137C42.1758 67.2434 42.136 67.2602 42.0944 67.2605C42.0527 67.2609 42.0127 67.2447 41.9829 67.2156C41.9532 67.1864 41.9362 67.1467 41.9357 67.105L41.9357 67.1028ZM41.9173 66.0683L41.8995 65.5511L41.8994 65.5495C41.898 65.5063 41.9137 65.4642 41.9433 65.4325C41.9728 65.4009 42.0138 65.3823 42.057 65.3808C42.1003 65.3793 42.1424 65.3951 42.174 65.4246C42.2057 65.4541 42.2243 65.495 42.2259 65.5383L42.2259 65.5395L42.2398 66.0601C42.2409 66.1027 42.2251 66.144 42.1958 66.175C42.1665 66.206 42.1261 66.2241 42.0835 66.2254C42.0409 66.2267 41.9995 66.2111 41.9684 66.182C41.9372 66.1529 41.9189 66.1126 41.9173 66.07L41.9173 66.0683ZM41.8767 65.0337L41.8493 64.5168L41.8492 64.5154C41.8481 64.4934 41.8512 64.4714 41.8585 64.4507C41.8658 64.43 41.8771 64.4109 41.8918 64.3945C41.9065 64.3782 41.9243 64.3649 41.9441 64.3554C41.964 64.3459 41.9855 64.3404 42.0074 64.3393C42.0294 64.3381 42.0513 64.3413 42.0721 64.3486C42.0928 64.3559 42.1119 64.3673 42.1282 64.382C42.1445 64.3967 42.1578 64.4145 42.1673 64.4344C42.1767 64.4542 42.1822 64.4757 42.1833 64.4977L42.1834 64.4989L42.207 65.0189C42.209 65.0626 42.1936 65.1054 42.1642 65.1378C42.1348 65.1702 42.0937 65.1896 42.05 65.1917C42.0063 65.1939 41.9635 65.1786 41.931 65.1493C41.8986 65.1199 41.8791 65.0789 41.8768 65.0352L41.8767 65.0337ZM41.8175 63.9998L41.7815 63.4829L41.7814 63.4815C41.7783 63.4362 41.7933 63.3916 41.8231 63.3575C41.8529 63.3233 41.8951 63.3023 41.9403 63.2992C41.9855 63.296 42.0302 63.3109 42.0644 63.3406C42.0987 63.3704 42.1198 63.4124 42.123 63.4577L42.1231 63.459L42.1554 63.9789C42.1582 64.0236 42.1432 64.0676 42.1136 64.1013C42.084 64.1349 42.0423 64.1555 41.9976 64.1584C41.9529 64.1614 41.9089 64.1465 41.8752 64.1171C41.8414 64.0876 41.8207 64.0459 41.8176 64.0013L41.8175 63.9998ZM41.7413 62.9668L41.6971 62.4507L41.697 62.4494C41.695 62.4265 41.6976 62.4034 41.7046 62.3814C41.7115 62.3595 41.7227 62.3392 41.7375 62.3216C41.7675 62.286 41.8103 62.2638 41.8566 62.2599C41.9029 62.2559 41.9489 62.2705 41.9844 62.3004C42.0199 62.3303 42.0421 62.3732 42.0461 62.4195L42.0462 62.4208L42.0867 62.9399C42.0903 62.9856 42.0756 63.0308 42.0459 63.0657C42.0162 63.1006 41.9739 63.1223 41.9282 63.1261C41.8825 63.1298 41.8372 63.1153 41.8022 63.0857C41.7672 63.0561 41.7453 63.0139 41.7414 62.9682L41.7413 62.9668ZM41.6489 61.9348L41.5966 61.4192L41.5965 61.4179C41.5941 61.3945 41.5964 61.3708 41.6031 61.3483C41.6099 61.3257 41.6211 61.3048 41.6359 61.2865C41.6508 61.2683 41.6691 61.2532 41.6898 61.242C41.7106 61.2309 41.7333 61.2239 41.7567 61.2216C41.7801 61.2192 41.8037 61.2214 41.8263 61.2282C41.8488 61.235 41.8698 61.2461 41.888 61.261C41.9063 61.2759 41.9214 61.2942 41.9325 61.3149C41.9437 61.3356 41.9506 61.3583 41.953 61.3818L41.9531 61.3831L42.0017 61.9018C42.0061 61.9485 41.9918 61.995 41.9619 62.0312C41.9321 62.0674 41.8892 62.0902 41.8425 62.0948C41.7958 62.0993 41.7493 62.0852 41.713 62.0555C41.6768 62.0258 41.6537 61.9829 41.649 61.9363L41.6489 61.9348ZM41.5404 60.9039L41.4804 60.3898L41.4802 60.3884C41.4746 60.3402 41.4883 60.2917 41.5185 60.2536C41.5486 60.2156 41.5926 60.191 41.6408 60.1854C41.6891 60.1797 41.7376 60.1935 41.7757 60.2236C41.8138 60.2537 41.8383 60.2977 41.844 60.3459L41.8441 60.3473L41.9006 60.8647C41.9058 60.9123 41.8919 60.9601 41.862 60.9975C41.8321 61.0349 41.7885 61.059 41.7409 61.0644C41.6933 61.0697 41.6455 61.056 41.6079 61.0263C41.5704 60.9965 41.5462 60.953 41.5406 60.9054L41.5404 60.9039ZM41.4176 59.8758L41.3523 59.3619L41.3521 59.3605C41.3459 59.3124 41.3591 59.2638 41.3887 59.2254C41.4184 59.1869 41.4621 59.1619 41.5102 59.1557C41.5583 59.1495 41.607 59.1627 41.6454 59.1923C41.6838 59.222 41.7089 59.2657 41.7151 59.3138L41.7823 59.8303C41.7856 59.8543 41.7841 59.8787 41.7779 59.9022C41.7717 59.9256 41.7609 59.9475 41.7462 59.9668C41.7315 59.986 41.7131 60.0022 41.6921 60.0143C41.6712 60.0264 41.648 60.0342 41.624 60.0374C41.6 60.0405 41.5756 60.0388 41.5522 60.0325C41.5288 60.0262 41.5069 60.0153 41.4878 60.0004C41.4686 59.9856 41.4526 59.9671 41.4406 59.9461C41.4286 59.925 41.4209 59.9018 41.4179 59.8778L41.4178 59.8772L41.4176 59.8758ZM41.2828 58.8485L41.2093 58.3355L41.2091 58.3341C41.2022 58.2864 41.2145 58.238 41.2433 58.1995C41.2721 58.1609 41.3151 58.1354 41.3627 58.1285C41.4103 58.1216 41.4587 58.1339 41.4973 58.1627C41.5359 58.1915 41.5614 58.2344 41.5683 58.2821L41.6437 58.7977C41.6472 58.8214 41.646 58.8455 41.6401 58.8687C41.6342 58.8919 41.6239 58.9137 41.6096 58.9329C41.5953 58.9521 41.5773 58.9683 41.5568 58.9806C41.5362 58.9928 41.5135 59.0009 41.4898 59.0044C41.4661 59.0078 41.442 59.0066 41.4188 59.0007C41.3956 58.9949 41.3738 58.9845 41.3546 58.9702C41.3354 58.9559 41.3192 58.938 41.3069 58.9174C41.2947 58.8969 41.2866 58.8741 41.2831 58.8504L41.2831 58.8499L41.2828 58.8485ZM41.1317 57.8231L41.0498 57.3113L41.0496 57.3098C41.0422 57.2628 41.0537 57.2148 41.0817 57.1763C41.1096 57.1378 41.1517 57.1119 41.1986 57.1043C41.2456 57.0967 41.2937 57.1081 41.3323 57.1358C41.3709 57.1636 41.397 57.2055 41.4048 57.2525L41.4887 57.767C41.4925 57.7904 41.4916 57.8143 41.4862 57.8374C41.4808 57.8605 41.4708 57.8823 41.457 57.9016C41.4431 57.9208 41.4256 57.9372 41.4054 57.9497C41.3852 57.9622 41.3628 57.9705 41.3394 57.9744C41.316 57.9782 41.292 57.9773 41.2689 57.9719C41.2458 57.9665 41.224 57.9565 41.2048 57.9427C41.1855 57.9288 41.1692 57.9113 41.1567 57.8911C41.1442 57.8709 41.1358 57.8485 41.132 57.8251L41.1319 57.8246L41.1317 57.8231ZM40.9637 56.8002L40.8733 56.2906L40.8731 56.2891C40.8649 56.2426 40.8754 56.1947 40.9025 56.1559C40.9295 56.1172 40.9708 56.0908 41.0174 56.0824C41.0639 56.0741 41.1118 56.0846 41.1506 56.1116C41.1894 56.1385 41.2159 56.1798 41.2243 56.2263L41.3167 56.7386C41.3251 56.7854 41.3145 56.8335 41.2874 56.8725C41.2603 56.9115 41.2188 56.9381 41.1721 56.9466C41.1254 56.955 41.0772 56.9445 41.0382 56.9174C40.9992 56.8904 40.9725 56.8489 40.964 56.8022L40.9639 56.8017L40.9637 56.8002ZM40.7785 55.7816L40.6792 55.2733L40.6789 55.2717C40.6699 55.2257 40.6796 55.178 40.7057 55.1391C40.7318 55.1002 40.7723 55.0733 40.8183 55.0642C40.8643 55.0551 40.912 55.0647 40.951 55.0908C40.9899 55.1169 41.0169 55.1574 41.026 55.2034L41.1275 55.7145C41.132 55.7374 41.132 55.7609 41.1274 55.7838C41.1229 55.8067 41.1138 55.8284 41.1009 55.8478C41.0879 55.8672 41.0712 55.8839 41.0518 55.8968C41.0324 55.9098 41.0107 55.9188 40.9878 55.9233C40.9649 55.9279 40.9413 55.9279 40.9185 55.9233C40.8956 55.9187 40.8738 55.9097 40.8544 55.8967C40.8351 55.8838 40.8184 55.8671 40.8055 55.8477C40.7925 55.8283 40.7835 55.8065 40.779 55.7837L40.7788 55.7831L40.7785 55.7816ZM40.5753 54.7658L40.4666 54.2592L40.4663 54.2576C40.4566 54.2122 40.4654 54.1648 40.4906 54.1258C40.5158 54.0869 40.5554 54.0595 40.6008 54.0497C40.6461 54.0399 40.6935 54.0485 40.7326 54.0736C40.7716 54.0987 40.7991 54.1382 40.8091 54.1835L40.9199 54.693C40.9248 54.7156 40.9253 54.7389 40.9212 54.7617C40.9171 54.7845 40.9085 54.8062 40.896 54.8257C40.8835 54.8451 40.8673 54.8619 40.8483 54.8751C40.8293 54.8883 40.8079 54.8976 40.7853 54.9025C40.7627 54.9075 40.7393 54.9079 40.7166 54.9038C40.6938 54.8997 40.6721 54.8911 40.6526 54.8786C40.6332 54.8661 40.6164 54.8499 40.6032 54.8309C40.59 54.8119 40.5806 54.7905 40.5757 54.7679L40.5756 54.7674L40.5753 54.7658ZM40.3531 53.7536L40.2347 53.2492L40.2343 53.2476C40.2238 53.2027 40.2316 53.1556 40.2558 53.1165C40.2801 53.0773 40.3188 53.0494 40.3636 53.0388C40.4084 53.0282 40.4556 53.0358 40.4948 53.06C40.534 53.0841 40.562 53.1228 40.5727 53.1676L40.6934 53.675C40.704 53.72 40.6964 53.7674 40.6721 53.8068C40.6478 53.8462 40.6089 53.8743 40.5639 53.885C40.5189 53.8957 40.4715 53.8881 40.432 53.8639C40.3926 53.8397 40.3644 53.8008 40.3537 53.7558L40.3535 53.7553L40.3531 53.7536ZM40.112 52.7459L39.9861 52.2435L39.9856 52.2418C39.9748 52.1986 39.9815 52.1528 40.0042 52.1145C40.027 52.0762 40.064 52.0484 40.1072 52.0373C40.1503 52.0262 40.1961 52.0326 40.2346 52.0551C40.273 52.0776 40.301 52.1144 40.3124 52.1575L40.4461 52.6616C40.4578 52.7057 40.4514 52.7527 40.4285 52.7922C40.4055 52.8316 40.3678 52.8604 40.3237 52.8721C40.2796 52.8838 40.2326 52.8775 40.1931 52.8546C40.1536 52.8317 40.1248 52.794 40.113 52.7499L40.1127 52.7485L40.112 52.7459ZM39.8548 51.7424L39.718 51.2427L39.7175 51.2409C39.7062 51.1998 39.7117 51.1558 39.7327 51.1186C39.7537 51.0815 39.7886 51.0541 39.8297 51.0426C39.8707 51.031 39.9147 51.0362 39.952 51.057C39.9893 51.0777 40.0169 51.1124 40.0287 51.1534L40.1733 51.6547C40.1794 51.6755 40.1812 51.6974 40.1788 51.7189C40.1764 51.7405 40.1697 51.7614 40.1592 51.7804C40.1487 51.7993 40.1346 51.8161 40.1177 51.8296C40.1007 51.8432 40.0813 51.8532 40.0604 51.8592C40.0396 51.8652 40.0177 51.8671 39.9962 51.8647C39.9746 51.8623 39.9537 51.8556 39.9347 51.8451C39.9158 51.8346 39.899 51.8205 39.8855 51.8036C39.8719 51.7866 39.8619 51.7671 39.8559 51.7463L39.8555 51.745L39.8548 51.7424ZM39.5755 50.7446L39.4273 50.2483L39.4267 50.2465C39.4151 50.2074 39.4193 50.1653 39.4386 50.1293C39.4579 50.0933 39.4906 50.0664 39.5296 50.0545C39.5686 50.0425 39.6108 50.0465 39.6469 50.0655C39.683 50.0845 39.7101 50.1171 39.7223 50.156L39.8785 50.6538C39.891 50.6939 39.8871 50.7372 39.8677 50.7744C39.8483 50.8115 39.8149 50.8395 39.7749 50.852C39.7349 50.8646 39.6915 50.8607 39.6544 50.8413C39.6172 50.8219 39.5893 50.7885 39.5767 50.7485L39.5763 50.7472L39.5755 50.7446ZM39.273 49.7538L39.1126 49.2613L39.112 49.2595C39.0999 49.2224 39.103 49.1821 39.1205 49.1473C39.138 49.1125 39.1686 49.0861 39.2056 49.0738C39.2425 49.0615 39.2829 49.0643 39.3178 49.0816C39.3527 49.0989 39.3793 49.1293 39.3918 49.1662L39.5602 49.6601C39.5666 49.6789 39.5692 49.6987 39.5679 49.7185C39.5667 49.7383 39.5615 49.7576 39.5528 49.7754C39.544 49.7932 39.5318 49.8091 39.517 49.8222C39.5021 49.8353 39.4847 49.8454 39.466 49.8518C39.4472 49.8582 39.4273 49.8608 39.4075 49.8595C39.3877 49.8583 39.3684 49.8531 39.3506 49.8443C39.3328 49.8356 39.3169 49.8234 39.3038 49.8085C39.2907 49.7936 39.2807 49.7763 39.2743 49.7575L39.2739 49.7564L39.273 49.7538ZM38.9458 48.7709L38.7724 48.2828L38.7718 48.281C38.7655 48.2637 38.7627 48.2453 38.7635 48.2269C38.7643 48.2084 38.7688 48.1904 38.7766 48.1737C38.7923 48.1399 38.8209 48.1139 38.8559 48.1011C38.8909 48.0884 38.9295 48.0902 38.9632 48.1059C38.9969 48.1217 39.023 48.1502 39.0357 48.1852L39.2171 48.6745C39.2302 48.7103 39.2287 48.7498 39.2127 48.7844C39.1968 48.819 39.1677 48.8459 39.132 48.8592C39.0963 48.8724 39.0567 48.8709 39.0221 48.8551C38.9874 48.8392 38.9605 48.8103 38.9471 48.7746L38.9467 48.7735L38.9458 48.7709ZM38.5923 47.7973L38.4051 47.3144L38.4044 47.3125C38.3917 47.2797 38.3925 47.2432 38.4066 47.211C38.4207 47.1787 38.447 47.1534 38.4797 47.1404C38.5124 47.1275 38.5489 47.128 38.5813 47.1419C38.6136 47.1558 38.6391 47.1819 38.6523 47.2145L38.8475 47.6985C38.8542 47.7151 38.8576 47.733 38.8575 47.7509C38.8573 47.7689 38.8536 47.7867 38.8466 47.8032C38.8395 47.8197 38.8293 47.8347 38.8165 47.8473C38.8037 47.8599 38.7885 47.8699 38.7718 47.8766C38.7551 47.8833 38.7373 47.8867 38.7193 47.8865C38.7014 47.8863 38.6836 47.8826 38.6671 47.8756C38.6505 47.8686 38.6355 47.8584 38.6229 47.8455C38.6104 47.8327 38.6004 47.8175 38.5937 47.8009L38.5933 47.7998L38.5923 47.7973ZM38.2108 46.8344L38.0109 46.3566L38.0101 46.3548C37.9975 46.3247 37.9973 46.2908 38.0095 46.2606C38.0217 46.2303 38.0454 46.2061 38.0753 46.1932C38.1053 46.1802 38.1391 46.1797 38.1695 46.1915C38.1999 46.2034 38.2244 46.2268 38.2376 46.2566L38.4497 46.7335C38.4566 46.7491 38.4605 46.7659 38.4609 46.7829C38.4614 46.7999 38.4585 46.8169 38.4524 46.8328C38.4463 46.8487 38.4371 46.8633 38.4253 46.8756C38.4136 46.888 38.3996 46.8979 38.384 46.9049C38.3684 46.9118 38.3516 46.9156 38.3346 46.916C38.3175 46.9164 38.3006 46.9135 38.2847 46.9074C38.2688 46.9013 38.2542 46.8921 38.2419 46.8803C38.2295 46.8686 38.2196 46.8545 38.2127 46.8389L38.2118 46.8368L38.2108 46.8344ZM37.8033 45.8822L37.5876 45.4113L37.5867 45.4095C37.5744 45.3826 37.5732 45.352 37.5834 45.3242C37.5935 45.2965 37.6142 45.2738 37.641 45.2612C37.6677 45.2486 37.6983 45.247 37.7262 45.2569C37.7541 45.2667 37.777 45.2871 37.7899 45.3137L38.0177 45.7833C38.0245 45.7972 38.0285 45.8124 38.0294 45.8278C38.0303 45.8433 38.0282 45.8588 38.0231 45.8735C38.018 45.8882 38.0101 45.9017 37.9998 45.9133C37.9895 45.9249 37.977 45.9343 37.9631 45.9411C37.9491 45.9479 37.934 45.9518 37.9185 45.9527C37.903 45.9536 37.8875 45.9515 37.8728 45.9464C37.8582 45.9413 37.8446 45.9334 37.8331 45.9231C37.8215 45.9128 37.812 45.9003 37.8052 45.8864L37.8044 45.8845L37.8033 45.8822ZM37.3635 44.9444L37.1309 44.4816L37.13 44.4799C37.1181 44.4562 37.116 44.4287 37.1242 44.4035C37.1323 44.3783 37.1502 44.3573 37.1737 44.3451C37.1973 44.3329 37.2247 44.3305 37.2501 44.3384C37.2754 44.3464 37.2966 44.3639 37.309 44.3874L37.5537 44.8483C37.5604 44.8607 37.5646 44.8743 37.5661 44.8883C37.5675 44.9023 37.5662 44.9164 37.5621 44.9299C37.5581 44.9434 37.5514 44.9559 37.5424 44.9668C37.5335 44.9777 37.5225 44.9867 37.5101 44.9933C37.4976 44.9999 37.484 45.004 37.47 45.0053C37.456 45.0066 37.4418 45.0051 37.4284 45.0009C37.415 44.9967 37.4025 44.9899 37.3917 44.9809C37.3809 44.9718 37.372 44.9607 37.3655 44.9482L37.3647 44.9466L37.3635 44.9444ZM36.889 44.0229C36.8056 43.8732 36.7244 43.7187 36.6445 43.5619C36.6338 43.541 36.6318 43.5167 36.639 43.4944C36.6461 43.472 36.6617 43.4533 36.6825 43.4424C36.7033 43.4315 36.7275 43.4293 36.75 43.4361C36.7724 43.443 36.7913 43.4584 36.8024 43.4791L36.803 43.4802C36.8837 43.63 36.9667 43.78 37.0551 43.9308C37.0679 43.9526 37.0715 43.9785 37.0651 44.0028C37.0587 44.0272 37.043 44.0481 37.0212 44.0608C36.9995 44.0735 36.9736 44.0771 36.9492 44.0708C36.9249 44.0644 36.904 44.0486 36.8913 44.0269L36.8905 44.0255L36.889 44.0229ZM36.4153 43.0935L36.1936 42.6212C36.1849 42.6028 36.1839 42.5817 36.1907 42.5626C36.1974 42.5434 36.2115 42.5277 36.2298 42.5188C36.2481 42.5099 36.2691 42.5086 36.2884 42.5152C36.3076 42.5217 36.3235 42.5356 36.3326 42.5538L36.3331 42.5548L36.565 43.0197L36.5655 43.0208C36.5704 43.0306 36.5733 43.0413 36.5741 43.0522C36.5749 43.0632 36.5735 43.0741 36.57 43.0845C36.5666 43.095 36.5611 43.1046 36.5539 43.1129C36.5467 43.1211 36.538 43.1279 36.5281 43.1328C36.5183 43.1377 36.5076 43.1406 36.4967 43.1414C36.4858 43.1421 36.4748 43.1407 36.4644 43.1372C36.454 43.1338 36.4444 43.1282 36.4361 43.121C36.4278 43.1138 36.4211 43.1051 36.4162 43.0952L36.4153 43.0935ZM35.9809 42.1457L35.7753 41.6663C35.769 41.6517 35.7687 41.6352 35.7745 41.6204C35.7803 41.6056 35.7916 41.5937 35.8061 41.5872C35.8206 41.5807 35.837 41.5802 35.8519 41.5857C35.8668 41.5912 35.8789 41.6023 35.8856 41.6167L35.8861 41.6178L36.1061 42.0883L36.1066 42.0893C36.1104 42.0975 36.1126 42.1064 36.1131 42.1155C36.1135 42.1245 36.1121 42.1336 36.109 42.1421C36.1059 42.1506 36.1012 42.1584 36.0951 42.1651C36.089 42.1718 36.0816 42.1772 36.0734 42.1811C36.0652 42.1849 36.0563 42.1871 36.0473 42.1875C36.0382 42.1879 36.0292 42.1865 36.0207 42.1834C36.0121 42.1803 36.0043 42.1755 35.9976 42.1694C35.991 42.1633 35.9856 42.1559 35.9818 42.1477L35.9809 42.1457ZM35.5791 41.1834L35.3953 40.6952C35.3912 40.6845 35.3915 40.6726 35.3962 40.6621C35.4008 40.6516 35.4094 40.6434 35.4201 40.6391C35.4307 40.6349 35.4426 40.6351 35.4532 40.6395C35.4637 40.644 35.4721 40.6524 35.4765 40.663L35.4771 40.6644L35.6755 41.1437L35.676 41.1451C35.6787 41.1514 35.68 41.1582 35.68 41.165C35.68 41.1719 35.6787 41.1787 35.676 41.185C35.6734 41.1913 35.6696 41.1971 35.6647 41.2019C35.6599 41.2067 35.6541 41.2106 35.6478 41.2132C35.6415 41.2158 35.6347 41.2172 35.6279 41.2172C35.621 41.2172 35.6142 41.2158 35.6079 41.2132C35.6016 41.2106 35.5958 41.2067 35.591 41.2019C35.5862 41.197 35.5823 41.1913 35.5797 41.185L35.5791 41.1834ZM35.2306 40.1999L35.1024 39.692C35.1007 39.6852 35.1017 39.6779 35.1052 39.6718C35.1088 39.6657 35.1146 39.6613 35.1214 39.6595C35.1282 39.6576 35.1355 39.6585 35.1416 39.662C35.1478 39.6654 35.1523 39.6712 35.1543 39.678L35.1552 39.6814L35.2979 40.1784L35.2988 40.1815C35.3013 40.1905 35.3002 40.2001 35.2956 40.2083C35.2911 40.2165 35.2835 40.2225 35.2745 40.2251C35.2655 40.2277 35.2559 40.2266 35.2477 40.2221C35.2395 40.2175 35.2335 40.21 35.2308 40.201L35.2306 40.1999ZM35.1175 39.1651C35.1377 39.1311 35.1697 39.1058 35.2074 39.0941C35.2096 39.0934 35.2119 39.0932 35.2142 39.0934C35.2164 39.0936 35.2186 39.0942 35.2206 39.0953C35.2227 39.0963 35.2244 39.0978 35.2259 39.0995C35.2274 39.1013 35.2285 39.1033 35.2291 39.1055C35.2304 39.1098 35.2299 39.1145 35.2278 39.1185C35.2257 39.1226 35.2222 39.1256 35.2179 39.1271C35.1887 39.137 35.1642 39.1574 35.1493 39.1844C35.1481 39.1865 35.1464 39.1883 35.1445 39.1898C35.1426 39.1913 35.1404 39.1924 35.138 39.193C35.1356 39.1936 35.1332 39.1938 35.1308 39.1935C35.1283 39.1932 35.126 39.1924 35.1239 39.1911C35.1218 39.1899 35.1199 39.1883 35.1185 39.1863C35.117 39.1844 35.1159 39.1822 35.1153 39.1798C35.1146 39.1775 35.1145 39.175 35.1148 39.1726C35.1151 39.1702 35.1159 39.1679 35.1172 39.1657L35.1175 39.1651ZM51.284 50.9491C50.905 51.0459 50.5184 51.1105 50.1285 51.1424C49.7436 51.1771 49.3589 51.1913 48.9743 51.1882C48.5898 51.1851 48.2054 51.1639 47.8212 51.1223C47.4318 51.0836 47.0465 51.0118 46.6693 50.9075C47.0483 50.8101 47.4349 50.7452 47.8248 50.7135C48.2098 50.6789 48.5945 50.6646 48.979 50.6685C49.3636 50.6722 49.748 50.6934 50.1322 50.735C50.5215 50.7739 50.9068 50.8455 51.284 50.9491ZM41.3426 71.9086C41.4087 72.4502 41.4379 72.9918 41.4595 73.5334C41.4787 74.075 41.4896 74.6166 41.4695 75.1582C41.4447 75.6998 41.3942 76.2414 41.3814 76.7831C41.3805 76.9185 41.3761 77.0539 41.378 77.1893C41.3678 77.3182 41.3857 77.4478 41.4304 77.5692C41.4767 77.6836 41.552 77.784 41.6489 77.8605C41.7458 77.937 41.8609 77.9869 41.983 78.0054C42.1002 78.0206 42.2194 78.0072 42.3303 77.9662C42.4365 77.924 42.531 77.857 42.6061 77.7708C42.6788 77.6867 42.7297 77.586 42.754 77.4775C42.7657 77.4242 42.7713 77.3697 42.7708 77.3151L42.7665 77.1125C42.7545 76.5709 42.74 76.0293 42.7447 75.4877C42.7593 74.4045 42.8028 73.3212 42.9122 72.238C42.9126 72.2337 42.9146 72.2297 42.9178 72.2269C42.921 72.224 42.9252 72.2224 42.9295 72.2224C42.9338 72.2224 42.938 72.224 42.9412 72.2269C42.9444 72.2297 42.9464 72.2337 42.9468 72.238C43.0562 73.3212 43.0997 74.4045 43.1143 75.4877C43.119 76.0293 43.1045 76.5709 43.0925 77.1125L43.088 77.3161C43.086 77.3971 43.0735 77.4774 43.0509 77.5552C42.986 77.7846 42.8339 77.9796 42.6272 78.0985C42.4205 78.2173 42.1754 78.2506 41.9445 78.1912C41.8004 78.1535 41.668 78.0806 41.559 77.9792C41.45 77.8777 41.3679 77.7508 41.32 77.6098C41.2971 77.541 41.282 77.4698 41.2748 77.3976C41.2702 77.3236 41.2718 77.2568 41.2725 77.1893C41.2744 77.0539 41.27 76.9184 41.2691 76.7831C41.2563 76.2414 41.2058 75.6998 41.181 75.1582C41.1608 74.6166 41.1718 74.075 41.1909 73.5334C41.2126 72.9918 41.2418 72.4502 41.3079 71.9086C41.3084 71.9044 41.3105 71.9005 41.3137 71.8976C41.3169 71.8948 41.321 71.8932 41.3252 71.8932C41.3295 71.8932 41.3336 71.8948 41.3368 71.8976C41.34 71.9005 41.342 71.9044 41.3426 71.9086ZM66.0719 73.1216C66.138 73.584 66.1672 74.0464 66.1889 74.5088C66.208 74.9712 66.219 75.4337 66.1988 75.8961C66.1774 76.3585 66.1214 76.8209 66.1108 77.2833C66.1042 77.3917 66.1228 77.5001 66.1651 77.6001C66.2074 77.7001 66.2722 77.789 66.3546 77.8598C66.4503 77.9421 66.5667 77.9968 66.6912 78.0179C66.8157 78.0391 66.9436 78.0258 67.0612 77.9796C67.1787 77.9334 67.2814 77.856 67.3582 77.7558C67.435 77.6556 67.483 77.5363 67.4971 77.4108C67.5057 77.3273 67.4975 77.2016 67.4958 77.0874C67.4838 76.625 67.4693 76.1626 67.474 75.7002C67.4822 74.7731 67.5381 73.8471 67.6415 72.9258C67.642 72.9215 67.644 72.9176 67.6472 72.9148C67.6504 72.912 67.6545 72.9104 67.6588 72.9104C67.6631 72.9104 67.6672 72.912 67.6704 72.9148C67.6736 72.9176 67.6756 72.9215 67.6761 72.9258C67.7795 73.8471 67.8354 74.7731 67.8437 75.7002C67.8483 76.1626 67.8338 76.625 67.8218 77.0874C67.8228 77.2109 67.8156 77.3342 67.8005 77.4567C67.7655 77.6568 67.6641 77.8393 67.5127 77.9746C67.3612 78.11 67.1685 78.1904 66.9658 78.2027C66.839 78.2112 66.712 78.1927 66.5929 78.1485C66.4739 78.1043 66.3655 78.0355 66.275 77.9464C66.1863 77.8604 66.1161 77.7573 66.0686 77.6433C66.021 77.5293 65.9972 77.4068 65.9984 77.2833C65.9877 76.8209 65.9317 76.3585 65.9103 75.8961C65.8902 75.4337 65.9011 74.9712 65.9202 74.5088C65.9419 74.0464 65.9711 73.584 66.0372 73.1216C66.0378 73.1174 66.0399 73.1136 66.0431 73.1109C66.0463 73.1081 66.0504 73.1066 66.0546 73.1066C66.0588 73.1066 66.0628 73.1081 66.066 73.1109C66.0692 73.1136 66.0713 73.1174 66.0719 73.1216ZM42.2268 39.7287C42.3442 39.5357 42.4924 39.3632 42.6654 39.2178C42.8362 39.0699 43.021 38.9388 43.2171 38.8264C43.6142 38.6077 44.0434 38.4532 44.4888 38.3686C44.9317 38.2778 45.3827 38.2326 45.8349 38.2337C46.0597 38.2435 46.285 38.2521 46.5097 38.2663L47.1798 38.344C47.2072 38.3471 47.2329 38.3592 47.2528 38.3782L47.2576 38.3828C47.6164 38.7251 47.979 39.0633 48.3346 39.4088L48.2062 39.3665C48.8131 39.3196 49.4232 39.3949 50.0004 39.5881C50.5713 39.7738 51.106 40.0561 51.5814 40.4227C51.7003 40.5122 51.807 40.6173 51.92 40.7136C51.975 40.7636 52.0331 40.8101 52.0852 40.8629L52.2353 41.0275C52.3328 41.1392 52.4402 41.242 52.5319 41.358L52.7968 41.7138C52.8396 41.7739 52.8874 41.8305 52.927 41.8927L53.0415 42.0821L53.2702 42.4609C53.406 42.722 53.5306 42.9893 53.6613 43.2535L53.6618 43.2547L53.6629 43.2578C53.7733 43.5718 53.9141 43.8743 54.0833 44.1609C54.1673 44.3013 54.2664 44.4321 54.379 44.5509C54.479 44.6675 54.6115 44.7516 54.7596 44.7924C54.7701 44.7944 54.7802 44.7985 54.7892 44.8044C54.7982 44.8103 54.8059 44.8179 54.812 44.8268C54.818 44.8357 54.8223 44.8457 54.8245 44.8562C54.8266 44.8667 54.8267 44.8776 54.8247 44.8882L54.8219 44.8991L54.8209 44.9017C54.6218 45.4719 54.3861 46.0288 54.1153 46.5687C53.8455 47.1111 53.5348 47.6322 53.1859 48.1274C52.833 48.6263 52.428 49.0861 51.9777 49.4991C51.5143 49.9129 50.9849 50.2463 50.4116 50.4856C50.3812 50.4979 50.348 50.5014 50.3156 50.4959C50.2833 50.4903 50.2532 50.4758 50.2286 50.4541L50.2259 50.4516C49.6092 49.9032 49.0204 49.3355 48.454 48.7405C47.8843 48.15 47.3454 47.5293 46.8343 46.8858C46.5809 46.5621 46.334 46.2331 46.1014 45.8934C45.8732 45.5505 45.6572 45.199 45.4633 44.8347C45.2649 44.4714 45.1056 44.0881 44.9882 43.6911C44.8611 43.2949 44.8292 42.8744 44.8953 42.4636C44.8957 42.4614 44.8966 42.4593 44.8979 42.4574C44.8991 42.4555 44.9008 42.4539 44.9027 42.4526C44.9046 42.4513 44.9067 42.4505 44.9089 42.45C44.9112 42.4496 44.9135 42.4496 44.9157 42.45C44.9199 42.451 44.9237 42.4535 44.9262 42.4571C44.9288 42.4607 44.9299 42.465 44.9295 42.4694C44.8993 42.8722 44.9602 43.2767 45.1077 43.6528C45.2488 44.0306 45.4249 44.3944 45.6336 44.7395C46.0599 45.428 46.5378 46.0831 47.0633 46.6993C47.5855 47.32 48.143 47.9108 48.7106 48.4915C49.2817 49.0676 49.867 49.6359 50.4685 50.1744L50.2828 50.1405C50.8192 49.9247 51.3164 49.6221 51.7545 49.2448C52.1928 48.854 52.59 48.4194 52.94 47.948C53.2939 47.4731 53.6138 46.9738 53.8976 46.454C54.1888 45.9363 54.4444 45.3994 54.6625 44.8469L54.7239 44.9561C54.5457 44.9028 54.3879 44.7967 54.2712 44.6518C54.1572 44.5209 54.0571 44.3785 53.9726 44.2268C53.803 43.9302 53.663 43.6176 53.5545 43.2937L53.5561 43.2979C53.4291 43.0366 53.3156 42.7678 53.1777 42.5121L52.9485 42.1413L52.834 41.956C52.7949 41.8949 52.7461 41.8406 52.7022 41.783L52.4323 41.442C52.3393 41.3312 52.2316 41.2335 52.1306 41.1303L51.9771 40.9775C51.9241 40.9287 51.8652 40.8864 51.8096 40.8406C51.6954 40.7527 51.5878 40.6562 51.4689 40.5756C50.9982 40.2478 50.475 40.0027 49.9218 39.8507C49.3782 39.6941 48.8113 39.6345 48.2471 39.6744L48.2397 39.6751C48.2177 39.6769 48.1955 39.674 48.1746 39.6666C48.1537 39.6592 48.1347 39.6474 48.1187 39.6321C47.7614 39.2884 47.4111 38.9374 47.057 38.5903L47.1347 38.6291L46.4841 38.5413C46.2665 38.5236 46.0483 38.5113 45.8303 38.4975C45.3946 38.484 44.9585 38.5098 44.5274 38.5748C44.0965 38.6399 43.677 38.7663 43.2818 38.9501C43.0853 39.0449 42.8984 39.1584 42.7236 39.289C42.5465 39.4177 42.3893 39.5717 42.2568 39.746L42.2556 39.7476C42.253 39.7512 42.2492 39.7537 42.2448 39.7545C42.2404 39.7553 42.2359 39.7544 42.2322 39.7519C42.2285 39.7495 42.2259 39.7457 42.2248 39.7414C42.2238 39.7371 42.2245 39.7325 42.2268 39.7287L42.2268 39.7287Z" fill="#020202"/>
<path d="M45.7617 40.7385C45.8665 40.5559 45.9997 40.3912 46.1564 40.2506C46.3127 40.1068 46.4879 39.9849 46.6772 39.8883C46.868 39.7912 47.0741 39.7274 47.2865 39.6999C47.4968 39.6716 47.7108 39.6877 47.9145 39.7471C47.7112 39.7561 47.5092 39.7848 47.3114 39.8328C47.1186 39.8819 46.9319 39.9525 46.7547 40.0432C46.3955 40.2317 46.0618 40.4654 45.7617 40.7385ZM50.6801 50.1672C51.2895 50.9323 51.9745 51.634 52.7247 52.2617C53.4563 52.896 54.3028 53.384 55.2183 53.6993C55.67 53.8445 56.1452 53.9025 56.6186 53.8702C57.0891 53.831 57.5471 53.6991 57.9664 53.4822C58.8106 53.056 59.4612 52.3002 59.9328 51.47C60.3976 50.6188 60.6585 49.6714 60.6952 48.7023L60.729 45.7604L60.7298 45.0243C60.7222 44.7753 60.7388 44.5261 60.7796 44.2803C60.8157 44.0336 60.8716 43.7902 60.9468 43.5525C61.0382 43.3212 61.1419 43.095 61.2574 42.8747C61.479 42.4352 61.7104 42.0026 61.9204 41.5621C62.1402 41.1343 62.3056 40.6808 62.4128 40.212C62.414 40.2055 62.4158 40.199 62.4181 40.1928L62.4193 40.1894L62.9815 38.6776L63.2527 37.9201C63.2741 37.8702 63.2882 37.8174 63.2944 37.7635C63.2983 37.7176 63.2928 37.6713 63.2781 37.6276C63.2657 37.5874 63.2437 37.5509 63.2141 37.5211C63.1845 37.4913 63.1481 37.4691 63.108 37.4563C62.9749 37.4066 62.7654 37.5799 62.6219 37.7768C62.4699 37.9854 62.3385 38.2081 62.2292 38.4419C61.9937 38.9433 61.6964 39.4132 61.3443 39.8408C61.1609 40.0631 60.9449 40.2562 60.7036 40.4136C60.5714 40.4979 60.4256 40.5586 60.2726 40.5931C60.0926 40.6348 59.9034 40.6038 59.746 40.5069C59.6122 40.4006 59.5111 40.2588 59.4542 40.0976C59.3974 39.9364 59.3872 39.7625 59.4248 39.5958C59.45 39.4469 59.4952 39.3022 59.5592 39.1655L59.6059 39.0685C59.6193 39.0421 59.6315 39.0152 59.6429 38.9881C59.6657 38.9343 59.6844 38.8789 59.699 38.8223C59.7281 38.7126 59.738 38.5987 59.7284 38.4855C59.7268 38.4496 59.7182 38.4144 59.7031 38.3818C59.7005 38.3767 59.7113 38.3912 59.72 38.3908C59.7302 38.3919 59.7235 38.3907 59.7107 38.3938C59.6133 38.4332 59.5248 38.4918 59.4505 38.566C59.3611 38.6493 59.2807 38.7417 59.2106 38.8417C58.9278 39.2727 58.7319 39.7548 58.6339 40.2609L58.6359 40.2258L58.6927 41.5236L58.7211 42.1723L58.7353 42.4967C58.7435 42.6079 58.7445 42.7197 58.7382 42.8311C58.6734 43.2719 58.5468 43.7015 58.3621 44.107C58.1957 44.5101 58.0062 44.9013 57.8203 45.2907L57.8188 45.2939L57.815 45.3006C57.4009 45.9178 56.989 46.5363 56.5688 47.1497C56.5663 47.1534 56.5624 47.1559 56.558 47.1568C56.5536 47.1577 56.5491 47.1569 56.5453 47.1545C56.5415 47.1521 56.5388 47.1483 56.5377 47.144C56.5366 47.1396 56.5373 47.135 56.5395 47.1311C56.914 46.4889 57.2967 45.8519 57.6772 45.2135L57.6719 45.2233C57.8453 44.8265 58.0198 44.4327 58.1699 44.0311C58.3312 43.6431 58.4384 43.2348 58.4885 42.8176C58.4901 42.713 58.4854 42.6085 58.4745 42.5045L58.4531 42.1813L58.4104 41.5351L58.325 40.2429C58.3243 40.2311 58.325 40.2193 58.327 40.2077C58.3773 39.9328 58.4509 39.6627 58.5471 39.4004C58.6416 39.1331 58.7688 38.8785 58.9259 38.6425C59.0092 38.5212 59.105 38.409 59.2117 38.3077C59.3273 38.1901 59.4688 38.1013 59.625 38.0482C59.687 38.031 59.7525 38.0304 59.8149 38.0465C59.8864 38.0663 59.9489 38.11 59.9921 38.1703C60.0472 38.2528 60.0797 38.3482 60.0866 38.4471C60.1023 38.6025 60.0908 38.7595 60.0526 38.9109C60.0344 38.9849 60.0107 39.0575 59.9819 39.128C59.9675 39.163 59.9522 39.1975 59.9356 39.2313L59.8957 39.3166C59.8468 39.4245 59.8117 39.5382 59.7912 39.6549C59.7716 39.7604 59.7756 39.869 59.8027 39.9728C59.8269 40.0615 59.8783 40.1403 59.9498 40.1982C60.0715 40.2866 60.3098 40.2276 60.5102 40.0998C60.7201 39.9622 60.9092 39.7952 61.0717 39.604C61.4093 39.2034 61.6956 38.7625 61.9242 38.2912C62.0463 38.0387 62.1928 37.7986 62.3613 37.5745C62.4519 37.4534 62.56 37.3466 62.6822 37.2576C62.7545 37.2011 62.8388 37.162 62.9286 37.1434C63.0185 37.1248 63.1114 37.1272 63.2001 37.1504C63.2888 37.1786 63.3693 37.2278 63.4349 37.2939C63.5005 37.3599 63.5492 37.4408 63.5768 37.5297C63.604 37.6143 63.6135 37.7036 63.6045 37.792C63.5946 37.8719 63.5734 37.9499 63.5416 38.0238L63.2506 38.7797C63.0523 39.281 62.8547 39.7818 62.6474 40.2792L62.6538 40.2567C62.5275 40.7425 62.3401 41.2104 62.0962 41.6492C61.8694 42.0879 61.6262 42.515 61.393 42.9454C61.2746 43.1567 61.167 43.3738 61.0705 43.596C60.9941 43.8253 60.9368 44.0606 60.8993 44.2995C60.8566 44.5378 60.8375 44.7797 60.8422 45.0217L60.8337 45.7581C60.8331 46.7412 60.8178 47.7179 60.8495 48.7059C60.8482 49.7084 60.6134 50.6968 60.1635 51.5927C59.9358 52.0423 59.6485 52.4592 59.3094 52.832C58.9683 53.2113 58.5613 53.5256 58.108 53.7598C57.6502 53.9905 57.1509 54.1272 56.6394 54.1619C56.1301 54.1899 55.6201 54.1209 55.1365 53.9585C54.1713 53.6467 53.3414 53.0564 52.6015 52.4051C52.2321 52.0769 51.8843 51.725 51.5603 51.3518C51.2333 50.9831 50.9299 50.5941 50.6518 50.1872C50.6505 50.1853 50.6497 50.1832 50.6492 50.1809C50.6488 50.1787 50.6488 50.1764 50.6492 50.1742C50.6496 50.1719 50.6505 50.1698 50.6518 50.1679C50.653 50.166 50.6546 50.1644 50.6565 50.1631C50.6603 50.1608 50.6647 50.1599 50.6691 50.1606C50.6735 50.1614 50.6774 50.1637 50.6801 50.1672Z" fill="#020202"/>
<path d="M54.5957 45.257C54.9321 45.5128 55.2489 45.7922 55.559 46.0783C55.8704 46.3633 56.1666 46.6642 56.4571 46.9705C56.7455 47.2787 57.0247 47.596 57.2879 47.9264C57.5537 48.2548 57.8011 48.5976 58.029 48.9533C57.8838 48.7992 57.7524 48.6352 57.6071 48.4824C57.4696 48.3235 57.3287 48.1676 57.1865 48.013C56.9011 47.7048 56.6205 47.3929 56.3308 47.0889L54.5957 45.257ZM50.3389 39.835C51.2743 39.1437 52.2736 38.5433 53.3231 38.042C53.8475 37.7862 54.3869 37.5624 54.9383 37.3717C55.4915 37.1773 56.0625 37.0378 56.6431 36.9553C57.2202 36.8766 57.8015 36.8323 58.3839 36.8224C58.5294 36.8189 58.6753 36.8195 58.8211 36.827L58.9305 36.832C58.9714 36.8347 59.0117 36.8427 59.0505 36.8559C59.1287 36.8833 59.1975 36.9321 59.2491 36.9969C59.2943 37.0537 59.325 37.1207 59.3387 37.192C59.3524 37.2632 59.3487 37.3368 59.3278 37.4063C59.3069 37.4759 59.2695 37.5393 59.2188 37.5912C59.1681 37.6432 59.1056 37.6821 59.0366 37.7047L58.9336 37.739C58.3849 37.9249 57.8347 38.1064 57.2792 38.2765C57.0009 38.3598 56.7218 38.4427 56.4369 38.5097C56.2944 38.5438 56.1508 38.5751 56.0039 38.6011C55.8481 38.6326 55.689 38.6452 55.5301 38.6385C55.4909 38.6357 55.4543 38.6178 55.4279 38.5886C55.4015 38.5595 55.3873 38.5213 55.3884 38.4819C55.3895 38.4426 55.4057 38.4052 55.4337 38.3776C55.4616 38.3499 55.4992 38.3341 55.5385 38.3334L55.5504 38.3333L58.029 38.3024L58.0313 38.3024C58.0614 38.3021 58.0911 38.3099 58.1172 38.3249C58.1719 38.3566 58.2215 38.3963 58.2644 38.4427C58.3148 38.4978 58.35 38.565 58.3667 38.6378C58.3788 38.7103 58.372 38.7846 58.3469 38.8536C58.3219 38.9227 58.2795 38.9841 58.2238 39.032C58.0756 39.1581 57.9055 39.2559 57.7221 39.3206C57.557 39.382 57.3887 39.4341 57.2179 39.4768C57.0498 39.5247 56.8811 39.5542 56.7129 39.5936L56.8005 39.5463C56.608 39.727 56.4006 39.8913 56.1806 40.0373C55.9619 40.1863 55.7289 40.3133 55.4852 40.4164C55.235 40.5258 54.9658 40.585 54.6929 40.5907C54.41 40.5909 54.1356 40.4941 53.9154 40.3165L54.0353 40.3206C53.7633 40.4855 53.4944 40.6551 53.2197 40.8159C52.9458 40.978 52.6736 41.1425 52.3971 41.3006C52.3933 41.3028 52.3888 41.3034 52.3845 41.3024C52.3802 41.3013 52.3765 41.2987 52.3741 41.2951C52.3717 41.2914 52.3707 41.287 52.3714 41.2826C52.3722 41.2783 52.3745 41.2744 52.378 41.2717C52.6318 41.0792 52.8897 40.8931 53.1461 40.7046C53.4016 40.5148 53.663 40.3338 53.9212 40.1481C53.9375 40.1363 53.9571 40.1299 53.9772 40.1297C53.9973 40.1295 54.017 40.1355 54.0335 40.1469L54.0411 40.1522C54.2301 40.2842 54.4587 40.3472 54.6885 40.3305C54.9248 40.3144 55.1556 40.2523 55.3681 40.1477C55.5884 40.0427 55.7979 39.9163 55.9934 39.7703C56.1899 39.6248 56.3766 39.4665 56.5522 39.2964C56.5749 39.2744 56.6029 39.2586 56.6335 39.2507L56.64 39.249C56.8007 39.2078 56.9658 39.1757 57.1228 39.1272C57.2798 39.0843 57.4345 39.0335 57.5865 38.975C57.7231 38.9275 57.8509 38.8577 57.9646 38.7683C58.0125 38.7252 58.0031 38.7091 58.006 38.7156C58.0081 38.7151 58.0015 38.7045 57.9906 38.6895C57.9754 38.6741 57.9587 38.6603 57.9408 38.6482L58.029 38.6707L55.5504 38.6398L55.5707 38.3346C55.7009 38.3427 55.8317 38.3365 55.9606 38.3162C56.0994 38.2976 56.2397 38.2733 56.3798 38.2459C56.6599 38.1895 56.9416 38.1301 57.222 38.0641C57.783 37.9314 58.341 37.7836 58.8963 37.6209L59.0001 37.5899C59.0296 37.5813 59.0579 37.5686 59.084 37.5523C59.1366 37.5191 59.1787 37.4717 59.2056 37.4156C59.2319 37.3588 59.2422 37.2958 59.2352 37.2335C59.2281 37.1712 59.2041 37.112 59.1657 37.0625C59.1273 37.013 59.0756 36.9755 59.0167 36.9543C58.9868 36.9448 58.9557 36.9391 58.9244 36.9375L58.817 36.9342C58.674 36.929 58.5304 36.9303 58.3869 36.9359C57.8127 36.9697 57.2419 37.0478 56.6797 37.1696C56.1222 37.2948 55.5743 37.4595 55.0401 37.6623C54.5009 37.8538 53.9689 38.0677 53.4443 38.3041C52.395 38.7726 51.3669 39.2972 50.3582 39.8637C50.3562 39.8649 50.354 39.8657 50.3518 39.866C50.3495 39.8664 50.3472 39.8663 50.345 39.8657C50.3428 39.8652 50.3407 39.8642 50.3389 39.8628C50.3371 39.8615 50.3355 39.8598 50.3344 39.8578C50.3322 39.8541 50.3315 39.8498 50.3324 39.8456C50.3332 39.8414 50.3355 39.8376 50.3389 39.835Z" fill="#020202"/>
<path d="M60.739 34.7443L59.2193 37.0508C59.5087 37.5447 58.8623 37.6954 58.8623 37.6954L58.1258 38.5654C58.1258 38.5654 58.3355 38.9137 57.7463 39.1112L58.6804 39.5167C58.6804 39.5167 58.9975 38.5654 59.4792 38.2968L59.0807 38.1703L60.876 35.2399L63.302 35.4877L61.505 38.9397L59.9107 38.4337C59.9323 38.7402 59.8585 39.0459 59.6993 39.3088L59.5988 39.7299L60.8015 40.118C61.2579 39.5565 61.6842 38.9711 62.0786 38.3643C62.4512 37.7284 62.7856 37.2241 63.0247 37.2899L64.366 34.9921L60.739 34.7443ZM58.6855 38.9292C58.6182 38.9268 58.5544 38.8984 58.5076 38.8499C58.4609 38.8014 58.4347 38.7367 58.4347 38.6693C58.4347 38.6019 58.4609 38.5372 58.5076 38.4887C58.5544 38.4402 58.6182 38.4118 58.6855 38.4094C58.7529 38.4118 58.8167 38.4402 58.8635 38.4887C58.9103 38.5372 58.9364 38.6019 58.9364 38.6693C58.9364 38.7367 58.9103 38.8015 58.8635 38.8499C58.8167 38.8984 58.7529 38.9269 58.6855 38.9293V38.9292ZM60.8067 39.6363C60.7393 39.6339 60.6755 39.6054 60.6287 39.557C60.582 39.5085 60.5558 39.4437 60.5558 39.3763C60.5558 39.309 60.582 39.2442 60.6287 39.1957C60.6755 39.1472 60.7393 39.1188 60.8067 39.1164C60.874 39.1188 60.9378 39.1472 60.9846 39.1957C61.0314 39.2442 61.0575 39.309 61.0575 39.3763C61.0575 39.4437 61.0314 39.5085 60.9846 39.557C60.9378 39.6055 60.874 39.6339 60.8067 39.6363V39.6363ZM51.5625 39.1106C51.8786 39.3361 52.1752 39.5877 52.4491 39.8629C52.7285 40.1326 52.9844 40.4255 53.2141 40.7386C52.8977 40.5134 52.6011 40.2617 52.3275 39.9863C52.0484 39.7164 51.7925 39.4234 51.5625 39.1106ZM84.1453 58.2441C83.2944 57.8195 76.8792 45.6564 76.8792 45.6564C75.8586 43.7727 74.5225 42.8369 73.2506 42.4037C72.3819 42.1178 71.4595 42.0339 70.5536 42.1582C69.6476 42.2825 68.7819 42.6118 68.0224 43.1211L60.7512 47.9161C60.8638 50.1324 60.3128 50.9642 60.3128 50.9642L66.4472 51.2397C68.8178 51.9017 68.7242 53.8183 68.7242 53.8183L68.9183 67.9327C72.8554 69.8441 77.7283 67.9327 77.7283 67.9327L77.0057 63.98L76.3039 60.1139C76.0631 58.8281 75.8222 57.544 75.5397 56.2686C75.4063 55.6292 75.2538 54.9949 75.0909 54.3624C74.9314 53.7317 74.7547 53.1026 74.5519 52.4857C74.3578 51.8665 74.1144 51.2639 73.8241 50.6835C73.6824 50.3938 73.5023 50.1245 73.2887 49.8829C73.1811 49.7645 73.0532 49.6665 72.9109 49.5935C72.8405 49.5545 72.762 49.5326 72.6816 49.5296C72.6012 49.5266 72.5213 49.5425 72.4482 49.5762C72.5204 49.5335 72.6018 49.5085 72.6855 49.5034C72.7693 49.4983 72.8531 49.5131 72.93 49.5467C73.0863 49.6101 73.2296 49.7018 73.3528 49.8171C73.5926 50.0491 73.8006 50.3119 73.9714 50.5986C74.3045 51.1706 74.5841 51.7722 74.8067 52.3956C75.25 53.6358 75.6078 54.905 75.8776 56.1941C76.1566 57.4782 76.3836 58.7726 76.5708 60.0706C76.7614 61.3685 76.8983 62.6734 77.0057 63.98C80.3207 63.3856 84.1453 58.2441 84.1453 58.2441ZM69.6894 67.8062C69.6221 67.8038 69.5583 67.7754 69.5115 67.7269C69.4648 67.6784 69.4386 67.6137 69.4386 67.5463C69.4386 67.4789 69.4648 67.4142 69.5115 67.3657C69.5583 67.3172 69.6221 67.2888 69.6894 67.2864C69.7568 67.2888 69.8205 67.3172 69.8673 67.3657C69.9141 67.4142 69.9402 67.4789 69.9402 67.5463C69.9402 67.6137 69.9141 67.6784 69.8673 67.7269C69.8205 67.7754 69.7568 67.8038 69.6894 67.8062ZM70.9371 68.1389C70.8698 68.1365 70.806 68.1081 70.7592 68.0596C70.7124 68.0111 70.6863 67.9464 70.6863 67.879C70.6863 67.8116 70.7124 67.7469 70.7592 67.6984C70.806 67.6499 70.8698 67.6214 70.9371 67.619C71.0045 67.6214 71.0683 67.6498 71.1151 67.6983C71.162 67.7468 71.1881 67.8116 71.1881 67.879C71.1881 67.9464 71.162 68.0112 71.1151 68.0597C71.0683 68.1081 71.0045 68.1366 70.9371 68.1389V68.1389ZM76.5517 67.2864C76.6192 67.2886 76.6831 67.3169 76.73 67.3654C76.7769 67.414 76.8032 67.4788 76.8032 67.5463C76.8032 67.6138 76.7769 67.6786 76.73 67.7271C76.6831 67.7756 76.6192 67.804 76.5517 67.8062C76.4843 67.804 76.4204 67.7756 76.3735 67.7271C76.3266 67.6786 76.3004 67.6137 76.3004 67.5463C76.3004 67.4788 76.3266 67.414 76.3735 67.3655C76.4204 67.317 76.4843 67.2886 76.5517 67.2864V67.2864ZM75.1793 67.7022C75.2467 67.7044 75.3107 67.7328 75.3576 67.7813C75.4045 67.8298 75.4308 67.8947 75.4308 67.9622C75.4308 68.0297 75.4045 68.0945 75.3576 68.143C75.3107 68.1915 75.2467 68.2199 75.1793 68.2221C75.1118 68.2198 75.0479 68.1915 75.001 68.143C74.9541 68.0945 74.9279 68.0296 74.9279 67.9622C74.9279 67.8947 74.9541 67.8299 75.001 67.7814C75.0479 67.7329 75.1118 67.7045 75.1793 67.7022V67.7022ZM73.8484 67.8686C73.9158 67.8708 73.9798 67.8992 74.0267 67.9477C74.0737 67.9962 74.0999 68.061 74.0999 68.1285C74.0999 68.196 74.0737 68.2609 74.0267 68.3094C73.9798 68.3579 73.9158 68.3862 73.8484 68.3884C73.781 68.3862 73.7171 68.3578 73.6702 68.3093C73.6233 68.2608 73.5971 68.196 73.5971 68.1285C73.5971 68.0611 73.6233 67.9962 73.6702 67.9477C73.7171 67.8992 73.781 67.8709 73.8484 67.8686V67.8686ZM72.3928 68.3468C72.3254 68.3444 72.2617 68.316 72.2149 68.2675C72.1681 68.219 72.1419 68.1543 72.1419 68.0869C72.1419 68.0195 72.1681 67.9548 72.2149 67.9063C72.2617 67.8578 72.3254 67.8294 72.3928 67.827C72.4602 67.8293 72.524 67.8577 72.5709 67.9062C72.6177 67.9547 72.6439 68.0195 72.6439 68.0869C72.6439 68.1544 72.6177 68.2192 72.5709 68.2676C72.524 68.3161 72.4602 68.3445 72.3928 68.3469V68.3468ZM83.5387 57.7624C83.6062 57.7646 83.6702 57.7929 83.7171 57.8414C83.764 57.8899 83.7902 57.9548 83.7902 58.0223C83.7902 58.0898 83.764 58.1546 83.7171 58.2031C83.6702 58.2516 83.6062 58.28 83.5387 58.2822C83.4714 58.2799 83.4075 58.2515 83.3606 58.203C83.3138 58.1545 83.2876 58.0897 83.2876 58.0223C83.2876 57.9549 83.3138 57.8901 83.3606 57.8416C83.4075 57.7931 83.4714 57.7647 83.5387 57.7624V57.7624ZM82.6238 58.8021C82.6912 58.8043 82.7552 58.8327 82.8021 58.8812C82.849 58.9297 82.8753 58.9945 82.8753 59.062C82.8753 59.1295 82.849 59.1944 82.8021 59.2429C82.7552 59.2914 82.6912 59.3197 82.6238 59.322C82.5564 59.3196 82.4925 59.2912 82.4457 59.2428C82.3988 59.1943 82.3726 59.1295 82.3726 59.062C82.3726 58.9946 82.3988 58.9298 82.4457 58.8813C82.4925 58.8328 82.5564 58.8044 82.6238 58.8021V58.8021ZM77.3419 63.5225C77.2746 63.5201 77.2108 63.4916 77.164 63.4432C77.1172 63.3947 77.0911 63.3299 77.0911 63.2626C77.0911 63.1952 77.1172 63.1304 77.164 63.082C77.2108 63.0335 77.2746 63.005 77.3419 63.0026C77.4093 63.0049 77.4732 63.0333 77.52 63.0818C77.5669 63.1303 77.5931 63.1951 77.5931 63.2626C77.5931 63.33 77.5669 63.3948 77.52 63.4433C77.4732 63.4918 77.4093 63.5202 77.3419 63.5225V63.5225ZM78.4648 63.0234C78.3975 63.021 78.3337 62.9926 78.2869 62.9441C78.2401 62.8956 78.214 62.8308 78.214 62.7635C78.214 62.6961 78.2401 62.6313 78.2869 62.5828C78.3337 62.5344 78.3975 62.5059 78.4648 62.5035C78.5322 62.5058 78.5961 62.5342 78.643 62.5827C78.6898 62.6312 78.716 62.696 78.716 62.7635C78.716 62.8309 78.6898 62.8957 78.643 62.9442C78.5961 62.9927 78.5322 63.0211 78.4648 63.0234V63.0234ZM79.5877 62.358C79.5204 62.3556 79.4566 62.3271 79.4098 62.2787C79.363 62.2302 79.3369 62.1654 79.3369 62.098C79.3369 62.0307 79.363 61.9659 79.4098 61.9174C79.4566 61.8689 79.5204 61.8405 79.5877 61.8381C79.6551 61.8404 79.719 61.8688 79.7659 61.9173C79.8127 61.9658 79.8389 62.0306 79.8389 62.098C79.8389 62.1655 79.8127 62.2303 79.7659 62.2788C79.719 62.3273 79.6551 62.3557 79.5877 62.358V62.358ZM80.6275 61.443C80.5601 61.4406 80.4964 61.4122 80.4496 61.3637C80.4028 61.3152 80.3767 61.2505 80.3767 61.1831C80.3767 61.1157 80.4028 61.051 80.4496 61.0025C80.4964 60.954 80.5601 60.9256 80.6275 60.9232C80.6949 60.9255 80.7587 60.9539 80.8056 61.0024C80.8524 61.0509 80.8786 61.1157 80.8786 61.1831C80.8786 61.2505 80.8524 61.3153 80.8056 61.3638C80.7587 61.4123 80.6949 61.4407 80.6275 61.443V61.443ZM81.6672 59.8002C81.7347 59.8024 81.7986 59.8308 81.8455 59.8793C81.8925 59.9278 81.9187 59.9927 81.9187 60.0602C81.9187 60.1276 81.8925 60.1925 81.8455 60.241C81.7986 60.2895 81.7347 60.3179 81.6672 60.3201C81.5998 60.3178 81.536 60.2894 81.4891 60.2409C81.4422 60.1924 81.4161 60.1276 81.4161 60.0602C81.4161 59.9927 81.4422 59.9279 81.4891 59.8794C81.536 59.831 81.5998 59.8026 81.6672 59.8002V59.8002Z" fill="#020202"/>
<path d="M68.9494 71.1328C68.997 71.9361 69.0186 72.741 68.99 73.5482C68.9846 73.958 68.9438 74.3667 68.8682 74.7695C68.856 74.8236 68.8402 74.8768 68.8211 74.9289L68.7823 75.0137L68.762 75.0557C68.7602 75.061 68.758 75.0663 68.7555 75.0714C68.749 75.1003 68.7488 75.1303 68.7548 75.1593C68.7609 75.1883 68.773 75.2157 68.7905 75.2397C68.8886 75.3904 69.0183 75.518 69.1707 75.6137C69.4871 75.823 69.8466 75.9583 70.2225 76.0095C70.5984 76.0608 70.981 76.0266 71.3419 75.9095C71.4311 75.8791 71.5186 75.844 71.6041 75.8043C71.6966 75.7605 71.7913 75.7178 71.8867 75.6783C72.0787 75.5994 72.2765 75.5354 72.4782 75.4868C72.8818 75.3943 73.2971 75.3634 73.7099 75.3952C74.119 75.4159 74.5237 75.4889 74.9143 75.6123C75.1092 75.6738 75.2991 75.7502 75.4823 75.8408C75.6613 75.9258 75.8462 75.9979 76.0356 76.0567C76.417 76.1768 76.8053 76.2736 77.1985 76.3464C77.5914 76.4217 77.9868 76.4866 78.3846 76.5298C79.1763 76.6247 79.9755 76.6396 80.7702 76.5744C81.1561 76.5482 81.5353 76.4606 81.8936 76.315C82.0526 76.2504 82.1888 76.14 82.2852 75.998C82.3218 75.9279 82.3438 75.8512 82.3498 75.7723C82.3559 75.6935 82.3458 75.6142 82.3202 75.5394L82.3471 75.5928C82.2702 75.5061 82.1864 75.4256 82.0965 75.3522C82.0045 75.2737 81.9054 75.2018 81.8064 75.1301C81.6032 74.9906 81.3912 74.8643 81.1717 74.7522C80.7277 74.5286 80.2662 74.3416 79.7917 74.1931C79.314 74.0451 78.8285 73.9234 78.3375 73.8287C78.0925 73.7751 77.8452 73.7445 77.5991 73.7011C77.3386 73.6683 77.0812 73.6148 76.8292 73.5412C76.325 73.3954 75.8459 73.1738 75.4084 72.8839C74.9694 72.5958 74.5968 72.2174 74.3154 71.7741C74.034 71.3307 73.8502 70.8325 73.7763 70.3126C73.7037 69.8041 73.7077 69.2876 73.7884 68.7803C73.789 68.7759 73.7914 68.7719 73.7949 68.7692C73.7984 68.7665 73.8029 68.7652 73.8073 68.7657C73.8118 68.7661 73.8159 68.7683 73.8188 68.7717C73.8216 68.7751 73.8231 68.7795 73.8229 68.7839C73.7865 69.2867 73.8206 69.792 73.9242 70.2853C74.0233 70.7716 74.2208 71.2325 74.5045 71.6397C74.7897 72.0398 75.1511 72.3797 75.5678 72.64C75.9868 72.8984 76.4426 73.0918 76.9196 73.2134C77.157 73.2752 77.3984 73.3205 77.642 73.3489C77.8963 73.3895 78.154 73.4181 78.4058 73.4692C78.6582 73.5177 78.9112 73.564 79.16 73.6322C79.4109 73.6902 79.6575 73.7665 79.9043 73.8418C80.3979 74.0004 80.8764 74.2027 81.334 74.4463C81.8092 74.686 82.2379 75.0084 82.6001 75.3983C82.6117 75.4115 82.6201 75.4271 82.6249 75.4439L82.6271 75.4518C82.6631 75.5684 82.6746 75.6912 82.6607 75.8125C82.6469 75.9338 82.608 76.0508 82.5466 76.1563C82.4145 76.3471 82.2279 76.4935 82.0112 76.5765C81.6206 76.726 81.2073 76.8075 80.7892 76.8176C79.9789 76.8446 79.1678 76.7938 78.3671 76.6659C77.5674 76.5569 76.777 76.3882 76.0025 76.1613C75.8079 76.1017 75.6167 76.0312 75.43 75.9502C75.2505 75.8677 75.0646 75.7999 74.8742 75.7474C74.4919 75.6479 74.0985 75.5977 73.7035 75.5979C73.3127 75.587 72.9224 75.6352 72.5459 75.7408C72.3599 75.7971 72.1777 75.8651 72.0003 75.9445C71.9111 75.9843 71.8238 76.0266 71.7359 76.0711C71.6405 76.1187 71.5426 76.1611 71.4426 76.1981C71.0383 76.3406 70.6049 76.3802 70.1815 76.3134C69.7605 76.248 69.3598 76.0883 69.0092 75.8463C68.8229 75.7233 68.6665 75.5601 68.5516 75.3687C68.5204 75.3118 68.4987 75.2502 68.4873 75.1863C68.4725 75.1105 68.4817 75.0319 68.5137 74.9616L68.5409 74.91L68.5524 74.8837L68.577 74.8319C68.5931 74.79 68.6064 74.7471 68.6171 74.7035C68.7061 74.3197 68.763 73.9293 68.7875 73.5361C68.8486 72.739 68.8855 71.9364 68.9148 71.1334C68.9148 71.1311 68.9153 71.1289 68.9163 71.1268C68.9172 71.1247 68.9185 71.1228 68.9202 71.1212C68.9218 71.1197 68.9238 71.1184 68.9259 71.1176C68.928 71.1168 68.9303 71.1164 68.9325 71.1165C68.9369 71.1166 68.941 71.1184 68.9441 71.1214C68.9472 71.1244 68.9491 71.1284 68.9494 71.1328ZM79.1047 63.1049C79.2725 63.4135 79.4234 63.7304 79.5669 64.0511C79.7102 64.3718 79.8461 64.6967 79.9629 65.0293C80.0828 65.3623 80.1846 65.7015 80.2681 66.0454C80.3598 66.3952 80.4034 66.7558 80.3975 67.1173C80.3948 67.2111 80.3849 67.3044 80.3678 67.3966C80.3599 67.444 80.3491 67.4909 80.3355 67.537L80.3138 67.607C80.3108 67.6172 80.3051 67.6334 80.3043 67.6388C80.3037 67.6436 80.3027 67.6485 80.3012 67.6532C80.2799 67.7356 80.364 67.8878 80.4681 67.9972C80.698 68.23 80.9798 68.4048 81.2903 68.5074C81.6014 68.6165 81.9312 68.6625 82.2603 68.6426C82.5912 68.6193 82.9139 68.5282 83.2082 68.375C83.5351 68.2197 83.8812 68.1083 84.2374 68.0438C84.5925 67.9887 84.9528 67.9757 85.3109 68.0049C85.6669 68.0276 86.0191 68.0898 86.3613 68.1906C86.532 68.2413 86.6994 68.3026 86.8625 68.3741C87.018 68.4517 87.1775 68.5208 87.3404 68.5813C88.0021 68.7993 88.6851 68.9468 89.3778 69.0212C90.068 69.1095 90.7652 69.1301 91.4594 69.0825C91.8019 69.059 92.1414 69.0033 92.4735 68.9163C92.6342 68.8718 92.7901 68.8119 92.9392 68.7372C93.0823 68.6708 93.2102 68.5757 93.315 68.4579C93.4148 68.3494 93.474 68.2097 93.4826 68.0626C93.4965 67.9124 93.4716 67.7611 93.4104 67.6232C93.3435 67.4794 93.2533 67.3477 93.1434 67.2334C93.0316 67.1077 92.9116 66.9895 92.7843 66.8796C92.2635 66.4391 91.6713 66.0908 91.0334 65.8496C90.7144 65.7244 90.3886 65.6174 90.0575 65.5292C89.725 65.4397 89.3735 65.3498 89.0393 65.2362C88.3642 65.013 87.7113 64.7274 87.0892 64.383C86.4724 64.0331 85.8867 63.631 85.3386 63.1811C84.7872 62.737 84.2826 62.2376 83.8327 61.6909C83.3787 61.1476 83.0244 60.5282 82.7864 59.8614C82.7849 59.8571 82.7852 59.8523 82.7872 59.8482C82.7893 59.8441 82.7928 59.8409 82.7972 59.8394C82.8013 59.8381 82.8059 59.8383 82.8099 59.8401C82.8139 59.8419 82.8171 59.8451 82.8188 59.8491C83.1054 60.4833 83.4928 61.0668 83.966 61.5771C84.4345 62.0882 84.9502 62.5539 85.5062 62.9681C86.6002 63.8164 87.8351 64.4653 89.1543 64.8849C89.4843 64.9933 89.8104 65.0802 90.1539 65.1724C90.4995 65.2636 90.8386 65.378 91.1689 65.5148C91.839 65.7815 92.4586 66.1607 93.001 66.636C93.1366 66.7572 93.2641 66.8872 93.3826 67.0252C93.5131 67.1663 93.618 67.329 93.6928 67.5061C93.7686 67.6921 93.7956 67.8943 93.7713 68.0937C93.7597 68.1956 93.7331 68.2952 93.6923 68.3892C93.6472 68.4803 93.5896 68.5646 93.5212 68.6397C93.3893 68.7808 93.2299 68.8934 93.0529 68.9705C92.8855 69.0459 92.7111 69.1045 92.5322 69.1454C92.1829 69.2209 91.8273 69.2632 91.4701 69.2719C90.765 69.2874 90.0599 69.244 89.3621 69.1421C88.6638 69.0513 87.9748 68.8991 87.3031 68.6873C87.1374 68.6308 86.967 68.5581 86.8129 68.4895C86.6537 68.4244 86.4901 68.3705 86.3235 68.328C85.989 68.2467 85.6465 68.203 85.3023 68.1977C84.9609 68.1862 84.6193 68.2143 84.2844 68.2816C83.9542 68.3586 83.635 68.4772 83.3346 68.6343C83.0097 68.8152 82.6493 68.9232 82.2785 68.9507C81.9077 68.9782 81.5353 68.9246 81.1873 68.7937C80.8326 68.6689 80.513 68.4608 80.2554 68.1869C80.1882 68.1123 80.1312 68.0291 80.086 67.9394C80.0296 67.8341 80.0105 67.7128 80.0319 67.5952L80.0455 67.5461L80.0553 67.5152L80.0734 67.4601C80.0854 67.4225 80.0949 67.3842 80.102 67.3454C80.1182 67.2658 80.1283 67.185 80.132 67.1038C80.1278 66.4173 80.0124 65.7359 79.7903 65.0863C79.5845 64.4193 79.3453 63.7631 79.0735 63.1201C79.0717 63.1159 79.0716 63.1112 79.0732 63.1069C79.0749 63.1026 79.0782 63.0992 79.0824 63.0973C79.0864 63.0956 79.0909 63.0955 79.095 63.0969C79.0991 63.0983 79.1025 63.1011 79.1047 63.1049ZM51.0875 32.8191C51.1549 32.8168 51.2187 32.7884 51.2656 32.7399C51.3124 32.6914 51.3386 32.6266 51.3386 32.5592C51.3386 32.4918 51.3124 32.427 51.2656 32.3785C51.2187 32.33 51.1549 32.3016 51.0875 32.2993C51.0201 32.3016 50.9563 32.33 50.9094 32.3785C50.8626 32.427 50.8364 32.4918 50.8364 32.5592C50.8364 32.6266 50.8626 32.6914 50.9094 32.7399C50.9563 32.7884 51.0201 32.8168 51.0875 32.8191ZM46.9646 33.1419C47.0319 33.1396 47.0958 33.1112 47.1426 33.0627C47.1895 33.0142 47.2157 32.9494 47.2157 32.882C47.2157 32.8146 47.1895 32.7498 47.1426 32.7013C47.0958 32.6528 47.0319 32.6244 46.9646 32.622C46.8972 32.6244 46.8333 32.6528 46.7865 32.7013C46.7396 32.7498 46.7135 32.8146 46.7135 32.882C46.7135 32.9494 46.7396 33.0142 46.7865 33.0627C46.8333 33.1112 46.8972 33.1396 46.9646 33.1419ZM50.3471 34.6837C50.4677 34.8319 50.5675 34.9653 50.6851 35.083C50.7423 35.1431 50.804 35.1988 50.8696 35.2497C50.935 35.3045 51.0087 35.3474 51.0875 35.406C50.9909 35.4189 50.8925 35.4056 50.8029 35.3673C50.7117 35.3305 50.6294 35.2748 50.5612 35.204C50.4938 35.1343 50.4396 35.0529 50.4011 34.9638C50.3612 34.8761 50.3427 34.78 50.3471 34.6837ZM51.5627 31.7519C51.4718 31.7736 51.3763 31.7652 51.2906 31.728C51.2049 31.6907 51.1336 31.6266 51.0875 31.5453C51.1782 31.5215 51.2744 31.53 51.3596 31.5691C51.4462 31.6051 51.5178 31.6696 51.5627 31.7519ZM46.6973 33.4037C46.7858 33.4152 46.875 33.4214 46.9643 33.4223C47.046 33.4237 47.1241 33.411 47.2319 33.4037C47.2059 33.4504 47.1668 33.4883 47.1195 33.513C47.0719 33.5387 47.0186 33.5522 46.9644 33.5522C46.9106 33.5541 46.8573 33.5412 46.8102 33.515C46.7632 33.4889 46.7241 33.4504 46.6973 33.4037ZM50.5174 49.549C50.5848 49.5466 50.6487 49.5182 50.6955 49.4697C50.7423 49.4212 50.7685 49.3564 50.7685 49.289C50.7685 49.2216 50.7423 49.1568 50.6955 49.1083C50.6487 49.0598 50.5848 49.0314 50.5174 49.0291C50.45 49.0314 50.3862 49.0598 50.3394 49.1083C50.2925 49.1568 50.2663 49.2216 50.2663 49.289C50.2663 49.3564 50.2925 49.4212 50.3394 49.4697C50.3862 49.5182 50.45 49.5466 50.5174 49.549ZM51.3908 48.8003C51.4582 48.798 51.522 48.7696 51.5689 48.7211C51.6157 48.6726 51.6419 48.6078 51.6419 48.5404C51.6419 48.473 51.6157 48.4082 51.5689 48.3597C51.522 48.3112 51.4582 48.2828 51.3908 48.2805C51.3234 48.2828 51.2596 48.3112 51.2127 48.3597C51.1659 48.4082 51.1397 48.473 51.1397 48.5404C51.1397 48.6078 51.1659 48.6726 51.2127 48.7211C51.2596 48.7696 51.3234 48.798 51.3908 48.8003ZM52.3058 47.8854C52.3732 47.8831 52.437 47.8546 52.4839 47.8062C52.5307 47.7577 52.5569 47.6929 52.5569 47.6254C52.5569 47.558 52.5307 47.4932 52.4839 47.4447C52.437 47.3962 52.3732 47.3678 52.3058 47.3655C52.2384 47.3678 52.1745 47.3962 52.1277 47.4447C52.0809 47.4932 52.0547 47.558 52.0547 47.6254C52.0547 47.6929 52.0809 47.7577 52.1277 47.8062C52.1745 47.8546 52.2384 47.8831 52.3058 47.8854ZM53.096 46.8456C53.1634 46.8433 53.2272 46.8149 53.2741 46.7664C53.3209 46.7179 53.3471 46.6531 53.3471 46.5857C53.3471 46.5183 53.3209 46.4535 53.2741 46.405C53.2272 46.3565 53.1634 46.3281 53.096 46.3258C53.0286 46.3281 52.9647 46.3565 52.9179 46.405C52.871 46.4535 52.8449 46.5183 52.8449 46.5857C52.8449 46.6531 52.871 46.7179 52.9179 46.7664C52.9647 46.8149 53.0286 46.8433 53.096 46.8456ZM53.7614 45.8059C53.8288 45.8036 53.8926 45.7752 53.9395 45.7267C53.9863 45.6782 54.0125 45.6134 54.0125 45.546C54.0125 45.4785 53.9863 45.4137 53.9395 45.3653C53.8926 45.3168 53.8288 45.2884 53.7614 45.286C53.694 45.2884 53.6302 45.3168 53.5833 45.3653C53.5365 45.4137 53.5103 45.4785 53.5103 45.546C53.5103 45.6134 53.5365 45.6782 53.5833 45.7267C53.6302 45.7752 53.694 45.8036 53.7614 45.8059Z" fill="#020202"/>
<path d="M62.8711 28.5298H58.2832V31.3699H59.9519L60.5771 31.9952L61.2022 31.3699H62.8711V28.5298Z" stroke="black" stroke-width="0.17333" stroke-miterlimit="10"/>
<path d="M67.4609 24.166H62.873V27.0061H64.5417L65.167 27.6313L65.7921 27.0061H67.4609V24.166Z" stroke="black" stroke-width="0.17333" stroke-miterlimit="10"/>
<path d="M62.334 20.3681H57.7461V23.2082H59.4149L60.0402 23.8333L60.6653 23.2082H62.334V20.3681Z" stroke="black" stroke-width="0.17333" stroke-miterlimit="10"/>
</svg>
