<svg width="168" height="132" viewBox="0 0 168 132" fill="none" xmlns="http://www.w3.org/2000/svg">
<path d="M65.6251 59.7018C64.9581 58.7801 64.2225 57.9099 63.4246 57.0987C63.0339 56.6951 62.6029 56.3325 62.1385 56.0165C61.9138 55.8652 61.6686 55.7468 61.4105 55.6648C61.3478 55.6478 61.2846 55.6355 61.2222 55.6239L61.0252 55.6073C60.8728 55.6018 60.7213 55.5822 60.5725 55.5487C60.2609 55.4886 59.9713 55.3453 59.7344 55.134C59.5042 54.9147 59.3327 54.6411 59.2356 54.3382C59.073 53.7573 59.0463 53.1469 59.1573 52.554C59.3353 51.3855 59.8049 50.3216 60.052 49.2379C60.1847 48.7061 60.2262 48.1556 60.1746 47.6098C60.1147 47.0585 59.9938 46.5155 59.8141 45.9907C59.7276 45.7283 59.6278 45.4546 59.5439 45.1756C59.4605 44.8977 59.3845 44.6182 59.3202 44.3361C59.1903 43.7728 59.0966 43.2017 59.0396 42.6265C58.9792 42.0499 58.9721 41.469 59.0183 40.8912C59.0424 40.5988 59.095 40.3094 59.1754 40.0273C59.2181 39.8833 59.2757 39.7441 59.3471 39.6119C59.4187 39.4721 59.5195 39.3493 59.6426 39.2517C59.7728 39.1514 59.9322 39.0964 60.0966 39.0951L60.2166 39.1015L60.3267 39.1242C60.4007 39.1363 60.4735 39.1544 60.5445 39.1783C60.83 39.2694 61.0907 39.425 61.3063 39.633C61.725 40.048 62.0251 40.5673 62.1758 41.1372L62.0301 41.143C62.1828 40.5203 62.4814 39.9427 62.9012 39.4581C63.1041 39.2135 63.3311 38.99 63.5787 38.7907L63.7645 38.6419L63.9594 38.5056L64.3381 38.2372C65.2914 37.4538 65.9953 36.4091 66.3632 35.2314C66.4089 35.0883 66.4469 34.9428 66.4769 34.7956C66.4901 34.7281 66.4984 34.6598 66.5017 34.5911C66.5072 34.4984 66.5246 34.4069 66.5536 34.3187C66.6527 34.0141 66.7715 33.7162 66.9092 33.427C67.1748 32.8518 67.4817 32.2966 67.8275 31.7657C68.1696 31.218 68.5865 30.7208 69.0662 30.2885C69.3253 30.0514 69.6409 29.8848 69.9828 29.8047C70.1732 29.7644 70.3709 29.7757 70.5554 29.8376C70.7508 29.898 70.9216 30.0199 71.0423 30.1851C71.2342 30.4925 71.329 30.8506 71.3144 31.2127C71.313 31.5385 71.2851 31.8638 71.2308 32.1851C71.1229 32.8096 70.9816 33.4278 70.8074 34.037C70.4765 35.2497 70.0835 36.4366 69.7605 37.6311C69.5933 38.2176 69.4716 38.816 69.3963 39.4211C69.3448 40.0286 69.3173 40.6551 69.3014 41.2732C69.2855 41.8935 69.2878 42.5145 69.2941 43.1358C69.3007 43.762 69.3284 44.3675 69.3457 45.0136C69.3471 45.0662 69.3291 45.1174 69.2953 45.1576C69.2614 45.1977 69.214 45.2241 69.162 45.2316L69.1519 45.2331C69.0737 45.2451 68.9992 45.2747 68.9341 45.3198C68.9083 45.3373 68.8863 45.3599 68.8694 45.3862C68.8525 45.4125 68.841 45.4419 68.8356 45.4726C68.8583 45.6764 68.901 45.8774 68.9629 46.0728C69.0837 46.5223 69.2187 46.9723 69.3548 47.4207C69.6307 48.3171 69.9079 49.2143 70.2036 50.1054C70.4979 50.997 70.8126 51.8815 71.137 52.762C71.3004 53.2019 71.4727 53.6382 71.6574 54.0689C71.7558 54.2808 71.8419 54.5004 71.9531 54.7054C72.0074 54.8085 72.0569 54.9155 72.1153 55.016L72.3059 55.3078L72.3085 55.3118C72.312 55.3171 72.3133 55.3236 72.3121 55.3298C72.3108 55.3361 72.3072 55.3416 72.302 55.3453C72.2968 55.3489 72.2903 55.3504 72.2841 55.3493C72.2778 55.3483 72.2721 55.3449 72.2684 55.3397L72.0561 55.0528C71.9908 54.9538 71.9351 54.8498 71.874 54.7483C71.7478 54.5468 71.6541 54.3305 71.544 54.1213C71.3379 53.6968 71.1445 53.2666 70.96 52.833C70.588 51.9668 70.2538 51.0857 69.9246 50.2032C69.6012 49.3186 69.281 48.4326 68.9893 47.5361C68.8429 47.0877 68.6982 46.6398 68.5654 46.1839C68.5304 46.0715 68.5006 45.9535 68.4692 45.8373C68.4503 45.7734 68.4356 45.7085 68.425 45.6428L68.4073 45.5314C68.4064 45.4907 68.4083 45.4499 68.4128 45.4094C68.4385 45.2365 68.5307 45.0804 68.6698 44.9744C68.7948 44.8795 68.9418 44.8176 69.097 44.7942L68.9034 45.0136C68.8742 44.4117 68.8324 43.77 68.8128 43.1473C68.79 42.52 68.7869 41.8918 68.7956 41.2633C68.8061 40.6328 68.8268 40.0106 68.8747 39.3732C68.9473 38.7376 69.0734 38.1092 69.2517 37.4948C69.5784 36.2769 69.9803 35.0938 70.3244 33.9014C70.5006 33.3116 70.6451 32.7128 70.7574 32.1075C70.8107 31.8135 70.8402 31.5156 70.8455 31.2168C70.8621 30.9515 70.802 30.6871 70.6723 30.455C70.6096 30.3651 70.5183 30.2989 70.4132 30.2672C70.3009 30.2271 70.1797 30.2193 70.0632 30.2445C69.7944 30.3082 69.5457 30.4375 69.3392 30.6209C68.8828 31.0181 68.4837 31.4767 68.1532 31.9835C67.8084 32.4939 67.497 33.0261 67.2208 33.5767C67.0815 33.8473 66.9596 34.1266 66.8559 34.4128C66.8338 34.4723 66.8187 34.5342 66.811 34.5972C66.805 34.6844 66.7922 34.771 66.7728 34.8562C66.7357 35.014 66.69 35.1696 66.6359 35.3224C66.2196 36.5339 65.4596 37.598 64.4486 38.3849L64.0605 38.6544L63.8702 38.7845L63.6891 38.9267C63.4478 39.1168 63.2263 39.3307 63.0279 39.5652C62.6214 40.0244 62.3298 40.5736 62.177 41.1675L62.1767 41.1688C62.173 41.1849 62.164 41.1994 62.1511 41.21C62.1383 41.2205 62.1223 41.2265 62.1057 41.227C62.0891 41.2275 62.0728 41.2226 62.0594 41.2128C62.0459 41.2031 62.036 41.1892 62.0313 41.1733C61.8808 40.6359 61.5905 40.148 61.1901 39.7594C60.9911 39.5718 60.7514 39.4327 60.4897 39.3531C60.4253 39.3322 60.3592 39.3167 60.2922 39.3069L60.1927 39.2873L60.0989 39.2838C59.9762 39.2863 59.8577 39.329 59.7617 39.4054C59.6613 39.487 59.5812 39.5907 59.5278 39.7085C59.4676 39.8297 59.4201 39.9567 59.3861 40.0877C59.3192 40.3572 59.2788 40.6327 59.2654 40.9101C59.2396 41.472 59.2655 42.035 59.3428 42.5922C59.4165 43.1511 59.5258 43.7046 59.6701 44.2495C59.7415 44.5218 59.8242 44.7907 59.9135 45.0567C60.0021 45.3217 60.1083 45.5806 60.2038 45.859C60.4052 46.411 60.5417 46.9846 60.6106 47.5681C60.6688 48.161 60.6261 48.7594 60.4842 49.3379C60.2062 50.4752 59.7307 51.521 59.5526 52.615C59.5074 52.8856 59.4837 53.1594 59.4815 53.4337C59.4833 53.7003 59.5216 53.9653 59.5954 54.2215C59.6704 54.4647 59.8034 54.6861 59.983 54.8665C60.1694 55.0427 60.4003 55.1647 60.6509 55.2194C60.7796 55.2527 60.9111 55.2739 61.0438 55.2827L61.2725 55.3094C61.3496 55.3256 61.4265 55.3436 61.5005 55.3662C61.7844 55.4651 62.0526 55.6043 62.2969 55.7795C62.7674 56.1198 63.2008 56.5084 63.5903 56.9391C64.3581 57.7907 65.0526 58.7058 65.6662 59.6745C65.6697 59.68 65.6709 59.6867 65.6695 59.6931C65.668 59.6995 65.6641 59.7051 65.6586 59.7086C65.6532 59.7118 65.6468 59.7129 65.6406 59.7117C65.6344 59.7104 65.6289 59.7069 65.6251 59.7018Z" fill="black"/>
<path d="M62.2158 41.1019C62.8394 42.4455 63.4706 43.7858 64.1096 45.1227C64.4299 45.7907 64.7541 46.4568 65.0822 47.1209C65.2473 47.4524 65.4138 47.7832 65.5851 48.1115C65.6711 48.2755 65.7574 48.4393 65.848 48.6007C65.9296 48.7668 66.032 48.9217 66.1528 49.0618C66.0279 48.9248 65.921 48.7725 65.8347 48.6085C65.7395 48.4494 65.6485 48.2879 65.558 48.1262C65.3775 47.8024 65.2017 47.4761 65.0274 47.1491C64.6794 46.4947 64.3366 45.8375 63.9992 45.1776C63.3221 43.8589 62.6535 42.5359 61.9934 41.2086C61.9788 41.1793 61.9765 41.1454 61.9869 41.1144C61.9972 41.0834 62.0195 41.0577 62.0488 41.0432C62.0781 41.0286 62.112 41.0262 62.143 41.0366C62.174 41.047 62.1997 41.0693 62.2143 41.0986L62.2158 41.1019Z" fill="black"/>
<path d="M68.6201 45.5205C68.6201 45.962 71.2116 54.0584 72.2878 55.3231C71.2269 54.1821 70.0493 53.1556 68.7742 52.2602C68.9858 52.2574 69.1945 52.3106 69.379 52.4143C69.379 52.4143 69.7584 52.7293 69.7584 51.9084C69.7584 51.0852 66.4678 49.1881 66.1528 49.0617C65.8355 48.9352 64.918 46.8657 64.918 46.8657C66.0907 46.0749 67.3961 45.5016 68.7719 45.1732L68.6201 45.5205ZM65.8953 76.1771C65.7849 76.3932 65.686 76.614 65.5825 76.8301C65.5825 76.8301 65.0766 63.9899 65.6469 59.6875L66.2149 59.5611C66.6817 60.2509 67.1692 60.9247 67.6452 61.6076C68.1281 62.2836 68.6148 62.9566 69.1053 63.6265C70.0504 64.9165 71.0085 66.1958 71.9797 67.4644C71.4117 68.1634 70.8644 68.874 70.3172 69.5868C69.7331 70.3525 69.162 71.1274 68.604 71.9116C68.0453 72.6934 67.5064 73.4913 66.9875 74.3053C66.7277 74.7123 66.4839 75.1285 66.2425 75.5447L65.8953 76.1771Z" fill="black"/>
<path d="M80.3206 75.0595C80.3206 75.0595 79.9872 76.115 79.6032 77.7407V77.743C79.6032 77.7453 79.6009 77.7476 79.6009 77.7499C79.0927 78.994 78.6489 80.2587 78.2304 81.5349C77.8096 82.8111 77.4348 84.1034 77.0852 85.4026C76.7472 86.7064 76.4276 88.0148 76.2137 89.3508C76.1654 89.6865 76.1172 90.0222 76.0758 90.358L76.039 90.8685L76.0229 91.1214L76.0275 91.3813L76.039 91.6388L76.0436 91.7676C76.05 91.8152 76.0608 91.8622 76.0758 91.9078C76.0967 91.9985 76.1364 92.0839 76.1922 92.1584C76.248 92.2329 76.3187 92.295 76.3999 92.3407C76.481 92.3863 76.5708 92.4145 76.6635 92.4236C76.7561 92.4326 76.8497 92.4222 76.9381 92.393C77.1034 92.3507 77.262 92.2857 77.4095 92.1999C77.2544 92.2607 77.0921 92.3009 76.9266 92.3194C76.7727 92.3455 76.6145 92.3135 76.4828 92.2298C76.3637 92.1395 76.2839 92.007 76.2597 91.8595C76.2532 91.8246 76.2486 91.7893 76.2459 91.7538L76.2551 91.6296L76.2712 91.3858L76.285 91.1398L76.3218 90.8938L76.3954 90.404L76.5909 89.4221C76.669 89.0979 76.7426 88.7713 76.8139 88.4471L77.0554 87.4721C77.2209 86.8237 77.3819 86.1752 77.5612 85.5291L78.5983 81.643C78.9248 80.4265 79.2467 79.2055 79.5457 77.9776C78.6604 81.8016 77.5681 88.4724 79.5595 92.3263C79.5595 92.3263 78.8007 107.823 77.283 108.393C77.283 108.393 68.0483 109.784 64.6957 107.064C63.3689 105.988 62.0811 103.989 61.1315 101.497C60.1161 98.7882 59.6514 95.9044 59.7647 93.014C59.8781 90.1237 60.5671 87.2851 61.7914 84.6645C62.8952 82.2753 64.3783 79.1319 65.581 76.8302C66.0793 76.0094 66.6189 75.2143 67.1975 74.4479C67.7632 73.6753 68.3396 72.9088 68.9267 72.1484C69.5085 71.3896 70.0994 70.6308 70.6904 69.8765L72.3322 67.8024L72.8565 68.1956L72.5208 67.4092C72.5158 67.388 72.5072 67.3678 72.4955 67.3494L72.4817 67.3172C72.4636 67.2755 72.4351 67.239 72.3989 67.2114C72.3977 67.2116 72.3964 67.2115 72.3952 67.2111C72.394 67.2107 72.3929 67.21 72.392 67.2091C71.4055 65.9329 70.4068 64.6644 69.3958 63.4035C68.8784 62.7551 68.3495 62.1112 67.8207 61.4696C67.2849 60.8327 66.7606 60.1888 66.2133 59.5611C65.6453 58.6137 65.9305 56.5879 65.9305 56.5879C66.7951 52.8834 68.0368 52.2625 68.7703 52.2602C69.8297 53.4037 71.0084 54.4305 72.2862 55.3231C73.3624 56.5879 80.5092 63.2931 81.6474 66.8366C81.6474 66.8366 82.6592 69.4281 80.3206 75.0595Z" fill="black"/>
<path d="M82.4224 92.6968C82.1815 92.7604 81.9335 92.7938 81.6843 92.7962C81.4422 92.8008 81.2001 92.7875 80.9599 92.7563C80.7197 92.7259 80.4821 92.6775 80.2492 92.6113C80.0087 92.5458 79.7773 92.4502 79.5607 92.3267C79.8032 92.2632 80.0525 92.2297 80.3031 92.2271C80.5438 92.2223 80.7846 92.2356 81.0232 92.2671C81.262 92.2979 81.4982 92.3464 81.7298 92.4123C81.9713 92.4787 82.2039 92.5742 82.4224 92.6968ZM90.1003 93.142L91.9338 93.0899C92.5441 93.0701 93.1557 93.038 93.7623 93.0067L93.6684 93.0433C93.9595 92.787 94.276 92.561 94.6129 92.3688C94.7829 92.2723 94.9581 92.1854 95.1379 92.1085C95.3204 92.036 95.5071 91.9743 95.697 91.9237C96.4634 91.7243 97.2677 91.7218 98.0353 91.9165C98.7909 92.1107 99.5108 92.4239 100.168 92.8443C100.825 93.2582 101.431 93.7483 101.973 94.3044L101.736 94.216L102.496 94.1259C102.749 94.1005 102.995 94.0567 103.288 94.0533C103.855 94.0505 104.41 94.2186 104.88 94.5355C105.114 94.6913 105.322 94.8816 105.499 95.1C105.668 95.3173 105.805 95.5153 105.96 95.7239L106.864 96.9604C106.896 97.0042 106.91 97.0589 106.901 97.1126C106.893 97.1663 106.864 97.2146 106.82 97.2467C106.798 97.2631 106.772 97.2749 106.745 97.2813C106.52 97.3296 106.312 97.4327 106.137 97.5814C105.963 97.7478 105.823 97.9463 105.725 98.1659C105.62 98.3947 105.543 98.6354 105.497 98.8828C105.446 99.1322 105.418 99.3856 105.412 99.64L105.412 99.6556C105.411 99.6702 105.408 99.6846 105.401 99.6974C105.336 99.8063 105.252 99.9016 105.151 99.9777C105.064 100.049 104.977 100.116 104.888 100.18C104.711 100.314 104.522 100.432 104.325 100.533C104.112 100.627 103.881 100.669 103.649 100.656L103.331 100.642C103.232 100.632 103.132 100.636 103.034 100.654C102.846 100.695 102.679 100.803 102.564 100.958C102.449 101.118 102.39 101.312 102.395 101.509C102.38 101.922 102.479 102.331 102.68 102.692C103.123 103.408 103.736 104.003 104.466 104.424C105.188 104.864 105.956 105.223 106.756 105.495C106.777 105.502 106.796 105.514 106.813 105.528C106.829 105.543 106.842 105.56 106.852 105.58C106.862 105.6 106.868 105.621 106.869 105.643C106.87 105.665 106.867 105.687 106.86 105.708C106.857 105.716 106.854 105.724 106.85 105.732C106.699 106.018 106.535 106.284 106.369 106.55C106.202 106.815 106.032 107.077 105.86 107.338C105.516 107.859 105.169 108.377 104.809 108.887C104.789 108.915 104.763 108.939 104.733 108.956C104.703 108.973 104.67 108.983 104.636 108.985L104.628 108.986C102.237 109.149 99.8433 109.281 97.4483 109.384C96.2494 109.434 95.053 109.485 93.8432 109.481C93.693 109.483 93.5388 109.478 93.3847 109.473L93.1539 109.466L92.8979 109.441L92.7725 109.426L92.6711 109.41C92.6043 109.398 92.5359 109.387 92.4625 109.38C92.3196 109.363 92.1748 109.346 92.0274 109.333C91.4408 109.277 90.8454 109.24 90.251 109.21C89.6563 109.178 89.0603 109.162 88.4654 109.146C87.8716 109.131 87.2733 109.121 86.6915 109.147C86.5461 109.152 86.4024 109.166 86.2761 109.182C86.2128 109.188 85.9647 109.261 85.8263 109.27C85.5097 109.309 85.2084 109.323 84.9043 109.332C84.298 109.35 83.6952 109.346 83.0926 109.325C82.4902 109.301 81.8887 109.26 81.2881 109.2C80.6839 109.146 80.0838 109.054 79.4916 108.922C78.9336 108.744 78.3452 108.68 77.762 108.736C77.6189 108.757 77.4783 108.792 77.3423 108.841C77.201 108.885 77.0822 108.958 76.9126 109.002C76.889 109.008 76.8646 109.009 76.8404 109.007C76.8114 109.007 76.7831 108.998 76.7586 108.983C76.7349 108.977 76.694 108.916 76.7049 108.887C76.7063 108.858 76.7152 108.831 76.7308 108.806C76.777 108.74 76.833 108.681 76.897 108.631C77.0144 108.535 77.1378 108.447 77.2664 108.366C77.2733 108.362 77.2816 108.36 77.2896 108.362C77.2976 108.364 77.3046 108.369 77.309 108.375C77.3131 108.382 77.3145 108.39 77.313 108.398C77.3115 108.406 77.3073 108.413 77.301 108.417C77.182 108.505 77.0686 108.6 76.9615 108.703C76.9102 108.749 76.8658 108.802 76.8297 108.861C76.8263 108.872 76.8184 108.888 76.8224 108.886C76.8202 108.888 76.8217 108.887 76.8217 108.882C76.8186 108.878 76.8154 108.879 76.8218 108.879C76.83 108.882 76.8388 108.883 76.8473 108.881C76.8605 108.882 76.8736 108.88 76.8859 108.875C77.0047 108.838 77.1446 108.75 77.2853 108.694C77.4279 108.633 77.5763 108.586 77.7283 108.554C78.3361 108.455 78.9581 108.483 79.5544 108.638C80.1372 108.739 80.726 108.803 81.317 108.829C81.9104 108.861 82.505 108.875 83.1009 108.871C83.6956 108.869 84.291 108.861 84.8812 108.826C85.1751 108.809 85.4724 108.786 85.749 108.743C85.9096 108.722 85.9471 108.699 86.1775 108.647C86.3357 108.62 86.4951 108.602 86.6551 108.592C87.8775 108.514 89.0731 108.533 90.2785 108.576C90.8805 108.599 91.4813 108.628 92.0875 108.678C92.2386 108.689 92.3913 108.705 92.5456 108.725C92.6212 108.733 92.7007 108.745 92.7815 108.759L92.9016 108.779C92.9393 108.785 92.9665 108.785 92.9994 108.789L93.1902 108.808L93.4083 108.814C93.5535 108.819 93.6986 108.824 93.8479 108.823C95.0334 108.823 96.2315 108.793 97.4262 108.762C99.8174 108.693 102.21 108.595 104.603 108.508L104.422 108.607L105.523 107.106C105.704 106.854 105.882 106.601 106.058 106.346C106.232 106.091 106.406 105.834 106.556 105.574L106.649 105.811C105.836 105.503 105.06 105.106 104.335 104.627C103.621 104.145 102.926 103.573 102.502 102.786C102.29 102.392 102.189 101.947 102.21 101.5C102.205 101.265 102.275 101.035 102.41 100.844C102.551 100.65 102.758 100.514 102.992 100.462C103.105 100.439 103.22 100.432 103.335 100.441L103.658 100.45C103.856 100.456 104.053 100.414 104.232 100.329C104.412 100.23 104.584 100.115 104.745 99.9861C104.828 99.9225 104.91 99.8575 104.985 99.7885C105.053 99.7322 105.111 99.6652 105.158 99.5902L105.146 99.6476C105.14 99.3739 105.158 99.1003 105.201 98.8299C105.24 98.5559 105.313 98.2878 105.417 98.0314C105.524 97.7633 105.682 97.5187 105.883 97.3114C106.101 97.1054 106.369 96.9586 106.66 96.8848L106.541 97.2057L105.586 96.0105C105.429 95.8159 105.265 95.6018 105.112 95.4233C104.962 95.2486 104.787 95.097 104.593 94.9733C104.204 94.7272 103.752 94.5983 103.291 94.6022C103.074 94.6039 102.815 94.6469 102.561 94.6747L101.801 94.7645C101.759 94.7695 101.716 94.7646 101.675 94.7502C101.635 94.7358 101.599 94.7122 101.569 94.6813L101.564 94.6761C101.06 94.15 100.496 93.6846 99.8845 93.2891C99.2788 92.8883 98.6155 92.5823 97.9174 92.3819C97.2248 92.1888 96.4959 92.1653 95.7923 92.3134C95.0845 92.4807 94.4256 92.8109 93.8679 93.2778L93.8607 93.2835C93.836 93.3031 93.8055 93.314 93.7739 93.3144C93.1582 93.3228 92.5468 93.3034 91.9342 93.2873C91.322 93.2698 90.7102 93.2434 90.0991 93.2037C90.0912 93.2032 90.0837 93.1997 90.0784 93.1938C90.073 93.188 90.07 93.1803 90.0702 93.1723C90.0703 93.1644 90.0735 93.1568 90.0791 93.1511C90.0848 93.1455 90.0923 93.1422 90.1003 93.142L90.1003 93.142Z" fill="black"/>
<path d="M87.2206 102.997C87.0762 103.074 86.959 103.194 86.8849 103.34C86.8201 103.477 86.8023 103.631 86.8342 103.779C86.8645 103.93 86.9186 104.075 86.9945 104.208C87.0747 104.343 87.165 104.472 87.2647 104.594C87.6996 105.087 88.18 105.538 88.6996 105.942C89.2129 106.361 89.755 106.748 90.3083 107.122C90.8644 107.493 91.4365 107.841 92.0278 108.183C91.3605 108.023 90.7167 107.778 90.1122 107.453C89.5028 107.134 88.9259 106.756 88.3897 106.325C87.8408 105.896 87.3575 105.389 86.9552 104.82C86.8547 104.669 86.7694 104.508 86.7006 104.34C86.635 104.166 86.5989 103.982 86.5939 103.796C86.5906 103.604 86.6531 103.417 86.7709 103.266C86.885 103.127 87.044 103.032 87.2206 102.997ZM93.3561 97.5569C93.4203 97.4679 93.5025 97.3933 93.5974 97.3381C93.6922 97.2829 93.7977 97.2483 93.9068 97.2365C94.1341 97.2204 94.3612 97.2711 94.56 97.3824C94.9378 97.6054 95.2666 97.9023 95.5267 98.2554C96.0428 98.9056 96.5559 99.5629 97.0403 100.248C97.5316 100.934 97.9617 101.662 98.3256 102.424C98.5055 102.811 98.6474 103.214 98.7495 103.628C98.8532 104.042 98.869 104.473 98.7958 104.894C98.7477 104.053 98.374 103.313 97.9826 102.599C97.7736 102.247 97.5665 101.893 97.334 101.553C97.111 101.208 96.876 100.868 96.6364 100.531C96.1674 99.8503 95.6718 99.1813 95.2153 98.4792C95.0079 98.1398 94.7439 97.8385 94.4348 97.5883C94.2837 97.4688 94.1021 97.394 93.9106 97.3725C93.7087 97.3589 93.5096 97.4251 93.3561 97.5569ZM94.6844 108.748C95.0582 108.665 95.4274 108.562 95.7904 108.44C96.1365 108.32 96.4713 108.169 96.7907 107.989C96.9532 107.907 97.0975 107.797 97.2511 107.7C97.3927 107.587 97.5442 107.484 97.6783 107.357C97.9605 107.099 98.228 106.826 98.4796 106.539C98.389 106.933 98.2114 107.302 97.9599 107.62C97.7107 107.948 97.3948 108.22 97.0331 108.418C96.6769 108.621 96.2858 108.755 95.8802 108.813C95.4817 108.879 95.0735 108.857 94.6844 108.748Z" fill="black"/>
<path d="M87.5996 103.819C88.0855 103.301 88.5975 102.817 89.1182 102.344C89.6365 101.869 90.17 101.413 90.7036 100.957C91.243 100.508 91.7811 100.059 92.3317 99.6243L93.9881 98.316C93.5705 98.8893 93.1017 99.4235 92.5874 99.9121C92.0852 100.409 91.5574 100.877 91.0214 101.334C90.4793 101.784 89.9306 102.226 89.3611 102.641C88.795 103.064 88.207 103.458 87.5996 103.819ZM93.9585 93.3161C93.8697 93.3992 93.7904 93.4919 93.7221 93.5925C93.648 93.6985 93.5839 93.8113 93.5309 93.9294C93.4188 94.1747 93.359 94.4408 93.3556 94.7106C93.2763 94.4358 93.255 94.1475 93.293 93.8641C93.3113 93.7175 93.3433 93.5729 93.3885 93.4323C93.4344 93.2835 93.497 93.1404 93.5749 93.0057L93.5777 93.0011C93.6114 92.944 93.6663 92.9026 93.7305 92.886C93.7947 92.8694 93.8629 92.879 93.92 92.9126C93.9772 92.9462 94.0187 93.001 94.0354 93.0652C94.0521 93.1293 94.0427 93.1975 94.0093 93.2547C93.9956 93.2777 93.9785 93.2984 93.9585 93.3161Z" fill="black"/>
<path d="M93.5313 98.7744C92.7982 97.6684 92.0848 96.5502 91.3609 95.4385L89.2226 92.0828C89.2022 92.0508 89.1932 92.0129 89.1969 91.9752C89.2006 91.9375 89.2168 91.9021 89.243 91.8747L89.2459 91.8718C90.5899 90.4688 91.972 89.1066 93.3765 87.7637C94.0801 87.0937 94.7923 86.4317 95.5312 85.7966C95.901 85.4794 96.2727 85.1635 96.6604 84.8642C97.0481 84.5534 97.4591 84.273 97.8899 84.0255L98.0637 83.9378L98.2578 83.8649C98.3333 83.845 98.4103 83.8315 98.488 83.8248L98.6848 83.8282C98.949 83.8418 99.2087 83.9019 99.452 84.0056C99.6476 84.1127 99.8587 84.1885 100.078 84.23C100.29 84.23 100.497 84.1667 100.672 84.0484C100.773 83.9976 100.868 83.9242 100.966 83.8634L101.25 83.6508C101.445 83.5 101.642 83.3535 101.845 83.2152C102.251 82.9388 102.672 82.6893 103.1 82.4552C103.527 82.2202 103.963 82.0048 104.389 81.7789C104.598 81.6725 104.797 81.5464 104.982 81.4024C105.003 81.3869 105.02 81.3686 105.035 81.348C105.053 81.329 105.069 81.3076 105.081 81.2846C105.112 81.2334 105.142 81.1821 105.17 81.1304C105.227 81.0332 105.271 80.929 105.301 80.8203C105.313 80.782 105.313 80.7407 105.3 80.7026C105.29 80.6888 105.277 80.6774 105.262 80.6694C105.247 80.6615 105.23 80.6572 105.213 80.6568C105.1 80.6479 104.987 80.6519 104.875 80.6687C104.638 80.6949 104.401 80.7351 104.166 80.7837C103.931 80.8314 103.699 80.8917 103.471 80.9642C103.247 81.0243 103.038 81.1282 102.855 81.2698L102.853 81.2719C102.84 81.2834 102.824 81.2901 102.807 81.2911C102.79 81.2921 102.773 81.2873 102.759 81.2774C102.745 81.2675 102.735 81.2532 102.73 81.2368C102.725 81.2204 102.726 81.2029 102.733 81.1871C103.014 80.5188 103.284 79.8455 103.543 79.1672C103.81 78.4966 104.035 77.8094 104.214 77.1099C104.232 77.0253 104.245 76.9397 104.254 76.8535C104.257 76.8151 104.258 76.7765 104.254 76.738C104.252 76.722 104.248 76.7151 104.246 76.7024C104.241 76.6913 104.234 76.681 104.225 76.6718C104.188 76.6069 103.999 76.6741 103.868 76.769C103.586 76.9798 103.333 77.2278 103.117 77.5063C102.67 78.069 102.277 78.6723 101.943 79.3083C101.93 79.3325 101.911 79.3526 101.887 79.3664C101.863 79.3801 101.836 79.387 101.808 79.3861L101.803 79.386C101.416 79.3738 101.025 79.3701 100.639 79.3796C100.261 79.3791 99.8838 79.4144 99.5126 79.4852C99.3251 79.5684 99.1307 79.6354 98.9317 79.6853C98.8184 79.6884 98.7052 79.6769 98.5948 79.6512C98.5523 79.6444 98.5105 79.6412 98.468 79.6385C98.4283 79.6377 98.3886 79.6392 98.3491 79.6428C97.9932 79.6858 97.6518 79.8088 97.3503 80.0027C97.3174 80.0253 97.286 80.0501 97.2563 80.077L97.1518 80.1791C97.0721 80.2496 96.9886 80.3157 96.9016 80.3769C96.7358 80.4954 96.5692 80.603 96.4022 80.709C96.0727 80.9196 95.7231 81.1222 95.4257 81.33L95.3799 81.3659C95.3523 81.3858 95.314 81.411 95.283 81.4292L95.1473 81.5023L94.8839 81.6377L94.3602 81.904L93.3183 82.4407C91.9346 83.1645 90.5704 83.9242 89.2442 84.7418C87.9134 85.5435 86.6394 86.4356 85.431 87.4121C84.8337 87.8957 84.2797 88.4303 83.7752 89.0101C83.6572 89.1584 83.5275 89.2998 83.4237 89.4566L83.2596 89.6869C83.2072 89.7649 83.1624 89.8463 83.1132 89.9258C82.9187 90.238 82.7747 90.5789 82.6864 90.936C82.5424 91.6761 82.5547 92.438 82.7224 93.173C82.8779 93.9286 83.0989 94.6692 83.3828 95.3865C83.9573 96.8347 84.6443 98.2358 85.4373 99.5769C86.2207 100.928 87.0664 102.242 87.9747 103.52C87.9766 103.523 87.978 103.526 87.9788 103.529C87.9796 103.532 87.9797 103.535 87.9793 103.538C87.9788 103.542 87.9777 103.545 87.976 103.547C87.9743 103.55 87.9721 103.553 87.9695 103.555C87.9644 103.558 87.958 103.56 87.9517 103.559C87.9454 103.558 87.9396 103.555 87.9356 103.55C87.4454 102.938 86.9807 102.306 86.5298 101.664C86.0792 101.022 85.6397 100.372 85.2272 99.7032C84.3822 98.3731 83.6471 96.9763 83.0293 95.5267C82.723 94.7926 82.4813 94.0332 82.307 93.2571C82.1122 92.4634 82.0862 91.6376 82.2306 90.8331C82.3225 90.4272 82.4776 90.0382 82.6903 89.6803C82.7425 89.5925 82.7905 89.501 82.8466 89.4161L83.0209 89.1665C83.1328 88.9959 83.2669 88.8463 83.3914 88.6875C83.9101 88.0805 84.4807 87.5199 85.0967 87.0121C87.5458 84.9903 90.3125 83.4556 93.1013 82.0202L94.1532 81.492L94.6792 81.2314L94.9394 81.101L95.063 81.0362C95.0717 81.0307 95.0809 81.0258 95.0904 81.0218L95.1606 80.9677C95.5073 80.7296 95.8411 80.5477 96.1748 80.3424C96.3402 80.2416 96.5044 80.1395 96.6591 80.0331C96.7331 79.9831 96.8045 79.929 96.8727 79.8713L96.9801 79.7703C97.0236 79.7321 97.0696 79.6969 97.1179 79.6648C97.2977 79.5482 97.4921 79.4558 97.6961 79.3901C97.8968 79.3212 98.1049 79.276 98.316 79.2553C98.3741 79.251 98.4323 79.2501 98.4905 79.2529C98.5455 79.2572 98.6013 79.2629 98.6553 79.2724C98.7351 79.2932 98.817 79.3053 98.8994 79.3084C98.9757 79.2978 99.0499 79.2752 99.1193 79.2415C99.1645 79.2234 99.1919 79.2052 99.2534 79.1821C99.3084 79.1586 99.3656 79.1408 99.4242 79.1289C99.8241 79.0612 100.23 79.033 100.635 79.0448C101.031 79.046 101.423 79.0605 101.819 79.0838L101.679 79.1614C102.04 78.5204 102.458 77.9134 102.928 77.348C103.165 77.0573 103.441 76.8004 103.748 76.5844C103.832 76.5282 103.925 76.4844 104.022 76.4543C104.079 76.437 104.139 76.4313 104.199 76.4377C104.27 76.4458 104.335 76.4806 104.381 76.5351C104.425 76.5855 104.451 76.6485 104.457 76.7149C104.461 76.767 104.46 76.8194 104.454 76.8714C104.443 76.9658 104.426 77.0595 104.404 77.1519C104.21 77.8569 103.975 78.55 103.7 79.2277C103.436 79.9061 103.16 80.5789 102.871 81.2464L102.749 81.1637C102.949 81.0062 103.178 80.8888 103.422 80.8181C103.655 80.741 103.892 80.6764 104.132 80.6247C104.371 80.5723 104.611 80.5287 104.856 80.4987C104.984 80.4778 105.114 80.4729 105.243 80.484C105.287 80.4883 105.329 80.5028 105.366 80.5262C105.403 80.5497 105.434 80.5815 105.456 80.6191C105.491 80.6935 105.498 80.7777 105.477 80.8568C105.445 80.983 105.396 81.1042 105.332 81.2172C105.303 81.2726 105.273 81.3262 105.242 81.3793C105.206 81.4395 105.162 81.4939 105.11 81.5405C104.916 81.6977 104.706 81.8352 104.484 81.9511C104.06 82.1916 103.633 82.4189 103.218 82.6637C102.802 82.9076 102.396 83.1652 102.008 83.4464C101.814 83.5872 101.627 83.7351 101.442 83.8867L101.151 84.1183C101.045 84.1884 100.949 84.2672 100.835 84.3298C100.608 84.4871 100.339 84.5727 100.062 84.5756C99.9213 84.5682 99.7827 84.5371 99.6521 84.4838C99.5318 84.4368 99.4215 84.3858 99.3156 84.3461C99.1098 84.2646 98.8912 84.2204 98.67 84.2155L98.5032 84.2173C98.4608 84.2241 98.4187 84.2332 98.3773 84.2445L98.2327 84.3039L98.0838 84.3838C97.6778 84.6268 97.2909 84.9004 96.9265 85.2022C96.553 85.5035 96.1839 85.8126 95.8194 86.1294C95.0932 86.765 94.3759 87.4128 93.6673 88.0729C92.2492 89.3899 90.8676 90.7499 89.4925 92.1125L89.5158 91.9016L91.5606 95.3151C92.2309 96.4599 92.9119 97.5981 93.5732 98.7484C93.5764 98.754 93.5773 98.7606 93.5757 98.7668C93.5742 98.773 93.5702 98.7784 93.5648 98.7818C93.5593 98.7851 93.5528 98.7863 93.5465 98.7849C93.5402 98.7835 93.5348 98.7797 93.5312 98.7744L93.5313 98.7744Z" fill="black"/>
<path d="M103.8 94.2504C103.48 93.6407 103.217 93.0025 103.015 92.3442C102.807 91.6819 102.665 91.0008 102.591 90.3106C102.512 89.6102 102.535 88.9022 102.659 88.2085C102.791 87.53 102.934 86.8718 103.055 86.1992C103.185 85.531 103.303 84.8603 103.414 84.1887C103.447 84.0161 103.46 83.8676 103.513 83.6612C103.567 83.4693 103.657 83.2895 103.778 83.131C103.899 82.9739 104.049 82.8412 104.219 82.7398C104.402 82.6385 104.548 82.5904 104.705 82.5167C105.016 82.3802 105.323 82.235 105.631 82.0901L106.091 81.8685L106.319 81.7544L106.431 81.697C106.454 81.6844 106.476 81.6685 106.494 81.6498C106.527 81.597 106.542 81.5352 106.537 81.4732C106.533 81.4112 106.508 81.3523 106.468 81.305C106.43 81.2433 106.377 81.1925 106.313 81.1574C106.25 81.1224 106.179 81.1043 106.106 81.105C105.768 81.1062 105.436 81.1956 105.144 81.3643C105.418 81.1455 105.749 81.0083 106.098 80.9684C106.197 80.9554 106.297 80.9694 106.388 81.0088C106.478 81.0508 106.558 81.1128 106.621 81.1902C106.687 81.2691 106.732 81.3632 106.753 81.4641C106.765 81.521 106.766 81.5798 106.754 81.6368C106.743 81.6939 106.72 81.748 106.687 81.796C106.652 81.8438 106.608 81.8846 106.558 81.9162L106.447 81.9844L106.226 82.1174L105.78 82.377C105.482 82.5477 105.177 82.707 104.871 82.8643C104.722 82.9432 104.548 83.0194 104.436 83.0922C104.315 83.1712 104.21 83.2719 104.125 83.3892C104.042 83.5062 103.982 83.6377 103.948 83.7769C103.918 83.9025 103.901 84.096 103.876 84.26C103.778 84.9395 103.663 85.6161 103.539 86.2911C103.409 86.9626 103.26 87.6403 103.116 88.3003C102.982 88.9516 102.934 89.6175 102.973 90.2811C103.065 91.6359 103.343 92.9715 103.8 94.2504Z" fill="black"/>
<path d="M109.654 81.4032H106.613C106.581 81.4032 106.549 81.3902 106.526 81.3671C106.503 81.344 106.49 81.3126 106.49 81.2799C106.49 81.2472 106.503 81.2159 106.526 81.1927C106.549 81.1696 106.581 81.1566 106.613 81.1566H109.498L109.177 79.8082H103.432C103.399 79.8082 103.368 79.7952 103.345 79.7721C103.322 79.7489 103.309 79.7176 103.309 79.6849C103.309 79.6522 103.322 79.6208 103.345 79.5977C103.368 79.5746 103.399 79.5616 103.432 79.5616H109.275C109.303 79.5616 109.33 79.5709 109.351 79.5881C109.373 79.6053 109.388 79.6294 109.395 79.6564L109.774 81.2514C109.779 81.2695 109.779 81.2884 109.775 81.3066C109.771 81.3248 109.763 81.3418 109.751 81.3564C109.74 81.3711 109.725 81.3829 109.708 81.391C109.691 81.3991 109.673 81.4033 109.654 81.4032V81.4032Z" fill="black"/>
<path d="M106.281 79.6848C106.267 79.5645 106.219 79.4505 106.143 79.3557C106.075 79.2802 105.992 79.2199 105.899 79.1786C105.694 79.0972 105.477 79.0461 105.257 79.0269C105.141 79.0108 105.024 78.9955 104.901 78.9877C104.841 78.9809 104.78 78.9757 104.719 78.9663C104.658 78.9621 104.596 78.9574 104.534 78.9509C104.274 78.9277 104.016 78.885 103.763 78.823C103.999 78.6965 104.254 78.6087 104.518 78.5632C104.649 78.5361 104.782 78.5216 104.916 78.52C104.983 78.5179 105.05 78.5155 105.118 78.5177L105.323 78.5381C105.616 78.565 105.893 78.6777 106.122 78.8621C106.241 78.9684 106.326 79.1079 106.366 79.2627C106.382 79.3351 106.382 79.41 106.368 79.4826C106.353 79.5553 106.324 79.6241 106.281 79.6848ZM100.916 84.0901C100.692 84.8097 100.432 85.5107 100.164 86.2068C99.8983 86.9042 99.6131 87.5922 99.3417 88.2826C99.2006 88.6253 99.0662 88.9705 98.9421 89.3144C98.8784 89.4861 98.8191 89.6568 98.7736 89.8243C98.7541 89.8994 98.7395 89.9756 98.7297 90.0525C98.7269 90.1384 98.7258 90.2257 98.7304 90.3154C98.7723 91.0351 98.9095 91.7756 99.0183 92.5184C98.7 91.8287 98.4743 91.1 98.347 90.3511C98.3321 90.255 98.3227 90.1558 98.3159 90.055C98.3186 89.9459 98.3306 89.8372 98.3517 89.7301C98.3919 89.5339 98.4441 89.3483 98.4991 89.1659C98.6149 88.8027 98.7482 88.4504 98.8838 88.0996C99.168 87.4037 99.4743 86.72 99.8129 86.0515C100.145 85.3784 100.513 84.7236 100.916 84.0901ZM102.792 88.8669C102.72 89.0632 102.606 89.2415 102.458 89.3892C102.31 89.5429 102.132 89.6648 101.934 89.7474C101.834 89.7869 101.729 89.8165 101.623 89.8358C101.516 89.8506 101.408 89.8523 101.301 89.841C101.091 89.8215 100.889 89.7486 100.715 89.6293C100.91 89.654 101.107 89.6604 101.303 89.6485C101.488 89.636 101.67 89.5922 101.841 89.5191C102.194 89.3597 102.516 89.1389 102.792 88.8669ZM89.5294 92.1801C89.3255 92.2992 89.1205 92.4161 88.9127 92.5282C88.7069 92.6434 88.4941 92.7456 88.2754 92.8341C88.4472 92.678 88.6089 92.5112 88.7597 92.3347C88.9131 92.1608 89.0624 91.9832 89.2097 91.8042C89.2306 91.7787 89.2563 91.7576 89.2854 91.7421C89.3144 91.7265 89.3463 91.7169 89.3791 91.7136C89.4119 91.7104 89.445 91.7137 89.4766 91.7233C89.5081 91.7329 89.5374 91.7486 89.5629 91.7696C89.5883 91.7905 89.6094 91.8163 89.6249 91.8454C89.6403 91.8745 89.6499 91.9064 89.6531 91.9392C89.6562 91.972 89.6529 92.0051 89.6432 92.0366C89.6335 92.0681 89.6177 92.0974 89.5967 92.1228C89.5777 92.1456 89.555 92.165 89.5294 92.1801ZM105.4 100.573C105.717 100.952 106 101.337 106.312 101.696C106.464 101.877 106.627 102.05 106.798 102.213C106.972 102.377 107.163 102.524 107.367 102.649C107.118 102.61 106.881 102.512 106.678 102.363C106.473 102.218 106.287 102.048 106.125 101.857C105.964 101.668 105.821 101.465 105.699 101.25C105.573 101.037 105.472 100.809 105.4 100.573Z" fill="black"/>
<path d="M106.703 105.777C106.672 105.777 106.641 105.764 106.618 105.742C106.595 105.72 106.581 105.69 106.58 105.658C106.579 105.619 106.57 104.695 108.733 104.236C108.765 104.23 108.798 104.236 108.826 104.253C108.853 104.271 108.872 104.298 108.879 104.33C108.93 104.496 109.022 104.647 109.146 104.77C109.27 104.892 109.422 104.981 109.589 105.03C109.691 105.064 109.797 105.112 109.9 105.157C110.185 105.284 110.479 105.414 110.707 105.286C110.983 105.131 111.18 104.611 111.293 103.74C111.824 99.6618 114.585 98.2129 115.271 97.9134C114.428 96.8737 112.351 96.8274 111.474 96.8564L111.416 96.858C111.28 96.858 111.18 96.736 111.015 96.5337C110.838 96.307 110.639 96.099 110.42 95.9128C110.326 95.8358 110.279 95.8542 110.263 95.8605C110.086 95.9296 109.94 96.4416 109.893 96.783C109.889 96.814 109.873 96.8423 109.849 96.8621C109.825 96.8819 109.794 96.8917 109.763 96.8894C108.747 96.8001 107.723 96.905 106.746 97.1984C106.715 97.2097 106.681 97.2084 106.652 97.1947C106.622 97.1809 106.599 97.156 106.588 97.1253C106.576 97.0946 106.578 97.0607 106.591 97.031C106.605 97.0012 106.63 96.9782 106.661 96.9669C107.633 96.6682 108.653 96.5561 109.667 96.6363C109.715 96.3579 109.856 95.7547 110.173 95.6308C110.242 95.6062 110.317 95.6018 110.388 95.618C110.46 95.6342 110.525 95.6704 110.577 95.7224C110.808 95.9188 111.019 96.1383 111.206 96.3776C111.268 96.4652 111.342 96.5442 111.425 96.6125L111.465 96.6098C112.418 96.5779 114.725 96.6374 115.567 97.8997C115.577 97.9154 115.584 97.9334 115.586 97.9521C115.589 97.9708 115.587 97.9899 115.581 98.0078C115.575 98.0257 115.564 98.0419 115.551 98.0553C115.538 98.0687 115.522 98.0788 115.504 98.0849C115.47 98.0964 112.121 99.2895 111.538 103.772C111.41 104.751 111.185 105.3 110.828 105.501C110.491 105.69 110.123 105.527 109.8 105.383C109.698 105.337 109.601 105.294 109.511 105.264C109.324 105.207 109.152 105.108 109.008 104.976C108.864 104.844 108.751 104.682 108.677 104.501C106.852 104.915 106.827 105.641 106.827 105.649C106.827 105.665 106.825 105.681 106.819 105.696C106.813 105.711 106.805 105.725 106.794 105.737C106.783 105.749 106.77 105.759 106.755 105.765C106.74 105.772 106.724 105.776 106.708 105.777H106.703Z" fill="black"/>
<path d="M106.703 105.653C106.703 105.653 106.672 104.799 108.759 104.357C108.815 104.544 108.917 104.714 109.055 104.852C109.193 104.99 109.363 105.091 109.55 105.147C110.214 105.369 111.098 106.2 111.416 103.756C112.017 99.1382 115.464 97.9681 115.464 97.9681C118.911 98.822 120.334 101.226 121.251 102.206C122.169 103.186 125.205 104.483 128.43 105.969C131.656 107.456 131.625 108.752 131.625 108.752L104.616 108.748C104.616 108.748 106.261 106.476 106.703 105.653ZM108.536 96.7606C108.628 96.9508 108.675 97.16 108.672 97.3714C108.679 97.5836 108.632 97.7943 108.536 97.9835C108.46 97.7887 108.423 97.5815 108.425 97.3728C108.42 97.1634 108.457 96.955 108.536 96.7606ZM111.542 98.5279C111.638 98.5246 111.729 98.4841 111.796 98.4151C111.862 98.3461 111.9 98.2538 111.9 98.1578C111.9 98.0618 111.862 97.9696 111.796 97.9006C111.729 97.8315 111.638 97.7911 111.542 97.7878C111.446 97.7911 111.355 97.8315 111.289 97.9006C111.222 97.9696 111.185 98.0618 111.185 98.1578C111.185 98.2538 111.222 98.3461 111.289 98.4151C111.355 98.4841 111.446 98.5246 111.542 98.5279ZM112.175 97.3031C112.248 97.3174 112.317 97.3468 112.378 97.3894C112.439 97.4319 112.491 97.4867 112.53 97.5503C112.607 97.6699 112.652 97.8079 112.659 97.9502C112.666 98.088 112.639 98.2254 112.581 98.3506C112.521 98.4807 112.424 98.5899 112.301 98.6638C112.253 98.5423 112.218 98.4156 112.199 98.2862C112.181 98.1834 112.171 98.0796 112.166 97.9754C112.16 97.877 112.162 97.7809 112.164 97.6758C112.167 97.5686 112.174 97.4581 112.175 97.3031ZM39.9117 32.9722C39.8933 32.6204 39.8887 32.2686 39.8956 31.9168C39.9025 31.7213 39.9048 31.5258 39.9209 31.3304L39.9485 30.905C40.3555 30.9372 40.7625 30.9694 41.1695 30.9832L42.5308 31.0246C42.9861 31.0407 43.4391 31.043 43.8944 31.0338C44.2738 31.0269 44.6532 31.0108 45.0327 30.9947C45.0533 31.2752 45.0787 31.5603 45.1085 31.8547L45.1706 32.4387C45.1683 32.5629 45.1637 32.6871 45.1591 32.8113L43.8944 32.848C43.6254 32.8572 43.3563 32.8756 43.0896 32.8963C42.8711 32.8825 42.655 32.8733 42.4411 32.8664C42.0044 32.8465 41.5669 32.8495 41.1304 32.8756C40.7303 32.8986 40.3233 32.9446 39.9117 32.9722ZM43.8944 33.3286L45.2557 33.37C45.7087 33.3838 46.164 33.3861 46.617 33.3769C46.9964 33.37 47.3758 33.3562 47.7575 33.3378C47.7759 33.6207 47.8012 33.9035 47.8311 34.2001L47.9599 35.4143C47.454 35.3591 46.9803 35.32 46.5181 35.2855C46.0559 35.2533 45.6052 35.2234 45.1637 35.2119C44.727 35.1912 44.2895 35.1935 43.853 35.2188C43.4529 35.2441 43.0482 35.2901 42.6343 35.3177C42.6159 34.9659 42.6136 34.6118 42.6182 34.2599C42.6251 34.0645 42.6297 33.869 42.6435 33.6736L42.6688 33.3079C42.8344 33.3034 42.9999 33.2941 43.1632 33.2872C43.4069 33.3033 43.6507 33.3194 43.8944 33.3286ZM45.3523 32.8044C45.35 32.7124 45.3431 32.6204 45.3431 32.5284C45.3638 32.3491 45.3822 32.1651 45.4029 31.9765C45.4374 31.6316 45.465 31.2729 45.4856 30.9119C45.8628 30.9418 46.2399 30.9694 46.617 30.9832L47.9783 31.0246C48.4336 31.0406 48.8866 31.043 49.3419 31.0338C49.7213 31.0269 50.1007 31.0108 50.4801 30.9947C50.5008 31.2752 50.5238 31.5603 50.556 31.8547L50.6825 33.0688C50.1789 33.0159 49.7052 32.9768 49.2407 32.94C48.8521 32.9124 48.4727 32.8917 48.0979 32.8756C48.0686 32.8603 48.0365 32.8509 48.0036 32.848H47.9783C47.5253 32.8251 47.07 32.8067 46.617 32.7998C46.1962 32.7906 45.7731 32.7929 45.3523 32.8044Z" fill="black"/>
<path d="M48.3375 61.7663C48.3076 61.4719 48.2824 61.1868 48.264 60.9063C47.8822 60.9247 47.5028 60.9385 47.1234 60.9453C46.6704 60.9546 46.2151 60.9523 45.7621 60.9362L44.4008 60.8948C43.9938 60.881 43.5845 60.8488 43.1775 60.8166L43.1499 61.242C43.1361 61.4374 43.1315 61.6329 43.1246 61.8284C43.12 62.1802 43.1223 62.532 43.1407 62.8838C43.5546 62.8562 43.9593 62.8125 44.3594 62.7872C44.7959 62.7611 45.2334 62.7581 45.6701 62.778C45.884 62.7849 46.1001 62.7941 46.3186 62.8079C46.5876 62.7872 46.8544 62.7688 47.1234 62.7596L48.3881 62.7228C48.3927 62.5987 48.3973 62.4745 48.3996 62.3503L48.3375 61.7663ZM51.0624 64.1117C51.0302 63.8151 51.0072 63.5323 50.9865 63.2494C50.6071 63.2678 50.2277 63.2816 49.8483 63.2885C49.393 63.2977 48.94 63.2977 48.4847 63.2816L47.1234 63.2402C46.8797 63.231 46.6359 63.2149 46.3945 63.1988C46.2289 63.2057 46.0657 63.2149 45.8978 63.2195L45.8748 63.5852C45.8587 63.7806 45.8564 63.9761 45.8495 64.1715C45.8426 64.5256 45.8472 64.8775 45.8656 65.2293C46.2772 65.2017 46.6819 65.1557 47.082 65.1304C47.5185 65.1051 47.956 65.1028 48.3927 65.1235C48.8342 65.135 49.2849 65.1649 49.7471 65.1971C50.2116 65.2316 50.6853 65.2707 51.1889 65.3259L51.0624 64.1117ZM53.785 61.7663C53.7551 61.4719 53.7298 61.1868 53.7091 60.9063C53.3297 60.9247 52.9503 60.9385 52.5709 60.9453C52.1179 60.9546 51.6626 60.9523 51.2096 60.9362L49.8483 60.8948C49.4689 60.8833 49.0918 60.8534 48.7147 60.8235C48.694 61.1845 48.6664 61.5432 48.6319 61.8881C48.6135 62.0767 48.5928 62.2607 48.5721 62.44C48.5744 62.532 48.579 62.624 48.5813 62.716C49.0044 62.7045 49.4252 62.7022 49.8483 62.7114C50.3013 62.7183 50.7543 62.7366 51.2096 62.7596H51.2326C51.2655 62.7625 51.2976 62.7719 51.3269 62.7872C51.7017 62.8033 52.0811 62.824 52.4697 62.8516C52.9066 62.8861 53.355 62.9229 53.8264 62.9712C53.8379 62.7643 53.8448 62.5573 53.8471 62.348L53.785 61.7663ZM56.5674 60.0692C56.5538 59.8727 56.53 59.677 56.4961 59.4829C56.4639 59.2874 56.4294 59.092 56.4156 58.8965C56.4064 58.7862 56.4018 58.6735 56.3949 58.5631C56.027 58.5792 55.6614 58.593 55.2935 58.5999C54.8405 58.6091 54.3867 58.6068 53.9322 58.593L52.5709 58.5493C52.1639 58.5355 51.7569 58.5033 51.3499 58.4711L51.32 58.8965C51.3062 59.092 51.3016 59.2874 51.297 59.4829C51.2901 59.7795 51.2947 60.0762 51.3062 60.3728C51.727 60.359 52.1501 60.359 52.5709 60.3659C53.0239 60.3751 53.4792 60.3912 53.9322 60.4142L53.9575 60.4165C53.9906 60.4186 54.0228 60.428 54.0517 60.4441C54.1897 60.4487 54.3277 60.4533 54.468 60.4625C54.7048 60.4441 54.9416 60.4257 55.1785 60.4165L56.4271 60.3751C56.4754 60.3728 56.5237 60.3728 56.572 60.3728C56.5743 60.2716 56.572 60.1704 56.5674 60.0692ZM58.7657 61.764C58.7358 61.4719 58.7105 61.1914 58.6898 60.9132C58.3518 60.9293 58.0114 60.9408 57.6734 60.9476C57.2572 60.9523 56.841 60.9499 56.4271 60.9361L55.1785 60.8925C54.9669 60.8856 54.7531 60.8718 54.5392 60.8557C54.4127 60.8603 54.2863 60.8672 54.1598 60.8718C54.1391 61.2167 54.1138 61.5593 54.0793 61.8881C54.0609 62.0767 54.0402 62.2607 54.0195 62.44C54.0218 62.5872 54.0287 62.7367 54.0356 62.8838C54.4104 62.8562 54.7761 62.8102 55.1394 62.7872C55.5375 62.7611 55.9367 62.7581 56.3351 62.778C56.7375 62.7918 57.1491 62.8194 57.5722 62.8516C57.9976 62.8884 58.4322 62.9275 58.9013 62.9804L58.7657 61.764ZM57.8896 58.5631C57.5658 58.598 57.2401 58.611 56.9146 58.6022C56.91 58.701 56.9031 58.7999 56.8962 58.8965C56.8824 59.092 56.8479 59.2874 56.8157 59.4829C56.8065 59.5381 56.7996 59.5955 56.7904 59.6507C56.7766 59.7956 56.7605 59.9405 56.7444 60.0807C56.7398 60.1773 56.7375 60.2716 56.7398 60.3682C57.0525 60.3613 57.363 60.359 57.6734 60.3636C58.0896 60.3728 58.5035 60.3843 58.9197 60.4073L58.945 60.4096C58.9799 60.4114 59.0139 60.4211 59.0445 60.4378C59.0751 60.4545 59.1017 60.4779 59.1221 60.5061V58.3377C58.7192 58.4514 58.3066 58.5269 57.8896 58.5631V58.5631ZM41.8254 85.0807C41.7955 84.784 41.7702 84.5012 41.7495 84.2184C41.3701 84.2368 40.9907 84.2506 40.6113 84.2574C40.156 84.2666 39.7022 84.2644 39.25 84.2505L37.8864 84.2069C37.4794 84.1931 37.0724 84.1609 36.6654 84.1287L36.6378 84.5541C36.6217 84.7495 36.6194 84.945 36.6125 85.1404C36.6056 85.4923 36.6102 85.8441 36.6286 86.1982C36.939 86.1752 37.2472 86.1476 37.5507 86.1246C37.599 86.1177 37.6496 86.1154 37.7002 86.1108C37.7485 86.1085 37.799 86.1016 37.8473 86.0993H37.8887C37.897 86.0974 37.9055 86.0966 37.914 86.097C37.9416 86.0947 37.9715 86.0947 37.9991 86.0947C38.3808 86.0763 38.7648 86.074 39.158 86.0924C39.4294 86.0993 39.7053 86.1131 39.9835 86.1315C40.1928 86.1177 40.402 86.1039 40.6113 86.097L41.9289 86.0556L41.8254 85.0807ZM41.8254 89.7923C41.7955 89.4956 41.7702 89.2128 41.7495 88.9323C41.3701 88.9484 40.9907 88.9645 40.6113 88.9691C40.156 88.9783 39.703 88.9783 39.25 88.9622L39.1005 88.9576C38.6838 88.9867 38.2655 88.9813 37.8496 88.9415C37.7002 88.93 37.553 88.9139 37.4058 88.8932C37.1598 88.8794 36.9114 88.861 36.6654 88.8426L36.6378 89.268C36.6217 89.4635 36.6194 89.6589 36.6125 89.8544C36.6056 90.2062 36.6102 90.558 36.6286 90.9098C37.0402 90.8822 37.4472 90.8363 37.8473 90.8133C38.2837 90.786 38.7213 90.7829 39.158 90.8041C39.5995 90.8179 40.0479 90.8454 40.5101 90.8776C40.9746 90.9121 41.4483 90.9512 41.9542 91.0064L41.8254 89.7923ZM44.548 87.4468C44.5181 87.1525 44.4928 86.8674 44.4744 86.5868C44.095 86.6052 43.7133 86.619 43.3339 86.6259C42.8809 86.6351 42.4256 86.6328 41.9726 86.6167L40.6113 86.5753C40.3009 86.5661 39.9927 86.5431 39.6823 86.5201C39.5834 86.5247 39.4869 86.5293 39.3857 86.5316L39.3604 86.9225C39.3558 86.9984 39.3512 87.0766 39.3489 87.1525C39.3581 87.2721 39.3719 87.3893 39.3903 87.5089C39.4179 87.7044 39.4523 87.8998 39.4731 88.0953C39.4846 88.1941 39.4914 88.2953 39.4984 88.3942C39.8686 88.3873 40.2411 88.385 40.6113 88.3919C41.0643 88.3988 41.5196 88.4172 41.9726 88.4402L41.9979 88.4425C42.0308 88.4438 42.063 88.4524 42.0922 88.4678C42.4647 88.4839 42.8441 88.5069 43.235 88.5345C43.6972 88.569 44.1709 88.6081 44.6768 88.6609L44.548 87.4468ZM48.3375 61.7663C48.3076 61.4719 48.2824 61.1868 48.264 60.9062C47.8822 60.9247 47.5028 60.9384 47.1234 60.9453C46.6704 60.9545 46.2151 60.9522 45.7621 60.9361L44.4008 60.8948C43.9938 60.881 43.5845 60.8488 43.1775 60.8166L43.1499 61.242C43.1361 61.4374 43.1315 61.6329 43.1246 61.8283C43.12 62.1802 43.1223 62.532 43.1407 62.8838C43.5546 62.8562 43.9593 62.8125 44.3594 62.7872C44.7959 62.7611 45.2334 62.7581 45.6701 62.778C45.884 62.7849 46.1001 62.7941 46.3186 62.8079C46.5876 62.7872 46.8544 62.7688 47.1234 62.7596L48.3881 62.7228C48.3927 62.5987 48.3973 62.4745 48.3996 62.3503L48.3375 61.7663ZM51.0624 64.1117C51.0302 63.8151 51.0072 63.5322 50.9865 63.2494C50.6071 63.2678 50.2277 63.2816 49.8483 63.2885C49.393 63.2977 48.94 63.2977 48.4847 63.2816L47.1234 63.2402C46.8797 63.231 46.6359 63.2149 46.3945 63.1988C46.2289 63.2057 46.0657 63.2149 45.8978 63.2195L45.8748 63.5851C45.8587 63.7806 45.8564 63.9761 45.8495 64.1715C45.8426 64.5256 45.8472 64.8774 45.8656 65.2293C46.2772 65.2017 46.6819 65.1557 47.082 65.1304C47.5185 65.1051 47.956 65.1028 48.3927 65.1235C48.8342 65.135 49.2849 65.1649 49.7471 65.1971C50.2116 65.2316 50.6853 65.2706 51.1889 65.3258L51.0624 64.1117ZM53.785 61.7663C53.7551 61.4719 53.7298 61.1868 53.7091 60.9062C53.3297 60.9247 52.9503 60.9384 52.5709 60.9453C52.1179 60.9545 51.6626 60.9522 51.2096 60.9361L49.8483 60.8948C49.4689 60.8833 49.0918 60.8534 48.7147 60.8235C48.694 61.1845 48.6664 61.5432 48.6319 61.8881C48.6135 62.0767 48.5928 62.2607 48.5721 62.44C48.5744 62.532 48.579 62.624 48.5813 62.7159C49.0044 62.7044 49.4252 62.7021 49.8483 62.7113C50.3013 62.7182 50.7543 62.7366 51.2096 62.7596H51.2326C51.2655 62.7625 51.2976 62.7719 51.3269 62.7872C51.7017 62.8033 52.0811 62.824 52.4697 62.8516C52.9066 62.8861 53.355 62.9229 53.8264 62.9712C53.8379 62.7642 53.8448 62.5573 53.8471 62.348L53.785 61.7663ZM56.5674 60.0692C56.5538 59.8727 56.53 59.677 56.4961 59.4829C56.4639 59.2874 56.4294 59.092 56.4156 58.8965C56.4064 58.7861 56.4018 58.6735 56.3949 58.5631C56.027 58.5792 55.6614 58.593 55.2935 58.5999C54.8405 58.6091 54.3867 58.6068 53.9322 58.593L52.5709 58.5493C52.1639 58.5355 51.7569 58.5033 51.3499 58.4711L51.32 58.8965C51.3062 59.092 51.3016 59.2874 51.297 59.4829C51.2901 59.7795 51.2947 60.0762 51.3062 60.3728C51.727 60.359 52.1501 60.359 52.5709 60.3659C53.0239 60.3751 53.4792 60.3912 53.9322 60.4142L53.9575 60.4165C53.9906 60.4186 54.0228 60.428 54.0517 60.4441C54.1897 60.4487 54.3277 60.4533 54.468 60.4625C54.7048 60.4441 54.9416 60.4257 55.1785 60.4165L56.4271 60.3751C56.4754 60.3728 56.5237 60.3728 56.572 60.3728C56.5743 60.2716 56.572 60.1704 56.5674 60.0692V60.0692ZM58.7657 61.764C58.7358 61.4719 58.7105 61.1914 58.6898 60.9132C58.3518 60.9292 58.0114 60.9408 57.6734 60.9476C57.2572 60.9522 56.841 60.9499 56.4271 60.9361L55.1785 60.8925C54.9669 60.8856 54.7531 60.8718 54.5392 60.8557C54.4127 60.8603 54.2863 60.8672 54.1598 60.8718C54.1391 61.2167 54.1138 61.5593 54.0793 61.8881C54.0609 62.0767 54.0402 62.2607 54.0195 62.44C54.0218 62.5872 54.0287 62.7366 54.0356 62.8838C54.4104 62.8562 54.7761 62.8102 55.1394 62.7872C55.5375 62.7611 55.9367 62.7581 56.3351 62.778C56.7375 62.7918 57.1491 62.8194 57.5722 62.8516C57.9976 62.8884 58.4322 62.9275 58.9013 62.9804L58.7657 61.764ZM41.8254 85.0807C41.7955 84.784 41.7702 84.5012 41.7495 84.2184C41.3701 84.2368 40.9907 84.2506 40.6113 84.2574C40.156 84.2666 39.7022 84.2644 39.25 84.2505L37.8864 84.2069C37.4794 84.1931 37.0724 84.1609 36.6654 84.1287L36.6378 84.5541C36.6217 84.7495 36.6194 84.945 36.6125 85.1404C36.6056 85.4923 36.6102 85.8441 36.6286 86.1982C36.939 86.1752 37.2472 86.1476 37.5507 86.1246C37.599 86.1177 37.6496 86.1154 37.7002 86.1108C37.7485 86.1085 37.799 86.1016 37.8473 86.0993H37.8887C37.897 86.0974 37.9055 86.0966 37.914 86.097C37.9416 86.0947 37.9715 86.0947 37.9991 86.0947C38.3808 86.0763 38.7648 86.074 39.158 86.0924C39.4294 86.0993 39.7053 86.1131 39.9835 86.1315C40.1928 86.1177 40.402 86.1039 40.6113 86.097L41.9289 86.0556L41.8254 85.0807ZM41.8254 89.7923C41.7955 89.4956 41.7702 89.2128 41.7495 88.9323C41.3701 88.9484 40.9907 88.9645 40.6113 88.9691C40.156 88.9783 39.703 88.9783 39.25 88.9622L39.1005 88.9576C38.6838 88.9867 38.2655 88.9813 37.8496 88.9415C37.7002 88.93 37.553 88.9139 37.4058 88.8932C37.1598 88.8794 36.9114 88.861 36.6654 88.8426L36.6378 89.268C36.6217 89.4635 36.6194 89.6589 36.6125 89.8544C36.6056 90.2062 36.6102 90.558 36.6286 90.9098C37.0402 90.8822 37.4472 90.8363 37.8473 90.8133C38.2837 90.786 38.7213 90.7829 39.158 90.8041C39.5995 90.8179 40.0479 90.8454 40.5101 90.8776C40.9746 90.9121 41.4483 90.9512 41.9542 91.0064L41.8254 89.7923ZM44.548 87.4468C44.5181 87.1525 44.4928 86.8674 44.4744 86.5868C44.095 86.6052 43.7133 86.619 43.3339 86.6259C42.8809 86.6351 42.4256 86.6328 41.9726 86.6167L40.6113 86.5753C40.3009 86.5661 39.9927 86.5431 39.6823 86.5201C39.5834 86.5247 39.4869 86.5293 39.3857 86.5316L39.3604 86.9225C39.3558 86.9984 39.3512 87.0766 39.3489 87.1525C39.3581 87.2721 39.3719 87.3893 39.3903 87.5089C39.4179 87.7044 39.4523 87.8998 39.4731 88.0953C39.4846 88.1941 39.4914 88.2953 39.4984 88.3942C39.8686 88.3873 40.2411 88.385 40.6113 88.3919C41.0643 88.3988 41.5196 88.4172 41.9726 88.4402L41.9979 88.4425C42.0308 88.4438 42.063 88.4524 42.0922 88.4678C42.4647 88.4839 42.8441 88.5069 43.235 88.5345C43.6972 88.569 44.1709 88.6081 44.6768 88.6609L44.548 87.4468ZM48.3375 61.7663C48.3076 61.4719 48.2824 61.1868 48.264 60.9062C47.8822 60.9247 47.5028 60.9384 47.1234 60.9453C46.6704 60.9545 46.2151 60.9522 45.7621 60.9361L44.4008 60.8948C43.9938 60.881 43.5845 60.8488 43.1775 60.8166L43.1499 61.242C43.1361 61.4374 43.1315 61.6329 43.1246 61.8283C43.12 62.1802 43.1223 62.532 43.1407 62.8838C43.5546 62.8562 43.9593 62.8125 44.3594 62.7872C44.7959 62.7611 45.2334 62.7581 45.6701 62.778C45.884 62.7849 46.1001 62.7941 46.3186 62.8079C46.5876 62.7872 46.8544 62.7688 47.1234 62.7596L48.3881 62.7228C48.3927 62.5987 48.3973 62.4745 48.3996 62.3503L48.3375 61.7663ZM51.0624 64.1117C51.0302 63.8151 51.0072 63.5322 50.9865 63.2494C50.6071 63.2678 50.2277 63.2816 49.8483 63.2885C49.393 63.2977 48.94 63.2977 48.4847 63.2816L47.1234 63.2402C46.8797 63.231 46.6359 63.2149 46.3945 63.1988C46.2289 63.2057 46.0657 63.2149 45.8978 63.2195L45.8748 63.5851C45.8587 63.7806 45.8564 63.9761 45.8495 64.1715C45.8426 64.5256 45.8472 64.8774 45.8656 65.2293C46.2772 65.2017 46.6819 65.1557 47.082 65.1304C47.5185 65.1051 47.956 65.1028 48.3927 65.1235C48.8342 65.135 49.2849 65.1649 49.7471 65.1971C50.2116 65.2316 50.6853 65.2706 51.1889 65.3258L51.0624 64.1117ZM53.5275 107.921C53.4953 107.625 53.4723 107.342 53.4516 107.059C53.0722 107.077 52.6927 107.091 52.311 107.098C51.858 107.107 51.4043 107.105 50.9497 107.091L49.5885 107.048C49.1815 107.034 48.7744 107.002 48.3674 106.969L48.3398 107.395C48.3237 107.59 48.3214 107.786 48.3145 107.981C48.3076 108.333 48.3123 108.685 48.3306 109.039C48.7423 109.009 49.1469 108.965 49.5471 108.94C49.9835 108.914 50.4211 108.911 50.8578 108.933C51.2993 108.945 51.75 108.975 52.2122 109.007C52.6491 109.039 53.0952 109.076 53.5665 109.126C53.5803 108.919 53.585 108.71 53.5873 108.503L53.5275 107.921ZM53.785 61.7662C53.7551 61.4719 53.7298 61.1868 53.7091 60.9062C53.3297 60.9247 52.9503 60.9384 52.5709 60.9453C52.1179 60.9545 51.6626 60.9522 51.2096 60.9361L49.8483 60.8948C49.4689 60.8833 49.0918 60.8534 48.7147 60.8235C48.694 61.1845 48.6664 61.5432 48.6319 61.8881C48.6135 62.0767 48.5928 62.2606 48.5721 62.44C48.5744 62.532 48.579 62.624 48.5813 62.7159C49.0044 62.7044 49.4252 62.7021 49.8483 62.7113C50.3013 62.7182 50.7543 62.7366 51.2096 62.7596H51.2326C51.2655 62.7625 51.2976 62.7719 51.3268 62.7872C51.7017 62.8033 52.0811 62.824 52.4697 62.8516C52.9066 62.8861 53.355 62.9229 53.8264 62.9712C53.8379 62.7642 53.8448 62.5573 53.8471 62.348L53.785 61.7662ZM56.25 105.53C56.2201 105.233 56.1949 104.95 56.1742 104.668C55.7947 104.686 55.4153 104.7 55.0359 104.707C54.5829 104.716 54.1276 104.714 53.6746 104.7L52.3133 104.656C51.904 104.642 51.497 104.61 51.09 104.578L51.0624 105.003C51.0486 105.199 51.044 105.394 51.0371 105.59C51.0325 105.902 51.0371 106.215 51.0486 106.526C51.4694 106.514 51.8902 106.512 52.311 106.521C52.4651 106.523 52.6169 106.528 52.7686 106.532C53.0377 106.528 53.3067 106.528 53.5827 106.542C53.9161 106.551 54.2587 106.572 54.6036 106.592C54.7485 106.585 54.891 106.574 55.0359 106.569L56.3558 106.53L56.25 105.53ZM56.5674 60.0692C56.5538 59.8727 56.53 59.677 56.4961 59.4829C56.4639 59.2874 56.4294 59.092 56.4156 58.8965C56.4064 58.7862 56.4018 58.6735 56.3949 58.5631C56.027 58.5792 55.6614 58.593 55.2935 58.5999C54.8405 58.6091 54.3867 58.6068 53.9322 58.593L52.5709 58.5493C52.1639 58.5355 51.7569 58.5033 51.3499 58.4711L51.32 58.8965C51.3062 59.092 51.3016 59.2874 51.297 59.4829C51.2901 59.7795 51.2947 60.0762 51.3062 60.3728C51.727 60.359 52.1501 60.359 52.5709 60.3659C53.0239 60.3751 53.4792 60.3912 53.9322 60.4142L53.9575 60.4165C53.9906 60.4186 54.0228 60.428 54.0518 60.4441C54.1897 60.4487 54.3277 60.4533 54.468 60.4625C54.7048 60.4441 54.9416 60.4257 55.1785 60.4165L56.4271 60.3751C56.4754 60.3728 56.5237 60.3728 56.572 60.3728C56.5743 60.2716 56.572 60.1704 56.5674 60.0692H56.5674ZM58.7657 61.764C58.7358 61.4719 58.7105 61.1914 58.6898 60.9132C58.3518 60.9293 58.0114 60.9408 57.6734 60.9476C57.2572 60.9523 56.841 60.9499 56.4271 60.9361L55.1785 60.8925C54.9669 60.8856 54.7531 60.8718 54.5392 60.8557C54.4128 60.8603 54.2863 60.8672 54.1598 60.8718C54.1391 61.2167 54.1138 61.5593 54.0793 61.8881C54.0609 62.0767 54.0402 62.2607 54.0195 62.44C54.0218 62.5872 54.0287 62.7367 54.0356 62.8838C54.4104 62.8562 54.7761 62.8102 55.1394 62.7872C55.5375 62.7611 55.9367 62.7581 56.3351 62.778C56.7375 62.7918 57.1491 62.8194 57.5722 62.8516C57.9976 62.8884 58.4322 62.9275 58.9013 62.9804L58.7657 61.764ZM58.9749 107.921C58.9427 107.625 58.9197 107.342 58.899 107.059C58.5196 107.077 58.1402 107.091 57.7585 107.098C57.3055 107.107 56.8517 107.105 56.3972 107.091L55.0359 107.048C54.6611 107.036 54.284 107.006 53.9092 106.979H53.9046C53.8839 107.34 53.8563 107.698 53.8218 108.043C53.8011 108.232 53.7804 108.416 53.7597 108.595C53.762 108.742 53.7689 108.889 53.7781 109.039C54.1897 109.009 54.5944 108.965 54.9946 108.94C55.431 108.914 55.8685 108.911 56.3052 108.933C56.7467 108.945 57.1974 108.975 57.6596 109.007C58.1218 109.041 58.5955 109.08 59.1014 109.133L58.9749 107.921ZM59.1221 22.5188H36.4492V83.8344C36.4663 83.8252 36.4851 83.8198 36.5044 83.8183H36.5251C36.9804 83.7838 37.4334 83.7447 37.8864 83.7286L39.25 83.6872C39.703 83.6711 40.156 83.6711 40.6113 83.6803C41.0643 83.6872 41.5196 83.7056 41.9726 83.7286H41.9979C42.0563 83.7324 42.1112 83.7582 42.1513 83.8009C42.1914 83.8436 42.2138 83.8999 42.214 83.9585V83.9677C42.191 84.3885 42.1588 84.8024 42.1197 85.2025C42.0899 85.4992 42.0554 85.7797 42.0255 86.0533C42.4601 86.0396 42.897 86.0396 43.3339 86.0465C43.7892 86.0556 44.2429 86.0717 44.6951 86.0947L44.7204 86.097C44.7785 86.0998 44.8332 86.1247 44.8734 86.1666C44.9136 86.2086 44.9362 86.2643 44.9366 86.3224V86.3362C44.9159 86.7547 44.8837 87.1709 44.8423 87.5687C44.8032 87.9665 44.7572 88.3459 44.7158 88.7001C44.3134 88.7552 43.8788 88.7943 43.435 88.8288C43.0326 88.8587 42.6187 88.8817 42.2002 88.8978C42.1795 89.2427 42.1519 89.5854 42.1197 89.9142C42.0783 90.312 42.0324 90.6914 41.991 91.0455C41.5885 91.0984 41.154 91.1375 40.7102 91.172C40.2664 91.2065 39.8065 91.2341 39.3397 91.2479C38.8775 91.2663 38.4015 91.2663 37.9278 91.2387C37.4541 91.2111 36.985 91.1605 36.5251 91.1329H36.5136C36.4891 91.1317 36.466 91.121 36.4492 91.103V109.154H48.1191C48.1444 108.763 48.1467 108.372 48.1398 107.981C48.1329 107.786 48.1306 107.59 48.1145 107.395L48.0754 106.808C48.0735 106.771 48.0861 106.735 48.1106 106.707C48.135 106.679 48.1694 106.662 48.2065 106.659H48.2271C48.6802 106.624 49.1354 106.585 49.5885 106.569L50.8509 106.53C50.8647 106.217 50.8693 105.905 50.8624 105.59C50.8578 105.394 50.8532 105.199 50.8394 105.003L50.8003 104.417C50.7982 104.38 50.8105 104.344 50.8345 104.316C50.8585 104.288 50.8924 104.271 50.929 104.268H50.9497C51.405 104.233 51.858 104.194 52.3133 104.178L53.6746 104.136C54.1276 104.12 54.5829 104.12 55.0359 104.13C55.4889 104.136 55.9442 104.155 56.3972 104.178H56.4225C56.4806 104.182 56.5351 104.207 56.5752 104.249C56.6153 104.291 56.638 104.347 56.6386 104.405V104.417C56.6156 104.838 56.5857 105.252 56.5444 105.652C56.5145 105.958 56.48 106.247 56.4455 106.528C56.8847 106.514 57.3216 106.512 57.7585 106.521C58.2138 106.528 58.6668 106.546 59.1221 106.569V74.5422C58.4782 74.5928 57.8344 74.6226 57.1882 74.6387V74.6594C57.0249 74.6617 56.8617 74.6594 56.6984 74.6594C56.7533 74.8414 56.7804 75.0305 56.7789 75.2205C56.7844 75.4533 56.7429 75.6847 56.657 75.9011C56.5704 75.6849 56.5282 75.4534 56.5329 75.2205C56.5314 75.0305 56.5585 74.8414 56.6133 74.6594C56.4501 74.6594 56.2868 74.6617 56.1235 74.6594V74.6387C55.4728 74.6226 54.8197 74.5928 54.169 74.5399C54.8197 74.487 55.4728 74.4571 56.1235 74.4387V74.4203C56.4777 74.4157 56.8341 74.4157 57.1882 74.4203V74.4387C57.8344 74.4571 58.4782 74.487 59.1221 74.5376V61.3593C59.106 61.5386 59.0899 61.7157 59.0738 61.8904C59.0301 62.2882 58.9818 62.6677 58.9381 63.0195C58.5748 63.0724 58.1793 63.1115 57.7723 63.1483C57.3653 63.1805 56.9468 63.208 56.5168 63.2218C56.0846 63.2417 55.6517 63.2387 55.2198 63.2126C54.7829 63.1873 54.3529 63.1345 53.9321 63.1069H53.9183C53.8978 63.1056 53.8782 63.0978 53.8625 63.0845C53.8468 63.0713 53.8357 63.0533 53.831 63.0333C53.4608 63.0793 53.0721 63.1161 52.672 63.1483C52.2696 63.1759 51.8557 63.2011 51.4349 63.2149C51.4142 63.5622 51.3889 63.9048 51.3567 64.2336C51.3153 64.6314 51.2694 65.0108 51.228 65.3649C50.8256 65.4178 50.391 65.4569 49.9472 65.4914C49.5011 65.5236 49.0435 65.5535 48.5767 65.565C48.1062 65.5868 47.635 65.5845 47.1648 65.5581C46.6911 65.5305 46.222 65.4799 45.7621 65.4523L45.7483 65.45C45.7227 65.4484 45.6986 65.437 45.6811 65.4181C45.6636 65.3993 45.6539 65.3746 45.654 65.3489V65.3442C45.6793 64.9534 45.6816 64.5624 45.6747 64.1715C45.6678 63.9761 45.6655 63.7806 45.6494 63.5852L45.6264 63.2264C45.2355 63.2356 44.8377 63.2356 44.4399 63.2126C43.9662 63.1873 43.4971 63.1345 43.0372 63.1069H43.0257C43.0004 63.1053 42.9766 63.0943 42.9591 63.0759C42.9416 63.0576 42.9318 63.0333 42.9314 63.008V63.0011C42.9544 62.6102 42.959 62.2193 42.9498 61.8284C42.9452 61.6329 42.9406 61.4374 42.9268 61.242L42.8877 60.6556C42.8857 60.6189 42.898 60.5828 42.922 60.5549C42.946 60.5271 42.9799 60.5096 43.0165 60.5061L43.0372 60.5039C43.4925 60.4694 43.9455 60.4303 44.4008 60.4165L45.7621 60.3751C46.2151 60.359 46.6704 60.3567 47.1234 60.3659C47.5764 60.3751 48.0317 60.3912 48.4847 60.4142L48.51 60.4165C48.5704 60.4196 48.6272 60.446 48.6686 60.4901C49.0618 60.4602 49.455 60.4303 49.8483 60.4165L51.113 60.3774C51.1222 60.0785 51.1268 59.7818 51.1222 59.4829C51.1153 59.2874 51.1107 59.092 51.0969 58.8965L51.0578 58.3102C51.0558 58.2734 51.068 58.2373 51.0921 58.2095C51.1161 58.1816 51.1499 58.1641 51.1866 58.1607H51.2095C51.6625 58.1262 52.1178 58.0871 52.5708 58.071L53.9321 58.0296C54.3874 58.0135 54.8404 58.0135 55.2934 58.0227C55.7027 58.0296 56.1097 58.0434 56.5167 58.0641C56.5488 58.0473 56.584 58.0371 56.6202 58.0342L56.657 58.0319C57.0678 58.0047 57.4802 58.0132 57.8895 58.0572C58.3064 58.0945 58.7189 58.17 59.122 58.2826L59.1221 22.5188ZM41.9979 46.4862V46.5069C41.8346 46.5092 41.6691 46.5069 41.5058 46.5069C41.5604 46.689 41.5883 46.878 41.5886 47.068C41.593 47.3009 41.5508 47.5323 41.4644 47.7487C41.378 47.5323 41.3358 47.3009 41.3402 47.068C41.3405 46.878 41.3684 46.689 41.423 46.5069H40.9309V46.4863C40.2802 46.4679 39.6294 46.4403 38.9787 46.3874C39.6294 46.3322 40.2802 46.3046 40.9309 46.2862V46.2655C41.2873 46.2632 41.6415 46.2632 41.9979 46.2655V46.2862C42.6486 46.3046 43.2994 46.3345 43.9501 46.3874C43.2994 46.4403 42.6486 46.4678 41.9979 46.4862ZM50.9406 30.744C50.9199 31.1625 50.8877 31.5787 50.8486 31.9765C50.8072 32.3743 50.7612 32.7538 50.7198 33.1079C50.3174 33.1608 49.8828 33.1999 49.439 33.2366C49.0366 33.2642 48.6227 33.2895 48.2042 33.3033C48.1835 33.6506 48.1582 33.9932 48.1237 34.322C48.0846 34.7198 48.0363 35.0992 47.9972 35.4533C47.5948 35.5062 47.1602 35.5453 46.7164 35.5798C46.2703 35.612 45.8127 35.6419 45.3459 35.6534C44.8747 35.6752 44.4027 35.6729 43.9317 35.6465C43.458 35.6189 42.989 35.5683 42.5291 35.5407L42.5176 35.5384C42.4921 35.5373 42.4681 35.5264 42.4506 35.5079C42.433 35.4895 42.4232 35.465 42.4233 35.4396V35.4327C42.4463 35.0417 42.4509 34.6508 42.4417 34.2599C42.4371 34.0645 42.4325 33.869 42.4187 33.6736L42.3934 33.3148C42.0025 33.324 41.607 33.324 41.2092 33.301C40.7355 33.2758 40.2664 33.2229 39.8065 33.1953H39.7927C39.7663 33.1933 39.7417 33.1812 39.7241 33.1615C39.7065 33.1417 39.6973 33.1159 39.6984 33.0895V33.0872C39.7237 32.6986 39.726 32.3077 39.7191 31.9167C39.7122 31.7213 39.7099 31.5258 39.6938 31.3304L39.657 30.744C39.6556 30.7257 39.6578 30.7074 39.6635 30.6899C39.6692 30.6725 39.6783 30.6564 39.6903 30.6425C39.7023 30.6286 39.7169 30.6172 39.7332 30.609C39.7496 30.6008 39.7675 30.5958 39.7858 30.5946L39.8065 30.5923C40.2595 30.5578 40.7148 30.5187 41.1678 30.5049L42.5291 30.4635C42.9843 30.4474 43.4374 30.4451 43.8926 30.4543C44.3456 30.4635 44.7994 30.4796 45.2539 30.5026L45.2792 30.5049C45.339 30.508 45.3951 30.5344 45.4356 30.5785C45.8288 30.5486 46.222 30.5187 46.6152 30.5049L47.9765 30.4635C48.4318 30.4474 48.8848 30.4451 49.3401 30.4543C49.7931 30.4635 50.2469 30.4796 50.7014 30.5026L50.7244 30.5049C50.7824 30.5077 50.8372 30.5326 50.8774 30.5745C50.9176 30.6164 50.9402 30.6721 50.9405 30.7302L50.9406 30.744ZM55.1394 62.7872C55.5375 62.7611 55.9367 62.7581 56.3351 62.778C56.7375 62.7918 57.1491 62.8194 57.5722 62.8516C57.9976 62.8884 58.4322 62.9275 58.9013 62.9804L58.7657 61.764C58.7358 61.4719 58.7105 61.1914 58.6898 60.9132C58.3518 60.9293 58.0114 60.9408 57.6734 60.9476C57.2572 60.9523 56.841 60.9499 56.4271 60.9361L55.1785 60.8925C54.9669 60.8856 54.7531 60.8718 54.5392 60.8557C54.4127 60.8603 54.2863 60.8672 54.1598 60.8718C54.1391 61.2167 54.1138 61.5593 54.0793 61.8881C54.0609 62.0767 54.0402 62.2607 54.0195 62.44C54.0218 62.5872 54.0287 62.7367 54.0356 62.8838C54.4105 62.8562 54.7761 62.8102 55.1394 62.7872ZM53.9575 60.4165C53.9905 60.4186 54.0227 60.428 54.0517 60.4441C54.1897 60.4487 54.3277 60.4533 54.4679 60.4625C54.7048 60.4441 54.9416 60.4257 55.1785 60.4165L56.4271 60.3751C56.4754 60.3728 56.5237 60.3728 56.572 60.3728C56.5743 60.2716 56.572 60.1704 56.5674 60.0693C56.5538 59.8727 56.53 59.677 56.4961 59.4829C56.4639 59.2874 56.4294 59.092 56.4156 58.8965C56.4064 58.7862 56.4018 58.6735 56.3949 58.5631C56.027 58.5792 55.6614 58.593 55.2935 58.5999C54.8405 58.6091 54.3867 58.6068 53.9322 58.593L52.5709 58.5493C52.1639 58.5355 51.7569 58.5033 51.3499 58.4711L51.32 58.8965C51.3062 59.092 51.3016 59.2874 51.297 59.4829C51.2901 59.7795 51.2947 60.0762 51.3062 60.3728C51.727 60.359 52.1501 60.359 52.5709 60.3659C53.0239 60.3751 53.4792 60.3912 53.9322 60.4142L53.9575 60.4165ZM51.2326 62.7596C51.2655 62.7625 51.2976 62.7719 51.3269 62.7872C51.7017 62.8033 52.0811 62.824 52.4697 62.8516C52.9066 62.8861 53.355 62.9229 53.8264 62.9712C53.8379 62.7642 53.8448 62.5573 53.8471 62.348L53.785 61.7663C53.7551 61.4719 53.7298 61.1868 53.7091 60.9063C53.3297 60.9247 52.9503 60.9385 52.5709 60.9454C52.1179 60.9546 51.6626 60.9523 51.2096 60.9362L49.8483 60.8948C49.4689 60.8833 49.0918 60.8534 48.7147 60.8235C48.694 61.1845 48.6664 61.5432 48.6319 61.8881C48.6135 62.0767 48.5928 62.2607 48.5721 62.44C48.5744 62.532 48.579 62.624 48.5813 62.716C49.0044 62.7045 49.4252 62.7022 49.8483 62.7114C50.3013 62.7183 50.7543 62.7367 51.2096 62.7596L51.2326 62.7596ZM47.082 65.1304C47.5185 65.1051 47.956 65.1028 48.3927 65.1235C48.8342 65.135 49.2849 65.1649 49.7471 65.1971C50.2116 65.2316 50.6853 65.2707 51.1889 65.3259L51.0624 64.1117C51.0302 63.8151 51.0072 63.5323 50.9865 63.2494C50.6071 63.2678 50.2277 63.2816 49.8483 63.2885C49.393 63.2977 48.94 63.2977 48.4847 63.2816L47.1234 63.2402C46.8797 63.231 46.6359 63.2149 46.3945 63.1988C46.2289 63.2057 46.0656 63.2149 45.8978 63.2195L45.8748 63.5852C45.8587 63.7806 45.8564 63.9761 45.8495 64.1715C45.8426 64.5256 45.8472 64.8775 45.8656 65.2293C46.2772 65.2017 46.6819 65.1557 47.082 65.1304H47.082ZM47.1234 62.7596L48.3881 62.7228C48.3927 62.5987 48.3973 62.4745 48.3996 62.3503L48.3375 61.7663C48.3076 61.4719 48.2823 61.1868 48.2639 60.9063C47.8822 60.9247 47.5028 60.9385 47.1234 60.9453C46.6704 60.9546 46.2151 60.9523 45.7621 60.9362L44.4008 60.8948C43.9938 60.881 43.5845 60.8488 43.1775 60.8166L43.1499 61.242C43.1361 61.4374 43.1315 61.6329 43.1246 61.8284C43.12 62.1802 43.1223 62.532 43.1407 62.8838C43.5546 62.8562 43.9593 62.8125 44.3594 62.7872C44.7959 62.7611 45.2334 62.7581 45.6701 62.778C45.884 62.7849 46.1001 62.7941 46.3186 62.8079C46.5876 62.7872 46.8544 62.7688 47.1234 62.7596H47.1234ZM39.6823 86.5201C39.5834 86.5247 39.4868 86.5293 39.3857 86.5316L39.3604 86.9225C39.3558 86.9984 39.3512 87.0766 39.3489 87.1525C39.3581 87.2721 39.3719 87.3893 39.3902 87.5089C39.4178 87.7044 39.4523 87.8998 39.473 88.0953C39.4845 88.1942 39.4914 88.2953 39.4983 88.3942C39.8686 88.3873 40.2411 88.385 40.6113 88.3919C41.0643 88.3988 41.5196 88.4172 41.9726 88.4402L41.9979 88.4425C42.0308 88.4438 42.063 88.4525 42.0921 88.4678C42.4647 88.4839 42.8441 88.5069 43.235 88.5345C43.6972 88.569 44.1709 88.6081 44.6768 88.6609L44.548 87.4468C44.5181 87.1525 44.4928 86.8674 44.4744 86.5868C44.095 86.6052 43.7133 86.619 43.3339 86.6259C42.8809 86.6351 42.4256 86.6328 41.9726 86.6167L40.6113 86.5753C40.3009 86.5661 39.9927 86.5431 39.6823 86.5201H39.6823ZM36.6286 90.9098C37.0402 90.8822 37.4472 90.8363 37.8473 90.8133C38.2837 90.786 38.7213 90.7829 39.158 90.8041C39.5995 90.8179 40.0479 90.8455 40.5101 90.8777C40.9746 90.9121 41.4483 90.9512 41.9542 91.0064L41.8254 89.7923C41.7955 89.4957 41.7702 89.2128 41.7495 88.9323C41.3701 88.9484 40.9907 88.9645 40.6113 88.9691C40.156 88.9783 39.703 88.9783 39.25 88.9622L39.1005 88.9576C38.6838 88.9867 38.2654 88.9813 37.8496 88.9415C37.7002 88.93 37.553 88.9139 37.4058 88.8932C37.1598 88.8794 36.9114 88.861 36.6654 88.8426L36.6378 89.268C36.6217 89.4635 36.6194 89.6589 36.6125 89.8544C36.6056 90.2062 36.6102 90.558 36.6286 90.9098ZM41.7495 84.2184C41.3701 84.2368 40.9907 84.2506 40.6113 84.2575C40.156 84.2667 39.7022 84.2644 39.25 84.2506L37.8864 84.2069C37.4794 84.1931 37.0724 84.1609 36.6654 84.1287L36.6378 84.5541C36.6217 84.7495 36.6194 84.945 36.6125 85.1405C36.6056 85.4923 36.6102 85.8441 36.6286 86.1982C36.939 86.1752 37.2471 86.1476 37.5507 86.1246C37.599 86.1177 37.6496 86.1154 37.7001 86.1108C37.7484 86.1085 37.799 86.1016 37.8473 86.0993H37.8887C37.897 86.0974 37.9055 86.0967 37.914 86.097C37.9416 86.0947 37.9715 86.0947 37.9991 86.0947C38.3808 86.0763 38.7648 86.074 39.158 86.0924C39.4294 86.0993 39.7053 86.1131 39.9835 86.1315C40.1928 86.1177 40.402 86.1039 40.6113 86.097L41.9289 86.0556L41.8254 85.0807C41.7955 84.784 41.7702 84.5012 41.7495 84.2184H41.7495ZM58.7657 61.764C58.7358 61.4719 58.7105 61.1914 58.6898 60.9132C58.3518 60.9293 58.0114 60.9408 57.6734 60.9476C57.2572 60.9523 56.841 60.95 56.4271 60.9362L55.1785 60.8925C54.9669 60.8856 54.7531 60.8718 54.5392 60.8557C54.4127 60.8603 54.2863 60.8672 54.1598 60.8718C54.1391 61.2167 54.1138 61.5593 54.0793 61.8881C54.0609 62.0767 54.0402 62.2607 54.0195 62.44C54.0218 62.5872 54.0287 62.7367 54.0356 62.8838C54.4104 62.8562 54.7761 62.8102 55.1394 62.7872C55.5375 62.7611 55.9367 62.7581 56.3351 62.778C56.7375 62.7918 57.1491 62.8194 57.5722 62.8516C57.9976 62.8884 58.4322 62.9275 58.9013 62.9804L58.7657 61.764ZM56.5674 60.0692C56.5538 59.8727 56.53 59.677 56.4961 59.4829C56.4639 59.2874 56.4294 59.092 56.4156 58.8965C56.4064 58.7862 56.4018 58.6735 56.3949 58.5631C56.027 58.5792 55.6614 58.593 55.2935 58.5999C54.8405 58.6091 54.3867 58.6068 53.9322 58.593L52.5709 58.5493C52.1639 58.5355 51.7569 58.5033 51.3499 58.4711L51.32 58.8965C51.3062 59.092 51.3016 59.2874 51.297 59.4829C51.2901 59.7795 51.2947 60.0762 51.3062 60.3728C51.727 60.359 52.1501 60.359 52.5709 60.3659C53.0239 60.3751 53.4792 60.3912 53.9322 60.4142L53.9575 60.4165C53.9905 60.4186 54.0227 60.428 54.0517 60.4441C54.1897 60.4487 54.3277 60.4533 54.4679 60.4625C54.7048 60.4441 54.9416 60.4257 55.1785 60.4165L56.4271 60.3751C56.4754 60.3728 56.5237 60.3728 56.572 60.3728C56.5743 60.2716 56.572 60.1704 56.5674 60.0692H56.5674ZM53.785 61.7663C53.7551 61.4719 53.7298 61.1868 53.7091 60.9063C53.3297 60.9247 52.9503 60.9385 52.5709 60.9453C52.1179 60.9546 51.6626 60.9523 51.2096 60.9362L49.8483 60.8948C49.4689 60.8833 49.0918 60.8534 48.7147 60.8235C48.694 61.1845 48.6664 61.5432 48.6319 61.8881C48.6135 62.0767 48.5928 62.2607 48.5721 62.44C48.5744 62.532 48.579 62.624 48.5813 62.716C49.0044 62.7045 49.4252 62.7022 49.8483 62.7114C50.3013 62.7183 50.7543 62.7367 51.2096 62.7596H51.2326C51.2655 62.7625 51.2976 62.7719 51.3268 62.7872C51.7017 62.8033 52.0811 62.824 52.4697 62.8516C52.9066 62.8861 53.355 62.9229 53.8264 62.9712C53.8379 62.7643 53.8448 62.5573 53.8471 62.348L53.785 61.7663ZM51.0624 64.1117C51.0302 63.8151 51.0072 63.5323 50.9865 63.2494C50.6071 63.2678 50.2277 63.2816 49.8483 63.2885C49.393 63.2977 48.94 63.2977 48.4847 63.2816L47.1234 63.2402C46.8797 63.231 46.6359 63.2149 46.3945 63.1988C46.2289 63.2057 46.0657 63.2149 45.8978 63.2195L45.8748 63.5852C45.8587 63.7806 45.8564 63.9761 45.8495 64.1715C45.8426 64.5256 45.8472 64.8775 45.8656 65.2293C46.2772 65.2017 46.6819 65.1557 47.082 65.1304C47.5185 65.1051 47.956 65.1028 48.3927 65.1235C48.8342 65.135 49.2849 65.1649 49.7471 65.1971C50.2116 65.2316 50.6853 65.2707 51.1889 65.3259L51.0624 64.1117ZM48.3375 61.7663C48.3076 61.4719 48.2823 61.1868 48.2639 60.9063C47.8822 60.9247 47.5028 60.9385 47.1234 60.9453C46.6704 60.9546 46.2151 60.9523 45.7621 60.9362L44.4008 60.8948C43.9938 60.881 43.5845 60.8488 43.1775 60.8166L43.1499 61.242C43.1361 61.4374 43.1315 61.6329 43.1246 61.8284C43.12 62.1802 43.1223 62.532 43.1407 62.8838C43.5546 62.8562 43.9593 62.8125 44.3594 62.7872C44.7959 62.7611 45.2334 62.7581 45.6701 62.778C45.884 62.7849 46.1001 62.7941 46.3186 62.8079C46.5876 62.7872 46.8544 62.7688 47.1234 62.7596L48.3881 62.7229C48.3927 62.5987 48.3973 62.4745 48.3996 62.3503L48.3375 61.7663ZM44.548 87.4468C44.5181 87.1525 44.4928 86.8674 44.4744 86.5868C44.095 86.6052 43.7133 86.619 43.3339 86.6259C42.8809 86.6351 42.4256 86.6328 41.9726 86.6167L40.6113 86.5753C40.3009 86.5661 39.9927 86.5431 39.6823 86.5201C39.5834 86.5247 39.4869 86.5293 39.3857 86.5316L39.3604 86.9225C39.3558 86.9984 39.3512 87.0766 39.3489 87.1525C39.3581 87.2721 39.3719 87.3893 39.3903 87.5089C39.4179 87.7044 39.4523 87.8998 39.4731 88.0953C39.4846 88.1942 39.4914 88.2953 39.4984 88.3942C39.8686 88.3873 40.2411 88.385 40.6113 88.3919C41.0643 88.3988 41.5196 88.4172 41.9726 88.4402L41.9979 88.4425C42.0308 88.4438 42.063 88.4525 42.0922 88.4678C42.4647 88.4839 42.8441 88.5069 43.235 88.5345C43.6972 88.569 44.1709 88.6081 44.6768 88.6609L44.548 87.4468ZM41.8254 89.7923C41.7955 89.4957 41.7702 89.2128 41.7495 88.9323C41.3701 88.9484 40.9907 88.9645 40.6113 88.9691C40.156 88.9783 39.703 88.9783 39.25 88.9622L39.1005 88.9576C38.6838 88.9867 38.2655 88.9813 37.8496 88.9415C37.7002 88.93 37.553 88.9139 37.4058 88.8932C37.1598 88.8794 36.9114 88.861 36.6654 88.8426L36.6378 89.268C36.6217 89.4635 36.6194 89.6589 36.6125 89.8544C36.6056 90.2062 36.6102 90.558 36.6286 90.9098C37.0402 90.8822 37.4472 90.8363 37.8473 90.8133C38.2837 90.786 38.7213 90.7829 39.158 90.8041C39.5995 90.8179 40.0479 90.8455 40.5101 90.8777C40.9746 90.9121 41.4483 90.9512 41.9542 91.0064L41.8254 89.7923ZM41.8254 85.0807C41.7955 84.784 41.7702 84.5012 41.7495 84.2184C41.3701 84.2368 40.9907 84.2506 40.6113 84.2575C40.156 84.2667 39.7022 84.2644 39.25 84.2506L37.8864 84.2069C37.4794 84.1931 37.0724 84.1609 36.6654 84.1287L36.6378 84.5541C36.6217 84.7495 36.6194 84.945 36.6125 85.1405C36.6056 85.4923 36.6102 85.8441 36.6286 86.1982C36.939 86.1752 37.2472 86.1476 37.5507 86.1246C37.599 86.1177 37.6496 86.1154 37.7002 86.1108C37.7485 86.1085 37.799 86.1016 37.8473 86.0993H37.8887C37.897 86.0974 37.9055 86.0967 37.914 86.097C37.9416 86.0947 37.9715 86.0947 37.9991 86.0947C38.3808 86.0763 38.7648 86.074 39.158 86.0924C39.4294 86.0993 39.7053 86.1131 39.9835 86.1315C40.1928 86.1177 40.402 86.1039 40.6113 86.097L41.9289 86.0556L41.8254 85.0807ZM58.7657 61.764C58.7358 61.4719 58.7105 61.1914 58.6898 60.9132C58.3518 60.9293 58.0114 60.9408 57.6734 60.9476C57.2572 60.9523 56.841 60.9499 56.4271 60.9361L55.1785 60.8925C54.9669 60.8856 54.7531 60.8718 54.5392 60.8557C54.4127 60.8603 54.2863 60.8672 54.1598 60.8718C54.1391 61.2167 54.1138 61.5593 54.0793 61.8881C54.0609 62.0767 54.0402 62.2607 54.0195 62.44C54.0218 62.5872 54.0287 62.7367 54.0356 62.8838C54.4104 62.8562 54.7761 62.8102 55.1394 62.7872C55.5375 62.7611 55.9367 62.7581 56.3351 62.778C56.7375 62.7918 57.1491 62.8194 57.5722 62.8516C57.9976 62.8884 58.4322 62.9275 58.9013 62.9804L58.7657 61.764ZM56.5674 60.0692C56.5538 59.8727 56.53 59.677 56.4961 59.4829C56.4639 59.2874 56.4294 59.092 56.4156 58.8965C56.4064 58.7862 56.4018 58.6735 56.3949 58.5631C56.027 58.5792 55.6614 58.593 55.2935 58.5999C54.8405 58.6091 54.3867 58.6068 53.9322 58.593L52.5709 58.5493C52.1639 58.5355 51.7569 58.5033 51.3499 58.4711L51.32 58.8965C51.3062 59.092 51.3016 59.2874 51.297 59.4829C51.2901 59.7795 51.2947 60.0762 51.3062 60.3728C51.727 60.359 52.1501 60.359 52.5709 60.3659C53.0239 60.3751 53.4792 60.3912 53.9322 60.4142L53.9575 60.4165C53.9906 60.4186 54.0228 60.428 54.0517 60.4441C54.1897 60.4487 54.3277 60.4533 54.468 60.4625C54.7048 60.4441 54.9416 60.4257 55.1785 60.4165L56.4271 60.3751C56.4754 60.3728 56.5237 60.3728 56.572 60.3728C56.5743 60.2716 56.572 60.1704 56.5674 60.0692ZM53.785 61.7663C53.7551 61.4719 53.7298 61.1868 53.7091 60.9063C53.3297 60.9247 52.9503 60.9385 52.5709 60.9453C52.1179 60.9546 51.6626 60.9523 51.2096 60.9362L49.8483 60.8948C49.4689 60.8833 49.0918 60.8534 48.7147 60.8235C48.694 61.1845 48.6664 61.5432 48.6319 61.8881C48.6135 62.0767 48.5928 62.2607 48.5721 62.44C48.5744 62.532 48.579 62.624 48.5813 62.716C49.0044 62.7045 49.4252 62.7022 49.8483 62.7114C50.3013 62.7183 50.7543 62.7366 51.2096 62.7596H51.2326C51.2655 62.7625 51.2976 62.7719 51.3269 62.7872C51.7017 62.8033 52.0811 62.824 52.4697 62.8516C52.9066 62.8861 53.355 62.9229 53.8264 62.9712C53.8379 62.7643 53.8448 62.5573 53.8471 62.348L53.785 61.7663ZM51.0624 64.1117C51.0302 63.8151 51.0072 63.5323 50.9865 63.2494C50.6071 63.2678 50.2277 63.2816 49.8483 63.2885C49.393 63.2977 48.94 63.2977 48.4847 63.2816L47.1234 63.2402C46.8797 63.231 46.6359 63.2149 46.3945 63.1988C46.2289 63.2057 46.0657 63.2149 45.8978 63.2195L45.8748 63.5852C45.8587 63.7806 45.8564 63.9761 45.8495 64.1715C45.8426 64.5256 45.8472 64.8775 45.8656 65.2293C46.2772 65.2017 46.6819 65.1557 47.082 65.1304C47.5185 65.1051 47.956 65.1028 48.3927 65.1235C48.8342 65.135 49.2849 65.1649 49.7471 65.1971C50.2116 65.2316 50.6853 65.2707 51.1889 65.3259L51.0624 64.1117ZM48.3375 61.7663C48.3076 61.4719 48.2824 61.1868 48.264 60.9063C47.8822 60.9247 47.5028 60.9385 47.1234 60.9453C46.6704 60.9546 46.2151 60.9523 45.7621 60.9362L44.4008 60.8948C43.9938 60.881 43.5845 60.8488 43.1775 60.8166L43.1499 61.242C43.1361 61.4374 43.1315 61.6329 43.1246 61.8284C43.12 62.1802 43.1223 62.532 43.1407 62.8838C43.5546 62.8562 43.9593 62.8125 44.3594 62.7872C44.7959 62.7611 45.2334 62.7581 45.6701 62.778C45.884 62.7849 46.1001 62.7941 46.3186 62.8079C46.5876 62.7872 46.8544 62.7688 47.1234 62.7596L48.3881 62.7228C48.3927 62.5987 48.3973 62.4745 48.3996 62.3503L48.3375 61.7663ZM44.548 87.4468C44.5181 87.1525 44.4928 86.8674 44.4744 86.5868C44.095 86.6052 43.7133 86.619 43.3339 86.6259C42.8809 86.6351 42.4256 86.6328 41.9726 86.6167L40.6113 86.5753C40.3009 86.5661 39.9927 86.5431 39.6823 86.5201C39.5834 86.5247 39.4869 86.5293 39.3857 86.5316L39.3604 86.9225C39.3558 86.9984 39.3512 87.0766 39.3489 87.1525C39.3581 87.2721 39.3719 87.3893 39.3903 87.5089C39.4179 87.7044 39.4523 87.8998 39.4731 88.0953C39.4846 88.1942 39.4914 88.2953 39.4984 88.3942C39.8686 88.3873 40.2411 88.385 40.6113 88.3919C41.0643 88.3988 41.5196 88.4172 41.9726 88.4402L41.9979 88.4425C42.0308 88.4438 42.063 88.4525 42.0922 88.4678C42.4647 88.4839 42.8441 88.5069 43.235 88.5345C43.6972 88.569 44.1709 88.6081 44.6768 88.6609L44.548 87.4468ZM41.8254 89.7923C41.7955 89.4957 41.7702 89.2128 41.7495 88.9323C41.3701 88.9484 40.9907 88.9645 40.6113 88.9691C40.156 88.9783 39.703 88.9783 39.25 88.9622L39.1005 88.9576C38.6838 88.9867 38.2655 88.9813 37.8496 88.9415C37.7002 88.93 37.553 88.9139 37.4058 88.8932C37.1598 88.8794 36.9114 88.861 36.6654 88.8426L36.6378 89.268C36.6217 89.4635 36.6194 89.6589 36.6125 89.8544C36.6056 90.2062 36.6102 90.558 36.6286 90.9098C37.0402 90.8822 37.4472 90.8363 37.8473 90.8133C38.2837 90.786 38.7213 90.7829 39.158 90.8041C39.5995 90.8179 40.0479 90.8455 40.5101 90.8777C40.9746 90.9121 41.4483 90.9512 41.9542 91.0064L41.8254 89.7923ZM41.8254 85.0807C41.7955 84.784 41.7702 84.5012 41.7495 84.2184C41.3701 84.2368 40.9907 84.2506 40.6113 84.2575C40.156 84.2667 39.7022 84.2644 39.25 84.2506L37.8864 84.2069C37.4794 84.1931 37.0724 84.1609 36.6654 84.1287L36.6378 84.5541C36.6217 84.7495 36.6194 84.945 36.6125 85.1405C36.6056 85.4923 36.6102 85.8441 36.6286 86.1982C36.939 86.1752 37.2472 86.1476 37.5507 86.1246C37.599 86.1177 37.6496 86.1154 37.7002 86.1108C37.7485 86.1085 37.799 86.1016 37.8473 86.0993H37.8887C37.897 86.0974 37.9055 86.0967 37.914 86.097C37.9416 86.0947 37.9715 86.0947 37.9991 86.0947C38.3808 86.0763 38.7648 86.074 39.158 86.0924C39.4294 86.0993 39.7053 86.1131 39.9835 86.1315C40.1928 86.1177 40.402 86.1039 40.6113 86.097L41.9289 86.0556L41.8254 85.0807ZM39.1373 86.9225L39.112 86.5386C38.9626 86.5431 38.8131 86.5477 38.6613 86.5477C38.636 86.5523 38.6084 86.5569 38.5808 86.5592C38.3595 86.5853 38.1363 86.5907 37.914 86.5753C37.6908 86.5659 37.4682 86.5452 37.2471 86.5132C37.1322 86.4949 37.0149 86.4742 36.8999 86.4489C36.7758 86.4397 36.6493 86.4282 36.5251 86.4213L36.5136 86.419C36.4894 86.4186 36.4662 86.4087 36.4492 86.3914V88.5483C36.4663 88.5392 36.4851 88.5337 36.5044 88.5322L36.5251 88.5299C36.8194 88.5092 37.1115 88.4862 37.4058 88.4678C37.553 88.4494 37.7001 88.431 37.8496 88.4195C38.2318 88.3839 38.6161 88.3769 38.9994 88.3988C39.0062 88.2976 39.0132 88.1964 39.0246 88.0953C39.0453 87.8998 39.0798 87.7044 39.1074 87.5089C39.1258 87.3893 39.1396 87.2721 39.1488 87.1525C39.1465 87.0766 39.1419 86.9984 39.1373 86.9225ZM59.1211 109.153C60.5938 108.983 62.0673 108.885 63.5411 108.813C64.2779 108.77 65.0151 108.754 65.7521 108.725L67.9636 108.678L70.1755 108.671C70.913 108.683 71.6503 108.681 72.388 108.706C73.8631 108.743 75.3385 108.806 76.8149 108.942C75.3422 109.114 73.8687 109.212 72.3949 109.284C71.658 109.327 70.9209 109.342 70.1839 109.372L67.9724 109.418L65.7604 109.424C65.0229 109.412 64.2856 109.414 63.548 109.388C62.0728 109.351 60.5974 109.289 59.1211 109.153Z" fill="black"/>
<path d="M59.1219 60.5062V61.3593C59.1403 61.1293 59.1564 60.8925 59.1679 60.6556C59.1708 60.6019 59.1545 60.549 59.1219 60.5062ZM59.1219 58.2826V58.3378C59.1262 58.3363 59.1301 58.3339 59.1333 58.3307C59.1365 58.3275 59.1389 58.3236 59.1403 58.3193C59.1425 58.312 59.1418 58.3042 59.1384 58.2973C59.135 58.2905 59.1291 58.2852 59.1219 58.2826ZM36.3755 88.6817L36.4123 89.268C36.4284 89.4635 36.4307 89.6589 36.4376 89.8544C36.4445 90.243 36.4422 90.6339 36.4169 91.0248V91.0294C36.4166 91.0433 36.4193 91.057 36.4249 91.0698C36.4305 91.0825 36.4387 91.0938 36.4491 91.103V88.5483C36.425 88.5607 36.4051 88.58 36.392 88.6038C36.3789 88.6275 36.3732 88.6546 36.3755 88.6817ZM36.3755 83.9677L36.4123 84.5541C36.4284 84.7495 36.4307 84.945 36.4376 85.1405C36.4445 85.5314 36.4422 85.9223 36.4169 86.3132V86.3178C36.4168 86.3316 36.4197 86.3453 36.4252 86.358C36.4308 86.3707 36.4389 86.382 36.4491 86.3914V83.8344C36.4253 83.8472 36.4058 83.8666 36.3927 83.8902C36.3797 83.9139 36.3737 83.9408 36.3755 83.9677ZM59.1426 74.5399C59.1357 74.5395 59.1287 74.5403 59.1219 74.5422V74.5376C59.1287 74.5395 59.1357 74.5402 59.1426 74.5399Z" fill="white"/>
</svg>
