<svg width="200" height="134" viewBox="0 0 200 134" fill="none" xmlns="http://www.w3.org/2000/svg">
<g clip-path="url(#clip0_348_17641)">
<path d="M0 0H200V133.333H0V0Z" fill="white"/>
<path d="M53.7466 64.2911C51.0326 76.078 70.091 104.316 100.321 100.345C114.381 98.4969 114.453 91.3869 126.178 84.0376C133.166 79.6573 142.564 77.06 146.352 69.586C149.623 63.1349 149.616 55.5889 146.826 50.1964C140.552 38.0696 125.402 27.8789 106.285 41.9456C87.1677 56.012 60.749 33.8927 53.7466 64.2911Z" fill="url(#paint0_linear_348_17641)"/>
<path d="M111.859 99.9604C121.419 92.0956 131.311 83.664 141.999 81.0698C153.025 78.3911 153.931 82.1053 153.217 87.4333C152.502 92.7611 146.266 104.167 131.281 107.592C116.293 111.019 102.912 107.322 111.859 99.9604Z" fill="url(#paint1_linear_348_17641)"/>
<path d="M85.0463 108.819H138.267C139.754 108.819 140.956 107.617 140.956 106.13V88.4049C140.956 86.9178 139.754 85.716 138.267 85.716H85.0463C83.5592 85.716 82.3574 86.9178 82.3574 88.4049V106.138C82.3574 107.617 83.5592 108.819 85.0463 108.819Z" fill="#CDDEFF"/>
<path d="M130.7 100.634H108.725M130.717 94.5711H91.7734H130.717Z" stroke="white" stroke-width="2.08828" stroke-miterlimit="10" stroke-linecap="round" stroke-linejoin="round"/>
<path d="M134.467 108.786V98.3315L147.791 108.786H134.467Z" fill="#CDDEFF"/>
<path fill-rule="evenodd" clip-rule="evenodd" d="M165.649 106.705V107.75C165.649 108.327 165.187 108.796 164.618 108.796H152.241C151.671 108.796 151.209 108.327 151.209 107.75V106.688C151.209 103.526 154.776 101.471 158.429 101.471C162.083 101.471 165.649 103.527 165.649 106.688V106.705ZM161.019 92.2887C162.449 93.7189 162.449 96.0378 161.019 97.468C159.589 98.8982 157.27 98.8982 155.839 97.468C154.409 96.0378 154.409 93.7189 155.839 92.2887C157.27 90.8584 159.589 90.8584 161.019 92.2887Z" fill="#CDDEFF"/>
<path d="M85.0463 46.0349H138.267C139.754 46.0349 140.956 44.8331 140.956 43.346V25.6207C140.956 25.2675 140.887 24.9177 140.752 24.5913C140.617 24.2649 140.419 23.9684 140.169 23.7186C139.919 23.4689 139.623 23.2709 139.296 23.1359C138.97 23.0009 138.62 22.9316 138.267 22.932H85.0463C83.5592 22.932 82.3574 24.1336 82.3574 25.6207V43.3536C82.3574 44.8331 83.5592 46.0349 85.0463 46.0349Z" fill="#CDDEFF"/>
<path d="M130.7 37.8496H108.725M130.717 31.7871H91.7734H130.717Z" stroke="white" stroke-width="2.08828" stroke-miterlimit="10" stroke-linecap="round" stroke-linejoin="round"/>
<path d="M134.467 46.0022V35.5473L147.791 46.0022H134.467Z" fill="#CDDEFF"/>
<path fill-rule="evenodd" clip-rule="evenodd" d="M165.649 43.9211V44.9662C165.649 45.5431 165.187 46.0113 164.618 46.0113H152.241C151.671 46.0113 151.209 45.5431 151.209 44.9662V43.9042C151.209 40.7416 154.776 38.6867 158.429 38.6867C162.083 38.6867 165.649 40.7425 165.649 43.9042V43.9211ZM161.019 29.5047C162.449 30.9349 162.449 33.2538 161.019 34.684C159.589 36.1142 157.27 36.1142 155.839 34.684C154.409 33.2538 154.409 30.9349 155.839 29.5047C157.27 28.0745 159.589 28.0745 161.019 29.5047Z" fill="#CDDEFF"/>
<path d="M114.828 77.4269H61.6069C60.1197 77.4269 58.918 76.2251 58.918 74.738V57.0127C58.9176 56.6595 58.9869 56.3097 59.1219 55.9833C59.257 55.6569 59.455 55.3604 59.7048 55.1106C59.9545 54.8609 60.2511 54.6629 60.5775 54.5279C60.9039 54.3929 61.2537 54.3236 61.6069 54.324H114.828C116.315 54.324 117.516 55.5256 117.516 57.0127V74.7456C117.516 76.2251 116.315 77.4269 114.828 77.4269Z" fill="#CDDEFF"/>
<path d="M69.1712 69.2416H91.1456M69.1543 63.1791H108.097H69.1543Z" stroke="white" stroke-width="2.08828" stroke-miterlimit="10" stroke-linecap="round" stroke-linejoin="round"/>
<path d="M65.4058 77.3945V66.9396L52.082 77.3945H65.4058Z" fill="#CDDEFF"/>
<path fill-rule="evenodd" clip-rule="evenodd" d="M34.2227 75.3131V76.3582C34.2227 76.9351 34.6847 77.4036 35.2542 77.4036H47.6315C48.2009 77.4036 48.6631 76.9351 48.6631 76.3582V75.2965C48.6631 72.1336 45.0962 70.0787 41.4429 70.0787C37.7895 70.0787 34.2227 72.1347 34.2227 75.2965V75.3131ZM38.8531 60.8967C37.4229 62.3269 37.4229 64.6458 38.8531 66.076C40.2833 67.5062 42.6022 67.5062 44.0324 66.076C45.4629 64.6458 45.4629 62.3269 44.0324 60.8967C42.6022 59.4664 40.2833 59.4664 38.8531 60.8967Z" fill="#CDDEFF"/>
<path fill-rule="evenodd" clip-rule="evenodd" d="M138.8 64.5016H138.085C138.002 64.5014 137.923 64.4685 137.865 64.41C137.806 64.3515 137.773 64.2722 137.773 64.1896V63.4749C137.773 63.3022 137.914 63.1631 138.085 63.1631H138.8C138.971 63.1631 139.112 63.3036 139.112 63.4749V64.1896C139.112 64.2306 139.104 64.2712 139.088 64.3091C139.073 64.347 139.05 64.3814 139.021 64.4104C138.992 64.4394 138.957 64.4624 138.919 64.478C138.881 64.4937 138.841 64.5017 138.8 64.5016ZM136.322 64.5016H135.607C135.525 64.5012 135.446 64.4682 135.387 64.4098C135.329 64.3513 135.296 64.2722 135.296 64.1896V63.4749C135.296 63.3022 135.436 63.1631 135.607 63.1631H136.322C136.493 63.1631 136.634 63.3036 136.634 63.4749V64.1896C136.634 64.2722 136.601 64.3513 136.542 64.4098C136.484 64.4682 136.405 64.5012 136.322 64.5016ZM133.843 64.5016H133.128C133.046 64.5012 132.966 64.4682 132.908 64.4098C132.85 64.3513 132.817 64.2722 132.816 64.1896V63.4749C132.816 63.3022 132.957 63.1631 133.128 63.1631H133.843C134.014 63.1631 134.155 63.3036 134.155 63.4749V64.1896C134.155 64.2305 134.147 64.2712 134.131 64.309C134.116 64.3469 134.093 64.3814 134.064 64.4104C134.035 64.4393 134 64.4623 133.962 64.478C133.925 64.4936 133.884 64.5016 133.843 64.5016ZM131.365 64.5016H130.65C130.568 64.5012 130.489 64.4682 130.43 64.4098C130.372 64.3513 130.339 64.2722 130.338 64.1896V63.4749C130.338 63.3022 130.479 63.1631 130.65 63.1631H131.365C131.538 63.1631 131.678 63.3036 131.678 63.4749V64.1896C131.678 64.2722 131.644 64.3513 131.586 64.4096C131.527 64.468 131.448 64.501 131.365 64.5016ZM128.887 64.5016H128.173C128.09 64.5016 128.01 64.4687 127.952 64.4103C127.893 64.3518 127.86 64.2724 127.859 64.1896V63.4749C127.859 63.3022 128 63.1631 128.173 63.1631H128.887C129.059 63.1631 129.199 63.3036 129.199 63.4749V64.1896C129.199 64.3609 129.059 64.5016 128.887 64.5016ZM136.231 61.7998H135.517C135.434 61.7994 135.355 61.7664 135.296 61.708C135.238 61.6496 135.205 61.5704 135.205 61.4878V60.7716C135.205 60.6002 135.345 60.4598 135.517 60.4598H136.231C136.404 60.4598 136.543 60.6002 136.543 60.7716V61.4862C136.543 61.5273 136.536 61.5681 136.52 61.6061C136.504 61.6442 136.482 61.6788 136.453 61.7079C136.424 61.737 136.389 61.7602 136.351 61.7759C136.313 61.7917 136.272 61.7998 136.231 61.7998ZM133.754 61.7998H133.039C132.956 61.7994 132.877 61.7664 132.819 61.708C132.76 61.6496 132.727 61.5704 132.727 61.4878V60.7716C132.727 60.6002 132.868 60.4598 133.039 60.4598H133.754C133.925 60.4598 134.065 60.6002 134.065 60.7716V61.4862C134.066 61.5273 134.058 61.5681 134.042 61.6061C134.027 61.6442 134.004 61.6788 133.975 61.7079C133.946 61.737 133.911 61.7602 133.873 61.7759C133.835 61.7917 133.795 61.7998 133.754 61.7998ZM131.276 61.7998H130.561C130.478 61.7998 130.399 61.7669 130.34 61.7085C130.281 61.65 130.248 61.5706 130.248 61.4878V60.7716C130.248 60.6887 130.281 60.6094 130.34 60.551C130.399 60.4926 130.478 60.4598 130.561 60.4598H131.276C131.447 60.4598 131.588 60.6002 131.588 60.7716V61.4862C131.588 61.5691 131.555 61.6486 131.496 61.7074C131.438 61.7661 131.359 61.7994 131.276 61.7998ZM133.843 67.404H133.128C133.046 67.4037 132.966 67.3707 132.908 67.3122C132.85 67.2538 132.817 67.1746 132.816 67.092V66.3776C132.816 66.2047 132.957 66.0656 133.128 66.0656H133.843C134.014 66.0656 134.155 66.2062 134.155 66.3776V67.092C134.155 67.133 134.147 67.1736 134.131 67.2115C134.116 67.2494 134.093 67.2838 134.064 67.3128C134.035 67.3418 134 67.3648 133.962 67.3804C133.925 67.3961 133.884 67.4041 133.843 67.404ZM131.365 67.404H130.65C130.568 67.4037 130.489 67.3707 130.43 67.3122C130.372 67.2538 130.339 67.1746 130.338 67.092V66.3776C130.338 66.2047 130.479 66.0656 130.65 66.0656H131.365C131.538 66.0656 131.678 66.2062 131.678 66.3776V67.092C131.678 67.1747 131.644 67.2537 131.586 67.3121C131.527 67.3704 131.448 67.4034 131.365 67.404Z" fill="#EEEEEE"/>
</g>
<defs>
<linearGradient id="paint0_linear_348_17641" x1="69.1553" y1="140.449" x2="146.793" y2="-48.3167" gradientUnits="userSpaceOnUse">
<stop stop-color="white"/>
<stop offset="1" stop-color="#EEEEEE"/>
</linearGradient>
<linearGradient id="paint1_linear_348_17641" x1="111.066" y1="133.977" x2="162.152" y2="34.5827" gradientUnits="userSpaceOnUse">
<stop stop-color="white"/>
<stop offset="1" stop-color="#EEEEEE"/>
</linearGradient>
<clipPath id="clip0_348_17641">
<rect width="200" height="133.333" fill="white"/>
</clipPath>
</defs>
</svg>
