<svg width="200" height="134" viewBox="0 0 200 134" fill="none" xmlns="http://www.w3.org/2000/svg">
<g clip-path="url(#clip0_348_17542)">
<path d="M0 0H200V133.333H0V0Z" fill="white"/>
<path d="M134.212 71.2362C128.9 67.6978 122.623 66.7431 116.865 68.0718C118.35 62.4951 116.221 56.3522 111.15 52.974C104.777 48.7295 96.1719 50.45 91.9312 56.8164C91.0625 58.1213 90.4208 59.5638 90.0335 61.0829C77.0239 52.8918 59.7846 56.5127 51.219 69.3724C42.5146 82.4404 46.0619 100.096 59.1423 108.808C72.2228 117.521 89.8815 113.991 98.5857 100.923C99.4418 99.6352 100.194 98.2812 100.834 96.8738C102.357 101.365 105.319 105.407 109.574 108.242C119.802 115.054 133.611 112.294 140.418 102.075C147.224 91.8567 144.441 78.0491 134.212 71.2362ZM102.782 78.3371C102.715 78.4453 102.654 78.5524 102.59 78.6631C102.564 78.5489 102.535 78.4324 102.509 78.3182C102.599 78.3278 102.69 78.3371 102.782 78.3371Z" fill="url(#paint0_linear_348_17542)"/>
<path d="M136.741 60.0016C131.751 63.1629 124.414 60.5362 124.414 60.5362C124.414 60.5362 125.173 52.7856 130.166 49.6278C135.156 46.4667 142.49 49.0898 142.49 49.0898C142.49 49.0898 141.731 56.8405 136.741 60.0016Z" fill="url(#paint1_linear_348_17542)"/>
<path d="M124.48 111.067C124.386 111.03 124.31 110.959 124.267 110.869C124.223 110.778 124.215 110.675 124.245 110.579C124.274 110.483 124.339 110.401 124.425 110.351C124.512 110.3 124.615 110.284 124.713 110.306C125.679 110.527 126.651 110.721 127.629 110.888C127.68 110.896 127.729 110.915 127.774 110.943C127.818 110.971 127.856 111.008 127.886 111.05C127.916 111.093 127.938 111.141 127.949 111.192C127.961 111.243 127.962 111.296 127.953 111.348C127.935 111.452 127.876 111.544 127.79 111.605C127.704 111.666 127.597 111.691 127.493 111.673C126.501 111.504 125.514 111.307 124.532 111.083C124.515 111.078 124.497 111.073 124.48 111.067ZM130.38 112.085C130.289 112.05 130.215 111.983 130.17 111.897C130.125 111.811 130.114 111.711 130.137 111.617C130.161 111.523 130.218 111.44 130.297 111.385C130.377 111.33 130.474 111.306 130.571 111.317C131.558 111.434 132.552 111.528 133.528 111.595C133.634 111.602 133.732 111.651 133.801 111.731C133.87 111.81 133.905 111.914 133.899 112.019C133.892 112.124 133.843 112.223 133.764 112.292C133.684 112.362 133.58 112.397 133.475 112.39C132.484 112.324 131.476 112.228 130.476 112.109C130.443 112.104 130.411 112.096 130.38 112.085ZM136.346 112.484C136.259 112.45 136.187 112.386 136.142 112.305C136.097 112.223 136.082 112.128 136.099 112.037C136.117 111.945 136.166 111.862 136.239 111.803C136.311 111.744 136.402 111.713 136.495 111.714C137.484 111.727 138.473 111.71 139.461 111.663C139.513 111.66 139.565 111.668 139.615 111.686C139.664 111.704 139.709 111.731 139.748 111.766C139.786 111.801 139.818 111.844 139.84 111.891C139.862 111.939 139.875 111.99 139.877 112.042C139.887 112.262 139.718 112.449 139.498 112.459C138.513 112.507 137.5 112.524 136.484 112.51C136.437 112.51 136.39 112.501 136.346 112.484ZM142.316 112.194C142.248 112.168 142.188 112.124 142.144 112.066C142.099 112.009 142.071 111.94 142.063 111.867C142.057 111.815 142.062 111.763 142.076 111.712C142.091 111.662 142.115 111.615 142.147 111.574C142.18 111.533 142.22 111.499 142.266 111.474C142.312 111.448 142.362 111.432 142.414 111.426C143.41 111.312 144.394 111.162 145.34 110.982C145.391 110.972 145.444 110.972 145.496 110.983C145.547 110.993 145.596 111.014 145.639 111.043C145.682 111.073 145.719 111.111 145.748 111.155C145.776 111.198 145.796 111.248 145.805 111.299C145.825 111.403 145.803 111.51 145.744 111.598C145.684 111.685 145.593 111.746 145.489 111.766C144.5 111.954 143.504 112.105 142.504 112.22C142.44 112.225 142.376 112.217 142.316 112.194ZM148.181 111.063C148.122 111.041 148.07 111.005 148.028 110.959C147.986 110.913 147.956 110.858 147.94 110.798C147.912 110.695 147.925 110.586 147.977 110.494C148.029 110.402 148.116 110.334 148.218 110.306C149.165 110.041 150.1 109.731 151.018 109.379C151.117 109.341 151.227 109.344 151.323 109.387C151.419 109.43 151.495 109.509 151.533 109.608C151.611 109.813 151.509 110.044 151.303 110.124C150.361 110.485 149.403 110.802 148.431 111.073C148.349 111.097 148.261 111.094 148.181 111.063ZM153.743 108.91C153.651 108.875 153.575 108.807 153.531 108.718C153.484 108.624 153.475 108.515 153.508 108.414C153.541 108.313 153.612 108.23 153.707 108.182C154.58 107.736 155.428 107.242 156.246 106.701C156.289 106.672 156.338 106.652 156.39 106.642C156.441 106.632 156.494 106.632 156.545 106.643C156.596 106.653 156.645 106.673 156.689 106.703C156.732 106.732 156.769 106.769 156.798 106.813C156.856 106.901 156.877 107.009 156.856 107.113C156.835 107.216 156.774 107.308 156.686 107.366C155.843 107.924 154.969 108.434 154.069 108.894C154.018 108.919 153.964 108.933 153.908 108.936C153.852 108.939 153.796 108.93 153.743 108.91ZM158.704 105.612C158.639 105.587 158.583 105.546 158.539 105.493C158.495 105.439 158.466 105.375 158.455 105.307C158.443 105.239 158.45 105.169 158.474 105.104C158.497 105.039 158.538 104.981 158.59 104.937C159.335 104.302 160.041 103.622 160.703 102.902C160.739 102.863 160.781 102.832 160.829 102.81C160.876 102.788 160.928 102.775 160.98 102.773C161.032 102.771 161.084 102.779 161.134 102.797C161.183 102.815 161.228 102.842 161.266 102.878C161.305 102.913 161.336 102.956 161.358 103.003C161.38 103.051 161.393 103.102 161.395 103.154C161.397 103.207 161.389 103.259 161.371 103.308C161.353 103.357 161.325 103.402 161.29 103.441C160.606 104.185 159.876 104.888 159.106 105.544C158.989 105.641 158.834 105.662 158.704 105.612ZM162.735 101.232C162.679 101.21 162.627 101.175 162.586 101.131C162.545 101.086 162.514 101.032 162.497 100.974C162.479 100.915 162.475 100.854 162.486 100.793C162.496 100.733 162.52 100.676 162.555 100.627C163.127 99.8317 163.655 99.0053 164.135 98.1516C164.161 98.1058 164.195 98.0656 164.236 98.0332C164.277 98.0008 164.325 97.9769 164.375 97.9628C164.426 97.9488 164.478 97.9449 164.53 97.9514C164.582 97.9579 164.632 97.9746 164.678 98.0007C164.724 98.0264 164.764 98.0609 164.796 98.1022C164.828 98.1434 164.852 98.1907 164.866 98.2412C164.88 98.2917 164.884 98.3444 164.878 98.3965C164.872 98.4485 164.855 98.4988 164.829 98.5445C164.334 99.4245 163.791 100.276 163.201 101.096C163.149 101.166 163.075 101.217 162.991 101.242C162.907 101.266 162.817 101.263 162.735 101.232ZM165.703 96.0573L165.676 96.0471C165.629 96.0251 165.586 95.9939 165.551 95.9554C165.515 95.9168 165.488 95.8717 165.47 95.8225C165.452 95.7733 165.444 95.7211 165.446 95.6688C165.448 95.6165 165.461 95.5652 165.483 95.5178C165.898 94.6247 166.273 93.7138 166.608 92.7878C166.625 92.7374 166.651 92.6909 166.686 92.651C166.721 92.6111 166.764 92.5786 166.812 92.5554C166.859 92.5322 166.911 92.5188 166.964 92.516C167.017 92.5131 167.07 92.5209 167.12 92.5389C167.17 92.5568 167.216 92.5845 167.255 92.6205C167.294 92.6564 167.326 92.6998 167.348 92.748C167.37 92.7963 167.382 92.8485 167.383 92.9015C167.385 92.9546 167.376 93.0074 167.357 93.0569C167.281 93.2673 167.201 93.4827 167.119 93.696C166.838 94.4256 166.533 95.1456 166.204 95.8549C166.161 95.9455 166.086 96.0165 165.993 96.0541C165.9 96.0916 165.796 96.0927 165.703 96.0573ZM167.699 90.4302C167.609 90.3952 167.534 90.3289 167.489 90.2434C167.444 90.1579 167.432 90.0591 167.454 89.9651C167.689 88.9853 167.857 88.012 167.953 87.0738C167.964 86.9688 168.016 86.8723 168.097 86.8055C168.179 86.7387 168.284 86.7071 168.389 86.7176C168.441 86.723 168.491 86.7386 168.537 86.7635C168.583 86.7884 168.624 86.8222 168.657 86.8628C168.69 86.9035 168.714 86.9502 168.729 87.0004C168.744 87.0505 168.749 87.1031 168.743 87.1551C168.643 88.1293 168.469 89.136 168.227 90.1505C168.202 90.2532 168.138 90.342 168.047 90.3972C167.957 90.4525 167.849 90.4697 167.746 90.4451C167.732 90.4411 167.714 90.4362 167.699 90.4302ZM168.282 84.5031C168.211 84.4754 168.149 84.4277 168.103 84.3657C168.058 84.3037 168.032 84.2301 168.027 84.1536C167.971 83.1622 167.827 82.1942 167.597 81.2776C167.571 81.1751 167.587 81.0665 167.641 80.9758C167.695 80.885 167.783 80.8195 167.886 80.7936C167.937 80.7807 167.989 80.778 168.041 80.7856C168.093 80.7931 168.142 80.8108 168.187 80.8376C168.232 80.8645 168.271 80.8999 168.302 80.9418C168.334 80.9838 168.356 81.0315 168.369 81.0822C168.611 82.0465 168.763 83.0638 168.823 84.1065C168.826 84.1587 168.818 84.211 168.801 84.2605C168.784 84.3099 168.757 84.3554 168.722 84.3945C168.688 84.4336 168.645 84.4654 168.598 84.4881C168.551 84.5109 168.5 84.5241 168.448 84.5271C168.389 84.5316 168.333 84.5227 168.282 84.5031ZM156.254 79.3969C156.16 79.3606 156.083 79.2896 156.039 79.1984C155.995 79.1072 155.988 79.0027 156.018 78.9062C156.05 78.8052 156.12 78.7209 156.214 78.6718C156.307 78.6226 156.417 78.6127 156.518 78.6442C157.399 78.9211 158.375 79.0667 159.34 79.0651C159.445 79.0677 159.544 79.111 159.616 79.1856C159.689 79.2603 159.73 79.3604 159.729 79.4647C159.729 79.5689 159.688 79.6689 159.615 79.7434C159.543 79.8178 159.443 79.8608 159.339 79.8631C158.294 79.8645 157.236 79.7051 156.277 79.4058C156.27 79.4013 156.261 79.3993 156.254 79.3969ZM153.659 77.97C153.612 77.9515 153.568 77.9245 153.531 77.8905C152.552 76.978 152.171 75.8905 152.458 74.8291C152.485 74.7273 152.552 74.6405 152.644 74.5878C152.735 74.5352 152.844 74.5208 152.945 74.548C152.996 74.5617 153.043 74.5853 153.085 74.6173C153.126 74.6493 153.161 74.6892 153.187 74.7346C153.213 74.78 153.229 74.8302 153.236 74.8821C153.242 74.934 153.239 74.9867 153.225 75.0371C152.961 76.0147 153.539 76.8116 154.071 77.3082C154.139 77.371 154.182 77.4553 154.194 77.5467C154.206 77.6381 154.186 77.7308 154.138 77.8091C154.089 77.8873 154.015 77.9462 153.927 77.9755C153.84 78.0049 153.745 78.0029 153.659 77.97ZM162.137 79.3889C162.081 79.3675 162.03 79.3335 161.989 79.2895C161.948 79.2455 161.917 79.1927 161.9 79.1351C161.868 79.0342 161.878 78.925 161.927 78.8313C161.976 78.7377 162.06 78.6672 162.161 78.6351C163.072 78.35 163.931 77.9185 164.704 77.3576C164.746 77.3267 164.794 77.3045 164.845 77.2923C164.896 77.28 164.948 77.2779 165 77.2861C165.052 77.2943 165.101 77.3126 165.146 77.34C165.19 77.3674 165.229 77.4034 165.26 77.4458C165.291 77.4882 165.313 77.5362 165.325 77.5872C165.337 77.6381 165.339 77.691 165.331 77.7427C165.323 77.7944 165.304 77.844 165.277 77.8887C165.25 77.9333 165.214 77.9721 165.171 78.0029C164.329 78.6151 163.392 79.0856 162.399 79.396C162.311 79.4249 162.218 79.4198 162.137 79.3889ZM166.816 78.7529C166.723 78.7172 166.646 78.6477 166.602 78.5582C166.175 77.6925 165.647 76.8801 165.03 76.138C164.997 76.0979 164.972 76.0515 164.956 76.0015C164.94 75.9516 164.935 75.8991 164.94 75.847C164.944 75.7949 164.959 75.7442 164.984 75.6979C165.008 75.6516 165.041 75.6106 165.081 75.5771C165.122 75.5436 165.168 75.5184 165.218 75.5028C165.267 75.4872 165.32 75.4816 165.372 75.4863C165.424 75.4909 165.474 75.5058 165.521 75.53C165.567 75.5542 165.608 75.5873 165.641 75.6273C166.298 76.4182 166.86 77.2832 167.315 78.2047C167.412 78.4011 167.333 78.642 167.135 78.7393C167.03 78.7887 166.915 78.7911 166.816 78.7529ZM154.601 73.0891C154.531 73.0619 154.47 73.0156 154.425 72.9554C154.38 72.8952 154.353 72.8236 154.347 72.7489C154.341 72.6741 154.356 72.5991 154.39 72.5324C154.425 72.4658 154.477 72.4102 154.542 72.372C155.426 71.8569 156.452 71.584 157.592 71.562C157.644 71.561 157.696 71.5703 157.745 71.5895C157.794 71.6086 157.838 71.6371 157.876 71.6734C157.913 71.7097 157.943 71.7531 157.964 71.8011C157.985 71.849 157.996 71.9006 157.997 71.9529C157.998 72.0052 157.988 72.0572 157.969 72.1059C157.95 72.1545 157.922 72.199 157.885 72.2366C157.849 72.2743 157.806 72.3045 157.758 72.3254C157.71 72.3463 157.658 72.3575 157.606 72.3585C156.604 72.378 155.708 72.6133 154.943 73.0598C154.892 73.0902 154.835 73.1087 154.775 73.1138C154.716 73.1189 154.656 73.1104 154.601 73.0891ZM166.895 75.9456C166.863 75.9325 166.831 75.9157 166.802 75.8956C166.76 75.8646 166.724 75.8256 166.697 75.7808C166.67 75.7359 166.652 75.6862 166.644 75.6343C166.636 75.5825 166.638 75.5296 166.651 75.4787C166.663 75.4277 166.686 75.3798 166.717 75.3376C167.259 74.5971 167.724 73.7465 168.097 72.8107C168.136 72.7135 168.211 72.6355 168.307 72.5934C168.403 72.5513 168.511 72.5485 168.609 72.5856L168.614 72.5873C168.712 72.6265 168.79 72.7031 168.832 72.8001C168.874 72.8972 168.875 73.0068 168.836 73.1049C168.437 74.1038 167.941 75.0138 167.358 75.8085C167.306 75.8788 167.233 75.9303 167.15 75.9551C167.066 75.9799 166.977 75.9765 166.895 75.9456ZM163.016 74.2213C162.984 74.2087 162.954 74.1923 162.926 74.1725C162.127 73.5982 161.271 73.1471 160.394 72.8376C160.294 72.8021 160.213 72.7286 160.167 72.6332C160.122 72.5378 160.116 72.4282 160.152 72.3287C160.169 72.2793 160.196 72.2338 160.231 72.1949C160.266 72.1559 160.308 72.1243 160.356 72.1017C160.403 72.0792 160.454 72.0662 160.506 72.0635C160.559 72.0608 160.611 72.0684 160.66 72.086C161.609 72.4209 162.533 72.9071 163.392 73.5258C163.57 73.6549 163.611 73.9027 163.483 74.0822C163.374 74.2316 163.181 74.2845 163.016 74.2213ZM169.153 70.4598C169.066 70.4261 168.993 70.3626 168.948 70.2806C168.902 70.1986 168.888 70.1032 168.906 70.0113C169.083 69.104 169.202 68.1229 169.259 67.0982C169.266 66.9927 169.313 66.8938 169.392 66.8233C169.471 66.7528 169.574 66.7163 169.68 66.7218C169.785 66.7279 169.884 66.7757 169.955 66.8545C170.025 66.9334 170.061 67.0369 170.055 67.1425C169.996 68.204 169.873 69.2193 169.687 70.1627C169.667 70.2664 169.607 70.358 169.519 70.4172C169.432 70.4764 169.324 70.4985 169.221 70.4785C169.197 70.4747 169.175 70.4684 169.153 70.4598ZM169.522 64.5058C169.45 64.478 169.388 64.4298 169.342 64.3671C169.297 64.3044 169.271 64.2299 169.267 64.1527C169.221 63.1675 169.136 62.1845 169.012 61.206C168.999 61.1011 169.028 60.9954 169.093 60.9118C169.157 60.8282 169.252 60.7736 169.357 60.7598C169.462 60.7469 169.568 60.776 169.651 60.8408C169.735 60.9056 169.789 61.0008 169.802 61.1056C169.931 62.1422 170.019 63.1531 170.063 64.1145C170.066 64.1805 170.052 64.2463 170.023 64.3059C169.995 64.3655 169.952 64.417 169.898 64.4558C169.844 64.4946 169.782 64.5195 169.716 64.5282C169.651 64.537 169.584 64.5292 169.522 64.5058ZM168.739 58.5885C168.678 58.5655 168.625 58.5282 168.582 58.4799C168.539 58.4315 168.509 58.3735 168.494 58.3109C168.259 57.3609 167.964 56.4269 167.61 55.5147C167.572 55.4161 167.574 55.3062 167.616 55.2093C167.659 55.1124 167.738 55.0363 167.837 54.9978C167.885 54.9787 167.937 54.9693 167.99 54.9704C168.042 54.9714 168.094 54.9827 168.142 55.0037C168.189 55.0248 168.233 55.055 168.269 55.0928C168.305 55.1306 168.333 55.1752 168.352 55.224C168.719 56.1687 169.025 57.1359 169.267 58.1198C169.285 58.1904 169.282 58.2644 169.261 58.3338C169.239 58.4032 169.199 58.4653 169.144 58.5135C169.09 58.5618 169.023 58.5942 168.952 58.6074C168.88 58.6206 168.807 58.6141 168.739 58.5885ZM166.589 53.0356C166.5 53.0014 166.426 52.9363 166.381 52.8522C165.915 51.9893 165.401 51.1532 164.842 50.3478C164.812 50.3048 164.791 50.2564 164.78 50.2052C164.769 50.1541 164.768 50.1013 164.777 50.0498C164.786 49.9983 164.806 49.9491 164.834 49.9051C164.862 49.8611 164.899 49.8231 164.942 49.7933C165.122 49.6676 165.371 49.7111 165.496 49.8929C166.073 50.7228 166.602 51.5846 167.082 52.4742C167.107 52.5203 167.122 52.5708 167.128 52.6229C167.133 52.675 167.128 52.7277 167.113 52.7778C167.098 52.828 167.073 52.8746 167.04 52.9152C167.007 52.9557 166.966 52.9893 166.92 53.014C166.869 53.0413 166.814 53.0574 166.757 53.0611C166.699 53.0648 166.642 53.0561 166.589 53.0356ZM105.873 26.4264C105.798 26.3978 105.734 26.3472 105.688 26.2813C105.642 26.2154 105.618 26.1373 105.617 26.0571C105.617 25.9515 105.658 25.85 105.732 25.7746C105.806 25.6992 105.906 25.6561 106.012 25.6547C106.875 25.648 107.889 25.6829 109.027 25.7585C109.079 25.762 109.13 25.7757 109.177 25.7989C109.224 25.8221 109.266 25.8543 109.3 25.8937C109.335 25.9331 109.361 25.9788 109.378 26.0284C109.394 26.0779 109.401 26.1303 109.398 26.1824C109.391 26.2879 109.342 26.3862 109.262 26.4558C109.183 26.5255 109.079 26.5608 108.974 26.554C107.856 26.4809 106.86 26.446 106.018 26.4536C105.968 26.4536 105.919 26.4444 105.873 26.4264ZM163.198 48.1302C163.136 48.1066 163.081 48.0677 163.038 48.0171C162.398 47.2701 161.726 46.5516 161.022 45.8638C160.985 45.8272 160.955 45.7837 160.935 45.7356C160.914 45.6875 160.903 45.6358 160.903 45.5836C160.902 45.5313 160.912 45.4794 160.932 45.431C160.951 45.3825 160.98 45.3384 161.017 45.3011C161.053 45.2636 161.097 45.2337 161.145 45.2131C161.193 45.1925 161.244 45.1816 161.297 45.181C161.349 45.1804 161.401 45.1902 161.449 45.2098C161.498 45.2293 161.542 45.2582 161.579 45.2949C162.298 45.9996 162.987 46.7349 163.643 47.4989C163.701 47.5663 163.734 47.6509 163.738 47.7394C163.743 47.8278 163.717 47.9152 163.666 47.9876C163.615 48.0599 163.541 48.1133 163.457 48.1391C163.372 48.1649 163.281 48.1618 163.198 48.1302ZM111.835 26.7898C111.753 26.7583 111.684 26.7004 111.638 26.6254C111.592 26.5503 111.573 26.4622 111.582 26.3749C111.588 26.3228 111.603 26.2723 111.628 26.2264C111.653 26.1804 111.687 26.1398 111.728 26.1069C111.769 26.0741 111.816 26.0496 111.866 26.035C111.916 26.0203 111.969 26.0158 112.021 26.0216C112.978 26.124 113.979 26.2469 114.997 26.3889C115.049 26.3961 115.099 26.4135 115.144 26.44C115.189 26.4665 115.229 26.5017 115.26 26.5435C115.292 26.5852 115.315 26.6328 115.328 26.6835C115.341 26.7341 115.344 26.7869 115.337 26.8387C115.329 26.8906 115.312 26.9405 115.286 26.9857C115.259 27.0309 115.224 27.0705 115.182 27.1021C115.141 27.1337 115.093 27.1568 115.042 27.17C114.992 27.1832 114.939 27.1863 114.887 27.1791C113.905 27.0427 112.92 26.9214 111.934 26.8151C111.9 26.8108 111.867 26.8023 111.835 26.7898ZM158.946 43.9467C158.905 43.9309 158.867 43.9084 158.833 43.88C158.077 43.2464 157.3 42.6378 156.504 42.0551C156.419 41.9927 156.362 41.899 156.346 41.7947C156.33 41.6904 156.355 41.5839 156.418 41.4987C156.48 41.4135 156.573 41.3564 156.677 41.3401C156.782 41.3238 156.888 41.3495 156.973 41.4116C157.784 42.0044 158.575 42.6239 159.345 43.2689C159.417 43.3295 159.466 43.4137 159.482 43.5067C159.498 43.5996 159.48 43.6952 159.432 43.7764C159.385 43.8577 159.31 43.9194 159.221 43.9506C159.132 43.9818 159.034 43.9804 158.946 43.9467ZM117.753 27.6038C117.66 27.5684 117.585 27.5001 117.54 27.4121C117.495 27.3241 117.485 27.2226 117.511 27.1273C117.537 27.0321 117.597 26.9498 117.68 26.8965C117.763 26.8431 117.863 26.8225 117.96 26.8387C118.933 26.9989 119.925 27.1758 120.91 27.3638C121.014 27.3839 121.105 27.4442 121.165 27.5316C121.224 27.6189 121.247 27.7262 121.227 27.83C121.207 27.9338 121.147 28.0255 121.06 28.0851C120.972 28.1447 120.865 28.1673 120.761 28.148C119.786 27.9626 118.809 27.7886 117.829 27.6262C117.803 27.6211 117.777 27.6136 117.753 27.6038ZM123.62 28.7218C123.531 28.6878 123.457 28.623 123.412 28.5391C123.367 28.4553 123.353 28.3581 123.374 28.2651C123.396 28.1618 123.459 28.0715 123.547 28.0142C123.636 27.9568 123.744 27.937 123.848 27.9591C124.823 28.1685 125.805 28.3913 126.769 28.6236C126.82 28.6355 126.869 28.6575 126.911 28.6882C126.953 28.7189 126.989 28.7577 127.017 28.8024C127.044 28.8471 127.062 28.8968 127.07 28.9486C127.078 29.0003 127.076 29.0532 127.063 29.104C127.038 29.2067 126.974 29.2954 126.884 29.3507C126.794 29.4059 126.686 29.4232 126.583 29.3987C125.618 29.1672 124.65 28.9469 123.679 28.7378C123.659 28.7349 123.639 28.7295 123.62 28.7218ZM154.136 40.4153C154.11 40.4053 154.086 40.3929 154.063 40.3785C153.232 39.8429 152.388 39.3278 151.532 38.8336C151.441 38.7807 151.374 38.6939 151.347 38.5919C151.319 38.49 151.333 38.3814 151.386 38.2898C151.412 38.2443 151.447 38.2045 151.488 38.1725C151.53 38.1405 151.577 38.117 151.628 38.1034C151.678 38.0898 151.731 38.0863 151.783 38.0931C151.835 38.0999 151.885 38.1169 151.93 38.1431C152.799 38.6428 153.654 39.1648 154.496 39.7087C154.585 39.7661 154.647 39.8563 154.669 39.9596C154.691 40.0629 154.672 40.1707 154.615 40.2596C154.564 40.336 154.49 40.3932 154.403 40.4215C154.316 40.4498 154.221 40.4476 154.136 40.4153ZM129.427 30.1153C129.336 30.0798 129.26 30.0117 129.216 29.9241C129.171 29.8365 129.16 29.7355 129.185 29.6405C129.212 29.5384 129.279 29.4513 129.37 29.3982C129.461 29.3451 129.57 29.3303 129.672 29.3571C130.637 29.613 131.599 29.8811 132.558 30.1613C132.658 30.1922 132.742 30.2613 132.792 30.3537C132.841 30.446 132.853 30.5542 132.823 30.6549C132.794 30.7555 132.726 30.8405 132.634 30.8915C132.543 30.9425 132.434 30.9554 132.333 30.9273C131.381 30.6497 130.425 30.3834 129.467 30.1287C129.454 30.124 129.44 30.1202 129.427 30.1153ZM148.966 37.4284C148.952 37.4233 148.938 37.4174 148.924 37.4107C148.045 36.9557 147.156 36.5188 146.259 36.1C146.212 36.0779 146.169 36.0466 146.134 36.0079C146.098 35.9692 146.071 35.9239 146.053 35.8746C146.036 35.8253 146.028 35.773 146.03 35.7207C146.033 35.6684 146.046 35.6171 146.069 35.5698C146.091 35.5223 146.122 35.4795 146.16 35.4441C146.199 35.4087 146.244 35.3813 146.293 35.3635C146.343 35.3457 146.395 35.3378 146.447 35.3403C146.5 35.3427 146.551 35.3556 146.598 35.378C147.504 35.8025 148.402 36.2443 149.292 36.7031C149.385 36.7518 149.456 36.8357 149.488 36.9363C149.52 37.037 149.511 37.1462 149.462 37.24C149.417 37.3269 149.341 37.3942 149.25 37.429C149.158 37.4637 149.057 37.4636 148.966 37.4284ZM135.158 31.79C135.063 31.7533 134.985 31.6817 134.941 31.5898C134.897 31.498 134.89 31.3928 134.921 31.2958C134.953 31.1953 135.024 31.1116 135.118 31.0632C135.212 31.0147 135.321 31.0054 135.421 31.0373C136.372 31.3426 137.319 31.6609 138.262 31.992C138.361 32.0281 138.442 32.1018 138.488 32.1971C138.533 32.2923 138.539 32.4017 138.505 32.5016C138.47 32.6013 138.397 32.683 138.302 32.729C138.207 32.7749 138.098 32.7812 137.998 32.7464C137.062 32.4169 136.122 32.1012 135.177 31.7993C135.172 31.7953 135.165 31.7931 135.158 31.79ZM143.559 34.8956L143.545 34.89C142.632 34.5027 141.714 34.1309 140.789 33.7749C140.69 33.7366 140.611 33.6608 140.568 33.5641C140.525 33.4673 140.523 33.3576 140.561 33.2589C140.579 33.2101 140.607 33.1656 140.643 33.1277C140.679 33.0898 140.722 33.0594 140.77 33.0382C140.818 33.017 140.869 33.0055 140.921 33.0042C140.973 33.0029 141.025 33.0119 141.074 33.0307L141.076 33.0311C142.009 33.3909 142.936 33.7663 143.856 34.1573C143.904 34.1777 143.948 34.2074 143.984 34.2447C144.021 34.282 144.05 34.3262 144.069 34.3746C144.089 34.4231 144.098 34.475 144.098 34.5272C144.097 34.5795 144.086 34.6311 144.066 34.6791C144.026 34.7739 143.951 34.8494 143.856 34.8898C143.761 34.9302 143.655 34.9322 143.559 34.8956Z" fill="#EEEEEE"/>
<path fill-rule="evenodd" clip-rule="evenodd" d="M95.1454 46.6711C94 45.3084 91.2856 45.07 89.5105 46.8295C88.364 47.9662 88.1758 49.2598 88.4034 50.162C88.4145 50.2064 88.4245 50.2513 88.4331 50.2967L93.2094 75.2622C94.32 80.3498 98.3611 84.3667 103.519 85.4729L128.704 90.208L128.71 90.2093L128.726 90.2124C130.034 90.4718 131.429 89.9378 132.241 89.1325C133.911 87.4769 133.911 85.1151 132.241 83.4598L95.2916 46.8295C95.2405 46.7789 95.1916 46.726 95.1454 46.6711ZM83.7714 47.6575L65.4731 65.9558C61.2147 70.2142 61.2147 76.7144 65.4731 80.9729L94.3358 109.836C95.2642 110.764 96.7696 110.764 97.6982 109.836C97.726 109.808 97.7529 109.78 97.7789 109.751L99.952 111.9L101.727 110.586L112.207 111.424L113.371 110.13C114.305 110.938 115.718 110.898 116.605 110.011L131.968 94.6484C130.68 95.0433 129.257 95.1631 127.814 94.8793L102.612 90.1411C102.594 90.1376 102.575 90.1339 102.557 90.13C95.5651 88.6447 90.0596 83.198 88.5556 76.2402C88.5516 76.2218 88.5478 76.2032 88.5442 76.1847L83.7742 51.2513C83.4989 50.1102 83.488 48.8773 83.7714 47.6575Z" fill="#CDDEFF"/>
<path d="M100.675 25.8269L100.733 28.5216L86.2051 29.608L100.675 25.8269Z" fill="white"/>
<path d="M100.424 31.5353L98.4752 33.4522L86.8594 29.5482L100.424 31.5353Z" fill="#CDDEFF"/>
<path d="M86.2051 29.608L107.222 33.8002L102.396 28.1233L86.2051 29.608Z" fill="#CDDEFF"/>
<path d="M100.675 25.8271L86.2052 29.6082L97.7994 21.9889L100.675 25.8271ZM153.602 112.462C148.883 112.55 147.634 112.923 142.734 112.77C140.401 112.791 137.91 112.726 135.629 112.682C134.544 112.396 132.637 112.682 131.35 112.44L130.856 112.594C130.415 112.506 129.899 112.462 129.45 112.55L129.48 112.594C128.822 112.484 128.074 112.55 127.752 112.484L127.782 112.528L126.982 112.506L127.117 112.572C125.965 112.44 124.783 112.44 123.736 112.484L123.826 112.286C121.589 112.506 120.774 112.111 118.762 112.352L118.792 112.396C116.241 111.891 114.768 112.748 112.142 112.264C112.472 112.33 112 112.352 112.03 112.418C110.818 112.374 109.532 112.33 109.51 111.957C108.627 111.957 108.792 112.067 108.679 112.221C108.687 112.067 107.916 111.979 107.228 111.979L107.542 112.045L105.568 111.979L105.957 111.672C104.91 111.76 105.688 112.045 104.693 111.979L104.708 111.716C103.264 111.76 102.411 112.155 101.013 112.352C95.1936 112.462 88.9405 111.803 83.5327 112.264L83.2934 112.462C83.1887 112.748 81.7974 112.045 81.5954 112.308L80.9672 112.177C80.7876 112.22 80.4136 112.286 80.7278 112.352C80.1445 112.374 80.1294 112.308 79.7107 112.242L79.0823 112.418C76.786 112.55 74.8338 112.221 72.4178 112.286C69.5158 112.638 64.0483 112.308 60.8992 112.133C56.4714 111.716 51.3252 112.835 46.7925 112.352C46.6429 112.396 46.2616 112.308 46.2689 112.264L42.1178 112.308C42.1178 112.308 22.0049 112.418 37.2858 110.069L37.1812 110.003C39.4549 109.849 40.8836 109.827 42.4469 110.135C42.6938 109.761 44.3094 110.091 44.8405 109.981L44.788 109.959C46.1718 110.244 47.6378 109.718 48.9767 109.981C48.9243 109.959 48.8945 109.849 48.5878 109.849C49.56 109.893 50.8914 109.981 50.9663 109.761C53.2925 109.827 56.5312 109.718 58.0196 110.069L57.9149 110.003C58.76 110.244 59.0143 110.047 59.9643 110.157C60.0167 110.135 60.084 110.113 60.0689 110.091C60.9965 110.332 62.7692 110.135 63.5096 110.222L63.5545 110.069L65.3945 110.113L64.7065 110.135C64.9458 110.53 66.0976 109.871 67.4289 110.135C68.678 110.091 69.9647 110.969 71.2585 110.771C71.8794 110.969 70.7125 110.464 71.64 110.618C71.67 110.398 71.2063 110.486 71.4456 110.31C72.3507 110.42 72.934 110.091 74.056 110.244L74.1009 110.091C75.5594 110.398 76.8534 109.871 77.8258 110.157C79.3292 110.288 78.8354 109.674 80.4063 109.981L81.0196 109.761C81.6927 109.718 81.4983 110.025 82.2463 109.915C82.2014 109.783 83.1887 109.805 82.7474 109.674C84.4303 109.454 86.1656 109.981 88.3869 109.608C88.8658 109.871 89.9876 109.718 90.3467 109.915C90.4065 109.805 92.5832 109.893 91.334 109.63C91.2294 109.608 91.0349 109.608 91.0498 109.652L90.9003 109.498C92.1643 109.19 93.1965 109.674 94.4529 109.608C94.0792 109.652 93.5854 109.652 93.9145 109.761L95.0814 109.739L94.842 109.608L96.5772 109.52L96.3378 109.696C97.1832 109.608 97.4823 109.322 98.4398 109.564C98.8736 109.696 97.6394 109.783 98.5294 109.849C99.6663 109.739 101.364 109.564 102.808 109.52C102.673 109.718 103.062 109.696 103.466 109.739L103.511 109.586C105.044 109.805 104.072 109.234 105.598 109.41L105.463 109.3L105.867 109.652C107.243 109.981 106.608 109.322 108.133 109.761C107.528 109.739 107.849 110.113 108.59 110.047L108.403 109.893C108.814 109.937 108.949 110.003 109.225 109.959C108.978 109.871 109.098 109.739 109.704 109.761L109.3 109.564L110.444 109.849C111.327 109.674 112.726 109.893 113.092 109.674C113.092 109.674 114.992 109.564 115.426 109.805C115.044 109.652 116.092 109.586 115.792 109.41C116.286 109.586 117.737 109.718 118.321 109.542L118.208 109.52C120.363 109.322 121.888 109.783 123.818 109.542C123.728 109.739 124.753 109.63 124.499 109.871C126.496 110.113 128.141 109.366 128.867 110.135C129.78 110.179 129.944 109.959 130.415 109.915L130.198 109.871C131.904 109.937 132.397 109.937 133.661 109.915C134.29 109.981 134.394 110.332 135.524 110.244C135.157 110.113 135.621 110.135 136.04 110.135C135.771 110.113 135.688 110.069 136.242 109.959C136.317 110.003 136.444 110.025 136.556 110.047C136.564 110.047 136.586 110.025 136.571 110.003C137.274 110.047 137.154 110.091 136.825 110.113C136.84 110.135 136.818 110.157 136.713 110.2C137.446 110.025 138.755 110.222 138.845 109.981C140.969 110.047 142.487 110.288 144.253 110.376C144.455 110.244 144.036 110.135 143.527 110.091L144.784 110.135C144.776 109.959 144.066 110.025 143.677 110.003C145.173 109.718 146.758 110.288 148.509 110.025L148.875 110.157L148.98 110.135C148.972 110.2 149.369 110.31 149.623 110.332C149.87 110.179 149.608 109.981 150.476 109.981C151.164 109.827 152.42 110.047 153.318 110.135C152.832 110.157 152.989 110.244 153.198 110.31C153.632 110.31 153.879 110.157 154.216 110.222L154.26 110.025C154.088 110.222 155.39 110.244 155.554 110.31C155.801 110.157 154.881 110.179 154.776 110.069C156.512 110.091 155.644 110.069 157.387 110.091C158.314 110.244 157.215 110.288 157.664 110.464C158.479 110.508 159.279 110.64 160.222 110.53L159.922 110.706C161.463 110.859 162.383 110.837 163.416 110.64C174.874 112.133 165.832 112.682 165.832 112.682C161.299 113.143 158.973 112.616 153.602 112.462Z" fill="#CDDEFF"/>
<path d="M147.853 68.385C146.865 68.955 145.603 68.6168 145.033 67.6295C144.463 66.6422 144.801 65.3797 145.789 64.8097C146.776 64.2397 148.038 64.5779 148.608 65.5652C149.178 66.5525 148.84 67.815 147.853 68.385Z" fill="#213660"/>
<path d="M49.5558 92.4445C50.9058 92.4445 52.0002 93.5389 52.0002 94.8889C52.0002 96.2389 50.9058 97.3333 49.5558 97.3333C48.2057 97.3333 47.1113 96.2389 47.1113 94.8889C47.1113 93.5389 48.2057 92.4445 49.5558 92.4445Z" fill="#213660"/>
<path d="M71.6637 45.1111C70.7444 45.1111 69.9992 45.8563 69.9992 46.7756C69.9992 47.6948 70.7444 48.44 71.6637 48.44C72.5829 48.44 73.3281 47.6948 73.3281 46.7756C73.3281 45.8563 72.5829 45.1111 71.6637 45.1111Z" fill="#EEEEEE"/>
<path d="M61.3314 92.4189C60.4778 92.4189 59.7858 93.1109 59.7858 93.9644C59.7858 94.818 60.4778 95.51 61.3314 95.51C62.185 95.51 62.877 94.818 62.877 93.9644C62.877 93.1109 62.185 92.4189 61.3314 92.4189Z" fill="#EEEEEE"/>
<path d="M39.6947 66.7404C38.8411 66.7404 38.1491 67.4324 38.1491 68.286C38.1491 69.1396 38.8411 69.8315 39.6947 69.8315C40.5483 69.8315 41.2402 69.1396 41.2402 68.286C41.2402 67.4324 40.5483 66.7404 39.6947 66.7404Z" fill="#EEEEEE"/>
<path d="M52.0886 47.1249C54.3391 47.1249 56.1635 48.9493 56.1635 51.1998C56.1635 53.4503 54.3391 55.2747 52.0886 55.2747C49.8381 55.2747 48.0137 53.4503 48.0137 51.1998C48.0137 48.9493 49.8381 47.1249 52.0886 47.1249Z" fill="#CDDEFF"/>
<path d="M116.303 44.414C117.051 45.1624 118.265 45.1624 119.013 44.414C119.762 43.6656 119.762 42.4522 119.013 41.7038C118.265 40.9553 117.051 40.9553 116.303 41.7037C115.555 42.4522 115.555 43.6656 116.303 44.414Z" fill="#EEEEEE"/>
<path d="M144.385 86.847C143.045 85.5063 143.045 83.3326 144.385 81.9919C145.726 80.6512 147.9 80.6512 149.24 81.9919C150.581 83.3326 150.581 85.5063 149.24 86.847C147.9 88.1878 145.726 88.1878 144.385 86.847Z" fill="#CDDEFF"/>
</g>
<defs>
<linearGradient id="paint0_linear_348_17542" x1="52.1315" y1="154.864" x2="161.119" y2="-12.1751" gradientUnits="userSpaceOnUse">
<stop stop-color="white"/>
<stop offset="1" stop-color="#EEEEEE"/>
</linearGradient>
<linearGradient id="paint1_linear_348_17542" x1="117.381" y1="70.2589" x2="157.201" y2="31.382" gradientUnits="userSpaceOnUse">
<stop stop-color="white"/>
<stop offset="1" stop-color="#EEEEEE"/>
</linearGradient>
<clipPath id="clip0_348_17542">
<rect width="200" height="133.333" fill="white"/>
</clipPath>
</defs>
</svg>
