<svg width="24" height="24" viewBox="0 0 24 24" fill="none" xmlns="http://www.w3.org/2000/svg">
<path d="M8.17188 8.164C8.3615 8.78478 8.69899 9.35025 9.15535 9.81183C9.61171 10.2734 10.1733 10.6173 10.7919 10.814M14.2739 10.291C14.7555 9.95823 15.1582 9.52379 15.4536 9.01835C15.749 8.51292 15.9298 7.9488 15.9834 7.36584C16.0369 6.78287 15.9618 6.19526 15.7634 5.64448C15.565 5.09371 15.2481 4.5932 14.8352 4.17828C14.4222 3.76336 13.9231 3.44415 13.3733 3.24318C12.8235 3.04221 12.2362 2.96438 11.653 3.01518C11.0698 3.06599 10.5048 3.24419 9.99802 3.53721C9.49121 3.83023 9.0549 4.23092 8.71988 4.711L14.2739 10.291Z" stroke="#141115" stroke-width="1.5" stroke-linecap="round" stroke-linejoin="round"/>
<path d="M17.832 17.848C17.9439 18.2218 18.0005 18.6099 18 19V21M6 21V19C6 17.9391 6.42143 16.9217 7.17157 16.1716C7.92172 15.4214 8.93913 15 10 15H14C14.3884 14.9997 14.7748 15.0559 15.147 15.167L6 21Z" stroke="#141115" stroke-width="1.5" stroke-linecap="round" stroke-linejoin="round"/>
<path d="M3 3L21 21" stroke="#141115" stroke-width="1.5" stroke-linecap="round" stroke-linejoin="round"/>
</svg>
