<svg width="200" height="200" viewBox="0 0 200 200" fill="none" xmlns="http://www.w3.org/2000/svg">
<path d="M200 0H0V200H200V0Z" fill="#141115"/>
<path d="M77.5926 103.848C75.9136 103.999 74.5191 104.074 73.4093 104.074C72.6685 104.074 72.1278 103.902 71.7796 103.554C71.4315 103.206 71.2593 102.663 71.2593 101.924V98.3019C71.2593 97.5093 71.4383 96.9339 71.7963 96.5759C72.1543 96.2179 72.7296 96.0389 73.5222 96.0389H77.5963V97.6222H73.9759C73.5222 97.6222 73.2963 97.85 73.2963 98.3019V101.924C73.2924 102 73.304 102.075 73.3305 102.146C73.3569 102.217 73.3976 102.282 73.45 102.337C73.5012 102.388 73.5623 102.428 73.6295 102.454C73.6967 102.481 73.7686 102.493 73.8407 102.491C73.9982 102.491 74.1722 102.491 74.3611 102.491C74.55 102.491 74.7463 102.491 74.95 102.474L75.5667 102.452C75.7741 102.452 76.0407 102.43 76.3704 102.407C76.7 102.385 77.1111 102.357 77.5982 102.328L77.5926 103.848Z" fill="white"/>
<path d="M85.6333 101.811C85.6333 102.604 85.4543 103.179 85.0963 103.537C84.7383 103.895 84.163 104.074 83.3704 104.074H80.5408C79.7482 104.074 79.1728 103.895 78.8148 103.537C78.4568 103.179 78.2772 102.604 78.2759 101.811V98.1889C78.2759 97.3963 78.4556 96.821 78.8148 96.4629C79.1741 96.1049 79.7494 95.9259 80.5408 95.9259H83.3704C84.163 95.9259 84.7383 96.1049 85.0963 96.4629C85.4543 96.821 85.6333 97.3963 85.6333 98.1889V101.811ZM83.5963 98.1889C83.5963 97.737 83.3704 97.5092 82.9167 97.5092H80.9926C80.5407 97.5092 80.3148 97.737 80.3148 98.1889V101.811C80.3148 102.263 80.5407 102.491 80.9926 102.491H82.9167C83.3704 102.491 83.5963 102.263 83.5963 101.811V98.1889Z" fill="white"/>
<path d="M91.1796 96.0389C92.0315 96.0389 92.6784 96.2593 93.1204 96.7C93.5623 97.1407 93.7833 97.7883 93.7833 98.6426V101.357C93.7833 102.212 93.5623 102.859 93.1204 103.3C92.6784 103.741 92.0315 103.961 91.1796 103.961H86.7648V96.0389H91.1796ZM91.7463 98.6426C91.7463 97.963 91.4056 97.6222 90.7278 97.6222H88.8037V102.376H90.7278C91.4056 102.376 91.7463 102.037 91.7463 101.357V98.6426Z" fill="white"/>
<path d="M101.196 103.961H94.9148V96.0389H101.196V97.6222H96.9518V99.1518H100.285V100.741H96.9518V102.381H101.196V103.961Z" fill="white"/>
<path d="M103.519 103.961H101.309L104.309 96.0389H106.572L109.572 103.961H107.365L106.852 102.546H104.026L103.519 103.961ZM104.537 101.076H106.348L105.443 98.4148L104.537 101.076Z" fill="white"/>
<path d="M113.194 103.961H111.157V97.6222H108.78V96.0389H115.57V97.6222H113.194V103.961Z" fill="white"/>
<path d="M123.148 99.5481L121.563 102.376H119.98L118.394 99.5481V103.961H116.357V96.0389H118.519L120.783 100.226L123.046 96.0389H125.185V103.961H123.148V99.5481Z" fill="white"/>
<path d="M125.644 96.0389H127.794L129.663 99.887L131.53 96.0389H133.68L130.681 101.867V103.961H128.644V101.867L125.644 96.0389Z" fill="white"/>
<path d="M140.019 103.848C138.335 103.999 136.938 104.074 135.83 104.074C135.089 104.074 134.548 103.902 134.2 103.554C133.852 103.206 133.68 102.663 133.68 101.924V98.3019C133.68 97.5093 133.859 96.9339 134.217 96.5759C134.575 96.2179 135.151 96.0389 135.944 96.0389H140.019V97.6222H136.396C135.944 97.6222 135.717 97.85 135.717 98.3019V101.924C135.713 102 135.724 102.075 135.751 102.146C135.777 102.217 135.818 102.282 135.87 102.337C135.922 102.388 135.983 102.428 136.05 102.454C136.117 102.481 136.189 102.493 136.261 102.491C136.419 102.491 136.593 102.491 136.781 102.491C136.97 102.491 137.167 102.491 137.37 102.474L137.987 102.452C138.194 102.452 138.461 102.43 138.791 102.407C139.12 102.385 139.531 102.357 140.019 102.328V103.848Z" fill="white"/>
<path d="M140.926 96.0389H145.68C146.472 96.0389 147.048 96.2179 147.406 96.5759C147.764 96.9339 147.943 97.5093 147.943 98.3019V99.3204C147.943 99.9481 147.839 100.431 147.631 100.781C147.522 100.958 147.377 101.11 147.207 101.229C147.037 101.348 146.844 101.43 146.641 101.472L148.056 103.961H145.848L144.552 101.585H142.963V103.961H140.926V96.0389ZM145.906 98.3019C145.906 97.85 145.68 97.6222 145.226 97.6222H142.963V100H145.226C145.679 100 145.906 99.7735 145.906 99.3204V98.3019Z" fill="white"/>
<path d="M152.807 103.961H148.733V102.376H149.752V97.6222H148.733V96.0389H152.807V97.6222H151.789V102.376H152.807V103.961Z" fill="white"/>
<path d="M153.826 96.0389H158.354C159.094 96.0389 159.637 96.2074 159.983 96.5426C160.33 96.8778 160.504 97.3889 160.504 98.0759C160.522 98.4675 160.42 98.8554 160.211 99.187C160.035 99.4539 159.782 99.6611 159.485 99.7815C159.781 99.859 160.052 100.013 160.271 100.227C160.489 100.441 160.648 100.709 160.731 101.004C160.811 101.268 160.849 101.543 160.844 101.819C160.844 102.559 160.67 103.102 160.324 103.448C159.978 103.794 159.433 103.969 158.693 103.969H153.826V96.0389ZM158.467 98.3018C158.467 97.85 158.241 97.6222 157.789 97.6222H155.863V99.2074H157.789C158.241 99.2074 158.467 98.9809 158.467 98.5278V98.3018ZM158.807 101.481C158.807 101.028 158.58 100.802 158.128 100.802H155.863V102.385H158.128C158.58 102.385 158.807 102.159 158.807 101.707V101.481Z" fill="white"/>
<path d="M59.8982 108.993C58.9537 108.978 56.5093 108.924 54.1241 107.274C51.8222 105.682 50.6056 103.309 49.9574 101.08C49.2539 103.634 49.0707 106.303 49.4185 108.93C50.8419 109.835 52.4068 110.495 54.0482 110.883C55.6612 111.256 57.3294 111.328 58.9685 111.094C58.9685 111.094 59.1537 111.067 59.3278 111.037C60.3074 110.863 62.4407 110.25 65.6741 107.519C63.9138 108.514 61.9202 109.023 59.8982 108.993Z" fill="white"/>
<path d="M47.6445 91.75C48.7333 85.8555 52.4037 80.0389 56.5648 79.9426C58.9593 79.887 60.9204 81.7407 61.7407 82.5166C64.9852 85.5815 65.063 89.6907 65.063 90.5037H65.5556V81.387C62.6472 79.9017 59.4148 79.1641 56.15 79.2407C54.15 79.2981 48.2704 79.4648 44.0519 84.1185C40.3667 88.1926 40.2722 93.1185 40.2667 94.7537C40.2421 96.5362 40.4919 98.3119 41.0074 100.018C41.6102 98.0019 42.6532 96.1442 44.0611 94.5796C45.0896 93.4433 46.3007 92.487 47.6445 91.75Z" fill="white"/>
<path d="M58.3333 118.624C57.6018 118.607 55.0833 118.552 52.8111 116.98C47.9963 113.646 48.1241 106.748 48.1537 105.526C48.3167 99.0778 52.3315 91.4685 56.9926 91.3611C59.2833 91.3074 61.1592 93.0797 61.9444 93.8223C65.0463 96.7519 65.1204 100.683 65.1204 101.461H65.5944V92.7408C62.8122 91.3215 59.7206 90.6164 56.5981 90.6889C54.6852 90.7445 49.0611 90.9019 45.0278 95.3537C41.5093 99.2426 41.413 103.961 41.4074 105.526C41.4074 107.007 41.45 111.387 44.6185 115.3C47.4278 118.769 52.3963 121.522 57.7926 120.58C61.8537 119.869 64.4352 117.359 65.3852 116.32C63.3559 117.851 60.8746 118.661 58.3333 118.624Z" fill="white"/>
</svg>
