<svg width="162" height="56" viewBox="0 0 162 56" fill="none" xmlns="http://www.w3.org/2000/svg">
<g clip-path="url(#clip0_895_55301)">
<path d="M50.1543 33.0713C47.8918 33.2736 46.0166 33.3748 44.5288 33.3748C43.5336 33.3748 42.8046 33.1409 42.3368 32.6757C41.8691 32.2104 41.6377 31.4789 41.6377 30.4862V25.627C41.6377 24.5621 41.879 23.7892 42.3617 23.3081C42.8444 22.8271 43.6173 22.5858 44.6806 22.5841H50.1543V24.7064H45.2827C44.6756 24.7064 44.3696 25.01 44.3696 25.6195V30.4862C44.3643 30.5879 44.3799 30.6895 44.4154 30.7849C44.451 30.8804 44.5056 30.9675 44.5761 31.041C44.645 31.1091 44.7271 31.1623 44.8174 31.1974C44.9077 31.2325 45.0042 31.2487 45.101 31.245H45.8002L46.5914 31.2226L47.4199 31.1928C47.6986 31.1928 48.0593 31.1629 48.4997 31.1306L50.1493 31.0261L50.1543 33.0713Z" fill="black"/>
<path d="M60.9574 30.3344C60.9574 31.396 60.7169 32.1689 60.2359 32.6533C59.7549 33.1376 58.9819 33.3781 57.917 33.3748H54.1078C53.0429 33.3748 52.27 33.1343 51.7889 32.6533C51.3079 32.1723 51.0674 31.3993 51.0674 30.3344V25.4678C51.0674 24.4029 51.3079 23.6299 51.7889 23.1489C52.27 22.6679 53.0429 22.4265 54.1078 22.4249H57.9096C58.9745 22.4249 59.7474 22.6662 60.2284 23.1489C60.7095 23.6316 60.95 24.4045 60.95 25.4678L60.9574 30.3344ZM58.2206 25.4678C58.2206 24.859 57.917 24.5546 57.31 24.5546H54.7174C54.1086 24.5546 53.8043 24.859 53.8043 25.4678V30.3344C53.8043 30.9415 54.1086 31.245 54.7174 31.245H57.3025C57.9096 31.245 58.2131 30.9415 58.2131 30.3344L58.2206 25.4678Z" fill="black"/>
<path d="M68.4017 22.5767C69.5479 22.5767 70.417 22.8736 71.0092 23.4674C71.6013 24.0612 71.8999 24.9304 71.9049 26.0749V29.7249C71.9049 30.871 71.608 31.7402 71.0142 32.3323C70.4204 32.9245 69.5512 33.2214 68.4067 33.2231H62.4727V22.5767H68.4017ZM69.168 26.0749C69.168 25.1609 68.7119 24.7048 67.7996 24.7064H65.2095V31.1008H67.7946C68.7069 31.1008 69.1631 30.6446 69.1631 29.7323L69.168 26.0749Z" fill="black"/>
<path d="M81.8571 33.2231H73.4201V22.5767H81.8571V24.7064H76.157V26.7591H80.6355V28.8889H76.157V31.1008H81.8571V33.2231Z" fill="black"/>
<path d="M84.9772 33.2231H82.0114L86.0421 22.5767H89.0725L93.1032 33.2231H90.1474L89.4632 31.3222H85.6614L84.9772 33.2231ZM86.3456 29.3442H88.7789L87.5623 25.7713L86.3456 29.3442Z" fill="black"/>
<path d="M97.9798 33.2231H95.2429V24.7064H92.0582V22.5767H101.182V24.7064H97.9798V33.2231Z" fill="black"/>
<path d="M111.361 27.2915L109.226 31.1007H107.096L104.966 27.299V33.2305H102.229V22.5767H105.12L108.161 28.2046L111.216 22.5767H114.105V33.2231H111.368L111.361 27.2915Z" fill="black"/>
<path d="M114.7 22.5767H117.588L120.099 27.7493L122.607 22.5767H125.498L121.467 30.4091V33.2231H118.73V30.4091L114.7 22.5767Z" fill="black"/>
<path d="M134.019 33.0713C131.755 33.2736 129.877 33.3748 128.384 33.3748C127.389 33.3748 126.659 33.1418 126.194 32.6757C125.73 32.2096 125.496 31.4797 125.493 30.4862V25.627C125.493 24.5621 125.734 23.7892 126.217 23.3081C126.699 22.8271 127.472 22.5858 128.536 22.5841H134.009V24.7064H129.153C128.546 24.7064 128.242 25.0108 128.242 25.6195V30.4862C128.236 30.5877 128.252 30.6893 128.287 30.7847C128.322 30.8801 128.376 30.9673 128.446 31.041C128.515 31.1091 128.597 31.1623 128.687 31.1974C128.778 31.2325 128.874 31.2487 128.971 31.245H129.67L130.461 31.2226L131.29 31.1928C131.569 31.1928 131.929 31.1629 132.37 31.1306L134.019 31.0261V33.0713Z" fill="black"/>
<path d="M135.236 22.5767H141.623C142.688 22.5767 143.461 22.818 143.942 23.3007C144.423 23.7834 144.664 24.5563 144.666 25.6196V26.988C144.702 27.6673 144.557 28.344 144.245 28.9486C144.099 29.1859 143.906 29.3907 143.677 29.5504C143.449 29.71 143.19 29.821 142.917 29.8766L144.817 33.2231H141.852L140.11 30.0284H137.98V33.2231H135.243L135.236 22.5767ZM141.926 25.627C141.926 25.0166 141.623 24.7122 141.016 24.7139H137.973V27.9086H141.016C141.623 27.9086 141.926 27.6025 141.926 26.9955V25.627Z" fill="black"/>
<path d="M151.204 33.2231H145.731V31.1008H147.099V24.7064H145.731V22.5767H151.204V24.7064H149.836V31.1008H151.204V33.2231Z" fill="black"/>
<path d="M152.573 22.5767H158.654C159.649 22.5767 160.378 22.8031 160.846 23.2534C161.313 23.7038 161.545 24.3929 161.545 25.316C161.57 25.8425 161.432 26.364 161.149 26.8088C160.912 27.1655 160.573 27.4428 160.176 27.605C160.574 27.7091 160.938 27.9154 161.231 28.2035C161.524 28.4915 161.737 28.8514 161.848 29.2471C161.956 29.6028 162.007 29.973 162 30.3444C162 31.3396 161.767 32.0694 161.301 32.5339C160.835 32.9983 160.105 33.2314 159.111 33.233H152.573V22.5767ZM158.793 25.6196C158.793 25.0092 158.489 24.7048 157.882 24.7064H155.31V26.8362H157.895C158.502 26.8362 158.805 26.5318 158.805 25.9231L158.793 25.6196ZM159.251 29.8766C159.251 29.2695 158.947 28.9635 158.338 28.9635H155.31V31.1008H158.35C158.959 31.1008 159.263 30.7964 159.263 30.1876L159.251 29.8766Z" fill="black"/>
<path d="M26.3734 39.9831C25.102 39.9632 21.8178 39.891 18.6132 37.6742C15.5255 35.5344 13.8834 32.3447 13.0175 29.3591C12.0724 32.7916 11.8262 36.379 12.2935 39.9084C14.2055 41.1246 16.3081 42.011 18.5136 42.5309C20.6831 43.0297 22.926 43.1233 25.1294 42.807C25.1294 42.807 25.3782 42.7697 25.6121 42.7274C26.9283 42.4935 29.7945 41.6725 34.1411 38.0001C31.774 39.3392 29.0928 40.0237 26.3734 39.9831Z" fill="black"/>
<path d="M9.91219 16.8161C11.3752 8.89659 16.304 1.0816 21.8947 0.952222C25.1117 0.87758 27.7491 3.36813 28.8612 4.40813C33.2178 8.52587 33.3223 14.0494 33.3223 15.1416H33.9866V2.89291C30.0772 0.891963 25.7304 -0.102574 21.3398 -0.000704867C18.6602 0.0863772 10.7532 0.307815 5.08784 6.56031C0.134118 12.0266 -0.000237498 18.6597 -0.000237498 20.8492C-0.0343144 23.2442 0.301377 25.6302 0.994986 27.9228C1.80096 25.2145 3.19897 22.7194 5.08784 20.6178C6.47209 19.0898 8.10283 17.8047 9.91219 16.8161Z" fill="black"/>
<path d="M24.2785 52.9236C23.2833 52.8987 19.9094 52.8265 16.8566 50.7142C10.3876 46.2357 10.5593 36.9676 10.6016 35.323C10.8181 26.6621 16.2147 16.4387 22.4746 16.2919C25.5524 16.2197 28.0728 18.6033 29.1277 19.5985C33.2952 23.5371 33.3972 28.8192 33.3947 29.8642H34.0317V18.148C30.2945 16.2384 26.1402 15.2909 21.9447 15.3912C19.3745 15.4633 11.8208 15.6748 6.40177 21.6462C1.67446 26.8711 1.54259 33.2131 1.53513 35.3131C1.53513 37.3035 1.59235 43.1878 5.85191 48.4475C9.62381 53.1077 16.3018 56.8049 23.552 55.5385C29.0058 54.5856 32.4741 51.2143 33.753 49.816C31.028 51.876 27.6943 52.9695 24.2785 52.9236Z" fill="black"/>
</g>
<defs>
<clipPath id="clip0_895_55301">
<rect width="162" height="55.7997" fill="white"/>
</clipPath>
</defs>
</svg>
