<svg width="32" height="32" viewBox="0 0 32 32" fill="none" xmlns="http://www.w3.org/2000/svg">
<path d="M32 0H0V32H32V0Z" fill="url(#paint0_linear_895_55338)"/>
<path d="M19.5904 20.664C18.5255 20.6756 17.4819 20.365 16.5968 19.7728C15.4032 18.9472 14.7696 17.7152 14.4352 16.56C14.071 17.8845 13.9763 19.2686 14.1568 20.6304C14.8941 21.1007 15.7055 21.4431 16.5568 21.6432C17.3928 21.8375 18.2576 21.875 19.1072 21.7536C19.1072 21.7536 19.2064 21.7392 19.2944 21.7232C19.8016 21.6336 20.9088 21.3152 22.5856 19.8944C21.6735 20.4129 20.6395 20.6785 19.5904 20.664Z" fill="white"/>
<path d="M13.2368 11.7216C13.8016 8.66562 15.704 5.64961 17.8608 5.59841C19.104 5.56961 20.1216 6.53122 20.5472 6.93282C22.2288 8.52322 22.2688 10.6544 22.2688 11.0752H22.5248V6.34721C21.0176 5.57431 19.3414 5.18937 17.648 5.22721C16.6112 5.25601 13.5616 5.34241 11.3744 7.75521C9.4624 9.87362 9.4144 12.432 9.4112 13.28C9.39691 14.2039 9.5248 15.1246 9.7904 16.0096C10.1027 14.9635 10.6437 14 11.3744 13.1888C11.9091 12.5994 12.5386 12.1035 13.2368 11.7216Z" fill="white"/>
<path d="M18.7808 25.6576C18.4016 25.6496 17.096 25.6208 15.9168 24.8048C13.4224 23.0784 13.4864 19.4992 13.5024 18.8656C13.5872 15.52 15.6688 11.576 18.08 11.52C19.2672 11.4928 20.24 12.4112 20.64 12.8C22.24 14.32 22.2864 16.3584 22.2864 16.7632H22.5312V12.2352C21.0889 11.4991 19.4861 11.1335 17.8672 11.1712C16.8752 11.2 13.9584 11.2816 11.8672 13.5904C10.0384 15.608 9.992 18.0544 9.9888 18.8704C9.9888 19.6368 10.0112 21.9104 11.6544 23.9392C13.112 25.7376 15.6928 27.1648 18.4864 26.6768C20.592 26.3088 21.9312 25.008 22.4272 24.4704C21.3768 25.2591 20.0942 25.6767 18.7808 25.6576Z" fill="white"/>
<defs>
<linearGradient id="paint0_linear_895_55338" x1="16" y1="34.8832" x2="16" y2="7.6448" gradientUnits="userSpaceOnUse">
<stop stop-color="#0559FD"/>
<stop offset="0.04" stop-color="#1057FC"/>
<stop offset="0.3" stop-color="#594BF5"/>
<stop offset="0.54" stop-color="#9341EF"/>
<stop offset="0.75" stop-color="#BD3AEB"/>
<stop offset="0.9" stop-color="#D736E9"/>
<stop offset="1" stop-color="#E034E8"/>
</linearGradient>
</defs>
</svg>
