<svg width="200" height="134" viewBox="0 0 200 134" fill="none" xmlns="http://www.w3.org/2000/svg">
<path d="M100.112 116.221C127.419 116.221 149.556 94.0845 149.556 66.7773C149.556 39.4702 127.419 17.3333 100.112 17.3333C72.8048 17.3333 50.668 39.4702 50.668 66.7773C50.668 94.0845 72.8048 116.221 100.112 116.221Z" fill="url(#paint0_linear_640_50476)"/>
<path fill-rule="evenodd" clip-rule="evenodd" d="M92.3496 99.3369V100.654C92.3496 105.218 96.0514 108.919 100.619 108.919C105.186 108.919 108.888 105.218 108.888 100.65V99.3333" fill="white"/>
<path d="M92.3496 99.3369V100.654C92.3496 105.218 96.0514 108.919 100.619 108.919C105.186 108.919 108.888 105.218 108.888 100.65V99.3333" stroke="#EEEEEE" stroke-width="1.10378" stroke-linecap="round" stroke-linejoin="round"/>
<path fill-rule="evenodd" clip-rule="evenodd" d="M108.002 33.2929V29.6098C108.002 25.5493 104.669 22.2553 100.552 22.2553C96.4345 22.2553 93.1016 25.5493 93.1016 29.6098V33.2929" fill="white"/>
<path d="M108.002 33.2929V29.6098C108.002 25.5493 104.669 22.2553 100.552 22.2553C96.4345 22.2553 93.1016 25.5493 93.1016 29.6098V33.2929" stroke="#EEEEEE" stroke-width="1.10378" stroke-linecap="round" stroke-linejoin="round"/>
<path fill-rule="evenodd" clip-rule="evenodd" d="M72.324 56.9747C72.324 43.9482 82.8836 33.3938 95.9047 33.3938H105.34C118.366 33.3938 128.921 43.9533 128.921 56.9747V71.5311C128.922 74.2914 130.019 76.9383 131.971 78.89L135.307 82.226C137.258 84.1778 138.355 86.8247 138.356 89.5849C138.356 95.0182 133.954 99.4209 128.52 99.4209H72.7247C67.2913 99.4209 62.8887 95.0182 62.8887 89.5849C62.8895 86.8247 63.9864 84.1778 65.9382 82.226L69.2742 78.89C71.226 76.9383 72.323 74.2914 72.324 71.5311V56.9747Z" fill="white" stroke="#EEEEEE" stroke-width="1.10378" stroke-linecap="round" stroke-linejoin="round"/>
<path d="M92.3846 48.4691H46.4679C43.42 48.4691 40.9492 50.9399 40.9492 53.9878V64.792C40.9492 67.8399 43.42 70.3107 46.4679 70.3107H92.3846C95.4324 70.3107 97.9032 67.8399 97.9032 64.792V53.9878C97.9032 50.9399 95.4324 48.4691 92.3846 48.4691Z" fill="white" stroke="#EEEEEE" stroke-width="1.10378"/>
<path d="M61.3457 55.3784H90.8048C91.4586 55.3784 91.9886 55.9084 91.9886 56.5622C91.9886 57.216 91.4586 57.746 90.8048 57.746H61.3457C60.6919 57.746 60.1619 57.216 60.1619 56.5622C60.1619 55.9084 60.6919 55.3784 61.3457 55.3784Z" fill="#EEEEEE" stroke="#EEEEEE" stroke-width="0.222222"/>
<path d="M61.3457 60.882H79.4743C80.1281 60.882 80.6581 61.412 80.6581 62.0658C80.6581 62.7196 80.1281 63.2496 79.4743 63.2496H61.3457C60.6919 63.2496 60.1619 62.7196 60.1619 62.0658C60.1619 61.412 60.6919 60.882 61.3457 60.882Z" fill="#EEEEEE" stroke="#EEEEEE" stroke-width="0.222222"/>
<path fill-rule="evenodd" clip-rule="evenodd" d="M49.9764 64.8958C46.9575 64.8958 44.5098 62.4136 44.5098 59.3522C44.5098 56.2907 46.9575 53.8087 49.9764 53.8087C52.9953 53.8087 55.4429 56.2907 55.4429 59.3522C55.4429 62.4136 52.9953 64.8958 49.9764 64.8958Z" fill="#CDDEFF"/>
<path d="M51.9028 58.4285L49.5935 60.8922L48.207 59.4142" fill="white"/>
<path d="M51.9028 58.4285L49.5935 60.8922L48.207 59.4142" stroke="white" stroke-width="0.984667" stroke-linecap="round" stroke-linejoin="round"/>
<path fill-rule="evenodd" clip-rule="evenodd" d="M115.867 45.9858C109.695 45.9858 104.691 40.7967 104.691 34.3964C104.691 27.9964 109.695 22.8073 115.867 22.8073C122.038 22.8073 127.042 27.9964 127.042 34.3964C127.042 40.7967 122.038 45.9858 115.867 45.9858Z" fill="#CDDEFF"/>
<path d="M89.4353 80.2222H43.5187C40.4708 80.2222 38 82.693 38 85.7409V96.5451C38 99.593 40.4708 102.064 43.5187 102.064H89.4353C92.4832 102.064 94.954 99.593 94.954 96.5451V85.7409C94.954 82.693 92.4832 80.2222 89.4353 80.2222Z" fill="white" stroke="#EEEEEE" stroke-width="1.10378"/>
<path d="M58.3945 87.1316H87.8536C88.5074 87.1316 89.0374 87.6616 89.0374 88.3153C89.0374 88.9691 88.5074 89.4991 87.8536 89.4991H58.3945C57.7407 89.4991 57.2107 88.9691 57.2107 88.3153C57.2107 87.6616 57.7407 87.1316 58.3945 87.1316Z" fill="#EEEEEE" stroke="#EEEEEE" stroke-width="0.222222"/>
<path d="M58.3945 92.6349H76.5232C77.1769 92.6349 77.7069 93.1649 77.7069 93.8187C77.7069 94.4724 77.1769 95.0024 76.5232 95.0024H58.3945C57.7407 95.0024 57.2107 94.4724 57.2107 93.8187C57.2107 93.1649 57.7407 92.6349 58.3945 92.6349Z" fill="#EEEEEE" stroke="#EEEEEE" stroke-width="0.222222"/>
<path fill-rule="evenodd" clip-rule="evenodd" d="M47.027 96.6487C44.0081 96.6487 41.5605 94.1667 41.5605 91.1051C41.5605 88.0438 44.0081 85.5616 47.027 85.5616C50.0459 85.5616 52.4937 88.0438 52.4937 91.1051C52.4937 94.1667 50.0459 96.6487 47.027 96.6487Z" fill="#CDDEFF"/>
<path d="M48.9516 90.1815L46.6423 92.6453L45.2559 91.1671" fill="white"/>
<path d="M48.9516 90.1815L46.6423 92.6453L45.2559 91.1671" stroke="white" stroke-width="0.984667" stroke-linecap="round" stroke-linejoin="round"/>
<path d="M161.371 58.4029H115.454C112.406 58.4029 109.936 60.8737 109.936 63.9216V74.7258C109.936 77.7737 112.406 80.2445 115.454 80.2445H161.371C164.419 80.2445 166.89 77.7737 166.89 74.7258V63.9216C166.89 60.8737 164.419 58.4029 161.371 58.4029Z" fill="white" stroke="#EEEEEE" stroke-width="1.10378"/>
<path d="M130.33 65.3122H159.789C160.443 65.3122 160.973 65.8422 160.973 66.496C160.973 67.1498 160.443 67.6798 159.789 67.6798H130.33C129.676 67.6798 129.146 67.1498 129.146 66.496C129.146 65.8422 129.676 65.3122 130.33 65.3122Z" fill="#EEEEEE" stroke="#EEEEEE" stroke-width="0.222222"/>
<path d="M130.33 70.8156H148.459C149.112 70.8156 149.642 71.3456 149.642 71.9993C149.642 72.6531 149.112 73.1831 148.459 73.1831H130.33C129.676 73.1831 129.146 72.6531 129.146 71.9993C129.146 71.3456 129.676 70.8156 130.33 70.8156Z" fill="#EEEEEE" stroke="#EEEEEE" stroke-width="0.222222"/>
<path fill-rule="evenodd" clip-rule="evenodd" d="M118.961 74.8293C115.942 74.8293 113.494 72.3473 113.494 69.2858C113.494 66.2244 115.942 63.7422 118.961 63.7422C121.98 63.7422 124.427 66.2244 124.427 69.2858C124.427 72.3473 121.98 74.8293 118.961 74.8293Z" fill="#CDDEFF"/>
<path d="M120.887 68.362L118.578 70.8258L117.191 69.3478" fill="white"/>
<path d="M120.887 68.362L118.578 70.8258L117.191 69.3478" stroke="white" stroke-width="0.984667" stroke-linecap="round" stroke-linejoin="round"/>
<path d="M117.563 29.9051H115.688L113.354 31.3836V33.152L115.513 31.798H115.569V39.3371H117.563V29.9051Z" fill="white"/>
<defs>
<linearGradient id="paint0_linear_640_50476" x1="102.22" y1="171.664" x2="99.1713" y2="-90.2402" gradientUnits="userSpaceOnUse">
<stop stop-color="white"/>
<stop offset="1" stop-color="#EEEEEE"/>
</linearGradient>
</defs>
</svg>
