<svg width="120" height="120" viewBox="0 0 120 120" fill="none" xmlns="http://www.w3.org/2000/svg">
<g clip-path="url(#clip0_311_14968)">
<g clip-path="url(#clip1_311_14968)">
<path d="M2.16898 54.716C2.16898 54.716 -8.10407 21.6562 19.9638 19.9965C48.0317 18.3368 42.8619 27.0678 67.7883 21.6741C92.7146 16.2804 93.1343 12.5476 106.12 17.9401C119.106 23.3325 119.94 37.2296 117.222 44.2817C114.505 51.3339 109.053 56.9337 109.472 60.875C109.89 64.8163 118.698 74.9511 119.862 81.7947C120.502 85.5313 118.643 91.904 116.905 92.1753C103.99 94.2381 52.1228 90.8444 52.1228 90.8444L22.0164 89.5136L5.90172 87.319C5.90172 87.319 6.45326 78.0761 6.39951 70.768C6.34449 63.2794 2.16898 54.716 2.16898 54.716Z" fill="#FBFCFC"/>
<path d="M5.96151 86.3004C5.96151 86.3004 2.45015 100.808 21.7166 99.8212C40.983 98.8346 40.754 96.695 52.9107 100.479C65.0674 104.263 72.6365 105.745 82.0407 102.782C91.4448 99.8199 91.6739 100.311 103.599 100.311C115.524 100.311 119.607 87.5877 119.918 85.8512C120.286 83.8038 119.427 77.0882 117.722 77.0677C105.118 76.9141 27.0451 76.2602 20.8899 77.9635C15.6011 79.4248 9.2451 84.2798 6.18801 85.5735" fill="#F8F9F9"/>
<path d="M8.26468 73.5666L20.1654 68.7039L20.3702 20.031C20.3702 20.031 11.5918 20.589 8.13672 23.9161L8.26468 73.5666Z" fill="#F1F2F3"/>
<path d="M8.13519 23.9161L8.42567 73.5026L6.34367 74.3663C6.34367 74.3663 6.64055 72.1103 6.12869 67.2118C5.65778 62.646 0.820693 51.5668 0.457272 47.3337C0.201342 44.3329 0.343383 32.0854 3.33649 28.4499C6.09926 25.0946 8.13519 23.9161 8.13519 23.9161Z" fill="#F1F2F3"/>
<path d="M14.5082 38.3596C15.8659 38.1232 16.8338 37.1695 16.6701 36.2296C16.5064 35.2896 15.273 34.7193 13.9153 34.9558C12.5577 35.1923 11.5897 36.1459 11.7534 37.0859C11.9172 38.0258 13.1505 38.5961 14.5082 38.3596Z" fill="white"/>
<path d="M17.2822 37.5245C18.3899 37.3315 19.1797 36.5537 19.0462 35.7871C18.9127 35.0206 17.9064 34.5555 16.7987 34.7485C15.691 34.9414 14.9012 35.7192 15.0347 36.4858C15.1682 37.2524 16.1745 37.7174 17.2822 37.5245Z" fill="white"/>
<path d="M3.24646 44.373C4.60415 44.1366 5.57207 43.1829 5.40836 42.243C5.24465 41.303 4.01132 40.7327 2.65363 40.9692C1.29594 41.2057 0.328024 42.1593 0.491731 43.0993C0.655439 44.0392 1.88877 44.6095 3.24646 44.373Z" fill="white"/>
<path d="M5.63766 42.7706C6.74539 42.5776 7.53516 41.7998 7.40165 41.0332C7.26814 40.2667 6.2619 39.8016 5.15417 39.9946C4.04643 40.1875 3.25667 40.9653 3.39018 41.7319C3.5237 42.4985 4.52992 42.9635 5.63766 42.7706Z" fill="white"/>
<path d="M9.15234 23.1137L9.75634 22.7772L9.78449 22.7631L10.1607 22.575L10.5203 22.4125L11.1038 72.3905L9.85231 72.9101L9.15234 23.1137Z" fill="white"/>
<path d="M4.56418 61.017L4.4247 60.5461C4.40294 60.5627 4.31593 60.2044 4.30825 60.198L4.1483 59.8141L4.00369 59.397L20.2386 53.2636L20.2924 54.6277L4.56418 61.017ZM0.61517 48.3894L0.569105 48.1143C0.538393 48.0337 0.503846 47.7163 0.476974 47.6408L0.410429 47.1162L0.351562 46.7323L20.373 39.0799L20.3129 40.4236L0.61517 48.3894Z" fill="white"/>
<path d="M54.7773 66.5157C55.2086 65.9558 55.49 65.2951 55.595 64.5962C55.7127 63.7452 56.0211 62.6601 56.8017 61.9166C57.9879 60.7841 58.1632 56.0302 58.1876 54.2669C58.194 53.6008 58.2987 52.9393 58.4985 52.3039C58.853 51.1893 59.5785 49.646 60.9862 48.9013C62.4206 48.1424 67.0005 47.8315 68.3365 48.9435C71.0557 51.2123 70.6757 54.1901 70.7179 54.6623C70.9239 56.8914 70.7972 58.5179 71.931 59.9165C73.0648 61.3152 74.347 63.0261 74.013 64.7587C73.679 66.4914 76.6619 69.0468 73.3975 70.1128C70.1331 71.1787 66.7971 71.9158 63.1603 71.6253C59.9381 71.3694 55.5323 70.846 54.6659 68.7141C54.236 67.6482 54.4522 66.9482 54.7773 66.5157Z" fill="#F0F2F3"/>
<path d="M55.5888 66.238C55.7398 66.0205 55.9356 65.6954 56.2836 65.5252C56.6317 65.355 57.3291 64.856 60.7688 66.2738C65.6814 68.2995 69.7264 65.8285 70.1103 65.7799C70.4942 65.7313 73.9633 64.6436 73.8673 66.9162C73.7714 69.1889 69.6765 70.425 68.425 70.4749C67.1735 70.5248 62.019 71.0188 59.4674 70.2779C56.9158 69.5369 55.9445 68.5593 55.7718 68.3161C55.5824 68.05 54.9515 67.1542 55.5888 66.238Z" fill="#D3D8DB"/>
<path d="M55.9184 82.7724H56.1628C56.2696 82.7743 56.3757 82.7547 56.4747 82.7147C56.5738 82.6748 56.6638 82.6153 56.7394 82.5398C56.8149 82.4644 56.8746 82.3745 56.9147 82.2755C56.9548 82.1765 56.9746 82.0704 56.9728 81.9636L56.9524 80.8056C56.9512 80.7411 56.931 80.6784 56.8943 80.6254C56.8577 80.5724 56.8062 80.5313 56.7463 80.5074L56.6657 80.4754C56.6111 80.4541 56.5633 80.4185 56.5272 80.3723C56.4911 80.3261 56.4681 80.2711 56.4607 80.213C56.4532 80.1548 56.4615 80.0958 56.4848 80.042C56.508 79.9882 56.5453 79.9416 56.5928 79.9072C56.6459 79.872 56.703 79.8433 56.763 79.8215C57.3017 79.6193 58.438 78.9629 61.4337 78.6596C63.0691 78.4945 63.9086 78.4408 64.3347 78.4254C64.3843 78.4236 64.4329 78.4106 64.4768 78.3872C64.5207 78.3639 64.5587 78.3309 64.5879 78.2907C64.6171 78.2505 64.6368 78.2041 64.6455 78.1552C64.6541 78.1063 64.6516 78.056 64.638 78.0082C64.6166 77.9335 64.5694 77.8687 64.5046 77.8256C64.4399 77.7824 64.362 77.7637 64.2848 77.7728C63.2342 77.9007 59.4938 78.3525 58.2704 78.6365C57.5477 78.8159 56.857 79.106 56.223 79.4965C56.1018 79.5722 55.9992 79.6742 55.9228 79.7949C55.8464 79.9156 55.7981 80.052 55.7815 80.1939C55.7775 80.2421 55.7628 80.2889 55.7385 80.3307C55.7141 80.3726 55.6807 80.4085 55.6407 80.4357C55.5184 80.5189 55.386 80.586 55.2466 80.6354C55.0444 80.7032 55.0482 81.4032 55.0879 81.9867C55.1018 82.1982 55.195 82.3967 55.349 82.5424C55.503 82.6881 55.7064 82.7703 55.9184 82.7724ZM74.0588 82.7724H73.8834C73.7678 82.7746 73.6529 82.7536 73.5456 82.7104C73.4384 82.6672 73.3409 82.6028 73.259 82.5211C73.1772 82.4394 73.1127 82.342 73.0694 82.2348C73.026 82.1276 73.0048 82.0127 73.0069 81.8971L73.0261 80.8056C73.0272 80.7413 73.0472 80.6787 73.0836 80.6257C73.12 80.5726 73.1712 80.5315 73.2308 80.5074L73.3114 80.4754C73.3657 80.454 73.4133 80.4184 73.4492 80.3723C73.485 80.3263 73.5079 80.2714 73.5153 80.2135C73.5228 80.1556 73.5145 80.0968 73.4915 80.0431C73.4685 79.9895 73.4315 79.943 73.3844 79.9085C73.3314 79.8728 73.2742 79.8435 73.2142 79.8215C72.6806 79.6193 71.5506 78.9629 68.5857 78.6596C66.9682 78.4945 66.1364 78.4408 65.7141 78.4254C65.6646 78.4236 65.6162 78.4105 65.5724 78.3873C65.5287 78.364 65.4908 78.3311 65.4616 78.2911C65.4324 78.251 65.4126 78.2049 65.4039 78.1561C65.3951 78.1074 65.3975 78.0572 65.4109 78.0095C65.432 77.9343 65.4793 77.869 65.5443 77.8256C65.6093 77.7822 65.6877 77.7635 65.7653 77.7728C66.8108 77.9007 70.5115 78.3525 71.717 78.6365C72.4327 78.8165 73.1161 79.1066 73.7427 79.4965C73.8628 79.5728 73.9643 79.6751 74.0398 79.7958C74.1153 79.9164 74.1629 80.0525 74.179 80.1939C74.1831 80.2421 74.1978 80.2888 74.2222 80.3307C74.2465 80.3725 74.2799 80.4084 74.3198 80.4357C74.4387 80.5184 74.5677 80.5855 74.7037 80.6354C74.9059 80.7032 74.8995 81.4211 74.8598 82.002C74.8465 82.2072 74.7569 82.4 74.6087 82.5426C74.4605 82.6851 74.2643 82.7671 74.0588 82.7724Z" fill="#C2C9CD"/>
<path d="M64.5102 72.1474L64.4846 81.8357C64.4846 81.8968 64.4603 81.9554 64.4171 81.9986C64.3739 82.0417 64.3154 82.066 64.2543 82.066H64.2031C64.1723 82.066 64.1418 82.0722 64.1134 82.0841C64.0851 82.0961 64.0594 82.1137 64.0379 82.1357C64.0164 82.1578 63.9996 82.1839 63.9884 82.2126C63.9772 82.2413 63.9719 82.272 63.9727 82.3028L64.0137 83.9381C64.0186 84.1318 64.0982 84.3161 64.2358 84.4525C64.3734 84.5889 64.5584 84.6669 64.7521 84.6701L65.2639 84.6778C65.3686 84.6798 65.4725 84.6604 65.5694 84.6207C65.6662 84.5811 65.754 84.5221 65.8272 84.4473C65.9004 84.3725 65.9576 84.2836 65.9952 84.1859C66.0328 84.0882 66.05 83.9839 66.0458 83.8793L65.9869 82.2887C65.9849 82.2289 65.9598 82.1723 65.9168 82.1307C65.8738 82.0892 65.8164 82.066 65.7566 82.066C65.7262 82.066 65.6962 82.06 65.6681 82.0484C65.6401 82.0367 65.6147 82.0196 65.5933 81.9981C65.5719 81.9766 65.5549 81.951 65.5434 81.9229C65.5319 81.8948 65.5261 81.8647 65.5262 81.8344L65.5531 71.8992C65.5533 71.8686 65.5474 71.8383 65.5357 71.81C65.5241 71.7818 65.5069 71.7561 65.4852 71.7346C65.4635 71.713 65.4378 71.696 65.4094 71.6845C65.3811 71.673 65.3508 71.6672 65.3202 71.6676H64.7329C64.7018 71.6677 64.6712 71.6741 64.6427 71.6864C64.6142 71.6987 64.5885 71.7166 64.5671 71.7391C64.5457 71.7615 64.5291 71.7881 64.5182 71.8171C64.5073 71.8462 64.5024 71.8771 64.5038 71.9081L64.5102 72.1474Z" fill="#C2C9CD"/>
<path d="M64.5176 79.1702C64.5176 79.1702 56.69 82.3219 55.4551 83.3674C54.2202 84.4129 54.0181 85.0745 54.0744 85.3547C54.0744 85.3841 54.1217 85.4059 54.1818 85.42C54.3302 85.4614 54.4603 85.5514 54.5515 85.6755C54.6426 85.7996 54.6896 85.9507 54.6848 86.1046L54.6566 87.7528C54.6543 87.8749 54.6042 87.9912 54.5171 88.0768C54.4301 88.1625 54.3129 88.2106 54.1908 88.2109H53.3079C53.1853 88.2109 53.0676 88.1628 52.9803 88.0768C52.8929 87.9909 52.8428 87.874 52.8408 87.7515L52.8126 86.1135C52.8094 85.9447 52.8676 85.7805 52.9763 85.6513C53.085 85.5221 53.2369 85.4367 53.4038 85.411H53.4192C53.4192 85.411 53.7263 84.1723 54.201 83.7475C54.6758 83.3226 55.5089 82.3744 58.786 80.9489C62.0632 79.5233 64.515 78.625 64.515 78.625L64.5176 79.1702ZM65.5132 79.0486C65.5126 79.0996 65.5272 79.1497 65.5553 79.1923C65.5833 79.235 65.6235 79.2682 65.6706 79.2879C66.7455 79.7486 72.9927 82.4499 74.06 83.4045C75.2283 84.45 75.419 85.1116 75.3665 85.3918C75.355 85.4558 75.1822 85.4814 75.0274 85.4904C74.9602 85.4937 74.897 85.5233 74.8515 85.5729C74.806 85.6225 74.7818 85.688 74.7842 85.7552L74.8124 87.5032C74.8154 87.7025 74.8967 87.8926 75.0387 88.0324C75.1807 88.1722 75.372 88.2506 75.5712 88.2506H75.7926C75.99 88.2506 76.1795 88.1731 76.3202 88.0347C76.4609 87.8964 76.5417 87.7083 76.545 87.5109L76.5745 85.7693C76.5751 85.7074 76.5533 85.6474 76.5131 85.6003C76.4729 85.5532 76.4169 85.5224 76.3557 85.5134L76.1624 85.4814C76.1129 85.474 76.0666 85.4523 76.0293 85.4188C75.992 85.3854 75.9653 85.3417 75.9526 85.2933C75.8579 84.944 75.6032 84.1199 75.2539 83.7871C74.8047 83.3597 74.0165 82.4141 70.9146 80.9885C68.5383 79.897 66.6316 79.1164 65.8715 78.8131C65.8319 78.7961 65.7887 78.7893 65.7458 78.7934C65.7029 78.7976 65.6618 78.8124 65.6262 78.8367C65.5906 78.8609 65.5617 78.8937 65.5421 78.9321C65.5226 78.9705 65.5131 79.0132 65.5145 79.0563L65.5132 79.0486Z" fill="#D3D8DB"/>
<path d="M22.5957 86.491L22.7237 64.2251H25.6669V86.619L22.5957 86.491Z" fill="white"/>
<path d="M90.5566 63.8284L90.6744 86.747H93.2337L93.29 63.9218L90.5566 63.8284Z" fill="white"/>
<path d="M13.6387 61.5378V64.2251L101.679 63.9692V61.6658L13.6387 61.5378Z" fill="white"/>
<path d="M13.6387 61.5378L19.909 59.6183L94.5127 59.7463L101.679 61.6658L13.6387 61.5378Z" fill="#D3D8DB"/>
<path d="M53.625 60.7943L55.1004 59.896L61.8954 59.8512L60.8704 60.724L53.625 60.7943Z" fill="#FBFCFC"/>
<path d="M19.7897 54.8708C19.7897 54.8708 18.6777 54.8196 18.5344 55.178C18.3911 55.5363 18.7903 60.4245 18.9643 60.7137C19.1384 61.0029 20.9107 61.0874 21.4123 61.0874C21.4123 61.0874 23.2691 60.9223 23.3599 60.7956C23.4508 60.6689 24.71 55.6143 24.2979 54.9387C23.8859 54.263 19.8537 54.8875 19.8537 54.8875" fill="#F1F3F4"/>
<path d="M18.4437 56.02C18.4437 56.02 21.8988 56.2849 22.307 56.1684C22.7152 56.052 22.5808 55.0167 22.5808 55.0167L24.2981 54.9399C24.2981 54.9399 24.2981 55.9355 24.1817 56.0532C24.0519 56.2091 23.9525 56.3879 23.8886 56.5805C23.8886 56.6393 23.1631 60.8737 23.1631 60.8737C23.1631 60.8737 22.0511 61.0452 21.9039 61.0272C21.7299 61.0055 22.3671 57.5248 22.3671 57.283C22.3671 57.0411 22.3671 56.5805 22.1918 56.5805C22.0165 56.5805 18.6293 56.6828 18.6088 56.3041C18.5794 56.1974 18.5225 56.1003 18.4437 56.0225V56.02ZM19.804 54.9809C19.804 54.9809 18.8404 54.304 18.3285 54.2425C17.8167 54.1811 17.2204 54.1158 16.7085 54.0352C16.1967 53.9546 15.544 53.7268 15.5568 53.4274C15.5696 53.128 15.631 52.9846 15.9318 52.8068C16.1853 52.6417 16.4726 52.5355 16.7725 52.4958C16.9977 52.4753 19.3088 53.0755 20.2723 54.51L20.6562 54.9809H19.804Z" fill="#D4D9DC"/>
<path d="M16.4707 53.3084C16.4707 53.3084 17.3562 53.2969 17.8412 53.4543C18.2208 53.5959 18.5888 53.7671 18.9417 53.9661L20.3916 54.9758" fill="#D4D9DC"/>
<path d="M16.4707 53.3084C16.4707 53.3084 17.3562 53.2969 17.8412 53.4543C18.2208 53.5959 18.5888 53.7671 18.9417 53.9661L20.3916 54.9758" stroke="white" stroke-width="0.0959739" stroke-miterlimit="10" stroke-linecap="round"/>
<path d="M20.8217 54.9425C20.8217 54.9425 19.7007 53.4197 19.2644 52.991C18.828 52.5623 18.3174 52.0722 17.8964 51.6244C17.4754 51.1765 16.9444 50.5341 17.1683 50.2705C17.3922 50.0069 17.5522 49.8277 17.9604 49.8866C18.2796 49.9208 18.5852 50.0338 18.8498 50.2155C19.0763 50.3613 21.1109 52.3026 21.4091 54.533L21.7021 54.9847L20.8217 54.9425Z" fill="#D4D9DC"/>
<path d="M18.1875 50.7887C18.1875 50.7887 19.0602 51.3108 19.4032 51.8125C19.7269 52.2808 20.2401 53.119 20.2401 53.119L20.8223 54.7173" stroke="white" stroke-width="0.0959739" stroke-miterlimit="10" stroke-linecap="round"/>
<path d="M21.3789 55.0116C21.3789 55.0116 20.0698 52.1695 19.8254 51.6077C19.581 51.046 18.5816 50.2001 18.3602 49.6268C18.1388 49.0535 17.998 48.6364 18.2322 48.3216C18.4664 48.0068 19.0691 47.7457 19.4517 47.9377C19.8139 48.1143 20.2848 48.6517 20.487 48.9243C20.6469 49.1393 21.7193 53 21.631 53.8906L21.8357 55.0308L21.3789 55.0116Z" fill="#F1F3F4"/>
<path d="M19.0742 48.9972C19.0742 48.9972 19.8254 49.9646 20.0532 50.5328C20.3091 51.1726 20.565 52.3921 20.5317 52.1964L21.3162 54.8286" stroke="white" stroke-width="0.0959739" stroke-miterlimit="10" stroke-linecap="round"/>
<path d="M20.6617 54.9962C20.6617 54.9962 19.51 53.682 18.9482 53.4274C18.3864 53.1727 17.7479 52.8848 17.1989 52.611C16.65 52.3371 15.9909 51.8726 16.1023 51.5937C16.2136 51.3147 16.3288 51.2021 16.7242 51.1496C17.0708 51.091 17.4255 51.1005 17.7684 51.1778C18.0243 51.2443 20.43 52.698 21.0481 54.4242L21.3335 55.0193L20.6617 54.9962Z" fill="#F1F3F4"/>
<path d="M17.1641 51.8304C17.1641 51.8304 18.1609 52.158 18.6549 52.4932C19.032 52.7692 19.3894 53.0711 19.7246 53.3967L20.8315 55.0116" stroke="white" stroke-width="0.0959739" stroke-miterlimit="10" stroke-linecap="round"/>
<path d="M23.6745 55.0257C23.6745 55.0257 24.7174 54.3859 25.2715 54.3206C25.8255 54.2553 26.4679 54.2003 27.022 54.1222C27.5761 54.0442 28.2825 53.8279 28.2684 53.5413C28.2543 53.2546 28.1891 53.119 27.8627 52.9475C27.5826 52.7881 27.2731 52.6872 26.9529 52.6506C26.7085 52.6314 24.2081 53.2035 23.1652 54.5701L22.7441 55.0206L23.6745 55.0257Z" fill="#D4D9DC"/>
<path d="M27.2829 53.4274C27.2829 53.4274 26.3257 53.4159 25.7998 53.5669C25.392 53.7002 24.9943 53.8627 24.6097 54.0531L23.2188 54.9873" fill="#D4D9DC"/>
<path d="M27.2829 53.4274C27.2829 53.4274 26.3257 53.4159 25.7998 53.5669C25.392 53.7002 24.9943 53.8627 24.6097 54.0531L23.2188 54.9873" stroke="white" stroke-width="0.0959739" stroke-miterlimit="10" stroke-linecap="round"/>
<path d="M22.5744 54.9886C22.5744 54.9886 23.7863 53.5349 24.2585 53.1254C24.7306 52.7159 25.2822 52.2476 25.739 51.8201C26.1958 51.3927 26.7691 50.7798 26.526 50.5264C26.2829 50.273 26.1114 50.1029 25.6686 50.1566C25.3284 50.1874 24.9994 50.2945 24.7063 50.4701C24.4619 50.6083 22.2596 52.4638 21.9372 54.5932L21.6211 55.0244L22.5744 54.9886Z" fill="#D4D9DC"/>
<path d="M25.4253 51.0178C25.4253 51.0178 24.4809 51.5156 24.1098 51.9903C23.7592 52.4382 23.2051 53.238 23.2051 53.238L22.5742 54.7633" stroke="white" stroke-width="0.0959739" stroke-miterlimit="10" stroke-linecap="round"/>
<path d="M21.9686 55.0602C21.9686 55.0602 23.3851 52.3461 23.6487 51.8086C23.9123 51.2712 24.9949 50.4675 25.2342 49.9173C25.4735 49.367 25.6258 48.9704 25.375 48.6709C25.1242 48.3715 24.4703 48.1207 24.0557 48.2998C23.6641 48.4687 23.1599 48.9819 22.9347 49.2416C22.7607 49.4477 21.6013 53.1331 21.696 53.9853L21.4746 55.0743L21.9686 55.0602Z" fill="#F1F3F4"/>
<path d="M21.835 55.0257C21.835 55.0257 21.9488 52.3781 22.2188 51.5169C22.4018 50.9461 22.581 49.9813 22.8203 49.4374C23.0596 48.8936 22.6923 48.1783 22.4466 47.8775C22.2009 47.5768 21.5509 47.6344 21.1311 47.8123C20.7396 47.9812 20.5143 48.5276 20.4644 48.8194C20.4197 49.0855 21.3602 52.2808 21.2604 53.4504L21.341 55.0423L21.835 55.0257Z" fill="#D4D9DC"/>
<path d="M24.4641 49.3095C24.4641 49.3095 23.6516 50.2334 23.4046 50.7747C23.1256 51.3876 22.8479 52.5508 22.8927 52.3589L21.9727 54.9438" stroke="white" stroke-width="0.0959739" stroke-miterlimit="10" stroke-linecap="round"/>
<path d="M22.7477 55.0397C22.7477 55.0397 24.0004 53.7844 24.6006 53.5413C25.2007 53.2981 25.8994 53.0294 26.4932 52.762C27.087 52.4945 27.7997 52.0569 27.6794 51.7907C27.5591 51.5245 27.435 51.4171 27.0063 51.3659C26.6309 51.3099 26.2487 51.319 25.8764 51.3927C25.5949 51.4567 22.9972 52.8439 22.3279 54.4933L22.0195 55.0615L22.7477 55.0397Z" fill="#F1F3F4"/>
<path d="M21.5703 48.3779C21.5703 48.3779 21.7866 50.6467 21.6612 51.2571C21.6087 51.513 21.6343 53.1088 21.6343 53.1088L21.5895 54.8836M26.5302 52.0172C26.5302 52.0172 25.4502 52.3307 24.9166 52.6494C24.5138 52.9106 24.129 53.1988 23.7649 53.5118L22.5441 54.8657L26.5302 52.0172Z" stroke="white" stroke-width="0.0959739" stroke-miterlimit="10" stroke-linecap="round"/>
<path d="M56.635 47.367H42.5742V58.4052H56.635V47.367Z" fill="white"/>
<path d="M49.3055 53.8177C49.772 53.8177 50.1501 53.4396 50.1501 52.9731C50.1501 52.5067 49.772 52.1285 49.3055 52.1285C48.8391 52.1285 48.4609 52.5067 48.4609 52.9731C48.4609 53.4396 48.8391 53.8177 49.3055 53.8177Z" fill="#F8F9F9"/>
<path d="M48.4274 58.1429C48.4274 58.1429 48.7806 59.0732 48.3775 59.3343C47.9745 59.5953 45.4855 60.5768 45.4855 60.5768C45.4855 60.5768 45.3013 60.8724 45.7415 60.9671C46.1343 61.0528 51.1813 60.985 52.2677 60.9671C52.3434 60.9723 52.4189 60.954 52.4837 60.9146C52.5486 60.8751 52.5996 60.8166 52.6298 60.747C52.6554 60.6562 52.6234 60.5563 52.4302 60.4911C52.0962 60.3708 50.8677 59.7015 50.3303 59.4123C50.1409 59.31 50.0897 59.1129 50.0526 58.9325C49.9912 58.642 49.9451 58.3208 50.1499 58.2594C50.4698 58.1634 48.4466 58.2888 48.4466 58.2888" fill="white"/>
<path d="M37.764 46.2345L74.3391 46.1756L74.2648 40.0576L35.691 40.3557L35.668 46.2345H37.764Z" fill="#F0F2F3"/>
<path d="M56.0586 41.1555V45.3681L73.2674 45.3093V41.2144L56.0586 41.1555Z" fill="#D3D8DB"/>
<path d="M37.6641 41.1555V45.3681L54.8728 45.3093V41.2144L37.6641 41.1555Z" fill="#D3D8DB"/>
<path d="M37.6653 42.1703H38.5624L38.5713 45.3784L37.6641 45.3681L37.6653 42.1703Z" fill="white"/>
<path d="M38.5799 42.7321H39.1839L39.2057 45.3643L38.5723 45.3784L38.5799 42.7321Z" fill="#F8F9F9"/>
<path d="M53.7578 42.146H54.285L54.2901 45.3528L53.7578 45.3438V42.146Z" fill="white"/>
<path d="M54.2967 42.7077H54.9007L54.9225 45.34L54.2891 45.3528L54.2967 42.7077Z" fill="#F8F9F9"/>
<path d="M39.2323 42.32H39.8363L39.858 45.372L39.2246 45.3873L39.2323 42.32Z" fill="#F8F9F9"/>
<path d="M39.8223 43.0532L40.1319 42.805L41.6995 45.0943L41.3617 45.3681L39.8223 43.0532Z" fill="white"/>
<path d="M47.1406 45.3528H50.913L50.8938 44.9292L47.1406 44.9497V45.3528Z" fill="white"/>
<path d="M47.7754 44.9382H51.5491L51.5286 44.5146L47.7754 44.5351V44.9382Z" fill="#F0F2F3"/>
<path d="M56.6634 42.0167H57.1932L57.1983 45.3925L56.6621 45.3822L56.6634 42.0167Z" fill="white"/>
<path d="M57.2043 42.7359H57.807L57.8287 45.3669L57.1953 45.3809L57.2043 42.7359Z" fill="#F8F9F9"/>
<path d="M72.123 42.1293H72.6503L72.6554 45.3362L72.123 45.3272V42.1293Z" fill="white"/>
<path d="M72.6484 42.6451L73.2768 42.6514L73.3011 45.3106L72.6587 45.3195L72.6484 42.6451Z" fill="#F8F9F9"/>
<path d="M71.5212 42.9125H72.1252L72.1495 45.3349L71.5059 45.3425L71.5212 42.9125Z" fill="#F8F9F9"/>
<path d="M56.0546 42.3277H56.6585L56.6803 45.3797L56.0469 45.395L56.0546 42.3277Z" fill="#F8F9F9"/>
<path d="M62.3125 43.0622L62.6222 42.8139L64.1897 45.1032L63.8519 45.3771L62.3125 43.0622Z" fill="white"/>
<path d="M59.7559 45.3618H63.5296L63.5091 44.9382L59.7559 44.9587V45.3618Z" fill="white"/>
<path d="M59.5488 44.9625H63.3212L63.3008 44.5389L59.5488 44.5594V44.9625Z" fill="#F0F2F3"/>
<path d="M74.3047 39.7466L74.2676 34.8443H108.561L108.645 46.5582L74.3341 46.8385L74.3047 40.183" fill="#F0F2F3"/>
<path d="M49.879 36.8968C49.879 36.8968 49.5488 36.7868 49.5219 36.7049C49.4951 36.623 49.385 36.1546 49.6038 36.1546H51.4747C51.4747 36.1546 51.7767 36.6499 51.3928 36.7599C51.0089 36.87 51.3378 37.0619 51.4478 37.0619C51.5579 37.0619 51.8048 37.0619 51.8599 37.1988C51.9149 37.3358 51.911 40.2214 51.911 40.2214H49.1368V37.4202C49.1361 37.3804 49.1434 37.3408 49.1583 37.3038C49.1733 37.2669 49.1955 37.2333 49.2237 37.2051C49.2518 37.1769 49.2854 37.1547 49.3224 37.1398C49.3593 37.1249 49.3989 37.1175 49.4388 37.1182C49.742 37.1169 49.9621 37.035 49.879 36.8968Z" fill="#F0F2F3"/>
<path d="M51.4932 38.0063H49.5469V39.213H51.4932V38.0063Z" fill="white"/>
<path d="M53.0508 36.8968C53.0508 36.8968 52.7207 36.7868 52.6938 36.7049C52.6669 36.623 52.5569 36.1546 52.7757 36.1546H54.6466C54.6466 36.1546 54.9486 36.6499 54.5647 36.7599C54.1808 36.87 54.5096 37.0619 54.6197 37.0619C54.7297 37.0619 54.9767 37.0619 55.0317 37.1988C55.0868 37.3358 55.0829 40.2214 55.0829 40.2214H52.3086V37.4202C52.3079 37.3804 52.3153 37.3408 52.3302 37.3038C52.3452 37.2669 52.3674 37.2333 52.3956 37.2051C52.4237 37.1769 52.4573 37.1547 52.4943 37.1398C52.5312 37.1249 52.5708 37.1175 52.6107 37.1182C52.9229 37.1169 53.1379 37.035 53.0508 36.8968Z" fill="#D3D8DB"/>
<path d="M54.669 38.0063H52.7227V39.213H54.669V38.0063Z" fill="white"/>
<path d="M56.334 36.8623C56.334 36.8623 56.0039 36.7523 55.977 36.6704C55.9501 36.5885 55.8401 36.1201 56.0589 36.1201H57.9298C57.9298 36.1201 58.2318 36.6153 57.8479 36.7254C57.464 36.8354 57.7929 37.0274 57.9029 37.0274C58.013 37.0274 58.2599 37.0274 58.3149 37.1643C58.37 37.3012 58.3661 40.1868 58.3661 40.1868H55.5918V37.3857C55.5911 37.3458 55.5985 37.3062 55.6134 37.2693C55.6283 37.2323 55.6506 37.1988 55.6788 37.1706C55.7069 37.1424 55.7405 37.1202 55.7775 37.1053C55.8144 37.0903 55.854 37.083 55.8938 37.0837C56.1958 37.0824 56.4159 37.0005 56.334 36.8623Z" fill="#F0F2F3"/>
<path d="M57.9483 37.9705H56.002V39.1772H57.9483V37.9705Z" fill="white"/>
<path d="M91.329 36.0356H75.4844V45.7124H91.329V36.0356Z" fill="#D3D8DB"/>
<path d="M93.0269 41.8158C93.4086 41.8158 93.718 41.5065 93.718 41.1248C93.718 40.7432 93.4086 40.4338 93.0269 40.4338C92.6453 40.4338 92.3359 40.7432 92.3359 41.1248C92.3359 41.5065 92.6453 41.8158 93.0269 41.8158Z" fill="#D3D8DB"/>
<path d="M86.0665 42.3917C86.0665 42.3917 85.7363 42.2816 85.7094 42.1997C85.6826 42.1178 85.5725 41.6495 85.7913 41.6495H87.6622C87.6622 41.6495 87.9642 42.1447 87.5803 42.2548C87.1964 42.3648 87.5253 42.5568 87.6353 42.5568C87.7454 42.5568 87.9923 42.5567 88.0474 42.6937C88.1024 42.8306 88.0986 45.7162 88.0986 45.7162H85.3243V42.9138C85.3236 42.8739 85.3309 42.8343 85.3459 42.7974C85.3608 42.7604 85.383 42.7269 85.4112 42.6987C85.4394 42.6705 85.4729 42.6483 85.5099 42.6334C85.5468 42.6184 85.5864 42.6111 85.6263 42.6118C85.9257 42.6118 86.1458 42.5286 86.0665 42.3917Z" fill="white"/>
<path d="M87.6749 43.4998H85.7285V44.7066H87.6749V43.4998Z" fill="#F8F9F9"/>
</g>
</g>
<defs>
<clipPath id="clip0_311_14968">
<rect width="119.667" height="119.667" fill="white" transform="translate(0.333984)"/>
</clipPath>
<clipPath id="clip1_311_14968">
<rect width="119.667" height="119.667" fill="white" transform="translate(0.333984)"/>
</clipPath>
</defs>
</svg>
