<svg width="158" height="124" viewBox="0 0 158 124" fill="none" xmlns="http://www.w3.org/2000/svg">
<path d="M128.003 67.138C127.856 66.9463 127.727 66.7434 127.599 66.5382C125.121 62.6424 114.295 64.4889 114.295 64.4889C113.071 73.8813 110.94 72.7744 110.546 72.1836C110.151 71.593 109.439 65.792 108.967 65.0029C107.606 64.8834 104.824 64.9037 104.824 64.9037C102.138 64.9669 99.6133 67.3296 97.1288 71.1781C94.6443 75.0244 90.2637 78.2799 90.2637 78.2799C90.2637 78.2799 91.5645 78.3994 92.038 81.2402C92.3289 81.3303 93.2014 80.9448 93.8372 80.6337C94.4043 80.3562 95.0368 80.24 95.6656 80.2978C96.6891 80.3925 98.1614 80.7194 99.3382 81.8331C99.4829 81.9681 99.6366 82.0931 99.7982 82.2073C99.947 82.1239 100.03 82.0676 100.03 82.0676C102.456 81.0621 103.877 77.5698 103.877 77.5698C103.68 77.1307 103.565 76.6592 103.538 76.1787C103.5 75.7004 103.507 75.2196 103.559 74.7426C103.611 74.2759 103.647 73.8137 103.66 73.3493C103.684 72.8809 103.663 72.4115 103.599 71.9469C103.793 72.3881 103.903 72.8613 103.924 73.3425C103.957 73.8204 103.947 74.3002 103.895 74.7764C103.843 75.2408 103.814 75.703 103.802 76.1697C103.786 76.6377 103.81 77.1062 103.877 77.5698C104.013 78.8159 104.307 80.0395 104.754 81.2109C105.395 81.4232 106.056 81.5691 106.726 81.646C107.056 81.6836 107.389 81.6942 107.721 81.6776C108.06 81.6586 108.399 81.6225 108.735 81.5693C108.432 81.7511 108.098 81.8764 107.75 81.9391C107.576 81.9727 107.4 81.9938 107.222 82.0022C107.045 82.0045 106.867 81.9977 106.69 81.9819C106.338 81.9437 105.993 81.8604 105.662 81.7339C105.332 81.6112 105.025 81.4344 104.754 81.2108C104.944 81.7322 105.196 82.2288 105.504 82.6898C107.177 82.7862 108.816 83.1969 110.336 83.9006C110.721 84.0787 111.075 84.3176 111.432 84.4935C111.794 84.6744 112.174 84.8187 112.566 84.9241C113.354 85.1386 114.166 85.2537 114.983 85.2668C115.397 85.2803 115.792 85.2578 116.22 85.2442C116.641 85.2396 117.062 85.2599 117.481 85.3051C118.31 85.3908 119.138 85.4854 119.958 85.6298C120.272 85.6839 120.583 85.7425 120.894 85.8034C120.75 85.6076 120.626 85.3976 120.524 85.1766C120.366 84.8437 120.247 84.4934 120.17 84.1327C120.091 83.7723 120.044 83.4057 120.028 83.0371C120.008 82.6653 120.022 82.2924 120.071 81.9233L120.073 81.912L120.078 81.8962C120.201 81.4962 120.278 81.0831 120.306 80.6653C120.34 80.2415 120.345 79.8158 120.319 79.3915C120.29 78.9666 120.238 78.5437 120.163 78.1244C120.082 77.7118 119.974 77.2812 119.915 76.8461C119.797 75.9788 119.77 75.1015 119.834 74.2285C119.857 73.7934 119.902 73.3582 119.967 72.9299C120.027 72.4999 120.11 72.0732 120.213 71.6516C120.106 72.5089 120.047 73.3715 120.037 74.2353C120.025 75.0928 120.087 75.9498 120.224 76.7964C120.254 77.0084 120.306 77.2158 120.348 77.4233L120.488 78.0635C120.571 78.4961 120.626 78.9337 120.653 79.3734C120.719 80.2548 120.618 81.1409 120.353 81.9842C120.297 82.3309 120.268 82.6814 120.267 83.0325C120.265 83.3897 120.293 83.7465 120.351 84.0989C120.407 84.4525 120.498 84.7998 120.621 85.1361C120.708 85.3722 120.818 85.5995 120.948 85.8146C121.437 85.9139 121.922 86.0266 122.402 86.1596C123.21 86.3706 123.986 86.6867 124.711 87.0998C123.962 86.7473 123.173 86.4854 122.362 86.3197C121.945 86.2227 121.524 86.1385 121.101 86.0672C121.1 86.0659 121.099 86.0651 121.097 86.0649C120.707 85.9973 120.315 85.9387 119.92 85.8868C119.099 85.7808 118.276 85.6884 117.454 85.623C117.046 85.5848 116.636 85.569 116.227 85.5757C115.828 85.5892 115.391 85.6185 114.976 85.605C114.131 85.5876 113.291 85.4619 112.478 85.2307C112.07 85.1114 111.674 84.9528 111.296 84.7572C111.107 84.6648 110.922 84.5408 110.749 84.4394C110.575 84.3334 110.401 84.2229 110.219 84.1327C109.49 83.75 108.722 83.4461 107.928 83.2264C107.134 82.9886 106.324 82.8093 105.504 82.6899L103.64 82.868C103.698 82.9473 103.74 83.0368 103.764 83.1317C104.244 84.6851 103.552 90.7702 103.552 90.7702C106.215 92.7226 120.953 95.7414 120.953 95.7414C130.453 97.3399 130.541 88.9034 130.541 88.9034C132.241 73.7641 128.9 68.3013 128.003 67.138ZM116.114 82.5703C115.94 82.604 115.764 82.6251 115.587 82.6335C115.409 82.6358 115.232 82.629 115.055 82.6132C114.703 82.575 114.357 82.4916 114.027 82.3652C113.697 82.2425 113.39 82.0657 113.118 81.8421C113.759 82.0545 114.42 82.2003 115.091 82.2772C115.421 82.3149 115.753 82.3254 116.085 82.3088C116.425 82.2899 116.763 82.2538 117.1 82.2006C116.796 82.3824 116.462 82.5077 116.114 82.5703V82.5703Z" fill="black"/>
<path d="M108.948 65.0136C108.883 64.9157 108.811 64.8229 108.732 64.7358C108.653 64.6503 108.567 64.5721 108.474 64.5024C108.381 64.4342 108.282 64.3765 108.177 64.3303C108.076 64.285 107.968 64.2558 107.858 64.244L107.893 64.2372C107.667 64.3461 107.427 64.426 107.181 64.4749C106.931 64.5289 106.673 64.5373 106.42 64.4999C106.157 64.461 105.91 64.3527 105.702 64.1863C105.512 64.0158 105.345 63.8209 105.206 63.6066C104.933 63.1941 104.691 62.7625 104.481 62.3152C104.27 61.871 104.079 61.4219 103.902 60.9605L104.084 61.0808C103.874 61.1022 103.662 61.07 103.468 60.9872C103.355 60.9341 103.259 60.8495 103.193 60.7436C103.132 60.6412 103.095 60.526 103.087 60.4071C103.076 60.2033 103.105 59.9994 103.172 59.8066C103.231 59.6226 103.308 59.4452 103.403 59.2771C103.581 59.0164 103.665 58.7025 103.64 58.3877C103.626 58.2344 103.584 58.085 103.516 57.9469L103.393 57.7169C103.35 57.6353 103.309 57.5523 103.271 57.4675C103.191 57.2977 103.127 57.1208 103.081 56.9392C103.03 56.7623 102.989 56.5827 102.958 56.4013C102.918 56.2213 102.906 56.0369 102.884 55.8545C102.876 55.6705 102.865 55.4869 102.875 55.303C102.89 54.5637 103.071 53.8372 103.405 53.1771C103.416 53.1548 103.434 53.1364 103.455 53.1238C103.477 53.1112 103.502 53.105 103.527 53.106C103.552 53.1069 103.576 53.115 103.597 53.1292C103.617 53.1434 103.634 53.1632 103.643 53.1862L103.645 53.1912C103.921 53.8266 104.272 54.4262 104.691 54.9771C105.109 55.5332 105.611 56.021 106.179 56.4229C106.745 56.8257 107.392 57.101 108.074 57.23C108.756 57.3557 109.457 57.3369 110.131 57.1749L110.135 57.1738C110.151 57.1702 110.168 57.1712 110.183 57.1767C110.198 57.1821 110.212 57.1919 110.222 57.2047C110.494 57.5791 110.683 58.0069 110.778 58.4599C110.878 58.9025 110.93 59.3547 110.931 59.8085C110.933 60.2602 110.901 60.7113 110.834 61.1581C110.755 61.5822 110.725 62.0141 110.745 62.4451C110.766 62.8616 110.878 63.2684 111.075 63.6361C111.272 63.9903 111.572 64.2758 111.935 64.4544C112.306 64.6272 112.715 64.7 113.123 64.6655C113.54 64.6318 113.949 64.5266 114.331 64.3546C114.367 64.3386 114.408 64.3326 114.448 64.3372C114.487 64.3418 114.525 64.3569 114.557 64.3808C114.59 64.4048 114.615 64.4368 114.631 64.4737C114.647 64.5105 114.652 64.5509 114.648 64.5907L114.647 64.5936C114.482 66.0306 114.224 67.4555 113.877 68.8595C113.696 69.5682 113.46 70.2613 113.169 70.932C113.019 71.2747 112.835 71.6014 112.62 71.9072C112.508 72.0649 112.38 72.2111 112.24 72.344C112.093 72.4873 111.921 72.6019 111.733 72.6817C111.531 72.7685 111.308 72.7931 111.092 72.7524C110.878 72.7085 110.681 72.6037 110.526 72.4504C110.442 72.3717 110.376 72.2769 110.331 72.1719C110.294 72.0811 110.263 71.9883 110.238 71.8938C110.188 71.7135 110.149 71.5362 110.112 71.3583C109.963 70.6486 109.86 69.9374 109.747 69.2277L109.413 67.1003C109.356 66.7463 109.296 66.3928 109.227 66.0416C109.17 65.69 109.077 65.3454 108.948 65.0136L108.946 65.0104C108.944 65.0051 108.944 64.9991 108.946 64.9936C108.947 64.9881 108.951 64.9836 108.957 64.981C108.962 64.9784 108.968 64.9779 108.973 64.9797C108.979 64.9814 108.984 64.9852 108.986 64.9903C109.143 65.3173 109.262 65.6616 109.338 66.0162C109.428 66.3653 109.508 66.7162 109.585 67.0675C109.741 67.7699 109.873 68.4764 110.014 69.1804C110.153 69.8843 110.297 70.5885 110.455 71.2818C110.496 71.454 110.538 71.6269 110.589 71.7912C110.612 71.8697 110.639 71.9468 110.671 72.0221C110.699 72.0814 110.739 72.1342 110.788 72.1774C110.891 72.2765 111.021 72.3421 111.161 72.3654C111.302 72.3887 111.446 72.3685 111.575 72.3076C111.859 72.1559 112.098 71.9315 112.267 71.6574C112.456 71.3693 112.619 71.0647 112.753 70.7471C113.026 70.0965 113.246 69.425 113.412 68.7391C113.747 67.3525 114.008 65.949 114.195 64.5346L114.511 64.7737C114.079 64.9608 113.618 65.0721 113.149 65.1027C112.666 65.1357 112.184 65.0417 111.749 64.8303C111.312 64.6103 110.955 64.2595 110.726 63.8269C110.512 63.4044 110.393 62.9394 110.381 62.4657C110.369 62.0089 110.411 61.5523 110.507 61.1055C110.588 60.6767 110.635 60.2424 110.649 59.8063C110.665 59.3719 110.632 58.937 110.55 58.5101C110.476 58.089 110.316 57.6876 110.08 57.3309L110.171 57.3607C109.471 57.5058 108.748 57.5119 108.046 57.3786C107.696 57.3102 107.355 57.202 107.029 57.0561C106.703 56.9142 106.391 56.7412 106.098 56.5395C105.515 56.1333 104.993 55.6454 104.548 55.0908C104.093 54.5411 103.706 53.9379 103.398 53.2946L103.639 53.3087C103.356 53.9365 103.215 54.619 103.227 55.3074C103.228 55.6509 103.264 55.9934 103.334 56.3296C103.367 56.4981 103.409 56.6646 103.46 56.8284C103.505 56.9905 103.564 57.1485 103.635 57.3008C103.67 57.3777 103.709 57.4539 103.749 57.5298C103.789 57.6077 103.83 57.6742 103.878 57.7697C103.968 57.9511 104.024 58.1475 104.044 58.3491C104.074 58.75 103.968 59.1494 103.742 59.4819C103.575 59.7507 103.482 60.0582 103.47 60.3742C103.469 60.4312 103.485 60.4872 103.514 60.536C103.544 60.5847 103.586 60.6241 103.637 60.6498C103.772 60.7059 103.918 60.7284 104.064 60.7154L104.066 60.7153C104.105 60.7135 104.144 60.7243 104.176 60.746C104.208 60.7677 104.233 60.7992 104.246 60.8358C104.407 61.2861 104.589 61.7363 104.784 62.176C104.971 62.6171 105.189 63.0441 105.438 63.4537C105.556 63.6525 105.7 63.8349 105.866 63.9965C106.035 64.1421 106.24 64.24 106.46 64.2805C106.924 64.3542 107.399 64.2949 107.831 64.1095L107.841 64.1058C107.849 64.1025 107.858 64.1014 107.867 64.1026C107.993 64.1219 108.115 64.1619 108.228 64.2209C108.338 64.277 108.441 64.3452 108.536 64.4242C108.628 64.504 108.712 64.5926 108.787 64.6888C108.861 64.7841 108.928 64.885 108.986 64.9904C108.988 64.9929 108.989 64.9958 108.989 64.9987C108.99 65.0016 108.989 65.0046 108.989 65.0075C108.988 65.0103 108.987 65.013 108.985 65.0154C108.983 65.0177 108.981 65.0197 108.978 65.0211C108.973 65.0238 108.967 65.0245 108.961 65.0232C108.956 65.0218 108.951 65.0184 108.948 65.0136Z" fill="black"/>
<path d="M103.611 60.8449C103.565 61.2035 103.517 61.5592 103.48 61.9154C103.444 62.2717 103.41 62.6273 103.399 62.9827C103.382 63.3361 103.396 63.6904 103.443 64.0411C103.466 64.2148 103.513 64.3846 103.582 64.5457C103.646 64.711 103.754 64.8561 103.894 64.9658C103.728 64.8808 103.592 64.7487 103.502 64.5863C103.413 64.4236 103.346 64.2493 103.305 64.0683C103.228 63.7097 103.198 63.3426 103.217 62.9762C103.232 62.6133 103.273 62.252 103.341 61.8952C103.405 61.5388 103.495 61.1877 103.611 60.8449ZM103.503 53.2559C103.456 53.1749 103.427 53.0853 103.416 52.9926C103.405 52.8998 103.414 52.8059 103.441 52.7165L103.478 52.5823L103.536 52.4579C103.556 52.4168 103.575 52.374 103.597 52.3339L103.673 52.2211C103.775 52.0705 103.89 51.9296 104.018 51.8001C104.147 51.6748 104.284 51.5593 104.419 51.4392C104.988 51.0092 105.597 50.6355 106.237 50.3231C106.557 50.1714 106.88 50.0262 107.203 49.8819C107.53 49.7477 107.859 49.6182 108.189 49.4909C108.519 49.37 108.854 49.2656 109.188 49.1548C109.356 49.1041 109.519 49.0465 109.699 48.9966C109.874 48.9496 110.052 48.9119 110.23 48.8836C110.941 48.7668 111.667 48.7964 112.365 48.9706C113.061 49.1459 113.704 49.4865 114.24 49.9635C114.768 50.4478 115.204 51.0248 115.524 51.6658C115.847 52.3042 116.093 52.9782 116.258 53.6739L116.262 53.6926C116.436 54.6475 116.742 55.5734 117.172 56.4437C117.384 56.8779 117.63 57.2949 117.906 57.691C118.179 58.0878 118.486 58.4594 118.825 58.8013L119.361 59.2979C119.554 59.4667 119.736 59.6482 119.904 59.8413C120.249 60.2223 120.533 60.6538 120.748 61.1209C121.192 62.0437 121.303 63.0917 121.062 64.0871C121.06 64.0927 121.057 64.0974 121.052 64.1005C121.047 64.1035 121.041 64.1046 121.036 64.1034C121.03 64.1023 121.025 64.0991 121.022 64.0944C121.018 64.0897 121.017 64.084 121.018 64.0783L121.018 64.0758C121.082 63.5898 121.062 63.0965 120.96 62.6171C120.868 62.1422 120.701 61.685 120.465 61.2625C120.349 61.0526 120.22 60.8501 120.079 60.6563C119.934 60.4652 119.777 60.2837 119.609 60.113C119.444 59.9383 119.268 59.7751 119.081 59.6243L118.509 59.1284C117.773 58.4177 117.176 57.5766 116.747 56.6477C116.534 56.1878 116.353 55.7134 116.207 55.2279C116.055 54.7422 115.945 54.2445 115.877 53.7402L115.88 53.7588C115.745 53.0819 115.544 52.4199 115.279 51.7825C115.014 51.1442 114.625 50.5647 114.135 50.0777C113.883 49.8422 113.602 49.6392 113.299 49.4736C112.994 49.3117 112.668 49.1931 112.33 49.1212C111.654 48.9864 110.956 49.003 110.287 49.1698C110.121 49.2082 109.957 49.2552 109.796 49.3107C109.642 49.3652 109.478 49.4361 109.314 49.4982L108.329 49.8667C108.006 49.9969 107.682 50.1249 107.356 50.2483L106.398 50.6603C105.766 50.9435 105.158 51.2747 104.577 51.651C104.442 51.7542 104.301 51.8543 104.17 51.9631C104.041 52.0731 103.92 52.1931 103.81 52.3219L103.727 52.4188C103.703 52.4531 103.683 52.4894 103.661 52.5248L103.595 52.6325L103.55 52.7481C103.485 52.9014 103.481 53.0739 103.539 53.2298L103.542 53.2346C103.544 53.2397 103.544 53.2455 103.542 53.2508C103.541 53.2562 103.537 53.2607 103.532 53.2634C103.527 53.2661 103.521 53.2668 103.516 53.2654C103.51 53.264 103.506 53.2606 103.503 53.2559V53.2559ZM104.06 57.612C104.372 57.3877 104.712 57.2059 105.072 57.0713C105.252 57.0022 105.437 56.9467 105.625 56.9054C105.814 56.8574 106.011 56.8484 106.204 56.8787C106.02 56.9186 105.839 56.9733 105.664 57.0424L105.137 57.2417C104.785 57.3741 104.433 57.5105 104.06 57.612ZM105.047 58.8721C105.118 58.8697 105.185 58.8398 105.234 58.7887C105.284 58.7376 105.311 58.6694 105.311 58.5984C105.311 58.5274 105.284 58.4592 105.234 58.4082C105.185 58.3571 105.118 58.3272 105.047 58.3247C104.976 58.3272 104.909 58.3571 104.859 58.4082C104.81 58.4592 104.782 58.5274 104.782 58.5984C104.782 58.6694 104.81 58.7376 104.859 58.7887C104.909 58.8398 104.976 58.8697 105.047 58.8721ZM104.605 62.1879C104.743 62.1921 104.88 62.1883 105.017 62.1765C105.15 62.1643 105.282 62.1482 105.412 62.1233C105.542 62.0979 105.673 62.0688 105.803 62.0331C105.934 61.9979 106.065 61.959 106.204 61.9241C106.101 62.0226 105.982 62.1043 105.853 62.1663C105.724 62.2294 105.587 62.2752 105.445 62.3026C105.161 62.364 104.863 62.3234 104.605 62.1879ZM103.59 89.9617C102.912 89.7121 102.215 89.5177 101.506 89.3806C100.808 89.2384 100.09 89.2155 99.3846 89.3129L99.1247 89.3567L98.871 89.4256C98.7026 89.4726 98.5371 89.5296 98.3755 89.5963C98.0524 89.7354 97.7426 89.9036 97.4501 90.0989C97.152 90.2944 96.8692 90.5181 96.5362 90.7114C96.2029 90.8985 95.8442 91.0363 95.4713 91.1205C95.1009 91.2082 94.7206 91.2466 94.3402 91.2345C93.9418 91.2349 93.5491 91.1397 93.1951 90.9567C93.0975 90.8971 93.0104 90.8217 92.9374 90.7336C92.8721 90.6533 92.8317 90.5947 92.7745 90.5289C92.6672 90.4053 92.5429 90.2975 92.4054 90.2087C92.103 90.033 91.7837 89.8881 91.4523 89.7763C91.0948 89.6627 90.7519 89.5072 90.431 89.313C90.2684 89.2031 90.1255 89.0666 90.0083 88.9092C89.9507 88.8349 89.8991 88.764 89.8437 88.6984C89.8165 88.6643 89.7879 88.6353 89.7587 88.6023C89.727 88.5646 89.6903 88.527 89.6634 88.489C89.448 88.1904 89.2503 87.8794 89.0713 87.5577C88.8901 87.2413 88.7099 86.9261 88.537 86.6053L88.5898 86.6442L88.1256 86.5429C87.9651 86.5155 87.8078 86.4724 87.6557 86.4143C87.3508 86.2869 87.0831 86.0844 86.8777 85.8256C86.7652 85.6961 86.688 85.5399 86.6534 85.3719C86.6402 85.2833 86.6459 85.193 86.67 85.1068C86.6941 85.0206 86.7362 84.9405 86.7934 84.8716C86.903 84.7424 87.0372 84.6362 87.1881 84.5591C87.339 84.4821 87.5037 84.4357 87.6726 84.4227C87.8359 84.4133 87.9997 84.42 88.1617 84.4427L88.6342 84.4767C88.9495 84.4966 89.2648 84.5114 89.5803 84.5211C90.211 84.5404 90.8422 84.536 91.4691 84.4968C92.0917 84.4646 92.7102 84.3779 93.3177 84.2378C93.6114 84.1681 93.8959 84.0639 94.1652 83.9275C94.2914 83.8616 94.4089 83.7801 94.5148 83.6849C94.6212 83.5874 94.7179 83.4798 94.8033 83.3635C94.8748 83.2826 94.9193 83.1815 94.9309 83.0743C94.9271 83.0511 94.9234 83.0421 94.8937 83.0165C94.8494 82.9882 94.801 82.9667 94.7503 82.9528C94.4684 82.8957 94.1783 82.8917 93.8949 82.9411C93.75 82.9613 93.6069 82.9928 93.4669 83.0352C93.4098 83.0521 93.3548 83.0753 93.3028 83.1043L93.2542 83.1359C93.2329 83.1507 93.2115 83.1624 93.19 83.1746C93.1481 83.1981 93.1048 83.219 93.0604 83.2373C92.8951 83.3032 92.7222 83.3482 92.5456 83.3711C92.4608 83.3831 92.3765 83.3916 92.2924 83.3974C92.1951 83.4061 92.097 83.4025 92.0006 83.3867C91.7965 83.3521 91.6077 83.2566 91.4588 83.1129C91.3171 82.9707 91.2143 82.7945 91.1603 82.6012C91.0659 82.2305 91.1157 81.8378 91.2997 81.5024C91.3911 81.3155 91.5354 81.1597 91.7147 81.0543C91.7745 81.0226 91.8393 81.0016 91.9063 80.9922C91.9455 80.987 91.9852 80.9867 92.0244 80.9912C92.0449 80.9935 92.0651 80.9972 92.085 81.0023L92.1105 81.009L92.1134 81.0086C92.1595 81.0131 92.2059 81.0102 92.251 80.9998C92.541 80.9332 92.8238 80.8381 93.0952 80.7159C93.2378 80.6553 93.3799 80.5919 93.5215 80.5257L93.7333 80.4253C93.8093 80.389 93.8866 80.3548 93.9652 80.3228C94.2793 80.1968 94.6096 80.1155 94.9464 80.0813C95.2793 80.0512 95.6146 80.0628 95.9447 80.1158C96.2674 80.16 96.5869 80.2247 96.9013 80.3096C97.5345 80.4765 98.1366 80.7446 98.6843 81.1035C98.9559 81.2856 99.2101 81.4923 99.4438 81.721C99.6694 81.9286 99.9107 82.1186 100.166 82.2892C101.252 82.9229 102.507 83.209 103.761 83.1091L103.763 83.1089C103.769 83.1086 103.775 83.1105 103.779 83.1143C103.784 83.1181 103.787 83.1234 103.787 83.1292C103.788 83.135 103.786 83.1408 103.782 83.1454C103.779 83.15 103.774 83.153 103.768 83.1538C102.486 83.3506 101.174 83.1268 100.03 82.516C99.7495 82.3467 99.4833 82.1556 99.2334 81.9444C98.5412 81.3297 97.705 80.8997 96.8023 80.6942C96.5027 80.6221 96.1988 80.5692 95.8925 80.5357C95.595 80.4954 95.2936 80.4927 94.9954 80.5278C94.7013 80.5624 94.4133 80.6374 94.1396 80.7507C94.0716 80.7794 94.0047 80.81 93.9382 80.8428L93.7218 80.9486C93.577 81.0183 93.4307 81.0858 93.2827 81.1513C92.9783 81.2944 92.6589 81.4033 92.3304 81.4761C92.2202 81.4993 92.1065 81.4994 91.9963 81.4765L91.97 81.4705C91.9614 81.4684 91.9683 81.4703 91.9668 81.4698L91.969 81.4702C91.9702 81.4704 91.9705 81.4701 91.9686 81.4703C91.9571 81.4726 91.946 81.4767 91.9358 81.4825C91.8441 81.5445 91.7708 81.63 91.7235 81.73C91.5984 81.956 91.5621 82.2204 91.6217 82.4716C91.6527 82.5852 91.7108 82.6895 91.7909 82.7757C91.8706 82.8547 91.9723 82.9078 92.0826 82.928C92.1425 82.9389 92.2036 82.9415 92.2642 82.936C92.3382 82.932 92.4117 82.9257 92.4839 82.9166C92.6222 82.9012 92.7581 82.8687 92.8885 82.8199C92.9176 82.8087 92.9459 82.7956 92.9733 82.7807C92.9864 82.7741 92.999 82.7667 93.0112 82.7587L93.0627 82.7264C93.1484 82.6768 93.2399 82.6381 93.3351 82.6112C93.499 82.5637 93.6665 82.5293 93.8359 82.5083C94.1794 82.4543 94.5301 82.4676 94.8685 82.5474C94.9704 82.577 95.0663 82.6242 95.1518 82.6869C95.2052 82.7281 95.2497 82.7798 95.2826 82.8386C95.3156 82.8975 95.3363 82.9625 95.3435 83.0295C95.3526 83.1452 95.33 83.2611 95.2782 83.3649C95.239 83.4503 95.1899 83.5309 95.132 83.6048C95.0277 83.7425 94.9091 83.8687 94.7781 83.9812C94.6453 84.0948 94.4988 84.1911 94.3419 84.2681C94.0418 84.4111 93.7259 84.5179 93.4006 84.5863C92.769 84.7164 92.1262 84.7841 91.4814 84.7884C90.842 84.8019 90.2048 84.7802 89.5699 84.7397C89.2524 84.7189 88.9355 84.6928 88.6192 84.6612L88.1452 84.6105C87.9936 84.5869 87.8401 84.5781 87.6868 84.5844C87.5388 84.5937 87.3942 84.6322 87.261 84.6975C87.1279 84.7627 87.0089 84.8536 86.9109 84.9649C86.8654 85.0172 86.8315 85.0787 86.8116 85.1452C86.7917 85.2117 86.7863 85.2817 86.7957 85.3504C86.8248 85.4942 86.8901 85.6282 86.9854 85.7398C87.1746 85.981 87.424 86.1681 87.7085 86.2822C87.8531 86.3358 88.0027 86.375 88.155 86.3992L88.6216 86.4902C88.6322 86.4922 88.6423 86.4965 88.6512 86.5028C88.66 86.509 88.6675 86.5171 88.673 86.5265L88.6745 86.529C89.0235 87.1585 89.4156 87.7631 89.848 88.3386C89.8752 88.3736 89.9042 88.3992 89.9318 88.4301C89.9643 88.4636 90.0007 88.498 90.0318 88.5335C90.0966 88.6039 90.1551 88.6773 90.2117 88.7441C90.3171 88.8744 90.4439 88.9857 90.5866 89.0734C90.8955 89.2409 91.2228 89.3717 91.5621 89.4631C91.924 89.5673 92.2735 89.7108 92.6043 89.891C92.7745 89.9954 92.9292 90.1233 93.0637 90.271C93.1278 90.3404 93.1939 90.4291 93.245 90.4876C93.2904 90.5372 93.3428 90.5798 93.4006 90.6141C93.6973 90.7591 94.0237 90.833 94.3539 90.83C94.6998 90.8408 95.0458 90.8085 95.3837 90.7337C95.7207 90.6618 96.0454 90.5413 96.3478 90.3761C96.6442 90.2074 96.9414 89.9913 97.2536 89.7945C97.5697 89.5939 97.9036 89.4228 98.251 89.2833C98.4276 89.2186 98.6079 89.1646 98.791 89.1214L99.0655 89.0591L99.344 89.0234C100.082 88.9482 100.828 89.0039 101.546 89.1879C102.255 89.3671 102.945 89.6123 103.607 89.9201C103.612 89.9224 103.617 89.9266 103.619 89.932C103.621 89.9373 103.621 89.9433 103.619 89.9487C103.617 89.9541 103.613 89.9585 103.608 89.961C103.603 89.9635 103.597 89.9639 103.591 89.9621L103.59 89.9617Z" fill="black"/>
<path d="M88.604 86.5669C89.043 86.5293 89.4821 86.5117 89.9211 86.4971C90.3602 86.4804 90.7992 86.4781 91.2382 86.4757L91.8967 86.4805C92.123 86.4804 92.3483 86.5115 92.5661 86.5729C92.9831 86.721 93.3897 86.897 93.7831 87.0997C93.5712 87.0389 93.3635 86.9672 93.1536 86.9013C92.9511 86.8235 92.7436 86.7593 92.5326 86.7092C92.3235 86.666 92.1101 86.6473 91.8967 86.6533L91.2382 86.6581C90.7992 86.6558 90.3601 86.6535 89.9211 86.6368C89.4821 86.6222 89.043 86.6045 88.604 86.5669ZM88.8272 86.9595C89.1223 87.1871 89.4044 87.4299 89.6846 87.675C89.8295 87.7928 89.9583 87.9317 90.0993 88.0298C90.2417 88.1322 90.4012 88.2083 90.5704 88.2546C90.7335 88.3035 90.922 88.3109 91.108 88.3455C91.2933 88.3761 91.4769 88.4162 91.6581 88.4657C92.0287 88.5435 92.3732 88.7151 92.6585 88.9641C92.5052 88.8621 92.3368 88.7846 92.1595 88.7344C91.9849 88.6786 91.8068 88.6345 91.6263 88.6024C91.4454 88.5711 91.2648 88.5385 91.0821 88.5163C90.8937 88.4984 90.7064 88.4696 90.5212 88.4302C90.3318 88.3761 90.1542 88.2874 89.9972 88.1685C89.8525 88.0462 89.7157 87.9149 89.5875 87.7755C89.3284 87.5102 89.0713 87.2424 88.8272 86.9595ZM84.6781 81.1225C84.5326 80.8278 84.3549 80.5501 84.1482 80.2946L84.183 80.3172C83.8372 80.2628 83.5148 80.1082 83.256 79.8724C83.121 79.736 83.0379 79.5567 83.021 79.3656C83.0126 79.2707 83.0168 79.1752 83.0336 79.0814C83.0566 78.9921 83.0845 78.9041 83.1173 78.8178C83.2751 78.4816 83.5531 78.2166 83.8966 78.075C84.0684 77.9933 84.2554 77.9485 84.4455 77.9435C84.6504 77.9423 84.8505 78.0052 85.0178 78.1233L84.7212 78.2181C84.7665 78.0953 84.8285 77.9793 84.9055 77.8734C84.9786 77.7697 85.0641 77.6754 85.1602 77.5925C85.3541 77.4267 85.5845 77.3089 85.8324 77.2486C86.0719 77.1912 86.3199 77.1784 86.564 77.2107L86.7383 77.2331C86.8063 77.2431 86.8731 77.2597 86.9379 77.2825C87.0583 77.3235 87.1737 77.378 87.2819 77.4449C87.6904 77.709 88.0172 78.0818 88.2254 78.5215C88.4296 78.9378 88.5783 79.3791 88.6677 79.8342L88.2423 79.8602C88.2791 79.5707 88.3663 79.2899 88.4998 79.0304C88.6329 78.763 88.8312 78.5335 89.0764 78.3629C89.3269 78.199 89.6184 78.1086 89.9178 78.1021C89.9893 78.0992 90.0609 78.1014 90.1322 78.1085L90.2386 78.1152C90.2803 78.117 90.3217 78.1238 90.3618 78.1353C90.5058 78.1781 90.6417 78.2444 90.764 78.3316C91.2031 78.6765 91.5277 79.1461 91.6952 79.6788C91.8722 80.1831 91.9869 80.7071 92.0368 81.2392C91.9197 80.7262 91.7518 80.2261 91.5357 79.7463C91.3388 79.2785 91.0147 78.8753 90.6001 78.5826C90.5021 78.5224 90.3958 78.4771 90.2846 78.4483C90.2608 78.4425 90.2362 78.4402 90.2118 78.4415L90.12 78.4407C89.8262 78.4259 89.5358 78.5089 89.2942 78.6767C89.1133 78.8272 88.9648 79.0129 88.8578 79.2224C88.7507 79.432 88.6873 79.6611 88.6715 79.8959L88.6713 79.8975C88.6658 79.9483 88.6425 79.9955 88.6054 80.0308C88.5684 80.066 88.5201 80.087 88.469 80.0899C88.418 80.0929 88.3676 80.0776 88.3268 80.0468C88.2859 80.0161 88.2573 79.9718 88.2461 79.922C88.1598 79.5074 88.0202 79.1056 87.8308 78.7268C87.6539 78.3627 87.3848 78.0512 87.0503 77.8232C86.9705 77.7725 86.8853 77.7309 86.7962 77.6993C86.7567 77.6844 86.7159 77.6736 86.6742 77.6669L86.5192 77.6453C86.3233 77.617 86.124 77.6234 85.9303 77.6643C85.7447 77.703 85.5709 77.7848 85.4228 77.9032C85.2781 78.0208 85.1632 78.171 85.0875 78.3414L85.0783 78.363C85.059 78.4085 85.0223 78.4445 84.9764 78.4629C84.9305 78.4814 84.8792 78.481 84.8336 78.4616C84.8183 78.455 84.8039 78.4464 84.7908 78.4362C84.6799 78.3608 84.5509 78.3167 84.4171 78.3082C84.2833 78.2998 84.1497 78.3274 84.0302 78.3882C83.7518 78.4865 83.5185 78.6825 83.3736 78.9397C83.2984 79.0602 83.262 79.2008 83.2691 79.3426C83.2762 79.4845 83.3266 79.6207 83.4134 79.7331C83.627 79.9631 83.9021 80.1271 84.2061 80.2054L84.2136 80.2076C84.2249 80.211 84.2345 80.2182 84.241 80.228C84.4268 80.5048 84.5739 80.8058 84.6781 81.1225ZM83.1569 80.9693C83.036 80.7204 82.8215 80.5295 82.5602 80.4384C82.3064 80.3658 82.035 80.3862 81.795 80.496C81.6794 80.5316 81.5756 80.5978 81.4945 80.6875C81.4134 80.7771 81.358 80.887 81.3341 81.0056C81.3231 81.2537 81.3907 81.4989 81.5272 81.7064C81.6646 81.9356 81.828 82.1482 82.0144 82.3397C82.0595 82.3895 82.1072 82.4348 82.1542 82.4811L82.307 82.6147C82.4161 82.709 82.5215 82.8051 82.626 82.9019C83.0442 83.2889 83.435 83.6953 83.8248 84.1077C83.8541 84.1386 83.8734 84.1776 83.8802 84.2196L83.8825 84.234C83.9081 84.3651 83.9509 84.4923 84.0097 84.6123C84.1332 84.8699 84.3087 85.0991 84.5252 85.2855C84.6352 85.385 84.745 85.4517 84.8921 85.5646C85.1616 85.776 85.3889 86.0362 85.5623 86.3316C85.7369 86.6218 85.8663 86.9369 85.9458 87.2662L85.9356 87.234C86.0384 87.5184 86.2313 87.7615 86.485 87.9263C86.756 88.0845 87.0636 88.1689 87.3773 88.1714C87.7064 88.1786 88.035 88.1446 88.3557 88.0701C88.6836 87.9987 89.0053 87.901 89.3176 87.7779C89.0243 87.9502 88.7144 88.0924 88.3925 88.2023C88.0657 88.317 87.7247 88.3867 87.3791 88.4096C87.0158 88.4358 86.6521 88.3634 86.3265 88.2001C86.1619 88.1087 86.0141 87.99 85.8892 87.8491C85.7686 87.707 85.668 87.5491 85.5903 87.3797L85.5862 87.3692L85.5799 87.3474C85.4966 87.065 85.3734 86.796 85.2141 86.5485C85.0565 86.3038 84.858 86.0879 84.6274 85.9103C84.5239 85.831 84.3632 85.7314 84.2375 85.6196C84.1052 85.5083 83.9848 85.3835 83.8783 85.2473C83.7698 85.1106 83.6773 84.9618 83.6027 84.8039C83.5238 84.6391 83.4692 84.4636 83.4408 84.2831L83.4984 84.4093C83.121 83.9987 82.7313 83.5939 82.3406 83.1986C82.2421 83.1006 82.1428 83.0036 82.0422 82.9104L81.8826 82.7604C81.831 82.7064 81.7787 82.6526 81.7312 82.5966C81.5362 82.3735 81.3686 82.1279 81.2321 81.8649C81.0729 81.589 81.0126 81.2669 81.0614 80.9521C81.0791 80.8693 81.1102 80.79 81.1537 80.7174C81.2003 80.6488 81.2531 80.5847 81.3115 80.5258L81.5073 80.391L81.7177 80.3046C82.0052 80.2029 82.3203 80.2119 82.6015 80.3301C82.7331 80.3927 82.8504 80.4818 82.9459 80.5918C83.0415 80.7018 83.1133 80.8303 83.1569 80.9693Z" fill="black"/>
<path d="M83.6616 84.2585C83.5928 84.009 83.5976 83.7449 83.6754 83.4981C83.7127 83.3692 83.7789 83.2505 83.869 83.1511C83.9132 83.1001 83.9676 83.0591 84.0288 83.0306C84.09 83.0022 84.1564 82.9869 84.2239 82.9859C84.1237 83.0487 84.0406 83.1352 83.9819 83.2378C83.9249 83.3371 83.8803 83.443 83.8492 83.5532C83.777 83.7762 83.733 84.0123 83.6616 84.2585ZM84.1943 80.2618C84.3493 80.2237 84.4759 80.1972 84.6102 80.1707C84.7507 80.1392 84.8938 80.1206 85.0378 80.1152C84.94 80.239 84.8002 80.3225 84.6449 80.3498C84.5679 80.3679 84.4879 80.3694 84.4102 80.3542C84.3325 80.339 84.2589 80.3075 84.1943 80.2618ZM85.0173 78.2794C85.0146 78.4752 85.0404 78.6704 85.0938 78.8588C85.1409 79.047 85.2413 79.2175 85.3828 79.3502C85.4576 79.4133 85.5445 79.4604 85.6382 79.4887C85.7319 79.517 85.8304 79.5259 85.9276 79.5148C86.0288 79.5066 86.1291 79.49 86.2275 79.4653L86.5175 79.3606L86.2364 79.4921C86.1377 79.5267 86.0363 79.553 85.9332 79.5709C85.8264 79.592 85.7164 79.5913 85.6099 79.5686C85.5034 79.546 85.4026 79.502 85.3136 79.4392C85.1392 79.3042 85.0073 79.1219 84.9339 78.9139C84.8557 78.7111 84.8078 78.4979 84.7919 78.2812C84.7905 78.2663 84.7921 78.2513 84.7966 78.237C84.8011 78.2228 84.8084 78.2095 84.818 78.1981C84.8277 78.1867 84.8395 78.1773 84.8528 78.1705C84.8661 78.1636 84.8807 78.1595 84.8956 78.1584C84.9105 78.1572 84.9255 78.159 84.9397 78.1637C84.9539 78.1684 84.967 78.1759 84.9783 78.1857C84.9896 78.1955 84.9989 78.2074 85.0055 78.2208C85.0122 78.2342 85.0161 78.2488 85.0171 78.2637C85.0173 78.2672 85.0174 78.2706 85.0174 78.274L85.0173 78.2794Z" fill="black"/>
<path d="M85.9258 79.5531C86.0822 79.7914 86.2205 80.0412 86.3393 80.3003C86.4722 80.5612 86.5631 80.8415 86.6087 81.1307C86.6216 81.1845 86.6472 81.2344 86.6835 81.2762C86.7198 81.3179 86.7657 81.3502 86.8172 81.3704C86.9351 81.4296 87.0616 81.4701 87.192 81.4904C87.3253 81.5148 87.4618 81.516 87.5955 81.4939C87.7334 81.4821 87.8615 81.4176 87.953 81.3138C87.9186 81.3792 87.8709 81.4367 87.813 81.4827C87.7551 81.5286 87.6883 81.562 87.6168 81.5807C87.4743 81.6229 87.3255 81.6396 87.1773 81.63C87.0258 81.6233 86.8771 81.5875 86.7391 81.5246C86.6587 81.493 86.5878 81.4414 86.5331 81.3745C86.4784 81.3077 86.4418 81.2279 86.4268 81.1428C86.3814 80.8728 86.3087 80.6081 86.2098 80.3529L85.9258 79.5531ZM88.6786 79.8419C88.7285 80.194 88.8403 80.5344 89.0088 80.8475C89.051 80.9223 89.099 80.9938 89.1522 81.0613C89.2199 81.1424 89.2799 81.2298 89.3312 81.3222C89.3829 81.4157 89.4243 81.5146 89.4546 81.617C89.4856 81.725 89.5001 81.8146 89.5216 81.9039C89.5324 81.9834 89.5542 82.0611 89.5863 82.1348C89.6304 82.2011 89.686 82.259 89.7504 82.3058C89.8141 82.3556 89.887 82.3923 89.9649 82.4138C90.0428 82.4352 90.1242 82.4409 90.2044 82.4307C90.3733 82.3956 90.5251 82.304 90.6349 82.1709C90.7584 82.034 90.8635 81.8815 90.9476 81.7174L90.9429 81.7319C90.9992 81.4665 91.0366 81.1975 91.055 80.9269C91.0795 80.6552 91.0614 80.3813 91.0013 80.1152C91.0811 80.3787 91.1193 80.6531 91.1145 80.9285C91.1158 81.2046 91.0975 81.4804 91.0598 81.7539C91.0592 81.7581 91.0581 81.7621 91.0563 81.7659L91.0551 81.7685C90.9778 81.9503 90.8771 82.1212 90.7554 82.2768C90.6302 82.4487 90.4501 82.5728 90.2449 82.6285C90.1368 82.6511 90.0254 82.652 89.917 82.6311C89.8086 82.6103 89.7055 82.5682 89.6135 82.5071C89.5188 82.4482 89.4356 82.3725 89.3681 82.2838C89.3311 82.2346 89.3042 82.1787 89.2888 82.1191L89.2466 81.9784C89.2085 81.8055 89.1422 81.6401 89.0504 81.4887C89.0037 81.4174 88.9502 81.3508 88.8908 81.2897C88.8198 81.2124 88.7549 81.1298 88.6967 81.0424C88.4757 80.6976 88.3188 80.3157 88.2337 79.915C88.2271 79.8861 88.2262 79.8562 88.2311 79.827C88.236 79.7977 88.2466 79.7698 88.2624 79.7446C88.2781 79.7195 88.2986 79.6977 88.3228 79.6805C88.3469 79.6633 88.3742 79.6511 88.4031 79.6444C88.432 79.6378 88.4619 79.6369 88.4912 79.6418C88.5204 79.6467 88.5484 79.6574 88.5735 79.6731C88.5986 79.6888 88.6204 79.7094 88.6376 79.7335C88.6548 79.7577 88.6671 79.785 88.6737 79.8139C88.6749 79.8192 88.676 79.8246 88.6768 79.83L88.6786 79.8419ZM88.2626 83.7924C88.2716 83.7924 88.2784 83.7946 88.2873 83.7946L88.3077 83.8081L88.2626 83.7924Z" fill="black"/>
<path d="M92.8369 83.488C88.9636 82.8995 85.3135 81.398 84.4072 81.008C84.2502 80.9392 84.0822 80.8987 83.9112 80.8885C83.086 80.8456 82.8019 81.1139 82.7253 81.3912C82.6909 81.5251 82.7006 81.6666 82.753 81.7945C82.8054 81.9225 82.8977 82.0301 83.0161 82.1014L87.045 84.6355L87.0472 84.6333C87.2502 84.3892 87.4853 84.1738 87.7461 83.993C87.6509 84.1932 87.5337 84.3823 87.3967 84.5566C87.7717 84.4536 88.1678 84.4552 88.542 84.5611C93.2066 85.003 94.379 84.029 94.379 84.029C93.8785 83.5624 92.8369 83.488 92.8369 83.488ZM89.4348 83.1024L90.3817 83.7923L88.2106 83.4676L86.2559 82.1578L89.4348 83.1024ZM90.6522 84.2725C89.8451 84.1981 89.0402 84.1057 88.2353 84.0155C88.2196 84.0127 88.2044 84.0073 88.1903 83.9997C87.4463 83.5511 86.7045 83.0979 85.9695 82.6335L84.8671 81.9324C84.5063 81.6911 84.1388 81.4589 83.7804 81.2109C84.1659 81.4138 84.5447 81.628 84.9257 81.8354L86.0597 82.4824C86.8082 82.9085 87.5477 83.3504 88.2872 83.7946C89.0808 83.8915 89.8789 83.9907 90.6725 84.1035C91.4729 84.2162 92.2755 84.3334 93.0736 84.4732C92.2643 84.4236 91.4571 84.3492 90.6523 84.2725H90.6522Z" fill="black"/>
<path d="M88.3096 83.8084L88.2637 83.7923C88.2728 83.7923 88.2797 83.7946 88.2889 83.7946L88.3096 83.8084Z" fill="white"/>
<path d="M60.8422 51.4666C60.8422 51.4666 60.2633 51.1192 59.723 51.7367C59.723 51.7367 58.7582 50.3658 54.6672 51.553C54.6672 51.553 55.2075 52.5858 55.5934 52.5858C55.9794 52.5858 54.8601 54.3611 53.8181 54.2839C53.8181 54.2839 52.0428 56.8698 53.3936 59.3784C54.7249 61.8509 55.6814 62.6363 57.0019 61.0325C57.0424 60.9828 57.0876 60.937 57.1369 60.8959C57.5167 60.5827 59.198 59.2805 59.7939 60.2515C59.9208 60.4672 59.9571 60.7244 59.8949 60.9668C59.6229 62.106 58.351 66.3017 54.6672 64.6272C54.6672 64.6272 50.3741 63.0173 51.3867 59.2034C51.495 58.8155 51.652 58.4429 51.854 58.0945C52.0488 57.7386 52.1688 57.3467 52.2068 56.9427C52.2447 56.5388 52.1998 56.1314 52.0747 55.7454C51.9195 55.1952 51.5694 54.7202 51.0897 54.4092C50.6247 54.1191 50.0117 53.9894 49.5473 54.8005C49.3551 55.138 49.2538 55.5195 49.2533 55.9078C49.2524 56.2633 49.3185 56.6992 49.6113 56.9084L49.2533 57.603C49.0585 57.2068 48.8095 56.8396 48.5133 56.5122C48.0174 56.0099 47.6989 55.3596 47.606 54.6599C47.4749 53.55 47.6327 51.8927 48.9552 49.9614C48.9552 49.9614 50.7306 46.4107 54.0497 46.4879C57.3688 46.5651 60.2247 47.4528 60.8422 51.4666Z" fill="black"/>
<path d="M55.2871 56.0978C55.8636 55.966 56.456 55.9172 57.0463 55.9529C57.3437 55.9677 57.6388 56.0125 57.9271 56.0865C58.2214 56.1496 58.4949 56.2863 58.722 56.4838C58.4598 56.362 58.1797 56.2831 57.8925 56.2502C57.6088 56.2094 57.3225 56.1797 57.0337 56.1668C56.4566 56.131 55.8765 56.1283 55.2871 56.0978ZM60.8447 56.0427C60.6336 56.1069 60.4382 56.2146 60.2712 56.3587C60.192 56.4241 60.1275 56.5054 60.0819 56.5973C60.0362 56.6892 60.0105 56.7898 60.0063 56.8923C60.0219 57.1027 60.077 57.3083 60.1689 57.4982L60.4213 58.1187C60.6096 58.5385 60.719 58.9894 60.744 59.4488C60.7437 59.5698 60.7214 59.6898 60.6785 59.8029C60.6323 59.9175 60.5568 60.0178 60.4595 60.0939C60.2619 60.2183 60.0287 60.2738 59.7963 60.2515C60.0142 60.2329 60.2216 60.15 60.3922 60.0131C60.4623 59.9385 60.5151 59.8494 60.5469 59.7521C60.5788 59.6548 60.589 59.5517 60.5767 59.4501C60.5601 59.2352 60.5165 59.0233 60.4469 58.8193C60.382 58.6103 60.3045 58.4033 60.2219 58.197C60.1425 57.9892 60.0568 57.7826 59.9795 57.5698C59.9426 57.4623 59.9051 57.3552 59.8761 57.242C59.84 57.1248 59.8278 57.0017 59.8402 56.8798C59.8531 56.7585 59.8926 56.6416 59.9559 56.5374C60.0191 56.4332 60.1047 56.3442 60.2063 56.2768C60.3974 56.1491 60.6163 56.0688 60.8447 56.0427Z" fill="black"/>
<path d="M60.8449 51.4665C60.9172 51.8991 60.971 52.3341 61.0062 52.7713C61.0464 53.2079 61.0713 53.6457 61.0807 54.0849C61.0876 54.5239 61.081 54.9638 61.0467 55.4041C61.0266 55.8528 60.9264 56.2943 60.7508 56.7078C60.7482 56.7129 60.7449 56.7176 60.7411 56.7219C60.6056 56.8677 60.4785 57.021 60.3603 57.1812C60.3016 57.2614 60.2493 57.3461 60.2041 57.4346C60.1538 57.5207 60.1337 57.6212 60.1469 57.7201C60.116 57.6206 60.1216 57.5134 60.1627 57.4176C60.1982 57.3211 60.2414 57.2275 60.2918 57.1379C60.3926 56.9591 60.5091 56.7897 60.64 56.6317L60.6303 56.6457C60.7051 56.4483 60.7549 56.2422 60.7786 56.0324C60.8121 55.8208 60.8256 55.6046 60.8415 55.3893C60.867 54.9569 60.8715 54.522 60.874 54.0868C60.8739 53.2157 60.8548 52.3431 60.8449 51.4665ZM58.5293 59.031C58.4886 59.1148 58.4557 59.2021 58.431 59.292C58.4058 59.3749 58.4003 59.4626 58.4149 59.5481C58.4269 59.6328 58.4639 59.7119 58.5212 59.7755C58.5818 59.8456 58.6491 59.9096 58.7223 59.9666C58.6755 59.9527 58.6296 59.9362 58.5846 59.9172C58.5409 59.8932 58.4997 59.8648 58.4617 59.8325C58.3821 59.7636 58.3283 59.6695 58.3093 59.5659C58.2958 59.4633 58.3111 59.3589 58.3536 59.2645C58.3933 59.1741 58.4534 59.0942 58.5293 59.031ZM49.614 56.9083C49.7476 57.076 49.8542 57.2635 49.9299 57.464C49.9705 57.5664 49.9998 57.6729 50.0174 57.7816C50.0269 57.8386 50.0307 57.8964 50.0287 57.9541L50.0276 57.9985L50.0302 58.0226C50.0292 58.0383 50.0327 58.054 50.0401 58.0678C50.0732 58.1384 50.1317 58.1939 50.2039 58.2234C50.2896 58.2672 50.3799 58.3014 50.4731 58.3254C50.6714 58.3788 50.8753 58.4084 51.0806 58.4135C50.8778 58.493 50.6581 58.5192 50.4423 58.4899C50.3297 58.4784 50.2195 58.4501 50.1152 58.406C50.0539 58.3822 49.9979 58.3465 49.9504 58.301C49.9029 58.2554 49.8649 58.201 49.8386 58.1407C49.8248 58.1067 49.818 58.0703 49.8187 58.0336L49.8179 57.9795L49.8196 57.9457C49.822 57.899 49.8209 57.8522 49.8165 57.8056C49.8079 57.7067 49.7925 57.6086 49.7702 57.5119C49.7265 57.3136 49.6689 57.1142 49.614 56.9083ZM49.2559 57.603C49.1698 57.9152 49.0484 58.2165 48.894 58.5012C48.7428 58.79 48.5604 59.0613 48.3499 59.3103C48.1394 59.5639 47.8896 59.7823 47.6101 59.9571C47.3299 60.1308 47.0092 60.2284 46.6797 60.2401C46.9812 60.1495 47.2646 60.0067 47.5168 59.8182C47.7636 59.6284 47.9883 59.4114 48.1867 59.1714C48.3905 58.9317 48.5789 58.6793 48.7508 58.4158C48.9238 58.1511 49.0956 57.8826 49.2559 57.603ZM52.084 66.634C52.3279 66.5271 52.5585 66.3921 52.7712 66.2319C52.9822 66.0743 53.1824 65.9027 53.3704 65.7183C53.5642 65.5393 53.738 65.3392 53.9185 65.1433L54.1813 64.8399C54.2669 64.7363 54.3522 64.632 54.4464 64.5321C54.3926 64.6572 54.3301 64.7782 54.2678 64.8999C54.1973 65.016 54.1279 65.134 54.0503 65.2464C53.8938 65.4718 53.7158 65.6815 53.519 65.8727C53.3212 66.0654 53.1004 66.233 52.8617 66.3719C52.625 66.5156 52.3594 66.6051 52.084 66.634Z" fill="black"/>
<path d="M48.2226 59.2407C48.0305 58.9561 47.793 58.705 47.5194 58.4975C47.4625 58.4472 47.3935 58.4125 47.3192 58.3967C47.2449 58.381 47.1677 58.3847 47.0953 58.4075C46.9672 58.4945 46.8754 58.6252 46.8369 58.7751C46.7841 58.9349 46.7461 59.0992 46.7234 59.266C46.7119 59.3489 46.7017 59.4352 46.6942 59.515C46.6947 59.591 46.7013 59.6802 46.7089 59.7632C46.7422 60.1035 46.8052 60.4403 46.8975 60.7696C47.0674 61.4396 47.3312 62.0822 47.6813 62.6782C48.0359 63.274 48.4602 63.8255 48.9451 64.321C49.1883 64.567 49.441 64.8038 49.6974 65.0345C49.9638 65.2543 50.2183 65.4903 50.4956 65.6921C50.6294 65.8002 50.7769 65.8878 50.9166 65.9867C51.0644 66.0717 51.2064 66.1683 51.3604 66.2405C51.6581 66.4022 51.9747 66.5263 52.303 66.6099C52.9586 66.7838 53.6552 66.7107 54.2604 66.4044C54.8686 66.0798 55.3795 65.5992 55.7406 65.0119C55.7419 65.0094 55.7441 65.0074 55.7469 65.0066C55.7496 65.0057 55.7525 65.006 55.755 65.0073C55.7574 65.0087 55.7592 65.011 55.76 65.0136C55.7608 65.0162 55.7607 65.0191 55.7597 65.0216C55.4456 65.6593 54.952 66.1913 54.3396 66.5522C54.0259 66.7301 53.6809 66.8458 53.3234 66.893C52.9647 66.9353 52.6014 66.9122 52.251 66.8248C51.9031 66.7421 51.5683 66.612 51.2559 66.438C51.0964 66.3588 50.9516 66.2562 50.8003 66.1646C50.6583 66.0599 50.508 65.9658 50.3733 65.8524C50.0909 65.6403 49.8436 65.3925 49.5822 65.1597C49.449 65.0463 49.336 64.9109 49.2136 64.7862C49.0957 64.6569 48.9681 64.5371 48.8586 64.4004C48.4017 63.8723 47.9867 63.3092 47.6176 62.7163C47.2417 62.1236 46.9423 61.4857 46.7265 60.8178C46.6212 60.4799 46.5524 60.1316 46.5214 59.779C46.5155 59.6887 46.5102 59.6044 46.5121 59.5065C46.5224 59.4136 46.5349 59.3272 46.5492 59.2384C46.5776 59.0611 46.6223 58.8868 46.6827 58.7177C46.7099 58.6244 46.7554 58.5375 46.8166 58.4619C46.8777 58.3864 46.9533 58.3238 47.0389 58.2778C47.1351 58.24 47.2417 58.2378 47.3394 58.2716C47.4282 58.3021 47.5112 58.3475 47.5846 58.4059C47.8543 58.6357 48.0772 58.9154 48.2409 59.2296C48.2416 59.2308 48.2421 59.2322 48.2423 59.2336C48.2424 59.235 48.2423 59.2364 48.242 59.2377C48.2416 59.2391 48.2409 59.2403 48.2401 59.2415C48.2392 59.2426 48.2382 59.2435 48.2369 59.2442C48.2345 59.2454 48.2317 59.2457 48.2291 59.2451C48.2265 59.2445 48.2242 59.2429 48.2226 59.2407Z" fill="black"/>
<path d="M48.8729 58.3319C48.5284 58.1197 48.144 57.9803 47.7435 57.9222C47.349 57.8502 46.9417 57.9231 46.5967 58.1277C46.434 58.2407 46.2972 58.387 46.1954 58.5569L45.8453 59.0598C45.6135 59.4017 45.354 59.7238 45.0694 60.023C45.0628 60.0295 45.0548 60.0346 45.0461 60.0379C45.0374 60.0412 45.0281 60.0427 45.0187 60.0422L45.0135 60.0418C43.5713 59.9564 42.124 59.9222 40.6806 59.9319C39.9587 59.9379 39.2376 59.9668 38.5207 60.0232C37.8092 60.0625 37.1048 60.1848 36.4218 60.3875L36.4097 60.3908L36.3932 60.3943C36.0151 60.4911 35.655 60.6478 35.3265 60.8586C35.1557 60.9621 34.9913 61.0759 34.8342 61.1993L34.5963 61.3824C34.5195 61.4468 34.4471 61.5169 34.3723 61.5838C33.7764 62.1284 33.2469 62.7416 32.795 63.4105C31.8879 64.7597 31.1465 66.2131 30.5868 67.7394C30.4484 68.1224 30.2969 68.5005 30.1693 68.8873L29.804 70.0541C29.6803 70.4383 29.5698 70.8455 29.4258 71.2346C29.2858 71.6275 29.122 72.0074 28.9651 72.3847L28.4823 73.5182L28.2309 74.083C28.1452 74.2784 28.0497 74.4693 27.9447 74.655C27.9234 74.6897 27.8992 74.7225 27.8724 74.7531C27.8877 74.7537 27.889 74.7186 27.8899 74.7326C27.8874 74.7547 27.8883 74.777 27.8926 74.7987C27.9087 74.8785 27.9362 74.9555 27.9743 75.0274C28.0586 75.1883 28.171 75.3328 28.3064 75.4539C28.5828 75.7023 28.9286 75.8603 29.2973 75.9068L29.1523 76.2586C28.9249 76.081 28.7097 75.8883 28.508 75.6819C28.3975 75.5706 28.3012 75.4462 28.2212 75.3113C28.197 75.2674 28.1779 75.221 28.1641 75.1729C28.1568 75.1412 28.1519 75.1089 28.1494 75.0765C28.1494 75.034 28.1566 74.9918 28.1708 74.9517C28.1869 74.9086 28.2129 74.8699 28.2467 74.8386C28.2623 74.824 28.2788 74.8103 28.296 74.7976C28.311 74.789 28.3255 74.7821 28.3407 74.7749C28.3914 74.7516 28.4456 74.7365 28.5011 74.7302C28.6597 74.7189 28.8191 74.7302 28.9746 74.7637C29.1198 74.7901 29.2589 74.8253 29.3974 74.8617L29.8103 74.9929L30.2097 75.1531C31.2529 75.6238 32.1782 76.2487 33.1413 76.7986C34.0982 77.3574 35.0879 77.8581 36.1049 78.298C37.1253 78.7326 38.1683 79.1123 39.2292 79.4354L39.2305 79.4358C39.2596 79.4448 39.2847 79.4635 39.3018 79.4887C39.3188 79.514 39.3267 79.5442 39.3242 79.5746C39.2323 80.6113 39.1951 81.652 39.2127 82.6926C39.2199 83.2101 39.2641 83.7263 39.345 84.2375C39.3835 84.4869 39.4551 84.73 39.5581 84.9604C39.606 85.0641 39.6777 85.1551 39.7673 85.226C39.7903 85.2359 39.8126 85.2467 39.8348 85.2584C39.8582 85.2657 39.8832 85.2653 39.9072 85.2708C39.9611 85.2772 40.0347 85.2734 40.0975 85.2751L46.3695 85.2922C48.4602 85.3025 50.5507 85.2911 52.6413 85.2887L58.9132 85.2675L58.8409 85.2994C59.268 84.8497 59.7354 84.44 60.2373 84.0756C60.7381 83.7058 61.2821 83.3985 61.8572 83.1603C62.4385 82.9157 63.063 82.7904 63.6937 82.7916C64.0137 82.7974 64.3317 82.8435 64.6402 82.929L65.5091 83.2201C65.7995 83.3144 66.0907 83.4062 66.3824 83.4913C66.6631 83.5858 66.9534 83.6485 67.2481 83.6782C67.5752 83.7151 67.8916 83.8177 68.1781 83.98C68.3288 84.0605 68.4649 84.1656 68.5809 84.2911C68.6457 84.3605 68.696 84.4422 68.7286 84.5314C68.7612 84.6207 68.7755 84.7155 68.7706 84.8104C68.7788 84.972 68.7733 85.134 68.7542 85.2948C68.7342 85.4814 68.6554 85.6568 68.5291 85.7957C68.393 85.9299 68.2139 86.0116 68.0233 86.0265C67.8557 86.0444 67.6864 86.0391 67.5202 86.0107C67.3618 85.9858 67.2052 85.9501 67.0516 85.9039L66.6131 85.7713C66.473 85.7312 66.3304 85.7001 66.1862 85.6781C66.0669 85.6536 65.9436 85.6548 65.8248 85.6817L65.8681 85.3832C66.4483 85.7895 67.1296 86.0273 67.8366 86.0701C68.1939 86.0891 68.5522 86.0685 68.905 86.0088C69.2694 85.959 69.6308 85.8979 69.998 85.8367C70.1828 85.8075 70.3665 85.7752 70.5697 85.7622C70.6811 85.753 70.7932 85.7596 70.9027 85.7818C71.035 85.8101 71.1544 85.8805 71.2432 85.9826C71.3196 86.0734 71.3781 86.1778 71.4158 86.2904C71.5234 86.5926 71.5394 86.9198 71.4619 87.231C71.4073 87.4377 71.3101 87.6306 71.1766 87.7975C71.043 87.9644 70.8761 88.1015 70.6865 88.2001C70.331 88.3826 69.9442 88.496 69.5465 88.5345L69.7201 88.4038C69.6272 88.6157 69.512 88.817 69.3764 89.0045C69.2416 89.1937 69.0847 89.3661 68.9091 89.5182C68.7244 89.6728 68.5144 89.7942 68.2883 89.8772C68.0556 89.9556 67.8097 89.9868 67.5648 89.969L67.7502 89.8928C67.3735 90.3318 67.0039 90.7626 66.5796 91.1777C66.5254 91.2292 66.4681 91.2812 66.4044 91.3327C66.3388 91.3826 66.2701 91.4283 66.1987 91.4695C66.0648 91.545 65.9256 91.6108 65.7823 91.6664C65.5027 91.7751 65.2138 91.8578 64.9192 91.9137C64.3357 92.0225 63.74 92.05 63.1489 91.9952C63.0016 91.9849 62.856 91.961 62.7095 91.9444L62.2753 91.8683L61.8683 91.8018L61.4541 91.7586C60.3265 91.7006 59.196 91.7371 58.0745 91.8677C56.9452 91.9822 55.8191 92.1526 54.6985 92.351C54.1426 92.4498 53.5919 92.5805 53.031 92.7041C52.4724 92.8281 51.9119 92.9489 51.35 93.0624C50.2255 93.2871 49.0961 93.4916 47.9601 93.6543C45.6884 93.9915 43.3963 94.1728 41.0999 94.1968C40.8129 94.198 40.526 94.2086 40.239 94.2019L39.3781 94.1826C38.8039 94.1785 38.231 94.1376 37.658 94.1036C37.0842 94.0792 36.5136 94.0128 35.9422 93.957C35.6553 93.9253 35.3743 93.9078 35.0816 93.8623C34.7918 93.8175 34.505 93.7556 34.2225 93.6769C33.0815 93.3692 32.0465 92.7549 31.2297 91.9009C30.4119 91.0421 29.8947 89.9411 29.7558 88.7633C29.5045 86.4806 29.4035 84.1946 29.3463 81.9076C29.2963 79.6206 29.2901 77.3339 29.3275 75.0474C29.3275 75.0414 29.33 75.0357 29.3343 75.0315C29.3385 75.0273 29.3443 75.025 29.3503 75.025C29.3562 75.0251 29.3619 75.0275 29.3661 75.0318C29.3703 75.0361 29.3726 75.0418 29.3726 75.0478C29.3822 77.3333 29.4348 79.6179 29.5305 81.9015C29.6316 84.1826 29.7564 86.4678 30.0399 88.7265C30.1855 89.8368 30.688 90.8699 31.4717 91.6699C32.2526 92.4703 33.2371 93.0425 34.3192 93.3247C34.5881 93.397 34.8609 93.4535 35.1364 93.4937C35.4091 93.534 35.6993 93.5505 35.9806 93.579C36.5473 93.6293 37.113 93.6904 37.682 93.7096C38.2502 93.7384 38.818 93.7741 39.3873 93.7732L40.2406 93.7851C40.525 93.7893 40.8095 93.7762 41.0939 93.7727L41.9471 93.7553L42.7995 93.7112C43.3681 93.6887 43.935 93.6389 44.5023 93.5932C45.0702 93.5563 45.6348 93.4807 46.2011 93.4256C46.7658 93.3553 47.3308 93.2856 47.8937 93.2013C49.0204 93.0378 50.1409 92.8328 51.2575 92.6076C51.8156 92.4938 52.3723 92.3728 52.9293 92.2479C53.4843 92.1246 54.046 91.9902 54.6154 91.888C55.7452 91.6857 56.8807 91.5117 58.0257 91.3934C59.1758 91.2571 60.3357 91.223 61.4918 91.2916L61.9299 91.3393L62.3686 91.4134L62.7783 91.4871C62.9156 91.5031 63.0523 91.5265 63.19 91.5367C63.7386 91.5904 64.2918 91.5678 64.8342 91.4696C65.1015 91.4203 65.3638 91.3467 65.6178 91.2497C65.7412 91.2027 65.8611 91.1469 65.9766 91.0828C66.0291 91.0527 66.0798 91.0197 66.1284 90.9837C66.176 90.9456 66.2249 90.9019 66.2745 90.8552C66.6697 90.4729 67.0487 90.0378 67.4178 89.6112C67.4393 89.5863 67.4661 89.5664 67.4963 89.5532C67.5265 89.5399 67.5593 89.5336 67.5922 89.5346L67.6032 89.535C67.7869 89.5485 67.9715 89.5259 68.1465 89.4686C68.3235 89.4037 68.4881 89.3091 68.6333 89.1889C68.7823 89.0605 68.9156 88.9149 69.0305 88.7552C69.1469 88.5956 69.2466 88.4244 69.328 88.2443L69.3285 88.2431C69.3437 88.2084 69.3677 88.1782 69.398 88.1555C69.4283 88.1328 69.464 88.1184 69.5016 88.1135C69.8429 88.0825 70.1753 87.9882 70.4821 87.8355C70.6231 87.7654 70.7478 87.6662 70.8477 87.5444C70.9477 87.4226 71.0207 87.2811 71.062 87.129C71.1026 86.9756 71.1112 86.8155 71.0871 86.6586C71.072 86.5135 71.0212 86.3745 70.9392 86.2538C70.907 86.2133 70.861 86.1861 70.8101 86.1771C70.7378 86.1632 70.6639 86.1592 70.5905 86.1651C70.4237 86.1737 70.2413 86.2024 70.0602 86.2295C69.6961 86.2862 69.3262 86.3448 68.956 86.3915C68.577 86.4508 68.1926 86.4682 67.8098 86.4436C67.029 86.3891 66.2793 86.116 65.6463 85.6558L65.643 85.6533C65.6181 85.6349 65.5988 85.6101 65.587 85.5815C65.5753 85.5529 65.5717 85.5216 65.5765 85.4911C65.5813 85.4606 65.5944 85.432 65.6144 85.4084C65.6343 85.3848 65.6604 85.3671 65.6897 85.3573C65.8675 85.3042 66.0558 85.2966 66.2373 85.3353C66.3959 85.361 66.5526 85.3969 66.7065 85.4426L67.1462 85.5804C67.2854 85.624 67.4274 85.6581 67.5713 85.6824C67.8486 85.7297 68.1504 85.7245 68.2987 85.5699C68.4551 85.4174 68.4647 85.1158 68.4576 84.8146C68.4589 84.7803 68.4575 84.7459 68.4534 84.7118C68.4531 84.6869 68.4476 84.6623 68.4373 84.6397C68.4173 84.5855 68.3869 84.5357 68.3479 84.4931C68.2558 84.3931 68.1479 84.3089 68.0284 84.2441C67.7814 84.1013 67.5088 84.0086 67.226 83.9714C66.911 83.9372 66.6009 83.8677 66.3016 83.764C66.0062 83.6745 65.714 83.579 65.4228 83.4811L64.5522 83.1793C64.2705 83.1001 63.9801 83.0557 63.6875 83.0473C63.0903 83.0407 62.4977 83.1536 61.9447 83.3794C60.8276 83.8522 59.8202 84.5506 58.9854 85.4307L58.9823 85.4339C58.9733 85.443 58.9625 85.4503 58.9506 85.4553C58.9387 85.4603 58.9259 85.4628 58.913 85.4628L52.6418 85.4416C50.5513 85.4391 48.4608 85.4278 46.3705 85.4381L40.0993 85.4552C40.0316 85.4541 39.974 85.4592 39.8981 85.4532C39.8576 85.4497 39.8174 85.4431 39.7779 85.4335L39.668 85.3825C39.5485 85.2954 39.4523 85.1801 39.388 85.0469C39.2732 84.8015 39.1921 84.5416 39.1468 84.2744C39.0568 83.7539 39.0043 83.2277 38.9896 82.6997C38.9573 81.6499 38.9804 80.5991 39.0588 79.5517L39.1538 79.6908C38.078 79.3792 37.0198 79.0099 35.9836 78.5845C34.9488 78.1531 33.9408 77.6599 32.9651 77.1074C31.9852 76.569 31.0524 75.9435 30.0585 75.5021L29.6817 75.3527L29.2976 75.2323C29.1666 75.1985 29.0352 75.1659 28.9061 75.1432C28.7889 75.118 28.6688 75.1084 28.549 75.1146C28.533 75.1187 28.5051 75.1221 28.5089 75.1243L28.5063 75.1236C28.5103 75.1226 28.5139 75.1204 28.5166 75.1173C28.5185 75.1112 28.5317 75.1022 28.534 75.0888C28.5408 75.0354 28.5337 75.0855 28.5635 75.1263C28.6279 75.23 28.7042 75.3258 28.7907 75.4119C28.9796 75.6031 29.1809 75.7817 29.3933 75.9464L29.3952 75.9478C29.4291 75.9745 29.4533 76.0115 29.4641 76.0532C29.4749 76.095 29.4718 76.1391 29.4551 76.1789C29.4384 76.2187 29.4092 76.2519 29.3719 76.2734C29.3345 76.295 29.2911 76.3037 29.2484 76.2982C28.7979 76.2431 28.3752 76.0514 28.0369 75.749C27.8657 75.5964 27.7234 75.4144 27.6167 75.2115C27.5585 75.1022 27.5172 74.9848 27.4943 74.8632C27.4793 74.7842 27.4814 74.7029 27.5004 74.6248C27.516 74.5667 27.545 74.5131 27.5852 74.4683C27.5896 74.4557 27.5866 74.4671 27.6012 74.4409C27.6897 74.2881 27.7794 74.0945 27.8641 73.9139L28.1155 73.3571L28.6019 72.2315C28.7616 71.853 28.9242 71.4809 29.0612 71.1023C29.2037 70.7231 29.3097 70.3391 29.4389 69.9439L29.8142 68.7667C29.9454 68.3763 30.1008 67.9937 30.2429 67.6069C30.821 66.0563 31.5838 64.5811 32.5148 63.213C32.752 62.8721 33.0064 62.5434 33.277 62.2283C33.5526 61.9155 33.8477 61.6203 34.1604 61.3445C34.2391 61.2758 34.3152 61.2043 34.3962 61.1382L34.6476 60.9496C34.8145 60.8221 34.9889 60.7047 35.1699 60.5982C35.5348 60.3699 35.9354 60.2044 36.3551 60.1087L36.3266 60.1155C37.035 59.9132 37.7646 59.7951 38.5006 59.7637C39.2273 59.7159 39.9539 59.6962 40.6796 59.6994C42.1313 59.7025 43.5792 59.776 45.0249 59.8914L44.9692 59.9101C45.2521 59.6236 45.5115 59.3147 45.7447 58.9865L46.1041 58.4934C46.2172 58.3151 46.3666 58.1627 46.5425 58.046C46.7204 57.9313 46.9229 57.8604 47.1335 57.8392C47.3399 57.8147 47.5486 57.8188 47.7538 57.8514C48.1616 57.9193 48.5511 58.0701 48.8982 58.2946C48.9032 58.2978 48.9068 58.3028 48.9081 58.3086C48.9094 58.3144 48.9084 58.3204 48.9052 58.3255C48.9021 58.3305 48.8971 58.3341 48.8913 58.3355C48.8855 58.3368 48.8795 58.3359 48.8744 58.3328L48.8729 58.3319Z" fill="black"/>
<path d="M38.2852 62.1572C38.5662 62.2369 38.8213 62.3894 39.0246 62.5992C39.234 62.8057 39.4016 63.0509 39.5179 63.321C39.6345 63.5897 39.7001 63.8777 39.7113 64.1703C39.7168 64.3144 39.7095 64.4586 39.6892 64.6013C39.6647 64.7429 39.6272 64.882 39.5774 65.0168C39.5273 64.8773 39.5048 64.7427 39.468 64.6112C39.4286 64.4804 39.4049 64.3503 39.3611 64.2259C39.2912 63.9789 39.2054 63.7366 39.1044 63.5005C39.0031 63.2658 38.8846 63.0389 38.75 62.8216C38.609 62.5907 38.4537 62.3688 38.2852 62.1572ZM39.2686 67.5604C39.3555 68.5612 39.3978 69.5617 39.4246 70.5622C39.4541 71.5626 39.4573 72.5629 39.4553 73.5632C39.445 74.5634 39.4289 75.5635 39.3866 76.5636C39.3472 77.5636 39.2917 78.5635 39.1914 79.5631C39.104 78.5623 39.0614 77.5617 39.0348 76.5613C39.0054 75.5608 39.0022 74.5605 39.0047 73.5603C39.0156 72.56 39.0316 71.5599 39.074 70.5599C39.1136 69.5599 39.1689 68.56 39.2686 67.5604ZM59.9087 60.9486C60.7343 61.4652 61.5449 62.0033 62.3403 62.5629C62.7384 62.8423 63.1333 63.1267 63.5248 63.4162L64.1076 63.8613C64.2098 63.9379 64.3061 64.0222 64.3955 64.1134L64.534 64.258L64.6506 64.4058C64.9527 64.7952 65.2282 65.2046 65.4753 65.6311C65.7244 66.0513 65.9667 66.4742 66.2024 66.9C66.6682 67.7553 67.1479 68.601 67.6415 69.4372C67.8883 69.8557 68.1399 70.2714 68.3962 70.6843L68.7797 71.3034C68.8933 71.5058 69.0283 71.6954 69.1824 71.869C69.3458 72.0292 69.5403 72.188 69.7095 72.3874C69.91 72.5963 70.0307 72.8689 70.0506 73.1576C70.0354 73.4537 69.9064 73.7325 69.6905 73.9358C69.5983 74.029 69.5013 74.1174 69.4 74.2006C69.3092 74.2737 69.221 74.3505 69.1348 74.4297C68.9612 74.5891 68.8016 74.7565 68.6393 74.9366C68.474 75.1192 68.3029 75.2964 68.1292 75.4715C67.7786 75.8216 67.4064 76.1493 67.0147 76.4526C66.6153 76.7618 66.1806 77.0224 65.7196 77.2289C65.4778 77.3312 65.2237 77.4015 64.9638 77.438C64.6908 77.4785 64.4121 77.4543 64.1502 77.3673C64.1084 77.3547 64.0728 77.3271 64.0503 77.2897L64.0488 77.2873C63.8796 77.007 63.6943 76.7274 63.5069 76.4538C63.3197 76.179 63.1236 75.9107 62.9187 75.6491C62.7129 75.3894 62.493 75.1413 62.26 74.9058C62.0357 74.6636 61.7609 74.4736 61.4551 74.3491L61.4535 74.3485C61.4481 74.3466 61.4437 74.3428 61.441 74.3377C61.4384 74.3327 61.4378 74.3268 61.4393 74.3213C61.4408 74.3159 61.4443 74.3111 61.4491 74.3082C61.454 74.3052 61.4598 74.3041 61.4654 74.3052C61.7995 74.3914 62.1084 74.5556 62.3668 74.7843C62.6319 74.9986 62.8802 75.2328 63.1097 75.4848C63.571 75.9843 63.9948 76.5171 64.3777 77.0789L64.2765 76.999C64.7058 77.0866 65.1522 77.0216 65.5388 76.8154C65.9609 76.6142 66.3576 76.3637 66.7207 76.0691C67.097 75.777 67.4567 75.4643 67.7983 75.1324C67.9711 74.9672 68.1421 74.7994 68.3075 74.6262C68.4751 74.4499 68.6558 74.2699 68.8448 74.1058C68.9397 74.0232 69.0369 73.943 69.1374 73.8664C69.2284 73.7904 69.3148 73.7255 69.3911 73.6481C69.5387 73.5209 69.6351 73.3444 69.6624 73.1514C69.6507 72.9512 69.5709 72.761 69.4362 72.6124C69.2981 72.4347 69.1237 72.2738 68.9544 72.0805C68.9097 72.0299 68.868 71.977 68.8293 71.9218L68.7315 71.7564L68.5557 71.4337L68.2119 70.79C67.9851 70.3599 67.7534 69.9329 67.5169 69.5089C67.0426 68.6615 66.5425 67.8283 66.0009 67.0223C65.4639 66.2175 64.9192 65.4027 64.3375 64.6591L64.2275 64.5217L64.1128 64.4044C64.0342 64.3203 63.9489 64.2427 63.8578 64.1722L63.291 63.7219L62.1466 62.8234C61.3819 62.225 60.6271 61.6122 59.8822 60.9851C59.8778 60.9814 59.8749 60.9762 59.8742 60.9705C59.8735 60.9648 59.875 60.9591 59.8784 60.9545C59.8817 60.9498 59.8867 60.9467 59.8924 60.9456C59.898 60.9445 59.9038 60.9456 59.9087 60.9486L59.9087 60.9486Z" fill="black"/>
<path d="M62.9263 68.2293C62.5316 69.7125 62.1589 71.1993 61.8476 72.6919C61.6875 73.4318 61.5757 74.1813 61.5129 74.9357C61.4916 75.2985 61.4894 75.699 61.4575 76.0871C61.4265 76.483 61.3603 76.8753 61.2596 77.2594C61.0227 78.0186 60.643 78.7257 60.1411 79.3426C59.9091 79.652 59.6633 79.9511 59.4332 80.2516C59.3226 80.4008 59.2103 80.5489 59.1109 80.7086C59.0043 80.8627 58.9079 81.0247 58.812 81.1872C58.4345 81.8471 58.0969 82.529 57.8011 83.2294C57.4891 83.927 57.22 84.6438 56.957 85.3651C57.2919 83.8574 57.8116 82.3967 58.5044 81.0164C58.6833 80.6674 58.8882 80.3324 59.1174 80.0142C59.3447 79.6999 59.5776 79.4 59.7971 79.0897C60.2588 78.5093 60.6076 77.8474 60.8255 77.1385C60.9222 76.7816 60.987 76.4168 61.0191 76.0484C61.055 75.6726 61.0538 75.3058 61.0883 74.904C61.1689 74.1314 61.3084 73.3661 61.5057 72.6149C61.8842 71.1239 62.3587 69.659 62.9263 68.2293ZM69.5233 73.8126C70.0194 74.1979 70.4895 74.6083 70.9669 74.9906C71.0876 75.0835 71.2079 75.1751 71.3259 75.2554L71.5225 75.3724C71.5947 75.4182 71.6636 75.4662 71.7291 75.5165C71.9823 75.7205 72.2152 75.9484 72.4246 76.197C72.8405 76.6894 73.1676 77.2504 73.3912 77.8549C73.6253 78.4537 73.6914 79.1049 73.5825 79.7385C73.5167 79.13 73.3428 78.538 73.0691 77.9905C72.8025 77.4507 72.4704 76.9458 72.0804 76.4872C71.8925 76.2569 71.6846 76.0438 71.459 75.8504C71.4045 75.8019 71.3482 75.7573 71.2918 75.7159L71.0963 75.5803C70.9679 75.4807 70.8461 75.3728 70.7318 75.2572C70.2853 74.814 69.8807 74.3304 69.5233 73.8126ZM64.5457 77.2503C64.9891 77.845 65.292 78.5324 65.4319 79.2609C65.4476 79.3537 65.4609 79.4475 65.4734 79.5415C65.4821 79.6325 65.4831 79.7402 65.4946 79.8183C65.512 79.9777 65.55 80.1341 65.6076 80.2838C65.7333 80.6034 65.8945 80.9078 66.0881 81.1915C66.2798 81.4852 66.4907 81.7659 66.7195 82.0318C66.83 82.1688 66.9522 82.296 67.0695 82.4277C67.1969 82.5488 67.313 82.6836 67.4443 82.8012C67.9444 83.309 68.5434 83.7088 69.2042 83.9757C68.8362 83.9383 68.4781 83.8339 68.1475 83.6678C67.8173 83.4995 67.5047 83.2985 67.2146 83.0677C66.6306 82.6074 66.1231 82.0574 65.711 81.4383C65.5018 81.1214 65.3318 80.7802 65.205 80.4223C65.1438 80.2305 65.1087 80.0314 65.1007 79.8303C65.0948 79.7287 65.0974 79.6553 65.0974 79.566L65.0845 79.3077C65.0037 78.5997 64.8222 77.907 64.5457 77.2503ZM69.5233 83.0366C69.5684 82.7461 69.6691 82.467 69.8199 82.2147C69.9679 81.9597 70.1476 81.7244 70.3548 81.5145C70.5644 81.3085 70.7969 81.1271 71.0479 80.9741C71.1726 80.8981 71.3014 80.8292 71.4337 80.7676C71.5688 80.712 71.7039 80.6581 71.8415 80.613C71.6023 80.779 71.3665 80.9385 71.1426 81.112C70.9194 81.2834 70.7069 81.4684 70.5064 81.6659C70.3087 81.8651 70.1261 82.0786 69.9601 82.3048C69.7907 82.5337 69.6444 82.7789 69.5233 83.0366Z" fill="black"/>
<path d="M70.3373 83.5513C70.8382 82.7504 71.3869 81.9805 71.9805 81.2456C72.2774 80.8774 72.5858 80.5177 72.9059 80.1665C73.2315 79.8172 73.5764 79.4864 73.9389 79.1756C74.3084 78.8511 74.7242 78.5835 75.1727 78.3818C75.4151 78.2797 75.6763 78.2297 75.9392 78.235C76.2088 78.2419 76.4722 78.3173 76.7047 78.454C77.1375 78.7328 77.4688 79.144 77.6492 79.6263C77.7431 79.8558 77.8111 80.0951 77.8517 80.3397C77.9018 80.5929 77.8967 80.854 77.8367 81.105L77.7645 80.947C78.2717 81.2057 78.7602 81.486 79.2445 81.7777C79.7279 82.0694 80.205 82.3722 80.6647 82.7014C81.1344 83.0215 81.5696 83.3895 81.9633 83.7994C82.1624 84.011 82.3314 84.249 82.4654 84.5067C82.6125 84.7813 82.6474 85.1022 82.5627 85.402L82.5652 85.3937C82.5013 85.6419 82.364 85.8651 82.1713 86.0341C82.0665 86.118 81.9447 86.1779 81.8143 86.2097C81.6839 86.2415 81.5481 86.2444 81.4165 86.2181C81.1723 86.1683 80.9402 86.0714 80.7331 85.9328C80.5341 85.8027 80.3461 85.6565 80.171 85.4957L80.4731 85.3652C80.4647 85.6743 80.3985 85.9792 80.278 86.264C80.1599 86.5516 79.9832 86.8115 79.7591 87.027C79.5345 87.2392 79.2715 87.4065 78.9842 87.52C78.8626 87.5727 78.7442 87.6322 78.6294 87.6983C78.5766 87.7285 78.5259 87.7621 78.4775 87.799C78.4594 87.813 78.4423 87.8283 78.4266 87.845C78.4145 87.8554 78.4178 87.8677 78.4286 87.8275L78.3521 87.6117C78.4926 87.7337 78.6088 87.8811 78.6945 88.0462C78.7859 88.2157 78.8338 88.4053 78.8338 88.598C78.8338 88.7906 78.786 88.9802 78.6946 89.1497C78.6114 89.3108 78.5019 89.4569 78.3706 89.5819C78.1069 89.8302 77.772 89.9895 77.413 90.0376C77.2463 90.0577 77.0783 90.0655 76.9105 90.061C76.7299 90.0607 76.5504 90.0322 76.3786 89.9764L76.5381 89.977C76.0131 90.1395 75.4735 90.2507 74.9269 90.3089C74.3816 90.3647 73.8319 90.3617 73.2872 90.3001C73.0038 90.2732 72.7253 90.2075 72.4598 90.1048C72.3121 90.0477 72.1785 89.9595 72.0681 89.8461C71.9576 89.7327 71.8729 89.5968 71.8198 89.4477C71.7418 89.1491 71.7778 88.8322 71.9207 88.5587C71.9844 88.4263 72.067 88.3037 72.1658 88.195C72.2712 88.0634 72.4224 87.9766 72.5892 87.952L72.5705 87.9542C72.6491 87.9425 72.7285 87.9358 72.8079 87.9343C72.8861 87.9326 72.9642 87.9354 73.042 87.9428C73.2011 87.9557 73.3565 87.9973 73.5008 88.0654L73.3847 88.2012C73.313 88.074 73.257 87.9386 73.2178 87.7979C73.1775 87.6579 73.1595 87.5125 73.1644 87.3669C73.1696 87.2198 73.2111 87.0764 73.2853 86.9493C73.3606 86.8268 73.463 86.7231 73.5846 86.6461C73.5896 86.6428 73.5956 86.6416 73.6015 86.6428C73.6074 86.644 73.6125 86.6475 73.6159 86.6525C73.6188 86.6573 73.62 86.663 73.6191 86.6686C73.6182 86.6742 73.6152 86.6792 73.6109 86.6828C73.5053 86.7648 73.4198 86.8698 73.361 86.9899C73.3054 87.108 73.2792 87.2378 73.2845 87.3682C73.2907 87.4993 73.3174 87.6286 73.3637 87.7513C73.4087 87.8739 73.4681 87.9908 73.5406 88.0994C73.5516 88.1157 73.5572 88.135 73.5565 88.1546C73.5558 88.1742 73.5489 88.1931 73.5368 88.2085C73.5247 88.2239 73.508 88.2351 73.4891 88.2404C73.4702 88.2457 73.4501 88.2449 73.4317 88.238L73.4244 88.2352C73.2969 88.1886 73.1626 88.1629 73.0269 88.159C72.9577 88.1566 72.8885 88.1581 72.8195 88.1637C72.7518 88.1689 72.6846 88.1784 72.6181 88.1921L72.6091 88.1935L72.5993 88.1943C72.5048 88.227 72.423 88.2887 72.3654 88.3705C72.2906 88.4637 72.2295 88.5672 72.184 88.6778C72.0877 88.886 72.0714 89.1225 72.1383 89.342C72.1803 89.4421 72.2435 89.532 72.3234 89.6056C72.4033 89.6792 72.4981 89.7347 72.6014 89.7684C72.8364 89.8475 73.0809 89.8948 73.3285 89.9088C73.8441 89.9482 74.3624 89.9323 74.8746 89.8614C75.3859 89.7981 75.8901 89.6861 76.3801 89.527C76.43 89.5103 76.4839 89.5099 76.5341 89.5258L76.5397 89.5276C76.8046 89.5859 77.0777 89.597 77.3465 89.5603C77.606 89.5269 77.8484 89.413 78.0398 89.2346C78.2276 89.0711 78.3454 88.8417 78.3687 88.5938C78.3697 88.4752 78.342 88.3581 78.288 88.2525C78.2324 88.1414 78.1578 88.0409 78.0674 87.9557L78.0513 87.9409C78.0241 87.9159 78.0041 87.884 77.9935 87.8487C77.9828 87.8133 77.9819 87.7757 77.9908 87.7398C78.0085 87.6652 78.0466 87.597 78.1009 87.5427C78.134 87.5082 78.17 87.4766 78.2084 87.4481C78.2733 87.4002 78.3413 87.3567 78.4121 87.318C78.5438 87.2454 78.6796 87.1805 78.8188 87.1235C79.0615 87.0349 79.2847 86.9001 79.4762 86.7266C79.6642 86.5519 79.8159 86.3418 79.9225 86.1083C80.0308 85.8742 80.0959 85.6224 80.1146 85.3651L80.1154 85.3518C80.1175 85.3179 80.1292 85.2852 80.1493 85.2578C80.1693 85.2303 80.1968 85.2091 80.2285 85.1968C80.2602 85.1845 80.2948 85.1815 80.3281 85.1882C80.3614 85.1949 80.3922 85.211 80.4166 85.2346C80.5724 85.3875 80.7398 85.528 80.9173 85.655C81.0833 85.7804 81.2719 85.8725 81.4728 85.9263C81.564 85.951 81.6596 85.9551 81.7526 85.9382C81.8455 85.9213 81.9336 85.884 82.0103 85.8288C82.1683 85.7016 82.2848 85.5302 82.345 85.3366L82.3475 85.3282C82.4266 85.0828 82.4073 84.8163 82.2937 84.5848C82.1809 84.3362 82.0287 84.1075 81.843 83.9075C81.4647 83.4982 81.043 83.1311 80.5854 82.8128C79.6627 82.1773 78.6801 81.6337 77.6516 81.1896C77.6239 81.1773 77.6013 81.1557 77.5877 81.1286C77.5742 81.1014 77.5704 81.0704 77.5772 81.0409L77.5793 81.0315C77.6133 80.8201 77.6033 80.604 77.5499 80.3966C77.5012 80.1789 77.4282 79.9673 77.3324 79.7659C77.1605 79.368 76.8722 79.0314 76.5055 78.8004C76.3245 78.7021 76.1232 78.6468 75.9174 78.6389C75.7115 78.6309 75.5066 78.6705 75.3185 78.7545C74.9062 78.9365 74.5224 79.177 74.1788 79.4686C73.8181 79.7601 73.4737 80.0712 73.1472 80.4006C72.8146 80.7271 72.4928 81.0667 72.1803 81.4154C71.559 82.1161 70.9543 82.836 70.3744 83.5768C70.3726 83.5792 70.3704 83.5812 70.3678 83.5827C70.3653 83.5842 70.3625 83.5852 70.3595 83.5856C70.3566 83.586 70.3536 83.5859 70.3507 83.5851C70.3479 83.5844 70.3452 83.5831 70.3428 83.5813C70.3384 83.5778 70.3354 83.5729 70.3344 83.5673C70.3333 83.5618 70.3344 83.5561 70.3373 83.5513Z" fill="black"/>
<path d="M74.8651 80.1163C74.8676 80.5337 74.9207 80.9492 75.0233 81.3538C75.0766 81.545 75.1613 81.7261 75.274 81.8896C75.3805 82.0433 75.5408 82.1515 75.7232 82.1926C75.9114 82.2378 76.1078 82.2356 76.2949 82.1862C76.4891 82.1412 76.6732 82.0602 76.8375 81.9474C77.1791 81.7101 77.4742 81.4121 77.7082 81.0683C77.5425 81.4685 77.2781 81.8202 76.9398 82.0906C76.7654 82.2358 76.5607 82.34 76.3407 82.3955C76.1207 82.451 75.8911 82.4564 75.6687 82.4112C75.4364 82.3547 75.2339 82.2129 75.1012 82.014C74.9803 81.8252 74.896 81.6153 74.853 81.3953C74.776 80.972 74.7801 80.538 74.8651 80.1163ZM78.1843 84.1044C78.6129 84.1198 79.0297 84.2483 79.3926 84.4769C79.5756 84.5876 79.7452 84.719 79.8979 84.8687C80.0508 85.0164 80.1839 85.1833 80.2941 85.3651C80.1337 85.2262 79.9794 85.0884 79.8154 84.9633C79.6541 84.8368 79.4851 84.7203 79.3094 84.6145C79.1346 84.5074 78.9531 84.4117 78.766 84.3277C78.577 84.241 78.3827 84.1664 78.1843 84.1044ZM73.4629 88.1503C73.5624 88.2508 73.677 88.3351 73.8026 88.4001C73.9245 88.4709 74.0485 88.5374 74.1738 88.6023C74.4244 88.7312 74.6789 88.8546 74.9347 88.9759C75.4444 89.2234 75.9607 89.46 76.4594 89.752C75.899 89.6216 75.3549 89.4294 74.8369 89.1789C74.5762 89.055 74.3246 88.9126 74.0842 88.7529C73.8314 88.6052 73.6183 88.3984 73.4629 88.1503ZM77.4381 85.0821C77.5263 85.1303 77.6034 85.1966 77.6643 85.2766C77.6995 85.3192 77.7248 85.3689 77.7385 85.4224C77.7523 85.4758 77.7541 85.5317 77.7438 85.5859C77.7118 85.6935 77.6448 85.7873 77.5534 85.8525C77.4709 85.9159 77.3807 85.9684 77.2848 86.0088C77.2409 86.0274 77.1984 86.049 77.1576 86.0736C77.1189 86.0925 77.0815 86.1141 77.0458 86.1382L76.9485 86.2235C76.9191 86.2553 76.8922 86.2893 76.8679 86.3251C76.765 86.4682 76.7034 86.6368 76.6898 86.8125C76.6641 86.9858 76.6902 87.1629 76.7648 87.3215C76.8393 87.4802 76.959 87.6132 77.1089 87.7041C77.1458 87.7291 77.1867 87.7477 77.2298 87.7592C77.2724 87.7731 77.3139 87.7921 77.3579 87.8037C77.4492 87.8214 77.5415 87.8325 77.6343 87.8371C77.7299 87.8397 77.8254 87.8363 77.9206 87.8271C78.0153 87.8104 78.1117 87.7963 78.21 87.7837C78.1193 87.8195 78.0265 87.8539 77.9323 87.8857C77.8357 87.9125 77.7376 87.9331 77.6384 87.9475C77.5364 87.9562 77.4337 87.9567 77.3316 87.9491C77.28 87.9402 77.2289 87.9284 77.1787 87.9137C77.1265 87.9039 77.0761 87.8861 77.0293 87.861C76.8301 87.7706 76.6688 87.6135 76.5734 87.4168C76.4811 87.2215 76.4438 87.0048 76.4657 86.7899C76.4875 86.5751 76.5676 86.3703 76.6973 86.1976C76.7303 86.1546 76.7665 86.1142 76.8055 86.0766L76.9342 85.9758C77.0247 85.9236 77.12 85.8803 77.2188 85.8465C77.3911 85.8071 77.5415 85.7026 77.6384 85.5548C77.6528 85.5144 77.6581 85.4714 77.6539 85.4287C77.6497 85.3861 77.6361 85.3449 77.614 85.3081C77.568 85.2238 77.5086 85.1474 77.4381 85.0821Z" fill="black"/>
<path d="M75.612 80.7595C75.6383 80.878 75.6745 80.9942 75.7202 81.1066C75.7581 81.2134 75.8256 81.3073 75.9148 81.3772C75.9593 81.4089 76.0102 81.4305 76.0639 81.4407C76.1176 81.4508 76.1728 81.4492 76.2258 81.436C76.284 81.4254 76.3413 81.4107 76.3973 81.392C76.4538 81.3704 76.5092 81.3453 76.5692 81.3256C76.5222 81.3659 76.4705 81.4009 76.4198 81.4395C76.3634 81.4697 76.3047 81.4954 76.2442 81.5164C76.1793 81.5385 76.1101 81.5453 76.0422 81.5362C75.9742 81.5272 75.9092 81.5025 75.8523 81.4642C75.7487 81.3795 75.6752 81.2636 75.6427 81.1337C75.6084 81.0121 75.598 80.8851 75.612 80.7595ZM75.8179 80.613C75.9388 80.5787 76.0641 80.562 76.1899 80.5631C76.3179 80.5638 76.4452 80.584 76.5671 80.6232C76.6942 80.6648 76.805 80.7452 76.8841 80.8529C76.9525 80.9648 76.976 81.0984 76.9499 81.2269C76.9354 81.109 76.89 80.997 76.8181 80.9024C76.7408 80.8176 76.6416 80.7559 76.5313 80.7241C76.2998 80.6542 76.0597 80.6168 75.8179 80.613ZM77.5417 87.3977C77.5863 87.3061 77.6543 87.228 77.7388 87.1712C77.7839 87.14 77.8347 87.1182 77.8884 87.1071C77.942 87.096 77.9973 87.0958 78.051 87.1066C78.1536 87.1395 78.2436 87.2031 78.3088 87.2889C78.3356 87.3324 78.3637 87.3745 78.3867 87.4186C78.4039 87.4661 78.4239 87.5113 78.4373 87.5588C78.3712 87.4837 78.313 87.4088 78.2471 87.3435C78.1859 87.2812 78.1099 87.2355 78.0262 87.2108C77.9426 87.1911 77.8547 87.2025 77.7789 87.2429C77.6936 87.2843 77.6139 87.3363 77.5417 87.3977ZM73.5836 87.8973C73.5895 87.7207 73.6346 87.5477 73.7155 87.3907C73.7369 87.3466 73.7671 87.3074 73.8042 87.2755C73.8413 87.2435 73.8846 87.2195 73.9313 87.2049C73.9807 87.1954 74.0316 87.1972 74.0801 87.2101C74.1287 87.223 74.1737 87.2467 74.2119 87.2794C74.2861 87.3355 74.3491 87.405 74.3978 87.4843C74.4474 87.5683 74.4641 87.6678 74.4448 87.7634C74.4182 87.8497 74.373 87.929 74.3124 87.9959C74.2518 88.0627 74.1772 88.1154 74.094 88.1503C74.2285 88.0528 74.3241 87.9107 74.3635 87.7492C74.3705 87.674 74.3531 87.5985 74.3138 87.534C74.2694 87.4684 74.2135 87.4115 74.1488 87.3659C74.1234 87.3408 74.0926 87.3218 74.0587 87.3103C74.0249 87.2989 73.9889 87.2952 73.9535 87.2997C73.8831 87.3231 73.8233 87.3709 73.7849 87.4344C73.6963 87.5785 73.6286 87.7343 73.5836 87.8973ZM70.8334 86.5911C70.8229 86.7674 70.7733 86.9392 70.6884 87.0941C70.6658 87.1375 70.6346 87.1759 70.5966 87.2069C70.5587 87.2379 70.5148 87.2608 70.4677 87.2742C70.4181 87.2824 70.3673 87.2793 70.3191 87.2651C70.2709 87.2509 70.2265 87.2261 70.1892 87.1924C70.1165 87.1344 70.0552 87.0633 70.0087 86.9827C69.9613 86.8974 69.9472 86.7976 69.969 86.7024C69.9978 86.6169 70.0451 86.5388 70.1075 86.4735C70.1698 86.4083 70.2457 86.3575 70.3298 86.3248C70.1927 86.4188 70.0935 86.5584 70.0499 86.7187C70.0409 86.7938 70.0564 86.8697 70.094 86.9353C70.1367 87.0019 70.1911 87.0603 70.2546 87.1075C70.2793 87.1333 70.3096 87.1531 70.3431 87.1655C70.3766 87.1778 70.4125 87.1824 70.448 87.1788C70.5191 87.1572 70.58 87.111 70.6201 87.0485C70.7124 86.9069 70.7842 86.7528 70.8334 86.5911ZM72.4473 89.5076C72.4933 89.3858 72.5581 89.272 72.6392 89.1702C72.6806 89.1162 72.7302 89.0691 72.7863 89.0306C72.8184 89.0066 72.856 88.9908 72.8957 88.9846C72.9353 88.9784 72.9759 88.982 73.0138 88.9951C73.0811 89.0333 73.1316 89.0952 73.1555 89.1687C73.1796 89.2315 73.1949 89.2973 73.2009 89.3643C73.2166 89.4936 73.2109 89.6246 73.1838 89.752C73.1699 89.6265 73.1485 89.5019 73.1197 89.379C73.106 89.3204 73.088 89.2629 73.0658 89.2069C73.0401 89.1577 73.0094 89.1046 72.9706 89.0931C72.8974 89.053 72.7833 89.1435 72.6999 89.2255C72.611 89.3152 72.5267 89.4094 72.4473 89.5076Z" fill="black"/>
<path d="M69.5235 83.5646L68.6127 84.5679C68.6127 84.5679 68.6195 85.8507 67.9702 85.9048C67.9702 85.9048 67.641 86.2024 67.8755 86.2633C68.0852 86.3152 68.8404 86.128 69.1673 86.1663C69.1673 86.1663 70.7162 85.8597 70.98 86.0266C71.0594 86.0804 71.1261 86.1508 71.1755 86.2329C71.225 86.3151 71.256 86.407 71.2663 86.5023L71.3926 86.4888L76.2782 86.7796L78.3974 83.5646L69.5235 83.5646ZM75.8182 85.8146L68.9622 85.6997L69.8572 84.259H76.7268L75.8182 85.8146ZM63.9052 85.9054C64.1694 85.7128 64.4682 85.5729 64.7853 85.4932C65.1076 85.4103 65.4414 85.3814 65.7731 85.4078C65.8028 85.4102 65.8304 85.4243 65.8498 85.447C65.8692 85.4697 65.8789 85.4991 65.8766 85.5289C65.8744 85.5586 65.8605 85.5863 65.8379 85.6058C65.8153 85.6253 65.7859 85.6351 65.7561 85.633C65.7515 85.6326 65.7468 85.632 65.7423 85.6311C65.4344 85.5704 65.1186 85.5611 64.8076 85.6036C64.4902 85.6454 64.1838 85.7478 63.9052 85.9054ZM65.7577 88.2344C66.392 88.2461 67.0263 88.2682 67.6608 88.3285C67.8178 88.3425 67.9819 88.3681 68.1335 88.3858C68.2867 88.4024 68.441 88.4055 68.5947 88.395C68.899 88.3742 69.1978 88.3026 69.4784 88.1829L69.4858 88.1796C69.5132 88.1676 69.5442 88.1669 69.5721 88.1777C69.6 88.1885 69.6225 88.21 69.6346 88.2373C69.6467 88.2647 69.6474 88.2958 69.6365 88.3237C69.6257 88.3516 69.6043 88.374 69.5769 88.3861L69.5706 88.3887C69.2599 88.5019 68.932 88.5612 68.6013 88.5639C68.438 88.5654 68.2749 88.5525 68.1139 88.5253C67.9519 88.4965 67.8042 88.464 67.6463 88.4403C67.0222 88.3433 66.3898 88.2836 65.7577 88.2344ZM66.2465 89.9839C66.4616 89.9064 66.6789 89.8343 66.8986 89.7674C67.1207 89.6973 67.3472 89.6418 67.5765 89.6013C67.6062 89.5966 67.6365 89.6037 67.6608 89.6213C67.6852 89.6389 67.7015 89.6654 67.7063 89.695C67.7111 89.7247 67.7039 89.755 67.6863 89.7793C67.6688 89.8037 67.6422 89.82 67.6126 89.8248C67.6066 89.8257 67.6006 89.8262 67.5946 89.8262H67.5924C67.3681 89.8288 67.1442 89.846 66.9222 89.8776C66.6967 89.9068 66.4712 89.9428 66.2465 89.9839ZM67.0956 84.2871C67.211 84.4068 67.3466 84.5051 67.4963 84.5777C67.6479 84.6476 67.807 84.7003 67.9704 84.7347C67.884 84.7548 67.7948 84.7595 67.7068 84.7484C67.6176 84.7365 67.5308 84.7113 67.4491 84.6738C67.3689 84.6324 67.2958 84.5784 67.2326 84.5139C67.1694 84.4503 67.1225 84.3726 67.0956 84.2871ZM70.537 88.2739C70.4772 88.2742 70.4197 88.2507 70.3772 88.2086C70.3348 88.1665 70.3107 88.1093 70.3105 88.0495C70.3102 87.9897 70.3337 87.9322 70.3758 87.8897C70.4178 87.8473 70.4751 87.8232 70.5349 87.823L73.3908 87.7961C73.4206 87.7952 73.4502 87.8004 73.4779 87.8112C73.5057 87.8221 73.5309 87.8384 73.5521 87.8593C73.5734 87.8801 73.5902 87.905 73.6016 87.9325C73.613 87.9601 73.6187 87.9896 73.6184 88.0194C73.6187 88.049 73.6131 88.0784 73.602 88.1058C73.591 88.1333 73.5746 88.1583 73.5539 88.1795C73.5331 88.2006 73.5084 88.2175 73.4811 88.229C73.4539 88.2406 73.4246 88.2467 73.395 88.247L70.5391 88.2739H70.537ZM78.3847 88.2008C78.3249 88.2008 78.2676 88.1771 78.2253 88.1349C78.1829 88.0926 78.1591 88.0353 78.1591 87.9755C78.1591 87.9157 78.1828 87.8583 78.225 87.816C78.2673 87.7737 78.3246 87.7499 78.3844 87.7499L86.2568 87.7395H86.2571C86.3169 87.7395 86.3743 87.7632 86.4166 87.8054C86.4589 87.8477 86.4827 87.905 86.4828 87.9648C86.4828 88.0246 86.4591 88.082 86.4168 88.1243C86.3746 88.1666 86.3173 88.1904 86.2575 88.1904L78.385 88.2008H78.3847ZM130.648 88.1312C130.588 88.1312 130.531 88.1075 130.488 88.0653C130.446 88.023 130.422 87.9657 130.422 87.9059C130.422 87.8461 130.446 87.7887 130.488 87.7464C130.531 87.7041 130.588 87.6803 130.648 87.6803L137.884 87.6715H137.884C137.944 87.6715 138.001 87.6952 138.043 87.7374C138.086 87.7797 138.109 87.837 138.109 87.8968C138.11 87.9566 138.086 88.014 138.044 88.0563C138.001 88.0986 137.944 88.1224 137.884 88.1224L130.648 88.1312H130.648ZM89.4357 88.015H88.9005C88.8862 88.015 88.8725 88.0094 88.8623 87.9994C88.8521 87.9894 88.8462 87.9758 88.846 87.9615C88.8459 87.9545 88.8472 87.9475 88.8498 87.9411C88.8524 87.9346 88.8563 87.9287 88.8612 87.9237C88.8661 87.9187 88.872 87.9148 88.8784 87.9121C88.8848 87.9094 88.8918 87.908 88.8987 87.908H89.4357C89.4428 87.9079 89.4498 87.9093 89.4563 87.9119C89.4629 87.9146 89.4688 87.9185 89.4738 87.9235C89.4788 87.9285 89.4828 87.9344 89.4855 87.9409C89.4882 87.9474 89.4896 87.9544 89.4896 87.9615C89.4896 87.9685 89.4882 87.9755 89.4855 87.982C89.4828 87.9885 89.4788 87.9944 89.4738 87.9994C89.4688 88.0044 89.4629 88.0083 89.4563 88.011C89.4498 88.0137 89.4428 88.015 89.4357 88.015ZM19.9335 88.7457C19.8737 88.746 19.8163 88.7225 19.7738 88.6804C19.7313 88.6383 19.7073 88.5811 19.707 88.5213C19.7068 88.4615 19.7302 88.404 19.7723 88.3616C19.8144 88.3191 19.8716 88.2951 19.9314 88.2948L29.8576 88.2025C29.9169 88.2036 29.9735 88.2273 30.0159 88.2688C30.0582 88.3103 30.083 88.3665 30.0852 88.4258C30.0854 88.4554 30.0799 88.4848 30.0688 88.5123C30.0577 88.5397 30.0414 88.5647 30.0206 88.5859C29.9999 88.607 29.9752 88.6239 29.9479 88.6355C29.9207 88.6471 29.8914 88.6532 29.8618 88.6535L19.9356 88.7457H19.9335ZM57.3699 57.5387C57.4533 57.5358 57.5322 57.5007 57.5902 57.4407C57.6482 57.3807 57.6806 57.3005 57.6806 57.2171C57.6806 57.1337 57.6482 57.0535 57.5902 56.9935C57.5322 56.9335 57.4533 56.8983 57.3699 56.8955C57.2865 56.8983 57.2075 56.9335 57.1495 56.9935C57.0916 57.0535 57.0592 57.1337 57.0592 57.2171C57.0592 57.3005 57.0916 57.3807 57.1495 57.4407C57.2075 57.5007 57.2865 57.5358 57.3699 57.5387ZM73.628 51.3004L70.995 51.3985C70.1312 51.4247 69.2771 51.4456 68.4278 51.4615C67.5798 51.4733 66.7346 51.4867 65.8929 51.4772C65.0507 51.4709 64.2087 51.4332 63.3582 51.4097L63.4834 51.2845C63.4699 51.7704 63.4479 52.2563 63.4413 52.7422C63.4294 53.228 63.429 53.7139 63.4261 54.1998C63.4254 55.1715 63.4458 56.1433 63.4733 57.115L63.3582 57L65.4594 56.9416C65.4808 56.941 65.5021 56.9447 65.5221 56.9524C65.5421 56.9601 65.5604 56.9717 65.5758 56.9865L65.582 56.9924L66.3845 57.7642H66.1086L66.8845 56.966C66.9032 56.9467 66.9256 56.9313 66.9503 56.9207C66.9749 56.9101 67.0015 56.9045 67.0284 56.9043L67.0337 56.9042C68.1354 56.8951 69.2371 56.8725 70.3388 56.8745C70.8896 56.8718 71.4405 56.874 71.9914 56.8813L73.6439 56.9022L73.4311 57.115C73.4462 56.168 73.4735 55.2208 73.5127 54.2541L73.628 51.3004ZM73.6599 51.2686L73.7751 54.1454C73.8143 55.1222 73.8416 56.1185 73.8568 57.115C73.8576 57.1706 73.8363 57.2243 73.7976 57.2642C73.7589 57.3041 73.7059 57.327 73.6503 57.3278H73.6498L73.6439 57.3279L71.9914 57.3488C71.4405 57.3554 70.8896 57.3577 70.3388 57.3556C69.2371 57.3576 68.1354 57.335 67.0337 57.3259L67.1827 57.2642L66.3845 58.0401L66.3798 58.0447C66.3618 58.0622 66.3405 58.076 66.3172 58.0853C66.2938 58.0946 66.2689 58.0992 66.2438 58.0988C66.2186 58.0984 66.1938 58.0931 66.1708 58.0832C66.1477 58.0733 66.1268 58.0589 66.1093 58.0408L66.1086 58.0401L65.3368 57.2377L65.4594 57.2885L63.3583 57.2301L63.3518 57.2299C63.3222 57.2291 63.2941 57.2166 63.2737 57.195C63.2533 57.1735 63.2423 57.1447 63.2432 57.1151V57.115C63.2706 56.1433 63.291 55.1715 63.2904 54.1998C63.2875 53.7139 63.287 53.228 63.2751 52.7422C63.2686 52.2563 63.2465 51.7704 63.233 51.2845C63.2326 51.2685 63.2353 51.2526 63.241 51.2377C63.2467 51.2228 63.2553 51.2091 63.2662 51.1975C63.2772 51.1859 63.2904 51.1765 63.305 51.17C63.3196 51.1635 63.3353 51.1599 63.3513 51.1595H63.3514L63.3583 51.1593C64.222 51.1358 65.0943 51.0981 65.9664 51.0918C66.839 51.0823 67.7081 51.0958 68.5744 51.1076C69.4393 51.1234 70.2995 51.1443 71.15 51.1705L73.6599 51.2686ZM103.877 40.5152L100.002 40.5822L96.1597 40.6306L88.5282 40.6843L84.7317 40.6709L80.9372 40.6229C78.4051 40.584 75.8602 40.5655 73.3166 40.5719L73.3892 40.4993L73.4027 43.4145L73.4363 46.3298L73.3166 46.2101C75.5584 46.1795 77.8001 46.1507 80.0419 46.1351L86.7672 46.098C89.0089 46.0807 91.2507 46.1006 93.4925 46.1001C95.7342 46.0974 97.976 46.1268 100.218 46.1448L100.221 46.1448C100.269 46.1452 100.315 46.1647 100.349 46.199L101.129 46.9931H100.881L101.677 46.2148L101.68 46.2119C101.695 46.1974 101.712 46.186 101.732 46.1783C101.751 46.1706 101.771 46.1668 101.792 46.1671L103.893 46.1977L103.761 46.3298C103.776 45.373 103.789 44.4162 103.816 43.4466L103.877 40.5152ZM103.909 40.4833L103.971 43.3823C103.997 44.3563 104.01 45.343 104.025 46.3298C104.026 46.3642 104.013 46.3975 103.989 46.4223C103.965 46.447 103.932 46.4613 103.897 46.4618H103.897L103.893 46.4619L101.792 46.4924L101.907 46.4448L101.129 47.2406C101.097 47.2735 101.053 47.2922 101.007 47.2927C100.961 47.2932 100.917 47.2755 100.884 47.2434L100.884 47.2431L100.881 47.2407L100.087 46.4606L100.218 46.5147C97.976 46.5327 95.7342 46.5621 93.4924 46.5594C91.2507 46.5589 89.0089 46.5788 86.7672 46.5615L80.0419 46.5244C77.8001 46.5089 75.5583 46.48 73.3166 46.4494H73.3136C73.298 46.4492 73.2827 46.446 73.2685 46.4399C73.2542 46.4337 73.2413 46.4249 73.2304 46.4138C73.2196 46.4026 73.2111 46.3895 73.2053 46.3751C73.1995 46.3607 73.1967 46.3453 73.1969 46.3297L73.2304 43.4145L73.2439 40.4993C73.2439 40.48 73.2516 40.4615 73.2652 40.4479C73.2789 40.4343 73.2973 40.4266 73.3166 40.4265C75.8691 40.433 78.4203 40.4144 80.9843 40.3756L84.8339 40.3276L88.6815 40.3141L96.3383 40.3678L100.14 40.4162L103.909 40.4833ZM82.6462 28.073C80.9929 28.1201 79.3678 28.1528 77.7519 28.181C76.1327 28.2146 74.5328 28.2297 72.9336 28.242C71.3348 28.2545 69.7467 28.2445 68.1552 28.2089C66.5629 28.1817 64.9633 28.1372 63.3582 28.1293L63.4304 28.0571C63.4298 28.5429 63.4228 29.0288 63.4283 29.5147L63.4372 30.9723C63.4383 31.9441 63.462 32.9158 63.4762 33.8876L63.3582 33.7696L65.4594 33.7302C65.4791 33.7298 65.4987 33.7333 65.5171 33.7406C65.5355 33.7478 65.5523 33.7585 65.5665 33.7722L65.5707 33.7763L66.3704 34.5508H66.1227L66.8999 33.7538C66.9167 33.7365 66.9368 33.7227 66.959 33.7132C66.9811 33.7037 67.005 33.6987 67.0291 33.6985L67.0337 33.6984L70.9408 33.6644C72.2431 33.6541 73.5455 33.6446 74.8479 33.6466C77.4526 33.6454 80.0574 33.6835 82.6621 33.7182L82.4927 33.8876L82.5619 31.0138L82.6462 28.073ZM82.678 28.0411L82.7623 30.9308L82.8315 33.8876C82.8325 33.9315 82.8161 33.974 82.7858 34.0057C82.7555 34.0375 82.7138 34.0559 82.67 34.0569L82.6683 34.057L82.6621 34.057C80.0574 34.0917 77.4526 34.1298 74.8479 34.1286C73.5455 34.1307 72.2431 34.1211 70.9407 34.1108L67.0337 34.0768L67.1674 34.0214L66.3704 34.7985L66.3668 34.802C66.3341 34.8339 66.29 34.8516 66.2443 34.851C66.1986 34.8504 66.155 34.8317 66.1231 34.799L66.1226 34.7985L65.3481 33.9989L65.4594 34.045L63.3582 34.0056L63.3543 34.0055C63.3391 34.0053 63.324 34.0021 63.31 33.996C63.296 33.99 63.2834 33.9812 63.2728 33.9702C63.2622 33.9593 63.2538 33.9464 63.2482 33.9322C63.2426 33.918 63.2399 33.9028 63.2402 33.8876C63.2544 32.9158 63.2781 31.9441 63.2793 30.9723L63.2882 29.5147C63.2936 29.0288 63.2867 28.543 63.286 28.0571C63.286 28.0379 63.2936 28.0196 63.3072 28.006C63.3207 27.9925 63.3391 27.9848 63.3582 27.9848C64.9705 27.9768 66.5881 27.9324 68.2132 27.9052C69.839 27.8696 71.4682 27.8596 73.0868 27.8721C74.7049 27.8845 76.3222 27.8995 77.9203 27.9331C79.5218 27.9613 81.1141 27.9941 82.678 28.0411V28.0411Z" fill="black"/>
</svg>
