<svg width="103" height="84" viewBox="0 0 103 84" fill="none" xmlns="http://www.w3.org/2000/svg">
<g clip-path="url(#clip0_743_55165)">
<path d="M34.1697 32.7592C34.093 32.7893 34.0106 32.802 33.9283 32.7965C33.7373 32.7601 33.5535 32.6927 33.3843 32.5968C32.9433 31.6513 32.5031 30.7057 32.0635 29.7602C30.1263 25.5588 28.1913 21.3576 26.3002 17.1343L23.4679 10.7984C22.5465 8.67688 21.6031 6.5642 20.6992 4.43169C21.7391 6.50057 22.7395 8.58696 23.7619 10.6624L26.7609 16.9215C28.7596 21.0943 30.7099 25.289 32.6625 29.4837C32.9937 30.2033 33.325 30.9229 33.6563 31.6425C33.4896 31.6469 33.3799 31.6798 33.3645 31.7303C33.3404 31.8071 33.5663 31.8904 34.0007 32.3928C34.0578 32.5157 34.1126 32.6363 34.1697 32.7592ZM44.0268 54.8121C42.9891 52.7455 41.9865 50.6591 40.9663 48.5837L37.9673 42.3245C37.0327 40.3742 36.1083 38.4201 35.1942 36.4624C35.4553 36.5042 35.701 36.5392 35.9138 36.5677C35.916 36.5656 35.916 36.5656 35.916 36.5677C36.7585 38.4128 37.5943 40.2608 38.4236 42.1117L41.2559 48.4477C42.1796 50.5691 43.1229 52.6819 44.0268 54.8121ZM44.2705 31.5427L47.1823 31.9849C48.147 32.1287 49.1006 32.2846 50.0555 32.4353L49.9325 32.5122L50.1473 31.7448C50.1547 31.7183 50.1712 31.6953 50.1939 31.6799C50.2167 31.6645 50.2441 31.6576 50.2714 31.6605L50.274 31.6608L51.0638 31.745C51.3419 31.7605 51.6152 31.8242 51.8716 31.9331C52.3948 32.1626 52.8088 32.5857 53.0268 33.1138C53.0808 33.2443 53.1226 33.3794 53.1517 33.5176C53.1663 33.5866 53.1774 33.6563 53.1857 33.7264C53.1953 33.7927 53.2003 33.8518 53.2133 33.9135C53.2531 34.1551 53.3446 34.3851 53.4816 34.588C53.6301 34.7811 53.82 34.9386 54.0372 35.0489C54.2545 35.1593 54.4936 35.2196 54.7372 35.2257L54.6136 35.2703C55.3385 34.6161 56.1325 34.0427 56.9816 33.5602C57.8183 33.0707 58.6871 32.6384 59.5821 32.2661C60.0322 32.0879 60.4796 31.9036 60.9389 31.7516C61.3927 31.5842 61.8564 31.4472 62.3189 31.3078C62.7799 31.1632 63.2525 31.0597 63.7183 30.9337C64.1882 30.8234 64.6622 30.7314 65.1327 30.6256L65.086 30.6596C65.2008 30.4457 65.293 30.2204 65.361 29.9873C65.4336 29.757 65.4667 29.5161 65.4589 29.2747C65.4529 29.0382 65.374 28.8094 65.2332 28.6193C65.0776 28.439 64.8764 28.304 64.6505 28.2284L64.6456 28.2263C64.6397 28.2238 64.6343 28.2202 64.6297 28.2158C63.961 27.5636 63.2797 26.9243 62.6033 26.28C61.9262 25.6364 61.2452 24.997 60.5603 24.3618L58.4988 22.4643C57.8075 21.8413 57.1168 21.1978 56.3993 20.6289L56.3969 20.627C56.3699 20.6056 56.3525 20.5744 56.3486 20.5401C56.3446 20.5059 56.3545 20.4715 56.3759 20.4445C56.3823 20.4364 56.3897 20.4291 56.3979 20.4227L58.1392 19.0683L58.0857 19.2244L56.5587 13.558L56.8319 13.6597C56.0742 14.184 55.3234 14.722 54.5731 15.2586C53.8226 15.7953 53.0781 16.3399 52.3398 16.8924C51.6033 17.4469 50.8736 18.0104 50.1654 18.5966C49.812 18.8901 49.4653 19.1912 49.1309 19.5012C48.9641 19.6562 48.8006 19.815 48.6505 19.9806C48.5016 20.1304 48.3761 20.3018 48.2782 20.489L48.2892 20.434C48.2687 20.8318 48.224 21.2279 48.1552 21.6202C48.0887 22.0134 47.9917 22.4009 47.865 22.779C47.7402 23.1657 47.5571 23.531 47.3219 23.8622C47.078 24.2118 46.7177 24.4632 46.3054 24.5714L46.3384 24.5586C46.086 24.7277 45.8639 24.9381 45.6812 25.181C45.5829 25.3009 45.4975 25.4324 45.4097 25.5612C45.3332 25.6977 45.2442 25.8273 45.1773 25.9696C44.8911 26.5335 44.6811 27.133 44.5527 27.7522C44.4717 28.0592 44.4358 28.3757 44.3798 28.6887C44.3401 29.004 44.3123 29.3216 44.2844 29.6389C44.2748 29.9567 44.2574 30.2777 44.2541 30.5938L44.2705 31.5427ZM44.2442 31.5664L44.1855 30.5978C44.1775 30.2746 44.184 29.9559 44.1826 29.6342C44.1995 29.3139 44.2165 28.9927 44.2456 28.6725C44.2922 28.3544 44.314 28.0317 44.3904 27.7176C44.5072 27.0794 44.7082 26.4596 44.9881 25.8744C45.054 25.7255 45.1432 25.5876 45.2199 25.4436C45.3085 25.3063 45.3948 25.1666 45.4959 25.0369C45.6921 24.7624 45.9348 24.5244 46.2129 24.3336C46.22 24.3288 46.2279 24.3253 46.2362 24.3232L46.2461 24.3207C46.5942 24.2187 46.8957 23.9982 47.0982 23.6973C47.311 23.3867 47.4752 23.0454 47.5852 22.6854C47.7014 22.3205 47.789 21.9471 47.8473 21.5687C47.9078 21.1902 47.9455 20.8083 47.9599 20.4253L47.9601 20.4189C47.9607 20.4022 47.9644 20.3857 47.9709 20.3702C48.079 20.1431 48.2232 19.935 48.3977 19.7539C48.5553 19.575 48.7214 19.4092 48.8904 19.2473C49.2277 18.9229 49.5813 18.6207 49.9366 18.3218C50.65 17.7275 51.3814 17.159 52.1192 16.5999C53.5965 15.4834 55.1002 14.4051 56.6304 13.3651L56.6316 13.3643C56.6706 13.3378 56.7185 13.3279 56.7648 13.3367C56.8112 13.3455 56.8521 13.3724 56.8786 13.4114C56.8901 13.4283 56.8986 13.4471 56.9038 13.4668L58.3731 19.1484L58.3736 19.1505C58.3809 19.1786 58.3796 19.2083 58.37 19.2357C58.3604 19.2632 58.3429 19.2871 58.3196 19.3046L56.5545 20.6278L56.5532 20.4216C57.2895 21.0269 57.955 21.672 58.6404 22.3115L60.6677 24.2482L64.7072 28.1354L64.6865 28.1228C64.9339 28.2032 65.1549 28.3493 65.3258 28.5455C65.4843 28.7541 65.5745 29.0065 65.5841 29.2683C65.595 29.5237 65.5626 29.779 65.4883 30.0236C65.4196 30.2676 65.3254 30.5037 65.2073 30.7281C65.203 30.7363 65.1969 30.7435 65.1896 30.7492C65.1822 30.7549 65.1738 30.7589 65.1647 30.7611L65.1605 30.7621C64.6929 30.8721 64.2247 30.9793 63.7598 31.0985C63.2995 31.2347 62.8327 31.3483 62.3784 31.5028C61.9226 31.6522 61.4659 31.7983 61.0199 31.9744C60.5683 32.1352 60.1295 32.3279 59.6885 32.5141C58.8139 32.9013 57.9622 33.3382 57.1376 33.8229C56.7286 34.0691 56.3251 34.3252 55.9398 34.6051C55.5526 34.8765 55.1828 35.1717 54.8324 35.4891L54.8273 35.4939C54.8116 35.5086 54.7928 35.5198 54.7724 35.5267C54.7519 35.5335 54.7302 35.536 54.7088 35.5338C54.4262 35.509 54.1501 35.4352 53.8929 35.3157C53.6295 35.1896 53.4039 34.9965 53.2386 34.7558C53.0798 34.5172 52.9744 34.2472 52.9296 33.9641C52.9159 33.8961 52.9099 33.823 52.9011 33.7583C52.8943 33.6968 52.8852 33.6356 52.8729 33.575C52.8485 33.4537 52.813 33.335 52.7667 33.2203C52.5798 32.7559 52.2202 32.382 51.7634 32.1771C51.5322 32.0764 51.2858 32.0152 51.0343 31.996L50.2466 31.8945L50.3733 31.8106L50.1418 32.5732L50.141 32.5756C50.1334 32.6009 50.1166 32.6225 50.0941 32.6362C50.0716 32.6499 50.0447 32.6549 50.0188 32.6501C49.0471 32.4714 48.0741 32.298 47.1122 32.1124L44.2442 31.5664Z" fill="#434144"/>
<path d="M56.478 20.5252C56.1974 20.3762 55.9264 20.2142 55.6558 20.0519C55.3841 19.8912 55.1188 19.7213 54.8513 19.5555L54.0544 19.0504C53.9224 18.9648 53.7878 18.8846 53.6518 18.8064C53.5212 18.7198 53.3776 18.6544 53.2266 18.6127C53.5431 18.6587 53.8474 18.7672 54.1216 18.9319C54.4054 19.0752 54.6773 19.2382 54.9457 19.4058C55.2123 19.5763 55.4762 19.7507 55.7307 19.9389C55.9863 20.1252 56.2388 20.316 56.478 20.5252ZM58.1666 18.9911C58.1785 18.9751 58.1949 18.9631 58.2137 18.9564C58.2324 18.9498 58.2528 18.9488 58.2721 18.9537C58.3054 18.9587 58.3382 18.967 58.3699 18.9784C58.4312 19.0007 58.491 19.027 58.5488 19.0571C58.6643 19.1158 58.7741 19.1831 58.8829 19.2513C59.1 19.3889 59.3107 19.535 59.5194 19.6837C59.9357 19.9825 60.3368 20.3003 60.7379 20.6175C61.5421 21.2504 62.3109 21.9232 63.0833 22.5942C63.1006 22.6092 63.1142 22.628 63.123 22.6491C63.1317 22.6702 63.1355 22.6931 63.134 22.7159L63.1336 22.7205C63.1085 23.0692 63.0934 23.4178 63.0854 23.7637C63.0705 24.1013 63.0996 24.4395 63.172 24.7697C63.2173 24.9259 63.2867 25.0741 63.3777 25.2089L63.4424 25.3216C63.4527 25.3386 63.4677 25.3523 63.4856 25.3608C63.5486 25.3908 63.617 25.4078 63.6866 25.4107C64.0251 25.4184 64.3627 25.3756 64.6886 25.2838L64.6911 25.2832C64.7132 25.2779 64.7363 25.2796 64.7574 25.2879C64.7784 25.2963 64.7964 25.3109 64.8089 25.3299L64.8901 25.4539C64.919 25.4925 64.9509 25.5267 64.9815 25.5624C65.0068 25.5913 65.038 25.6143 65.0731 25.6298C65.1082 25.6453 65.1463 25.6529 65.1846 25.6521C65.2661 25.6299 65.3364 25.5782 65.3818 25.507C65.4403 25.428 65.488 25.3416 65.5236 25.2499L65.5243 25.2482C65.5299 25.234 65.5397 25.2219 65.5523 25.2133C65.5648 25.2047 65.5797 25.2001 65.5949 25.2001C65.6102 25.2001 65.625 25.2046 65.6377 25.2131C65.6503 25.2216 65.6601 25.2337 65.6658 25.2478L65.721 25.3845C65.7424 25.4267 65.7662 25.4676 65.7921 25.5072C65.8116 25.5415 65.8401 25.5699 65.8744 25.5893C65.9088 25.6087 65.9478 25.6185 65.9872 25.6175C66.0731 25.5945 66.149 25.5437 66.2028 25.4728C66.2674 25.3988 66.3233 25.3177 66.3696 25.2311C66.3733 25.2239 66.3785 25.2176 66.3847 25.2124C66.3909 25.2073 66.398 25.2034 66.4057 25.201C66.4134 25.1986 66.4215 25.1978 66.4296 25.1985C66.4376 25.1993 66.4454 25.2016 66.4526 25.2053C66.4621 25.2106 66.4702 25.2181 66.4761 25.2273C66.5239 25.3083 66.5789 25.3847 66.6405 25.4558C66.6664 25.4876 66.6985 25.5139 66.7348 25.533C66.7711 25.5522 66.8109 25.5638 66.8518 25.5672C66.8925 25.5597 66.931 25.5433 66.9646 25.5192C66.9983 25.4952 67.0262 25.464 67.0464 25.4279C67.0983 25.3506 67.139 25.2665 67.1674 25.1779C67.1706 25.1681 67.1764 25.1594 67.1843 25.1526C67.1921 25.1459 67.2016 25.1415 67.2118 25.1398C67.222 25.1381 67.2324 25.1393 67.242 25.1431C67.2515 25.147 67.2599 25.1533 67.2661 25.1616C67.3341 25.2725 67.4396 25.3554 67.5634 25.3954C67.6754 25.4151 67.7824 25.3227 67.8562 25.2124C67.9301 25.0997 67.9766 24.9712 67.9919 24.8373C68.0072 24.7033 68.0024 24.5542 68.0069 24.4138C68.0085 24.1325 67.9755 23.8522 67.9087 23.579C67.878 23.45 67.8221 23.3284 67.7442 23.2211C67.7149 23.1764 67.6754 23.1393 67.629 23.1127C67.5825 23.0862 67.5305 23.0711 67.4771 23.0685L67.4655 23.07C67.4609 23.0705 67.4562 23.0704 67.4516 23.0696C67.4079 23.063 67.367 23.0436 67.3342 23.0139C67.3141 22.9973 67.2952 22.9793 67.2774 22.9602C67.2434 22.9249 67.2144 22.8899 67.1859 22.8545C67.1294 22.7838 67.0769 22.7125 67.0262 22.6405C66.9246 22.4966 66.8288 22.3506 66.7345 22.2039C66.5473 21.9096 66.3699 21.6107 66.1944 21.3106C66.0258 21.0042 65.8375 20.7249 65.6497 20.4314L65.0919 19.559C64.7144 18.9792 64.3387 18.3983 63.9525 17.8249C63.5728 17.2472 63.1922 16.67 62.7978 16.1036C62.4101 15.5316 61.997 14.9798 61.5901 14.4244C61.1882 13.8718 60.7378 13.3562 60.2441 12.8838C60.0104 12.6548 59.7287 12.4805 59.4195 12.3734C59.2679 12.3504 59.1128 12.3682 58.9703 12.425C58.8118 12.4806 58.6581 12.5489 58.5106 12.6293C57.91 12.967 57.3438 13.3624 56.8198 13.8098C56.818 13.8114 56.816 13.8126 56.8138 13.8133C56.8116 13.8141 56.8093 13.8144 56.807 13.8143C56.8046 13.8141 56.8024 13.8136 56.8003 13.8125C56.7982 13.8115 56.7963 13.8101 56.7948 13.8084C56.7918 13.8049 56.7903 13.8004 56.7905 13.7959C56.7907 13.7913 56.7926 13.787 56.7958 13.7838C57.2908 13.2915 57.8365 12.853 58.4238 12.4756C58.5763 12.3826 58.7361 12.3021 58.9017 12.235C59.0794 12.1554 59.2757 12.1264 59.4689 12.1512C59.8238 12.2484 60.1507 12.4284 60.4226 12.6764C60.9454 13.1462 61.4249 13.662 61.8553 14.2176C62.2902 14.7622 62.6997 15.3256 63.0963 15.8956C63.2973 16.1791 63.4942 16.4651 63.6872 16.7535C63.8822 17.0407 64.0782 17.3272 64.2649 17.6196C64.6428 18.2017 65.0095 18.7903 65.378 19.3777L65.9247 20.2654C66.1049 20.5587 66.2919 20.8618 66.4491 21.1671C66.6139 21.4703 66.7831 21.7707 66.9565 22.0683C67.043 22.2169 67.1308 22.3647 67.2226 22.5081C67.2685 22.5798 67.3157 22.6501 67.3643 22.717C67.3886 22.7502 67.4137 22.783 67.4385 22.8111C67.4496 22.8243 67.4615 22.8369 67.4741 22.8486C67.483 22.8599 67.4976 22.8595 67.4681 22.8566L67.4427 22.8576C67.5339 22.8553 67.6242 22.8769 67.7044 22.9203C67.7846 22.9637 67.8521 23.0274 67.9 23.1051C67.9878 23.2347 68.0491 23.3805 68.0803 23.5339C68.1401 23.8237 68.1637 24.1198 68.1506 24.4154C68.1406 24.5626 68.1388 24.7028 68.1211 24.8552C68.1011 25.0086 68.0453 25.1552 67.9583 25.2832C67.9136 25.3492 67.8575 25.4067 67.7926 25.4531C67.7206 25.504 67.6317 25.5251 67.5445 25.5119C67.3904 25.4664 67.2588 25.3649 67.1755 25.2273L67.2742 25.211C67.2412 25.3103 67.194 25.4042 67.1343 25.4901C67.1045 25.539 67.0647 25.581 67.0173 25.6132C66.97 25.6455 66.9163 25.6672 66.8598 25.6769C66.8024 25.676 66.7459 25.663 66.6938 25.6388C66.6418 25.6147 66.5954 25.5798 66.5577 25.5365C66.4881 25.4601 66.4258 25.3773 66.3717 25.2892L66.4782 25.2854C66.4289 25.3824 66.3687 25.4735 66.2986 25.5567C66.2269 25.6523 66.1243 25.7202 66.0083 25.7491C65.9446 25.755 65.8804 25.7434 65.8227 25.7156C65.765 25.6878 65.716 25.6447 65.681 25.5912C65.649 25.5446 65.6197 25.4965 65.5926 25.4484L65.5244 25.3005L65.6665 25.2984C65.6307 25.4067 65.5803 25.5096 65.5166 25.6043C65.4498 25.7153 65.3429 25.7963 65.218 25.8307C65.1511 25.8396 65.083 25.8331 65.0189 25.8118C64.9548 25.7904 64.8964 25.7548 64.8482 25.7075C64.807 25.6657 64.7646 25.6235 64.728 25.5791L64.6281 25.4416L64.7484 25.4877C64.4004 25.6038 64.0367 25.666 63.67 25.6722C63.5631 25.6714 63.4576 25.6485 63.3601 25.6047C63.298 25.5755 63.2449 25.5302 63.2065 25.4734L63.1343 25.3604C63.0238 25.2057 62.9398 25.0337 62.8857 24.8515C62.7998 24.4948 62.7615 24.1283 62.7719 23.7615C62.7697 23.4032 62.798 23.0487 62.8288 22.6956L62.8791 22.8219C62.5028 22.4794 62.1232 22.1395 61.7403 21.8021L60.5922 20.7924C60.2087 20.4567 59.82 20.1276 59.4261 19.8051C59.2298 19.6432 59.0314 19.4839 58.8271 19.3333C58.725 19.258 58.6207 19.186 58.5141 19.1189C58.4615 19.085 58.4068 19.0546 58.3502 19.0278C58.2986 19.0044 58.2242 18.9763 58.1975 19.0084L58.1952 19.0112C58.1924 19.0146 58.1884 19.0168 58.184 19.0174C58.1796 19.0179 58.1752 19.0169 58.1716 19.0143C58.168 19.0118 58.1655 19.008 58.1646 19.0037C58.1636 18.9994 58.1644 18.9949 58.1666 18.9911V18.9911Z" fill="#434144"/>
<path d="M58.1621 18.9224C58.4095 18.6439 58.6803 18.3871 58.9715 18.1548C59.1161 18.039 59.2616 17.9244 59.4129 17.817C59.5621 17.7068 59.72 17.608 59.8788 17.5076C59.6441 17.7983 59.3773 18.0614 59.0833 18.2919C58.7965 18.5303 58.4881 18.7413 58.1621 18.9224ZM67.4601 22.9638C67.3536 22.9509 67.3241 23.0698 67.3045 23.1534C67.2867 23.2469 67.275 23.3414 67.2694 23.4364C67.2563 23.6276 67.2571 23.8224 67.2554 24.0165L67.2514 24.6027C67.2467 24.7989 67.2428 24.9961 67.221 25.1952C67.1246 24.8094 67.0767 24.4131 67.0785 24.0155C67.0781 23.8149 67.0964 23.6148 67.1331 23.4176C67.1522 23.317 67.1824 23.2187 67.2231 23.1246C67.247 23.077 67.2774 23.033 67.3134 22.9937C67.3304 22.9723 67.3544 22.9575 67.3813 22.952C67.4081 22.9465 67.436 22.9507 67.4601 22.9638ZM66.3444 23.225C66.4201 23.5579 66.463 23.8973 66.4727 24.2385C66.4902 24.5794 66.4739 24.9212 66.4241 25.2589C66.3481 24.9262 66.3051 24.5867 66.2958 24.2455C66.2788 23.9045 66.2951 23.5628 66.3444 23.225ZM64.6759 24.6989C64.7001 24.6945 64.7308 24.6901 64.7615 24.6835C64.7527 24.9161 64.744 25.1508 64.7308 25.3856C64.7304 25.3888 64.7289 25.3917 64.7264 25.3937C64.7239 25.3958 64.7208 25.3968 64.7176 25.3965C64.715 25.3962 64.7126 25.3949 64.711 25.3928C64.7094 25.3908 64.7086 25.3882 64.7088 25.3856C64.6957 25.1574 64.6847 24.9292 64.6759 24.6989Z" fill="#434144"/>
<path d="M67.2462 23.218C67.2469 23.2194 67.2472 23.221 67.2472 23.2225C67.2473 23.2241 67.2469 23.2257 67.2463 23.2271C67.2457 23.2285 67.2448 23.2298 67.2436 23.2309C67.2425 23.232 67.2411 23.2328 67.2397 23.2333C67.2378 23.2342 67.2358 23.2344 67.2338 23.234C67.2319 23.2336 67.2301 23.2326 67.2287 23.2311C67.1622 23.1644 67.0895 23.1041 67.0115 23.0512C66.9473 23.0069 66.87 22.9853 66.7921 22.9898C66.7195 23.0041 66.653 23.04 66.6013 23.0929C66.5411 23.1485 66.4887 23.212 66.4455 23.2816L66.4389 23.2904C66.4314 23.303 66.4214 23.314 66.4095 23.3227C66.3977 23.3315 66.3842 23.3377 66.3699 23.3412C66.3556 23.3447 66.3408 23.3453 66.3263 23.343C66.3118 23.3406 66.2978 23.3354 66.2853 23.3277C66.2712 23.3197 66.2591 23.3083 66.2502 23.2947C66.2112 23.2235 66.1579 23.1611 66.0938 23.1113C66.0296 23.0614 65.9559 23.0253 65.8773 23.0052C65.7908 23.0039 65.7057 23.0266 65.6314 23.0707C65.557 23.1149 65.4963 23.1787 65.4561 23.2552C65.4519 23.262 65.4458 23.2674 65.4385 23.2706C65.4352 23.2726 65.4313 23.2734 65.4275 23.2728C65.4258 23.2726 65.4243 23.2718 65.4231 23.2706C65.4193 23.2712 65.4154 23.2704 65.4122 23.2684C65.4067 23.2652 65.4022 23.2607 65.399 23.2552C65.3444 23.1411 65.2533 23.0485 65.1401 22.992C65.0953 22.9764 65.0466 22.9758 65.0014 22.9905C64.9562 23.0052 64.9171 23.0342 64.89 23.0732C64.8563 23.1122 64.8309 23.1578 64.8154 23.207C64.8077 23.2329 64.8019 23.2593 64.7979 23.286V23.3847L64.7891 23.7554C64.7584 23.7576 64.7299 23.7598 64.7013 23.7598C64.6816 23.7598 64.6618 23.762 64.6421 23.762L64.6311 23.3847L64.6289 23.2838C64.6285 23.2441 64.6315 23.2045 64.6377 23.1653C64.6538 23.0842 64.6891 23.0082 64.7408 22.9437C64.7973 22.877 64.8746 22.8314 64.9602 22.8143C65.0037 22.8072 65.0482 22.8092 65.0908 22.8201C65.1335 22.8311 65.1734 22.8507 65.2081 22.8779C65.3006 22.9616 65.3752 23.0631 65.4275 23.1763C65.4718 23.1054 65.524 23.0399 65.5833 22.981C65.6608 22.8978 65.7662 22.8463 65.8795 22.8362C65.9965 22.8307 66.1119 22.8656 66.2063 22.9349C66.2502 22.9679 66.2919 23.003 66.3314 23.038C66.3687 22.9935 66.4106 22.9531 66.4565 22.9174C66.5499 22.8399 66.6686 22.7993 66.7899 22.8033C66.8478 22.8074 66.9042 22.8231 66.9558 22.8495C67.0075 22.8759 67.0533 22.9124 67.0905 22.9569C67.1594 23.0326 67.2123 23.1214 67.2462 23.218Z" fill="#434144"/>
<path d="M65.5558 23.7357C65.501 23.7335 65.4461 23.7313 65.3869 23.7313C65.3884 23.577 65.4009 23.4231 65.4242 23.2706C65.4246 23.2595 65.426 23.2485 65.4286 23.2377C65.433 23.2486 65.4352 23.2596 65.4396 23.2706C65.4889 23.4228 65.5277 23.5782 65.5558 23.7357ZM65.5953 25.2736C65.512 25.0229 65.4561 24.764 65.4286 24.5013C65.4988 24.475 65.5668 24.4465 65.6304 24.4158C65.6515 24.7021 65.6397 24.9899 65.5953 25.2736ZM54.8738 36.0807L54.7246 35.3786C54.7246 35.3786 57.1774 32.577 64.7199 30.7605L65.1499 30.6947C65.4476 30.8868 65.7347 31.0947 66.01 31.3178C65.5076 31.4011 65.003 31.4977 64.5006 31.5876C64.0025 31.7039 63.5002 31.8136 63.0043 31.9386L62.265 32.147L61.8942 32.2524L61.53 32.373L61.0869 32.52C61.0641 32.5101 61.0387 32.5078 61.0145 32.5134C60.9996 32.5172 60.9857 32.524 60.9736 32.5334C60.9615 32.5429 60.9515 32.5547 60.9443 32.5682L60.7995 32.6166C60.5581 32.7021 60.3212 32.7964 60.0799 32.8864C59.4546 33.1387 58.8359 33.4129 58.2326 33.7156C58.1712 33.5226 58.1163 33.3274 58.0725 33.1277C58.0874 33.3372 58.1167 33.5454 58.1602 33.7508C57.8728 33.8978 57.5854 34.0514 57.3068 34.2159L56.653 34.6218C56.4446 34.7709 56.2252 34.9048 56.0234 35.0627C55.6077 35.3635 55.2227 35.7045 54.8738 36.0807Z" fill="#434144"/>
<path d="M87.5253 48.5552C87.5253 48.5552 87.4397 46.9405 73.1575 53.0615C73.1575 53.0615 69.5179 49.639 69.3335 41.0061C69.3204 40.4005 69.3401 39.795 69.3708 39.1917C69.4113 38.277 69.3317 37.3609 69.1339 36.4669C69.0769 36.5261 69.0198 36.5897 68.9584 36.649C68.8955 36.7052 68.8296 36.7579 68.7609 36.8069C68.6231 36.9079 68.4726 36.9905 68.3134 37.0527C68.1485 37.109 67.9763 37.1415 67.8022 37.1492C67.6238 37.1573 67.4453 37.1327 67.2757 37.0768C67.263 37.072 67.2517 37.064 67.2428 37.0537C67.234 37.0433 67.228 37.0309 67.2252 37.0176L67.223 37.0088C67.1588 36.6781 67.0753 36.3513 66.9729 36.0303C66.8764 35.7078 66.7645 35.3875 66.6548 35.0672L66.306 34.1084L65.9462 33.1563L65.944 33.1497C65.9379 33.1334 65.9384 33.1154 65.9454 33.0995C65.9523 33.0835 65.9652 33.0709 65.9813 33.0642H65.9835C66.2029 32.9852 66.4222 32.9062 66.6438 32.836C66.8654 32.7614 67.087 32.6868 67.3108 32.6188C66.9225 32.1413 66.4858 31.7053 66.0076 31.3178L64.5158 31.6711C64.0243 31.8049 63.5285 31.9277 63.0371 32.0703C62.4096 32.2612 61.7822 32.4542 61.1635 32.6693C61.1833 32.7504 61.2205 32.8953 61.2732 33.0971C61.2797 33.1253 61.2752 33.1549 61.2605 33.1798C61.2458 33.2047 61.222 33.223 61.1942 33.2309C61.1849 33.2333 61.1753 33.2348 61.1657 33.2353C61.1413 33.2354 61.1176 33.2272 61.0984 33.212C61.0793 33.1969 61.0659 33.1757 61.0604 33.1519C61.0121 32.9632 60.977 32.825 60.9551 32.7416C60.6831 32.8382 60.411 32.9413 60.1433 33.051C59.5115 33.2967 58.8899 33.568 58.2785 33.8649C58.2895 33.8956 58.2983 33.9286 58.3093 33.9593C58.4022 34.2299 58.5136 34.4937 58.6427 34.7491C58.8956 35.2574 59.2265 35.723 59.6234 36.129C59.8217 36.3298 60.0367 36.5133 60.2662 36.6775C60.5026 36.8335 60.7513 36.97 61.0099 37.0856C61.5362 37.314 62.0913 37.469 62.6597 37.5463C62.5939 37.5441 62.5259 37.5397 62.4601 37.5353C62.4695 37.548 62.4769 37.562 62.482 37.577L62.6224 38.0728C62.6267 38.0865 62.6281 38.1009 62.6266 38.1151C62.6251 38.1294 62.6207 38.1432 62.6138 38.1557C62.6068 38.1682 62.5974 38.1792 62.586 38.1879C62.5747 38.1967 62.5617 38.2031 62.5479 38.2067C62.538 38.2103 62.5276 38.2118 62.5171 38.2111C62.4935 38.2107 62.4705 38.2029 62.4516 38.1887C62.4327 38.1745 62.4188 38.1547 62.4118 38.132L62.2714 37.6362C62.2659 37.6169 62.2658 37.5964 62.2712 37.577C62.2766 37.5577 62.2873 37.5402 62.3021 37.5265C62.278 37.5243 62.2517 37.5243 62.2254 37.5221C62.0795 37.5199 61.9341 37.5045 61.791 37.4761C61.5016 37.4262 61.2179 37.3476 60.9441 37.2413C60.6669 37.1389 60.4014 37.0073 60.1521 36.8487C59.4119 36.3493 58.8344 35.6437 58.4914 34.8193C58.3663 34.5246 58.2658 34.2201 58.1908 33.9088C57.9143 34.0448 57.6423 34.1852 57.3725 34.3344L56.7121 34.7183C56.4993 34.8566 56.2777 34.9839 56.0715 35.1352C55.6441 35.4141 55.2425 35.7305 54.8714 36.0808C55.3014 36.9079 55.7095 37.7437 56.1132 38.584C56.5147 39.4242 56.9008 40.2711 57.2891 41.118C57.3615 41.2803 57.4339 41.4426 57.5063 41.605C57.5238 41.6072 58.1403 43.0354 58.4124 43.676C58.7766 44.5317 59.1342 45.3916 59.472 46.2604C59.472 46.2604 64.8273 61.3916 72.4774 61.7317C72.4774 61.7317 76.558 61.3917 87.5252 57.0565C87.5252 57.0565 88.7999 49.5753 87.5253 48.5552ZM61.3193 34.1545C61.271 33.9724 61.2271 33.8057 61.1876 33.6543C61.1811 33.6261 61.1857 33.5965 61.2004 33.5716C61.2151 33.5467 61.2388 33.5284 61.2666 33.5205C61.2806 33.5168 61.2952 33.5159 61.3095 33.5179C61.3238 33.5199 61.3376 33.5247 61.35 33.532C61.3625 33.5394 61.3734 33.5491 61.382 33.5607C61.3907 33.5723 61.3969 33.5855 61.4005 33.5995C61.4399 33.7508 61.4838 33.9176 61.5321 34.0975C61.5358 34.1115 61.5367 34.126 61.5347 34.1404C61.5327 34.1547 61.5279 34.1685 61.5206 34.1809C61.5132 34.1933 61.5035 34.2042 61.4919 34.2129C61.4803 34.2215 61.4671 34.2278 61.4531 34.2313C61.4438 34.2338 61.4342 34.2353 61.4246 34.2357C61.4006 34.2355 61.3773 34.2275 61.3583 34.2128C61.3392 34.1982 61.3255 34.1777 61.3193 34.1545ZM61.5847 35.1528L61.4509 34.6525C61.4437 34.6243 61.448 34.5944 61.4628 34.5693C61.4776 34.5442 61.5017 34.5261 61.5299 34.5188C61.5581 34.5115 61.5881 34.5158 61.6132 34.5306C61.6382 34.5453 61.6564 34.5695 61.6637 34.5977L61.7954 35.0935C61.7995 35.1075 61.8008 35.1222 61.7992 35.1367C61.7976 35.1511 61.793 35.1651 61.7859 35.1778C61.7787 35.1905 61.769 35.2016 61.7575 35.2105C61.7459 35.2194 61.7327 35.2259 61.7186 35.2295C61.7092 35.2314 61.6996 35.2322 61.6901 35.2317C61.6663 35.232 61.643 35.2244 61.624 35.2101C61.6049 35.1959 61.5911 35.1757 61.5847 35.1528H61.5847ZM61.7186 35.6485C61.7114 35.6206 61.7155 35.591 61.7298 35.566C61.7441 35.5411 61.7677 35.5227 61.7954 35.5147C61.8236 35.5076 61.8534 35.5115 61.8788 35.5258C61.9041 35.5402 61.923 35.5637 61.9314 35.5915L62.0652 36.0808L61.8546 36.1466L61.7186 35.6485ZM62.2671 37.2172C62.257 37.2197 62.2467 37.2212 62.2363 37.2216C62.2123 37.2214 62.189 37.2134 62.17 37.1987C62.151 37.184 62.1373 37.1636 62.131 37.1404L61.9928 36.6446C61.9888 36.6306 61.9876 36.616 61.9893 36.6015C61.991 36.5871 61.9955 36.5731 62.0027 36.5605C62.0098 36.5478 62.0194 36.5367 62.0309 36.5278C62.0424 36.5189 62.0556 36.5123 62.0696 36.5086C62.0834 36.5047 62.0979 36.5036 62.1122 36.5053C62.1264 36.5071 62.1402 36.5117 62.1527 36.5188C62.1651 36.526 62.176 36.5355 62.1848 36.5469C62.1935 36.5584 62.1998 36.5714 62.2034 36.5853L62.3416 37.0812C62.3497 37.1091 62.3464 37.1391 62.3324 37.1646C62.3185 37.1901 62.2949 37.209 62.267 37.2172H62.2671ZM62.8045 39.2004C62.7807 39.2007 62.7575 39.1931 62.7385 39.1788C62.7194 39.1646 62.7056 39.1444 62.6992 39.1215L62.5545 38.6278C62.5468 38.5999 62.5504 38.5702 62.5643 38.5448C62.5782 38.5194 62.6014 38.5004 62.629 38.4918C62.6428 38.4874 62.6574 38.4859 62.6718 38.4873C62.6863 38.4887 62.7003 38.4931 62.713 38.5C62.7257 38.507 62.7369 38.5165 62.7458 38.5279C62.7548 38.5393 62.7613 38.5524 62.7651 38.5664L62.9098 39.06C62.914 39.0739 62.9153 39.0884 62.9138 39.1027C62.9123 39.1171 62.9079 39.131 62.901 39.1437C62.8941 39.1563 62.8847 39.1675 62.8734 39.1765C62.8621 39.1855 62.8491 39.1921 62.8353 39.1961C62.8254 39.1995 62.815 39.201 62.8045 39.2004ZM63.0963 40.1877C63.073 40.1874 63.0503 40.1798 63.0315 40.1661C63.0126 40.1523 62.9985 40.133 62.991 40.1109L62.844 39.6173C62.8397 39.6034 62.8382 39.5889 62.8396 39.5744C62.8409 39.56 62.8451 39.5459 62.852 39.5331C62.8588 39.5203 62.868 39.5089 62.8793 39.4997C62.8905 39.4905 62.9034 39.4836 62.9173 39.4794C62.9312 39.4752 62.9458 39.4738 62.9602 39.4753C62.9746 39.4767 62.9887 39.481 63.0014 39.4879C63.0142 39.4949 63.0255 39.5042 63.0346 39.5155C63.0437 39.5268 63.0505 39.5397 63.0546 39.5537L63.2016 40.0473C63.2099 40.0749 63.2069 40.1047 63.1934 40.1302C63.1798 40.1556 63.1568 40.1747 63.1292 40.1833C63.1187 40.1869 63.1075 40.1884 63.0963 40.1877L63.0963 40.1877ZM63.3947 41.1728C63.3714 41.1732 63.3487 41.1658 63.33 41.1519C63.3114 41.138 63.2979 41.1184 63.2916 41.096L63.1402 40.6045C63.1358 40.5907 63.1342 40.5761 63.1354 40.5616C63.1367 40.5472 63.1408 40.5331 63.1475 40.5202C63.1542 40.5073 63.1634 40.4959 63.1746 40.4865C63.1857 40.4772 63.1986 40.4702 63.2124 40.4659C63.2263 40.4615 63.2409 40.46 63.2554 40.4613C63.2698 40.4626 63.2839 40.4668 63.2968 40.4735C63.3096 40.4803 63.321 40.4895 63.3303 40.5007C63.3396 40.5119 63.3465 40.5248 63.3508 40.5387L63.5 41.0323C63.5083 41.06 63.5053 41.0898 63.4918 41.1152C63.4782 41.1407 63.4552 41.1598 63.4276 41.1684C63.417 41.172 63.4058 41.1735 63.3947 41.1728V41.1728ZM63.6997 42.1578C63.6765 42.1578 63.654 42.1503 63.6354 42.1365C63.6169 42.1226 63.6032 42.1032 63.5966 42.081L63.443 41.5896C63.4383 41.5758 63.4364 41.5612 63.4375 41.5466C63.4386 41.5321 63.4427 41.5179 63.4495 41.505C63.4563 41.492 63.4656 41.4806 63.4769 41.4714C63.4883 41.4622 63.5013 41.4554 63.5154 41.4514C63.543 41.4431 63.5728 41.4461 63.5983 41.4596C63.6237 41.4732 63.6428 41.4962 63.6514 41.5238L63.805 42.0152C63.8093 42.0289 63.8109 42.0433 63.8095 42.0576C63.8082 42.0719 63.8041 42.0858 63.7973 42.0984C63.7906 42.1111 63.7814 42.1223 63.7703 42.1314C63.7591 42.1404 63.7463 42.1472 63.7326 42.1512C63.7221 42.1555 63.7109 42.1578 63.6997 42.1578L63.6997 42.1578ZM64.0134 43.1385C63.9899 43.1385 63.9671 43.131 63.9482 43.1172C63.9293 43.1034 63.9152 43.084 63.9081 43.0617C63.8554 42.8993 63.8028 42.7348 63.7501 42.5725C63.7456 42.5586 63.744 42.5441 63.7452 42.5296C63.7464 42.5151 63.7505 42.501 63.7573 42.4882C63.764 42.4753 63.7733 42.4639 63.7845 42.4546C63.7957 42.4454 63.8086 42.4385 63.8225 42.4343C63.8502 42.4258 63.88 42.4284 63.9058 42.4415C63.9315 42.4546 63.9512 42.4771 63.9607 42.5044C64.0112 42.669 64.0638 42.8314 64.1165 42.9937C64.1212 43.0073 64.1231 43.0218 64.1221 43.0362C64.121 43.0507 64.1171 43.0647 64.1106 43.0776C64.1041 43.0905 64.095 43.102 64.0839 43.1113C64.0729 43.1206 64.0601 43.1276 64.0463 43.1319C64.0358 43.1362 64.0247 43.1384 64.0134 43.1385V43.1385ZM64.3315 44.1148C64.3083 44.1149 64.2857 44.1078 64.2668 44.0944C64.2479 44.081 64.2337 44.062 64.2262 44.0402L64.066 43.5509C64.0571 43.5233 64.0596 43.4933 64.0728 43.4675C64.0859 43.4417 64.1088 43.4222 64.1364 43.4132C64.1639 43.4042 64.1939 43.4065 64.2198 43.4195C64.2457 43.4326 64.2653 43.4554 64.2744 43.4829L64.4346 43.97C64.4394 43.9837 64.4414 43.9981 64.4404 44.0126C64.4394 44.0271 64.4356 44.0412 64.429 44.0541C64.4225 44.067 64.4133 44.0784 64.4022 44.0877C64.3911 44.097 64.3783 44.104 64.3644 44.1082C64.354 44.1125 64.3428 44.1147 64.3315 44.1148V44.1148ZM64.6606 45.0932C64.6374 45.0934 64.6148 45.0863 64.5959 45.0729C64.577 45.0595 64.5628 45.0405 64.5553 45.0186C64.5004 44.8563 64.4456 44.6918 64.3907 44.5294C64.3858 44.5158 64.3836 44.5013 64.3844 44.4868C64.3851 44.4724 64.3887 44.4582 64.395 44.4451C64.4012 44.4321 64.41 44.4204 64.4209 44.4108C64.4317 44.4012 64.4444 44.3939 64.4581 44.3892C64.4718 44.3845 64.4863 44.3826 64.5007 44.3837C64.5152 44.3847 64.5293 44.3885 64.5422 44.3951C64.5551 44.4016 64.5666 44.4106 64.576 44.4216C64.5854 44.4326 64.5925 44.4454 64.597 44.4592C64.6518 44.6216 64.7088 44.7839 64.7637 44.9485C64.7689 44.9649 64.7703 44.9823 64.7676 44.9994C64.7649 45.0164 64.7583 45.0326 64.7483 45.0466C64.7383 45.0607 64.7252 45.0722 64.7099 45.0803C64.6947 45.0884 64.6778 45.0928 64.6606 45.0932ZM64.9962 46.0651C64.9737 46.0649 64.9518 46.0579 64.9334 46.045C64.915 46.0321 64.901 46.0138 64.8931 45.9927C64.8361 45.8304 64.779 45.6681 64.7242 45.5057C64.7192 45.4921 64.7169 45.4776 64.7175 45.4632C64.7182 45.4487 64.7217 45.4345 64.7278 45.4213C64.734 45.4082 64.7427 45.3965 64.7535 45.3868C64.7643 45.377 64.7768 45.3696 64.7905 45.3648C64.8042 45.36 64.8187 45.3579 64.8332 45.3588C64.8476 45.3596 64.8618 45.3634 64.8748 45.3697C64.8878 45.3761 64.8994 45.385 64.909 45.3959C64.9185 45.4068 64.9258 45.4195 64.9304 45.4333C64.9875 45.5956 65.0423 45.758 65.0993 45.9181C65.1044 45.9317 65.1068 45.9461 65.1062 45.9605C65.1057 45.975 65.1022 45.9892 65.0961 46.0023C65.09 46.0153 65.0813 46.0271 65.0705 46.0367C65.0598 46.0464 65.0472 46.0538 65.0335 46.0586C65.0216 46.0629 65.0089 46.0651 64.9962 46.0651V46.0651ZM65.3429 47.0348C65.3205 47.0343 65.2987 47.0272 65.2803 47.0143C65.262 47.0014 65.2478 46.9834 65.2398 46.9624C65.1827 46.8023 65.1235 46.6399 65.0664 46.4776C65.0615 46.4641 65.0592 46.4497 65.0598 46.4353C65.0604 46.4208 65.0639 46.4067 65.07 46.3936C65.0761 46.3806 65.0848 46.3689 65.0955 46.3592C65.1062 46.3495 65.1187 46.342 65.1323 46.3372C65.1596 46.3281 65.1895 46.3299 65.2156 46.3421C65.2417 46.3543 65.2621 46.3761 65.2727 46.403C65.3297 46.5653 65.3889 46.7277 65.446 46.8878C65.451 46.9014 65.4532 46.9157 65.4526 46.9302C65.452 46.9446 65.4486 46.9587 65.4424 46.9718C65.4363 46.9849 65.4276 46.9966 65.417 47.0063C65.4063 47.016 65.3938 47.0234 65.3802 47.0283C65.3683 47.0328 65.3556 47.035 65.3429 47.0348V47.0348ZM65.7027 48.0001C65.6804 48.0001 65.6587 47.9934 65.6403 47.9809C65.6219 47.9683 65.6077 47.9506 65.5995 47.9299C65.5403 47.7698 65.4789 47.6074 65.4197 47.4473C65.4145 47.4337 65.412 47.4193 65.4123 47.4048C65.4127 47.3903 65.416 47.376 65.4219 47.3628C65.4278 47.3495 65.4362 47.3376 65.4468 47.3276C65.4573 47.3176 65.4697 47.3098 65.4833 47.3047C65.4968 47.2996 65.5112 47.2972 65.5257 47.2978C65.5401 47.2983 65.5543 47.3018 65.5674 47.3079C65.5805 47.3141 65.5922 47.3228 65.6019 47.3335C65.6116 47.3443 65.619 47.3568 65.6237 47.3705C65.6851 47.5307 65.7444 47.6908 65.8058 47.851C65.8153 47.8783 65.814 47.9084 65.8022 47.9348C65.7904 47.9613 65.7689 47.9823 65.7422 47.9935C65.7294 47.9979 65.7161 48.0001 65.7027 48.0001V48.0001ZM66.1151 48.9523C66.1024 48.9566 66.0891 48.9588 66.0756 48.9589C66.0536 48.9593 66.0319 48.953 66.0135 48.9409C65.9951 48.9287 65.9808 48.9113 65.9725 48.8909C65.9089 48.7329 65.8475 48.5728 65.7838 48.4104C65.7786 48.3969 65.7761 48.3824 65.7764 48.3679C65.7768 48.3534 65.78 48.3391 65.7859 48.3258C65.7918 48.3125 65.8003 48.3005 65.8108 48.2905C65.8213 48.2805 65.8338 48.2727 65.8473 48.2675C65.8609 48.2623 65.8754 48.2598 65.8899 48.2602C65.9044 48.2606 65.9187 48.2639 65.932 48.2698C65.9452 48.2758 65.9572 48.2843 65.9672 48.2948C65.9771 48.3054 65.9849 48.3178 65.9901 48.3314C66.0515 48.4916 66.1129 48.6517 66.1765 48.8097C66.1819 48.8231 66.1846 48.8374 66.1845 48.8519C66.1843 48.8663 66.1813 48.8806 66.1756 48.8938C66.1699 48.9071 66.1616 48.9191 66.1512 48.9291C66.1408 48.9392 66.1286 48.947 66.1151 48.9523L66.1151 48.9523ZM66.5056 49.9044C66.4918 49.9105 66.4768 49.9135 66.4618 49.9132C66.4401 49.9133 66.4188 49.9068 66.4008 49.8947C66.3828 49.8826 66.3689 49.8653 66.3608 49.8452C66.295 49.6894 66.2292 49.5293 66.1656 49.3691C66.1547 49.3424 66.1548 49.3124 66.1659 49.2857C66.1771 49.2591 66.1983 49.2379 66.225 49.2269C66.2517 49.2159 66.2817 49.2159 66.3084 49.2269C66.3351 49.238 66.3563 49.2591 66.3674 49.2858C66.4332 49.4459 66.4991 49.6039 66.5649 49.7618C66.5755 49.7886 66.5752 49.8185 66.5642 49.8451C66.5531 49.8718 66.5321 49.893 66.5056 49.9044V49.9044ZM66.9137 50.85C66.8999 50.8561 66.8849 50.8591 66.8698 50.8588C66.8487 50.8589 66.828 50.8529 66.8101 50.8417C66.7922 50.8304 66.7779 50.8143 66.7689 50.7951C66.7009 50.6394 66.6307 50.4814 66.5627 50.3213C66.5511 50.2945 66.5506 50.2643 66.5613 50.2372C66.572 50.2101 66.5931 50.1883 66.6198 50.1767C66.6465 50.1651 66.6768 50.1645 66.7039 50.1752C66.731 50.1858 66.7528 50.2068 66.7645 50.2335C66.8325 50.3937 66.9005 50.5495 66.9685 50.7052C66.9746 50.7183 66.978 50.7325 66.9785 50.7469C66.979 50.7613 66.9767 50.7757 66.9716 50.7891C66.9664 50.8026 66.9587 50.815 66.9488 50.8254C66.9388 50.8359 66.9269 50.8442 66.9137 50.85H66.9137ZM67.3459 51.7846C67.3307 51.7916 67.3143 51.7953 67.2976 51.7956C67.2769 51.795 67.2567 51.7888 67.2393 51.7776C67.2219 51.7664 67.2079 51.7506 67.1989 51.7319C67.1265 51.5806 67.0541 51.4226 66.9817 51.2647C66.9754 51.2517 66.9718 51.2377 66.9711 51.2233C66.9704 51.209 66.9725 51.1946 66.9774 51.1811C66.9824 51.1676 66.9899 51.1553 66.9997 51.1447C67.0095 51.1342 67.0212 51.1257 67.0344 51.1198C67.0476 51.1136 67.0619 51.1101 67.0765 51.1095C67.0911 51.1089 67.1057 51.1112 67.1194 51.1163C67.1331 51.1214 67.1456 51.1292 67.1562 51.1392C67.1669 51.1493 67.1754 51.1613 67.1813 51.1747C67.2515 51.3304 67.324 51.4862 67.3985 51.6376C67.411 51.6641 67.4125 51.6944 67.4026 51.722C67.3927 51.7495 67.3723 51.7721 67.3459 51.7846ZM67.8088 52.706C67.7921 52.7128 67.7742 52.7165 67.7562 52.717C67.7361 52.7171 67.7165 52.7115 67.6995 52.7011C67.6824 52.6906 67.6686 52.6756 67.6596 52.6578C67.5806 52.5086 67.5039 52.355 67.4249 52.1971C67.4185 52.1841 67.4148 52.17 67.4139 52.1556C67.413 52.1412 67.415 52.1268 67.4197 52.1131C67.4243 52.0995 67.4317 52.0869 67.4412 52.0761C67.4508 52.0653 67.4624 52.0564 67.4753 52.0501C67.4883 52.0438 67.5024 52.04 67.5168 52.0391C67.5312 52.0382 67.5456 52.0402 67.5593 52.0449C67.5729 52.0496 67.5855 52.0569 67.5963 52.0664C67.6071 52.076 67.616 52.0876 67.6223 52.1005C67.6991 52.2563 67.7781 52.4077 67.8549 52.5568C67.8683 52.5828 67.871 52.6129 67.8624 52.6409C67.8538 52.6688 67.8345 52.6922 67.8088 52.706ZM68.309 53.6055C68.292 53.614 68.2732 53.6185 68.2542 53.6187C68.2352 53.6191 68.2164 53.6145 68.1998 53.6052C68.1832 53.596 68.1694 53.5824 68.1598 53.5661C68.0743 53.419 67.9887 53.2699 67.9031 53.1141C67.8893 53.0885 67.8861 53.0585 67.8943 53.0305C67.9026 53.0026 67.9216 52.9791 67.9471 52.9652C67.9727 52.9512 68.0027 52.948 68.0307 52.9562C68.0586 52.9643 68.0822 52.9833 68.0962 53.0088C68.1796 53.1624 68.2651 53.3115 68.3485 53.4542C68.3633 53.4795 68.3674 53.5096 68.36 53.538C68.3526 53.5664 68.3343 53.5907 68.309 53.6055L68.309 53.6055ZM68.8662 54.4699C68.8481 54.4823 68.8268 54.4892 68.8048 54.4897C68.787 54.4897 68.7695 54.4853 68.7538 54.4769C68.7381 54.4685 68.7247 54.4563 68.7149 54.4414C68.6183 54.3054 68.524 54.1606 68.4275 54.0092C68.412 53.9844 68.4069 53.9546 68.4133 53.9261C68.4198 53.8977 68.4372 53.8729 68.4618 53.8573C68.4865 53.8416 68.5163 53.8364 68.5448 53.8426C68.5733 53.8489 68.5982 53.8662 68.6139 53.8907C68.7061 54.0399 68.8004 54.1825 68.8948 54.3185C68.9109 54.3424 68.917 54.3717 68.9116 54.4001C68.9063 54.4284 68.89 54.4535 68.8663 54.4699L68.8662 54.4699ZM69.5113 55.2707C69.4896 55.2901 69.4612 55.3003 69.4321 55.2991C69.4029 55.2979 69.3755 55.2853 69.3555 55.2641C69.2458 55.1412 69.1317 55.0075 69.022 54.8626C69.013 54.8513 69.0064 54.8382 69.0024 54.8243C68.9985 54.8103 68.9974 54.7957 68.9992 54.7813C69.0009 54.767 69.0055 54.7531 69.0127 54.7405C69.0199 54.7279 69.0295 54.7168 69.0409 54.708C69.0524 54.6991 69.0655 54.6926 69.0795 54.6889C69.0935 54.6851 69.1081 54.6842 69.1225 54.6861C69.1368 54.6881 69.1507 54.6928 69.1632 54.7002C69.1757 54.7075 69.1866 54.7172 69.1953 54.7288C69.3028 54.867 69.4125 54.9987 69.5178 55.1171C69.5276 55.1276 69.5351 55.1399 69.5401 55.1533C69.545 55.1667 69.5473 55.181 69.5466 55.1953C69.546 55.2096 69.5426 55.2236 69.5365 55.2365C69.5304 55.2495 69.5219 55.2611 69.5113 55.2707L69.5113 55.2707ZM70.3032 55.9135C70.2878 55.9382 70.2634 55.9559 70.2351 55.9629C70.2069 55.9699 70.177 55.9655 70.1519 55.9508C70.0013 55.858 69.8595 55.7515 69.7285 55.6327C69.7176 55.6234 69.7087 55.612 69.7022 55.5992C69.6957 55.5864 69.6919 55.5725 69.6909 55.5582C69.6899 55.5439 69.6917 55.5296 69.6962 55.516C69.7008 55.5024 69.708 55.4899 69.7175 55.4791C69.7367 55.4571 69.7639 55.4436 69.7931 55.4415C69.8223 55.4395 69.8511 55.449 69.8732 55.4681C69.995 55.5777 70.1265 55.6761 70.2659 55.7621C70.2783 55.7696 70.2892 55.7795 70.2977 55.7911C70.3063 55.8028 70.3125 55.816 70.316 55.8301C70.3195 55.8441 70.3201 55.8588 70.3179 55.8731C70.3157 55.8874 70.3107 55.9011 70.3032 55.9135H70.3032ZM71.1764 56.2996C71.1698 56.2996 71.1633 56.2974 71.1567 56.2974C70.9829 56.2657 70.8114 56.2224 70.6433 56.168C70.6157 56.1589 70.5928 56.1393 70.5796 56.1134C70.5665 56.0875 70.5641 56.0574 70.5731 56.0298C70.5826 56.0025 70.6023 55.9799 70.628 55.9668C70.6538 55.9537 70.6837 55.9511 70.7113 55.9596C70.87 56.0108 71.032 56.0512 71.1961 56.0802C71.2231 56.0854 71.2471 56.1004 71.2636 56.1224C71.2801 56.1443 71.2879 56.1715 71.2854 56.1989C71.283 56.2262 71.2705 56.2516 71.2503 56.2702C71.2302 56.2888 71.2038 56.2993 71.1764 56.2996ZM72.1988 56.3918H72.1966C72.0145 56.3895 71.8411 56.3808 71.6766 56.3654C71.6621 56.3644 71.648 56.3605 71.6351 56.354C71.6222 56.3475 71.6107 56.3384 71.6013 56.3274C71.5919 56.3163 71.5848 56.3036 71.5804 56.2898C71.576 56.2759 71.5744 56.2614 71.5757 56.247C71.5767 56.2326 71.5807 56.2186 71.5872 56.2058C71.5938 56.193 71.6029 56.1816 71.614 56.1724C71.625 56.1632 71.6378 56.1563 71.6516 56.1522C71.6654 56.148 71.6799 56.1466 71.6942 56.1482C71.8543 56.1614 72.0232 56.1702 72.201 56.1724C72.2298 56.1738 72.257 56.1861 72.277 56.2069C72.2969 56.2277 72.3082 56.2554 72.3085 56.2842C72.3079 56.313 72.2961 56.3403 72.2756 56.3605C72.2551 56.3806 72.2275 56.3918 72.1988 56.3918L72.1988 56.3918ZM73.2365 56.3567C73.0588 56.3698 72.8854 56.3808 72.7165 56.3874H72.7121C72.6834 56.3874 72.6558 56.3761 72.6353 56.356C72.6148 56.3359 72.603 56.3085 72.6024 56.2798C72.6018 56.2511 72.6125 56.2233 72.6322 56.2024C72.6519 56.1815 72.679 56.1691 72.7077 56.168C72.8745 56.1614 73.0434 56.1505 73.2189 56.1373C73.2477 56.1356 73.2759 56.1452 73.2977 56.1641C73.3194 56.183 73.3329 56.2096 73.3352 56.2384C73.3375 56.2671 73.3284 56.2955 73.31 56.3177C73.2915 56.3398 73.2651 56.3538 73.2365 56.3567ZM74.2654 56.2382C74.0921 56.2645 73.921 56.2864 73.752 56.3062H73.7389C73.712 56.3061 73.6861 56.2963 73.6659 56.2785C73.6458 56.2608 73.6327 56.2363 73.6292 56.2097C73.6262 56.1807 73.6346 56.1516 73.6526 56.1287C73.6706 56.1058 73.6968 56.0908 73.7257 56.0868C73.8925 56.0692 74.0614 56.0473 74.2325 56.021C74.2615 56.0174 74.2908 56.0252 74.3142 56.0428C74.3375 56.0604 74.3531 56.0864 74.3576 56.1153C74.3616 56.1438 74.3542 56.1728 74.3369 56.1958C74.3196 56.2188 74.2939 56.2341 74.2654 56.2382L74.2654 56.2382ZM75.2856 56.0648C75.1145 56.0977 74.9433 56.1285 74.7766 56.157C74.7702 56.1588 74.7635 56.1596 74.7568 56.1592C74.7312 56.159 74.7065 56.15 74.6869 56.1335C74.6673 56.1171 74.654 56.0944 74.6493 56.0692C74.6447 56.0405 74.6516 56.0111 74.6684 55.9873C74.6852 55.9635 74.7106 55.9472 74.7393 55.942C74.906 55.9135 75.0749 55.8827 75.2439 55.8498C75.2726 55.8449 75.3021 55.8513 75.3263 55.8677C75.3504 55.884 75.3673 55.9091 75.3733 55.9376C75.3785 55.9661 75.3722 55.9955 75.3558 56.0194C75.3393 56.0432 75.3141 56.0596 75.2856 56.0649L75.2856 56.0648ZM76.2969 55.852C76.128 55.8893 75.9591 55.9267 75.7923 55.9617C75.7844 55.9636 75.7763 55.9643 75.7682 55.9639C75.7411 55.9643 75.7149 55.9545 75.6946 55.9365C75.6744 55.9184 75.6616 55.8935 75.6588 55.8665C75.6561 55.8395 75.6635 55.8125 75.6797 55.7907C75.6959 55.769 75.7196 55.7541 75.7463 55.7489C75.913 55.7138 76.0797 55.6765 76.2465 55.6371C76.2748 55.6308 76.3045 55.6359 76.3291 55.6514C76.3537 55.6668 76.3712 55.6914 76.3778 55.7196C76.3845 55.7479 76.3797 55.7777 76.3646 55.8024C76.3494 55.8272 76.3251 55.8451 76.2969 55.852ZM77.2996 55.6041C77.1306 55.648 76.9639 55.6897 76.7993 55.7314C76.7908 55.7339 76.7819 55.7354 76.773 55.7358C76.7461 55.7358 76.72 55.726 76.6999 55.7081C76.6797 55.6902 76.6667 55.6656 76.6635 55.6388C76.6603 55.6121 76.6669 55.5851 76.6823 55.5629C76.6976 55.5408 76.7205 55.525 76.7467 55.5186C76.9112 55.4769 77.078 55.4352 77.2447 55.3935C77.2585 55.3896 77.273 55.3885 77.2873 55.3903C77.3015 55.392 77.3153 55.3966 77.3278 55.4038C77.3402 55.4109 77.3511 55.4205 77.3599 55.4319C77.3686 55.4433 77.3749 55.4564 77.3785 55.4703C77.3822 55.4843 77.3831 55.4988 77.3811 55.5132C77.3792 55.5275 77.3744 55.5413 77.367 55.5537C77.3597 55.5662 77.3499 55.577 77.3384 55.5857C77.3268 55.5943 77.3136 55.6006 77.2996 55.6041L77.2996 55.6041ZM78.2934 55.3321C78.1289 55.3803 77.9621 55.4264 77.7976 55.4725C77.7882 55.4743 77.7786 55.4751 77.769 55.4747C77.7425 55.4748 77.7168 55.4652 77.6968 55.4477C77.6768 55.4302 77.6639 55.406 77.6604 55.3797C77.6569 55.3534 77.6631 55.3267 77.6779 55.3046C77.6926 55.2825 77.7149 55.2666 77.7405 55.2597C77.9051 55.2158 78.0696 55.1697 78.2342 55.1215C78.248 55.1175 78.2626 55.1162 78.2769 55.1179C78.2913 55.1195 78.3051 55.1239 78.3177 55.131C78.3304 55.138 78.3415 55.1474 78.3504 55.1587C78.3594 55.1701 78.366 55.1831 78.3699 55.197C78.3738 55.2109 78.3749 55.2254 78.3732 55.2397C78.3715 55.2541 78.3669 55.2679 78.3598 55.2805C78.3527 55.293 78.3432 55.3041 78.3318 55.3129C78.3204 55.3218 78.3073 55.3283 78.2934 55.3321L78.2934 55.3321ZM79.2828 55.0403C79.1183 55.0908 78.9538 55.1412 78.7892 55.1895C78.7791 55.192 78.7688 55.1935 78.7585 55.1939C78.7347 55.1942 78.7114 55.1866 78.6924 55.1723C78.6733 55.158 78.6595 55.1378 78.6532 55.1149C78.6491 55.101 78.6477 55.0865 78.6493 55.0722C78.6508 55.0579 78.6552 55.044 78.6621 55.0313C78.669 55.0187 78.6784 55.0075 78.6897 54.9985C78.701 54.9895 78.7139 54.9828 78.7278 54.9789C78.8923 54.9306 79.0547 54.8802 79.2192 54.8319C79.2468 54.8234 79.2767 54.8263 79.3022 54.8399C79.3277 54.8535 79.3468 54.8766 79.3553 54.9043C79.3637 54.9319 79.3608 54.9618 79.3472 54.9873C79.3336 55.0128 79.3105 55.0319 79.2828 55.0403ZM80.2679 54.7288C80.1055 54.7814 79.941 54.8341 79.7786 54.8867C79.7681 54.8903 79.7569 54.8918 79.7457 54.8911C79.7197 54.8914 79.6944 54.8823 79.6744 54.8655C79.6545 54.8488 79.6412 54.8255 79.637 54.7998C79.6327 54.7741 79.6378 54.7477 79.6513 54.7254C79.6649 54.7032 79.6859 54.6865 79.7106 54.6783C79.8752 54.6256 80.0375 54.573 80.2021 54.5203C80.2297 54.5119 80.2596 54.5145 80.2853 54.5276C80.3111 54.5407 80.3308 54.5632 80.3403 54.5906C80.3447 54.6044 80.3464 54.619 80.3452 54.6334C80.3439 54.6479 80.3398 54.662 80.3331 54.6749C80.3264 54.6878 80.3171 54.6992 80.3059 54.7084C80.2947 54.7177 80.2818 54.7246 80.2679 54.7288L80.2679 54.7288ZM81.2464 54.4041L80.7593 54.5687C80.7479 54.5721 80.7361 54.5736 80.7242 54.573C80.698 54.5734 80.6726 54.5645 80.6525 54.5477C80.6324 54.531 80.619 54.5075 80.6148 54.4817C80.6105 54.4559 80.6157 54.4295 80.6293 54.4071C80.643 54.3848 80.6642 54.3682 80.6891 54.3602L81.1761 54.1956C81.2038 54.1863 81.234 54.1881 81.2603 54.2009C81.2866 54.2136 81.3068 54.2362 81.3165 54.2637C81.325 54.2916 81.3225 54.3218 81.3094 54.3479C81.2964 54.374 81.2738 54.3941 81.2464 54.4041L81.2464 54.4041ZM82.2204 54.064C82.0603 54.1211 81.8979 54.1782 81.7334 54.2352C81.7222 54.2395 81.7103 54.2417 81.6983 54.2417C81.6754 54.2418 81.6531 54.2346 81.6346 54.2212C81.616 54.2078 81.6022 54.1889 81.5952 54.1672C81.5902 54.1536 81.5879 54.1392 81.5885 54.1248C81.5891 54.1104 81.5926 54.0963 81.5987 54.0832C81.6049 54.0701 81.6135 54.0584 81.6242 54.0487C81.6349 54.039 81.6474 54.0315 81.661 54.0267C81.8255 53.9719 81.9857 53.9126 82.1458 53.8556C82.1734 53.8462 82.2035 53.8479 82.2298 53.8605C82.256 53.8731 82.2762 53.8956 82.286 53.923C82.2959 53.9504 82.2945 53.9806 82.2822 54.007C82.2699 54.0334 82.2477 54.0538 82.2204 54.064ZM83.1901 53.7108C83.03 53.7701 82.8698 53.8293 82.7053 53.8885C82.6933 53.8928 82.6807 53.8951 82.668 53.8951C82.6454 53.8954 82.6233 53.8885 82.6048 53.8755C82.5863 53.8625 82.5723 53.844 82.5649 53.8227C82.5553 53.7953 82.5568 53.7653 82.5691 53.7391C82.5814 53.7128 82.6035 53.6924 82.6307 53.6823C82.7931 53.6231 82.9554 53.5638 83.1134 53.5046C83.1407 53.4948 83.1708 53.4962 83.1971 53.5085C83.2234 53.5208 83.2438 53.5431 83.2537 53.5704C83.2591 53.5837 83.2616 53.5981 83.2613 53.6124C83.261 53.6268 83.2577 53.641 83.2518 53.6541C83.2459 53.6672 83.2374 53.679 83.2268 53.6888C83.2162 53.6985 83.2037 53.706 83.1902 53.7108L83.1901 53.7108ZM84.1533 53.3466C83.9975 53.4081 83.8352 53.4695 83.6728 53.5309C83.6601 53.5352 83.6467 53.5374 83.6333 53.5375C83.6111 53.5374 83.5893 53.5307 83.571 53.5182C83.5526 53.5057 83.5384 53.488 83.5302 53.4673C83.5207 53.4399 83.5219 53.4099 83.5338 53.3834C83.5456 53.3569 83.5671 53.3359 83.5938 53.3247C83.7584 53.2632 83.9185 53.2018 84.0765 53.1426C84.0899 53.1376 84.1041 53.1352 84.1184 53.1357C84.1327 53.1362 84.1468 53.1394 84.1598 53.1453C84.1729 53.1512 84.1846 53.1597 84.1944 53.1701C84.2042 53.1806 84.2118 53.1928 84.2169 53.2062C84.2219 53.2196 84.2243 53.2339 84.2238 53.2482C84.2233 53.2625 84.2201 53.2766 84.2142 53.2896C84.2082 53.3026 84.1998 53.3144 84.1894 53.3242C84.1789 53.334 84.1667 53.3416 84.1533 53.3466V53.3466ZM85.1142 52.9714C84.9584 53.0329 84.8004 53.0965 84.6359 53.1601C84.6229 53.1664 84.6086 53.1694 84.5942 53.1689C84.5723 53.1689 84.5509 53.1621 84.5328 53.1496C84.5148 53.137 84.501 53.1193 84.4933 53.0987C84.4829 53.0716 84.4835 53.0415 84.495 53.0149C84.5064 52.9882 84.5279 52.9671 84.5547 52.9561C84.7193 52.8925 84.8794 52.8289 85.0352 52.7674C85.062 52.7572 85.0917 52.758 85.118 52.7695C85.1442 52.7809 85.1649 52.8023 85.1756 52.8289C85.1813 52.8422 85.1842 52.8566 85.1841 52.8711C85.1841 52.8856 85.1811 52.9 85.1754 52.9133C85.1696 52.9266 85.1612 52.9387 85.1507 52.9487C85.1402 52.9587 85.1278 52.9664 85.1142 52.9715L85.1142 52.9714ZM86.0729 52.5875C85.9194 52.649 85.7592 52.7148 85.5946 52.7806C85.5815 52.7864 85.5673 52.7894 85.5529 52.7894C85.5277 52.7893 85.5032 52.7804 85.4837 52.7644C85.4642 52.7483 85.4509 52.7259 85.446 52.7011C85.441 52.6763 85.4449 52.6506 85.4568 52.6283C85.4687 52.606 85.4879 52.5885 85.5113 52.5788C85.678 52.5108 85.836 52.4471 85.9895 52.3835C86.0164 52.3731 86.0464 52.3736 86.0729 52.3851C86.0994 52.3965 86.1204 52.4179 86.1313 52.4446C86.1422 52.4713 86.1422 52.5013 86.1313 52.528C86.1204 52.5547 86.0994 52.5761 86.0729 52.5875H86.0729ZM87.0251 52.1905C86.8803 52.2519 86.7201 52.3199 86.549 52.3901C86.5359 52.3961 86.5217 52.3991 86.5073 52.3989C86.4856 52.3988 86.4645 52.3923 86.4465 52.3802C86.4286 52.3681 86.4146 52.3509 86.4064 52.3308C86.4007 52.3176 86.3978 52.3034 86.3977 52.289C86.3976 52.2746 86.4004 52.2604 86.406 52.2471C86.4115 52.2338 86.4196 52.2217 86.4298 52.2116C86.4401 52.2015 86.4523 52.1936 86.4656 52.1883C86.6367 52.118 86.7947 52.05 86.9395 51.9886C86.9666 51.9775 86.9969 51.9775 87.024 51.9885C87.0511 51.9996 87.0728 52.0209 87.0843 52.0478C87.09 52.061 87.0931 52.0753 87.0932 52.0897C87.0933 52.1041 87.0905 52.1184 87.085 52.1318C87.0795 52.1451 87.0713 52.1571 87.061 52.1672C87.0507 52.1773 87.0385 52.1852 87.0251 52.1905L87.0251 52.1905ZM87.975 51.7824C87.8807 51.824 87.7183 51.8943 87.5011 51.9886C87.4874 51.9949 87.4724 51.9979 87.4572 51.9974C87.4318 51.9975 87.4071 51.9888 87.3874 51.9728C87.3677 51.9567 87.3543 51.9342 87.3493 51.9093C87.3444 51.8844 87.3483 51.8585 87.3604 51.8361C87.3725 51.8138 87.392 51.7963 87.4155 51.7868C87.6306 51.6946 87.7929 51.6244 87.8873 51.5827C87.9004 51.5768 87.9146 51.5735 87.929 51.573C87.9434 51.5726 87.9578 51.575 87.9713 51.5802C87.9848 51.5853 87.9971 51.5931 88.0076 51.6031C88.018 51.613 88.0264 51.6249 88.0322 51.6381C88.038 51.6514 88.0411 51.6656 88.0414 51.68C88.0416 51.6945 88.039 51.7088 88.0337 51.7222C88.0284 51.7356 88.0205 51.7479 88.0104 51.7582C88.0003 51.7685 87.9883 51.7767 87.975 51.7824ZM67.3108 32.6188C67.1002 32.7219 66.8874 32.8162 66.6746 32.9128C66.4837 33.0006 66.2928 33.0817 66.0998 33.1629C66.2336 33.4525 66.3674 33.7421 66.4859 34.0383C66.6197 34.3542 66.7426 34.6723 66.8566 34.9948C66.9751 35.3151 67.0804 35.642 67.1769 35.9711C67.2688 36.2842 67.3399 36.603 67.3898 36.9254C67.5223 36.9731 67.6615 36.9998 67.8022 37.0044C67.9629 37.0077 68.1233 36.9878 68.2783 36.9452C68.4353 36.9007 68.5863 36.8374 68.728 36.7565C68.8714 36.6717 69.0072 36.5749 69.1339 36.4669C68.8355 35.0592 68.2111 33.7412 67.3108 32.6188ZM58.2873 43.7308L57.4207 41.831C57.412 41.8266 57.129 41.1903 57.129 41.1903L55.9881 38.641C55.613 37.7898 55.2356 36.9386 54.8715 36.0808C54.8715 36.0808 38.5621 55.0162 29.7207 69.8074C29.7207 69.8074 31.704 71.308 33.7619 72.7077V72.7055L34.0471 72.2777C34.0552 72.2657 34.0657 72.2554 34.0778 72.2475C34.09 72.2395 34.1036 72.2341 34.1179 72.2314C34.1322 72.2288 34.1468 72.229 34.161 72.232C34.1752 72.2351 34.1887 72.2409 34.2006 72.2492C34.2127 72.2571 34.223 72.2673 34.231 72.2793C34.2389 72.2912 34.2444 72.3047 34.2471 72.3188C34.2498 72.333 34.2495 72.3475 34.2465 72.3615C34.2434 72.3756 34.2375 72.3888 34.2292 72.4006L33.9439 72.8284L33.9417 72.8306C35.6837 74.0065 37.4366 75.0771 38.0509 75.0771C38.0509 75.0771 46.9779 60.5404 48.507 58.3312C50.0383 56.1197 58.5374 48.1296 59.472 46.2604C59.0683 45.4223 58.6778 44.5755 58.2873 43.7308ZM34.8018 71.5472L34.5166 71.9728C34.5066 71.9881 34.4929 72.0008 34.4768 72.0096C34.4608 72.0184 34.4427 72.0231 34.4244 72.0232C34.4031 72.023 34.3823 72.0161 34.3652 72.0034C34.353 71.9957 34.3426 71.9856 34.3344 71.9737C34.3263 71.9618 34.3206 71.9484 34.3177 71.9343C34.3149 71.9202 34.3149 71.9056 34.3177 71.8915C34.3206 71.8774 34.3263 71.864 34.3345 71.8521L34.6197 71.4243C34.6362 71.4002 34.6615 71.3835 34.6902 71.3778C34.7189 71.372 34.7487 71.3777 34.7732 71.3936C34.7852 71.4017 34.7955 71.4122 34.8035 71.4244C34.8114 71.4365 34.8169 71.4501 34.8196 71.4644C34.8222 71.4787 34.822 71.4934 34.8189 71.5076C34.8159 71.5218 34.8101 71.5352 34.8018 71.5472ZM35.3766 70.6938L35.0892 71.1194C35.0795 71.1344 35.0662 71.1467 35.0504 71.1551C35.0347 71.1636 35.0171 71.1679 34.9992 71.1676C34.9774 71.1686 34.9558 71.1624 34.9378 71.1501C34.9136 71.134 34.8969 71.1091 34.8911 71.0807C34.8854 71.0523 34.8911 71.0228 34.9071 70.9987L35.1945 70.5709C35.2105 70.5468 35.2354 70.53 35.2638 70.5242C35.2922 70.5185 35.3217 70.5242 35.3459 70.5401C35.37 70.5567 35.3867 70.582 35.3924 70.6107C35.3981 70.6394 35.3924 70.6692 35.3765 70.6938H35.3766ZM35.9492 69.8403L35.6618 70.2659C35.6519 70.2808 35.6386 70.293 35.6229 70.3014C35.6072 70.3098 35.5896 70.3142 35.5718 70.3142C35.55 70.3152 35.5284 70.309 35.5104 70.2966C35.4863 70.2801 35.4696 70.2548 35.4639 70.2261C35.4581 70.1974 35.4638 70.1676 35.4797 70.143L35.7671 69.7174C35.7832 69.6934 35.8081 69.6767 35.8364 69.6709C35.8648 69.6652 35.8943 69.6709 35.9184 69.6867C35.9425 69.7033 35.9592 69.7286 35.965 69.7573C35.9707 69.786 35.965 69.8157 35.9492 69.8403L35.9492 69.8403ZM36.5218 68.9847L36.2344 69.4125C36.2245 69.4274 36.2112 69.4395 36.1955 69.448C36.1798 69.4564 36.1622 69.4608 36.1444 69.4608C36.1227 69.4607 36.1015 69.4546 36.083 69.4432C36.0589 69.4266 36.0422 69.4013 36.0365 69.3726C36.0307 69.344 36.0364 69.3142 36.0523 69.2896L36.3397 68.864C36.3475 68.8519 36.3577 68.8415 36.3696 68.8334C36.3815 68.8253 36.3949 68.8196 36.409 68.8167C36.4232 68.8138 36.4377 68.8136 36.4519 68.8164C36.466 68.8191 36.4795 68.8246 36.4915 68.8326C36.5035 68.8405 36.5139 68.8508 36.5219 68.8628C36.5299 68.8748 36.5355 68.8882 36.5383 68.9023C36.5411 68.9165 36.5411 68.931 36.5383 68.9452C36.5354 68.9593 36.5298 68.9727 36.5217 68.9847L36.5218 68.9847ZM37.0944 68.1312L36.807 68.559C36.7991 68.571 36.7888 68.5814 36.7769 68.5893C36.7649 68.5973 36.7515 68.6028 36.7373 68.6054C36.7232 68.6081 36.7087 68.6079 36.6947 68.6048C36.6806 68.6018 36.6673 68.5959 36.6556 68.5876C36.6315 68.5716 36.6147 68.5466 36.6089 68.5183C36.6032 68.4899 36.6089 68.4604 36.6249 68.4362L36.9123 68.0106C36.9201 67.9985 36.9303 67.9881 36.9422 67.98C36.954 67.9719 36.9674 67.9663 36.9815 67.9634C36.9956 67.9606 37.0101 67.9606 37.0243 67.9634C37.0384 67.9662 37.0518 67.9718 37.0637 67.9799C37.0878 67.9959 37.1046 68.0208 37.1103 68.0492C37.1161 68.0776 37.1104 68.1071 37.0944 68.1313L37.0944 68.1312ZM37.667 67.2778L37.3818 67.7057C37.3713 67.7204 37.3575 67.7325 37.3415 67.7409C37.3255 67.7493 37.3077 67.7537 37.2896 67.7539C37.2698 67.7537 37.2505 67.7481 37.2336 67.7377C37.2167 67.7273 37.203 67.7126 37.1938 67.6951C37.1846 67.6776 37.1802 67.6579 37.1813 67.6381C37.1823 67.6184 37.1887 67.5993 37.1997 67.5828L37.4849 67.155C37.5014 67.1313 37.5265 67.115 37.5549 67.1097C37.5833 67.1044 37.6126 67.1104 37.6366 67.1266C37.6605 67.1427 37.6771 67.1677 37.6828 67.196C37.6885 67.2243 37.6828 67.2537 37.667 67.2779V67.2778ZM38.2396 66.4244L37.9544 66.85C37.9444 66.8654 37.9307 66.878 37.9147 66.8868C37.8986 66.8956 37.8806 66.9003 37.8623 66.9005C37.8403 66.9 37.8189 66.8932 37.8008 66.8807C37.7888 66.8728 37.7785 66.8626 37.7705 66.8507C37.7625 66.8387 37.757 66.8252 37.7544 66.8111C37.7517 66.797 37.7519 66.7825 37.755 66.7684C37.7581 66.7544 37.764 66.7411 37.7723 66.7294L38.0575 66.3016C38.074 66.2775 38.0994 66.2608 38.128 66.255C38.1567 66.2493 38.1865 66.255 38.2111 66.2708C38.2231 66.279 38.2334 66.2894 38.2413 66.3016C38.2493 66.3138 38.2547 66.3274 38.2574 66.3417C38.26 66.3559 38.2598 66.3706 38.2568 66.3848C38.2537 66.399 38.2479 66.4125 38.2396 66.4244V66.4244ZM38.8122 65.571L38.527 65.9966C38.5192 66.0088 38.509 66.0193 38.4971 66.0275C38.4852 66.0357 38.4717 66.0414 38.4576 66.0444C38.4434 66.0474 38.4288 66.0475 38.4146 66.0448C38.4004 66.0421 38.3868 66.0366 38.3748 66.0286C38.3627 66.0206 38.3524 66.0103 38.3443 65.9982C38.3363 65.9862 38.3307 65.9727 38.3279 65.9585C38.3251 65.9443 38.3252 65.9297 38.3281 65.9155C38.331 65.9013 38.3367 65.8879 38.3449 65.8759L38.6301 65.4481C38.6467 65.424 38.672 65.4073 38.7007 65.4016C38.7293 65.3959 38.7591 65.4015 38.7837 65.4174C38.7957 65.4255 38.806 65.436 38.8139 65.4482C38.8219 65.4603 38.8273 65.474 38.83 65.4882C38.8326 65.5025 38.8324 65.5172 38.8294 65.5314C38.8263 65.5456 38.8205 65.5591 38.8122 65.571L38.8122 65.571ZM39.387 64.7154L39.0996 65.1431C39.0891 65.1579 39.0753 65.17 39.0593 65.1784C39.0433 65.1868 39.0255 65.1912 39.0075 65.1914C38.9863 65.1921 38.9656 65.1859 38.9482 65.1739C38.9241 65.1573 38.9074 65.132 38.9017 65.1033C38.896 65.0747 38.9016 65.0449 38.9175 65.0203L39.2049 64.5947C39.2209 64.5705 39.2458 64.5537 39.2742 64.548C39.3026 64.5422 39.3322 64.548 39.3563 64.564C39.3805 64.58 39.3973 64.6049 39.403 64.6333C39.4088 64.6617 39.403 64.6912 39.387 64.7154H39.387ZM39.9596 63.8619L39.6722 64.2897C39.6622 64.3044 39.6488 64.3165 39.6331 64.3249C39.6175 64.3333 39.6 64.3378 39.5822 64.338C39.5605 64.3379 39.5393 64.3319 39.5208 64.3204C39.4967 64.3039 39.48 64.2786 39.4743 64.2499C39.4686 64.2212 39.4742 64.1915 39.4901 64.1669L39.7775 63.7413C39.7935 63.7172 39.8185 63.7005 39.8468 63.6948C39.8752 63.6891 39.9046 63.6948 39.9287 63.7108C39.9528 63.7268 39.9696 63.7517 39.9754 63.78C39.9812 63.8083 39.9755 63.8378 39.9596 63.8619V63.8619ZM40.5322 63.0085L40.2448 63.4363C40.235 63.4512 40.2216 63.4634 40.2059 63.4718C40.1902 63.4802 40.1727 63.4846 40.1548 63.4846C40.1328 63.4848 40.1112 63.4779 40.0934 63.4648C40.0693 63.4488 40.0525 63.4239 40.0467 63.3955C40.041 63.3671 40.0467 63.3376 40.0627 63.3135L40.3501 62.8857C40.3666 62.862 40.3917 62.8457 40.4201 62.8404C40.4485 62.8351 40.4778 62.8412 40.5017 62.8573C40.5256 62.8734 40.5422 62.8983 40.548 62.9266C40.5537 62.9549 40.548 62.9843 40.5322 63.0085V63.0085ZM41.1048 62.1551L40.8174 62.5829C40.8095 62.5949 40.7993 62.6052 40.7873 62.6132C40.7754 62.6212 40.7619 62.6267 40.7478 62.6293C40.7337 62.632 40.7191 62.6318 40.7051 62.6287C40.691 62.6256 40.6778 62.6197 40.666 62.6114C40.6419 62.5954 40.6251 62.5704 40.6194 62.5421C40.6136 62.5137 40.6193 62.4842 40.6353 62.46L40.9227 62.0322C40.9307 62.0203 40.9409 62.01 40.9529 62.0021C40.9649 61.9942 40.9783 61.9887 40.9924 61.9861C41.0065 61.9834 41.021 61.9836 41.035 61.9866C41.049 61.9897 41.0623 61.9955 41.0741 62.0037C41.0982 62.0197 41.115 62.0447 41.1208 62.073C41.1265 62.1014 41.1208 62.131 41.1048 62.1551L41.1048 62.1551ZM41.6774 61.3017L41.3922 61.7273C41.3822 61.7426 41.3686 61.7553 41.3525 61.7641C41.3364 61.7729 41.3184 61.7776 41.3001 61.7777C41.278 61.7776 41.2566 61.7707 41.2386 61.758C41.2145 61.742 41.1977 61.717 41.192 61.6886C41.1862 61.6603 41.192 61.6308 41.2079 61.6066L41.4953 61.1788C41.5115 61.1548 41.5364 61.1382 41.5647 61.1324C41.593 61.1267 41.6225 61.1323 41.6467 61.1481C41.6708 61.1646 41.6875 61.19 41.6932 61.2187C41.699 61.2473 41.6933 61.2771 41.6774 61.3017L41.6774 61.3017ZM42.25 60.4482L41.9648 60.8738C41.9547 60.8889 41.941 60.9013 41.9249 60.9097C41.9088 60.9181 41.8909 60.9224 41.8727 60.9221C41.8509 60.9228 41.8294 60.9167 41.8112 60.9046C41.7993 60.8966 41.789 60.8864 41.781 60.8744C41.7731 60.8625 41.7676 60.849 41.7649 60.8349C41.7623 60.8208 41.7625 60.8063 41.7655 60.7923C41.7686 60.7782 41.7744 60.7649 41.7827 60.7532L42.0679 60.3253C42.0759 60.3132 42.0862 60.3027 42.0983 60.2946C42.1103 60.2864 42.1239 60.2807 42.1381 60.2779C42.1524 60.275 42.1671 60.275 42.1814 60.2778C42.1956 60.2807 42.2092 60.2863 42.2213 60.2945C42.2333 60.3026 42.2436 60.3131 42.2516 60.3252C42.2596 60.3374 42.2651 60.351 42.2678 60.3653C42.2705 60.3796 42.2703 60.3943 42.2672 60.4086C42.2642 60.4228 42.2583 60.4363 42.25 60.4482H42.25ZM42.8226 59.5926L42.5374 60.0204C42.5269 60.0352 42.5131 60.0472 42.4971 60.0556C42.4811 60.064 42.4633 60.0685 42.4453 60.0687C42.4236 60.068 42.4025 60.062 42.3838 60.0511C42.3718 60.043 42.3615 60.0325 42.3536 60.0203C42.3456 60.0082 42.3402 59.9946 42.3375 59.9803C42.3349 59.966 42.3351 59.9513 42.3381 59.9371C42.3412 59.9229 42.347 59.9095 42.3553 59.8976L42.6405 59.472C42.6571 59.4478 42.6824 59.4312 42.7111 59.4254C42.7398 59.4197 42.7695 59.4254 42.7941 59.4413C42.8061 59.4491 42.8164 59.4594 42.8244 59.4713C42.8324 59.4833 42.8379 59.4968 42.8406 59.5109C42.8432 59.525 42.843 59.5396 42.8399 59.5536C42.8368 59.5677 42.831 59.5809 42.8226 59.5927L42.8226 59.5926ZM43.3952 58.7392L43.11 59.167C43.0996 59.1818 43.0858 59.1938 43.0697 59.2022C43.0537 59.2106 43.036 59.2151 43.0179 59.2153C42.9969 59.2149 42.9764 59.2088 42.9586 59.1977C42.9465 59.1897 42.9361 59.1793 42.928 59.1672C42.9198 59.1552 42.9142 59.1416 42.9113 59.1273C42.9085 59.1131 42.9085 59.0984 42.9113 59.0841C42.9142 59.0698 42.9198 59.0562 42.9279 59.0441L43.2131 58.6185C43.2297 58.5944 43.255 58.5778 43.2837 58.572C43.3123 58.5663 43.3421 58.5719 43.3667 58.5878C43.3787 58.5957 43.389 58.6059 43.397 58.6179C43.405 58.6299 43.4105 58.6433 43.4132 58.6574C43.4158 58.6716 43.4156 58.6861 43.4125 58.7002C43.4094 58.7142 43.4036 58.7275 43.3952 58.7392V58.7392ZM43.97 57.8858L43.6826 58.3136C43.6726 58.3283 43.6592 58.3403 43.6436 58.3487C43.6279 58.3571 43.6104 58.3616 43.5927 58.3618C43.5706 58.362 43.5491 58.3551 43.5312 58.3421C43.5071 58.326 43.4903 58.3011 43.4846 58.2727C43.4788 58.2444 43.4846 58.2148 43.5005 58.1907L43.7879 57.7629C43.8044 57.7392 43.8296 57.723 43.8579 57.7177C43.8863 57.7124 43.9156 57.7185 43.9395 57.7346C43.9634 57.7508 43.98 57.7757 43.9857 57.8039C43.9915 57.8322 43.9858 57.8616 43.97 57.8858V57.8858ZM44.5426 57.0324L44.2552 57.4602C44.2452 57.4748 44.2318 57.4869 44.2162 57.4953C44.2005 57.5037 44.1831 57.5082 44.1653 57.5084C44.1432 57.5086 44.1217 57.5017 44.1038 57.4887C44.0797 57.4726 44.0629 57.4477 44.0572 57.4193C44.0514 57.391 44.0572 57.3615 44.0731 57.3373L44.3605 56.9095C44.3684 56.8975 44.3787 56.8872 44.3907 56.8793C44.4026 56.8713 44.4161 56.8659 44.4302 56.8632C44.4443 56.8605 44.4588 56.8607 44.4728 56.8638C44.4869 56.8668 44.5002 56.8727 44.5119 56.881C44.536 56.897 44.5528 56.9219 44.5586 56.9503C44.5644 56.9787 44.5586 57.0083 44.5426 57.0324L44.5426 57.0324ZM45.1152 56.1789L44.8278 56.6045C44.8184 56.6197 44.8051 56.6322 44.7893 56.6407C44.7735 56.6491 44.7558 56.6533 44.7379 56.6528C44.716 56.6538 44.6945 56.6476 44.6765 56.6353C44.6524 56.6192 44.6357 56.5942 44.63 56.5659C44.6242 56.5375 44.6299 56.5081 44.6457 56.4839L44.9331 56.056C44.9492 56.032 44.9742 56.0153 45.0025 56.0095C45.0309 56.0038 45.0603 56.0095 45.0845 56.0253C45.1086 56.0419 45.1253 56.0672 45.1311 56.0959C45.1368 56.1246 45.1311 56.1544 45.1152 56.179L45.1152 56.1789ZM45.7646 55.4001L45.4268 55.7884C45.4171 55.8006 45.4048 55.8103 45.3906 55.8168C45.3765 55.8233 45.3611 55.8263 45.3456 55.8257C45.3246 55.826 45.304 55.8202 45.2863 55.809C45.2685 55.7979 45.2544 55.7818 45.2456 55.7628C45.2368 55.7438 45.2337 55.7226 45.2366 55.7018C45.2396 55.6811 45.2485 55.6616 45.2622 55.6458L45.5979 55.2575C45.6168 55.2355 45.6437 55.2218 45.6727 55.2196C45.7016 55.2174 45.7303 55.2267 45.7524 55.2456C45.7745 55.2645 45.7882 55.2913 45.7905 55.3203C45.7927 55.3493 45.7835 55.3779 45.7646 55.4001ZM46.4381 54.6235L46.1003 55.0117C46.0903 55.0235 46.0779 55.033 46.0639 55.0394C46.0498 55.0459 46.0345 55.0492 46.0191 55.0491C45.9926 55.0494 45.9668 55.04 45.9467 55.0227C45.9247 55.0035 45.9112 54.9763 45.9091 54.9471C45.9071 54.9179 45.9166 54.8891 45.9358 54.867L46.2714 54.4786C46.291 54.4571 46.3181 54.444 46.3471 54.4419C46.3761 54.4399 46.4048 54.4491 46.4272 54.4677C46.4492 54.4869 46.4627 54.5141 46.4648 54.5433C46.4668 54.5725 46.4573 54.6014 46.4381 54.6235L46.4381 54.6235ZM47.1117 53.8468L46.7738 54.2351C46.7638 54.2469 46.7514 54.2564 46.7374 54.2628C46.7233 54.2693 46.7081 54.2725 46.6926 54.2724C46.6661 54.2728 46.6404 54.2634 46.6202 54.2461C46.5982 54.2268 46.5847 54.1996 46.5827 54.1705C46.5806 54.1413 46.5902 54.1125 46.6092 54.0903L46.9449 53.702C46.9641 53.6799 46.9913 53.6663 47.0205 53.6643C47.0498 53.6622 47.0786 53.6718 47.1007 53.691C47.1228 53.7102 47.1364 53.7374 47.1384 53.7667C47.1405 53.7959 47.1309 53.8247 47.1117 53.8468ZM47.7852 53.0702L47.4473 53.4585C47.4374 53.4703 47.4249 53.4797 47.4109 53.4862C47.3969 53.4926 47.3816 53.4959 47.3662 53.4958C47.3396 53.4961 47.3139 53.4867 47.2938 53.4694C47.2717 53.4502 47.2582 53.423 47.2562 53.3938C47.2541 53.3646 47.2637 53.3358 47.2828 53.3137L47.6185 52.9253C47.6377 52.9032 47.6649 52.8897 47.6941 52.8876C47.7233 52.8855 47.7521 52.8952 47.7742 52.9144C47.7963 52.9336 47.8099 52.9608 47.812 52.99C47.814 53.0192 47.8044 53.0481 47.7852 53.0702H47.7852ZM48.4587 52.2935L48.1209 52.6818C48.1109 52.6936 48.0984 52.7031 48.0844 52.7095C48.0704 52.7159 48.0551 52.7192 48.0397 52.7191C48.0131 52.7194 47.9874 52.7101 47.9673 52.6928C47.9452 52.6735 47.9317 52.6463 47.9297 52.6171C47.9276 52.588 47.9372 52.5592 47.9563 52.537L48.292 52.1487C48.3112 52.1266 48.3384 52.113 48.3676 52.1109C48.3968 52.1089 48.4257 52.1185 48.4478 52.1377C48.4699 52.1569 48.4835 52.1841 48.4855 52.2134C48.4876 52.2426 48.4779 52.2714 48.4587 52.2935H48.4587ZM49.1322 51.5147L48.7944 51.903C48.7854 51.9143 48.7741 51.9237 48.7613 51.9304C48.7485 51.9372 48.7344 51.9412 48.72 51.9422C48.7056 51.9432 48.6911 51.9413 48.6774 51.9364C48.6638 51.9315 48.6513 51.9239 48.6408 51.914C48.6299 51.9047 48.621 51.8933 48.6145 51.8805C48.6081 51.8677 48.6042 51.8538 48.6032 51.8395C48.6022 51.8252 48.604 51.8108 48.6086 51.7972C48.6132 51.7837 48.6204 51.7711 48.6298 51.7604L48.9655 51.3721C48.9848 51.3501 49.0119 51.3365 49.0411 51.3345C49.0703 51.3324 49.0991 51.342 49.1213 51.3611C49.1321 51.3704 49.1411 51.3818 49.1475 51.3946C49.154 51.4074 49.1578 51.4214 49.1588 51.4356C49.1599 51.4499 49.158 51.4643 49.1535 51.4779C49.1489 51.4914 49.1417 51.504 49.1322 51.5147V51.5147ZM49.8058 50.738L49.4679 51.1263C49.4589 51.1377 49.4476 51.147 49.4348 51.1538C49.422 51.1605 49.408 51.1645 49.3935 51.1656C49.3791 51.1666 49.3646 51.1646 49.351 51.1598C49.3373 51.1549 49.3249 51.1473 49.3143 51.1373C49.3035 51.128 49.2945 51.1166 49.2881 51.1039C49.2816 51.0911 49.2778 51.0771 49.2768 51.0628C49.2757 51.0486 49.2776 51.0342 49.2821 51.0206C49.2867 51.0071 49.2939 50.9945 49.3034 50.9838L49.639 50.5954C49.6583 50.5734 49.6855 50.5599 49.7147 50.5579C49.7438 50.5558 49.7726 50.5654 49.7948 50.5845C49.8057 50.5938 49.8146 50.6052 49.8211 50.618C49.8275 50.6307 49.8314 50.6447 49.8324 50.659C49.8334 50.6733 49.8316 50.6876 49.827 50.7012C49.8225 50.7148 49.8152 50.7273 49.8058 50.7381L49.8058 50.738ZM50.4793 49.9614L50.1414 50.3497C50.1318 50.3619 50.1194 50.3716 50.1053 50.3781C50.0912 50.3846 50.0758 50.3876 50.0603 50.387C50.0393 50.3873 50.0187 50.3815 50.0009 50.3704C49.9832 50.3592 49.9691 50.3431 49.9602 50.3241C49.9514 50.3051 49.9483 50.2839 49.9513 50.2632C49.9542 50.2424 49.9631 50.2229 49.9769 50.2071L50.3126 49.8188C50.3318 49.7968 50.359 49.7833 50.3882 49.7812C50.4174 49.7792 50.4462 49.7887 50.4683 49.8078C50.4792 49.8171 50.4881 49.8285 50.4946 49.8413C50.5011 49.8541 50.5049 49.8681 50.5059 49.8824C50.507 49.8967 50.5051 49.911 50.5006 49.9246C50.496 49.9382 50.4888 49.9507 50.4793 49.9615L50.4793 49.9614ZM51.1528 49.1848L50.815 49.5731C50.8053 49.5853 50.7929 49.595 50.7788 49.6014C50.7647 49.6079 50.7493 49.611 50.7338 49.6104C50.7128 49.6107 50.6922 49.6049 50.6745 49.5937C50.6567 49.5825 50.6426 49.5665 50.6338 49.5474C50.625 49.5284 50.6219 49.5073 50.6248 49.4865C50.6278 49.4657 50.6367 49.4463 50.6504 49.4305L50.9861 49.0421C50.9954 49.0312 51.0069 49.0222 51.0197 49.0157C51.0326 49.0091 51.0466 49.0052 51.0609 49.0041C51.0753 49.003 51.0897 49.0047 51.1034 49.0091C51.1171 49.0136 51.1298 49.0207 51.1408 49.0301C51.1517 49.0395 51.1607 49.0509 51.1672 49.0637C51.1738 49.0766 51.1777 49.0906 51.1788 49.1049C51.1799 49.1193 51.1782 49.1338 51.1738 49.1474C51.1693 49.1611 51.1622 49.1738 51.1528 49.1848ZM51.8263 48.4081L51.4885 48.7965C51.4695 48.8181 51.4427 48.8314 51.4139 48.8335C51.3852 48.8355 51.3568 48.8261 51.3349 48.8074C51.3129 48.7881 51.2994 48.7609 51.2973 48.7318C51.2953 48.7026 51.3048 48.6738 51.3239 48.6516L51.6596 48.2633C51.6788 48.2412 51.706 48.2276 51.7352 48.2256C51.7644 48.2235 51.7933 48.2331 51.8154 48.2523C51.8375 48.2716 51.8511 48.2988 51.8531 48.328C51.8552 48.3572 51.8455 48.386 51.8263 48.4081ZM52.4999 47.6315L52.162 48.0198C52.152 48.0316 52.1396 48.041 52.1256 48.0475C52.1115 48.0539 52.0963 48.0572 52.0808 48.0571C52.0543 48.0574 52.0285 48.048 52.0084 48.0307C51.9864 48.0115 51.9729 47.9843 51.9708 47.9551C51.9688 47.9259 51.9783 47.8971 51.9974 47.875L52.3331 47.4866C52.3523 47.4645 52.3795 47.451 52.4087 47.4489C52.438 47.4468 52.4668 47.4565 52.4889 47.4757C52.511 47.4949 52.5246 47.5221 52.5266 47.5513C52.5287 47.5805 52.5191 47.6094 52.4998 47.6315H52.4999ZM53.1734 46.8548L52.8355 47.2431C52.8253 47.2546 52.8128 47.2638 52.7988 47.2702C52.7848 47.2766 52.7697 47.2801 52.7543 47.2804C52.7278 47.2808 52.7021 47.2714 52.682 47.2541C52.6599 47.2349 52.6464 47.2077 52.6444 47.1785C52.6423 47.1493 52.6519 47.1205 52.671 47.0983L53.0067 46.71C53.0259 46.6881 53.0531 46.6746 53.0822 46.6726C53.1113 46.6706 53.1401 46.6802 53.1621 46.6994C53.1842 46.7185 53.1978 46.7457 53.1999 46.7748C53.202 46.8039 53.1925 46.8327 53.1734 46.8548ZM53.8469 46.0782L53.5091 46.4665C53.49 46.4882 53.4633 46.5014 53.4345 46.5035C53.4058 46.5056 53.3774 46.4962 53.3555 46.4775C53.3334 46.4582 53.3199 46.431 53.3179 46.4019C53.3158 46.3727 53.3254 46.3439 53.3445 46.3217L53.6802 45.9334C53.6897 45.9224 53.7012 45.9133 53.7142 45.9068C53.7272 45.9003 53.7414 45.8964 53.7559 45.8953C53.7704 45.8943 53.7849 45.8961 53.7987 45.9007C53.8125 45.9053 53.8253 45.9126 53.8362 45.9221C53.8472 45.9316 53.8562 45.9432 53.8627 45.9562C53.8692 45.9692 53.873 45.9834 53.874 45.9979C53.875 46.0124 53.8731 46.027 53.8685 46.0407C53.8638 46.0545 53.8565 46.0672 53.8469 46.0782H53.8469ZM54.5204 45.2994L54.1826 45.6898C54.172 45.7015 54.1592 45.7108 54.1448 45.7173C54.1305 45.7237 54.1149 45.727 54.0992 45.7271C54.0734 45.7271 54.0485 45.7177 54.029 45.7008C54.007 45.6816 53.9935 45.6544 53.9914 45.6252C53.9894 45.596 53.9989 45.5672 54.018 45.5451L54.3537 45.1568C54.3729 45.1347 54.4001 45.1212 54.4293 45.1192C54.4585 45.1171 54.4873 45.1267 54.5094 45.1458C54.5203 45.1551 54.5293 45.1665 54.5357 45.1793C54.5422 45.1921 54.546 45.206 54.547 45.2203C54.5481 45.2346 54.5462 45.249 54.5417 45.2626C54.5371 45.2762 54.5299 45.2887 54.5204 45.2995V45.2994ZM55.194 44.5227L54.8561 44.9111C54.8463 44.9231 54.8339 44.9329 54.8199 44.9398C54.8058 44.9466 54.7905 44.9503 54.7749 44.9505C54.7616 44.9508 54.7483 44.9484 54.7359 44.9435C54.7234 44.9386 54.7121 44.9313 54.7025 44.922C54.6916 44.9127 54.6827 44.9013 54.6763 44.8885C54.6698 44.8757 54.666 44.8618 54.6649 44.8475C54.6639 44.8332 54.6657 44.8189 54.6703 44.8053C54.6749 44.7917 54.6821 44.7792 54.6915 44.7684L55.0272 44.3801C55.0465 44.3581 55.0737 44.3446 55.1028 44.3425C55.132 44.3405 55.1608 44.35 55.183 44.3691C55.1939 44.3784 55.2028 44.3898 55.2093 44.4026C55.2157 44.4154 55.2196 44.4294 55.2206 44.4437C55.2216 44.458 55.2198 44.4724 55.2152 44.486C55.2106 44.4995 55.2034 44.5121 55.1939 44.5229L55.194 44.5227ZM55.8675 43.7461L55.5296 44.1344C55.5197 44.1462 55.5072 44.1557 55.4932 44.1621C55.4792 44.1686 55.4639 44.1718 55.4484 44.1717C55.4275 44.172 55.4069 44.1662 55.3891 44.155C55.3714 44.1438 55.3573 44.1278 55.3484 44.1087C55.3396 44.0897 55.3365 44.0686 55.3395 44.0478C55.3424 44.027 55.3513 44.0076 55.3651 43.9918L55.7007 43.6034C55.72 43.5814 55.7472 43.5679 55.7764 43.5659C55.8055 43.5638 55.8344 43.5734 55.8565 43.5925C55.8674 43.6018 55.8764 43.6132 55.8828 43.626C55.8893 43.6388 55.8931 43.6527 55.8942 43.667C55.8952 43.6814 55.8933 43.6957 55.8888 43.7093C55.8842 43.7229 55.8769 43.7354 55.8675 43.7462L55.8675 43.7461ZM56.541 42.9694L56.2031 43.3578C56.1929 43.3698 56.1801 43.3794 56.1657 43.3858C56.1513 43.3923 56.1356 43.3954 56.1198 43.395C56.099 43.3949 56.0787 43.3888 56.0613 43.3775C56.0439 43.3662 56.0301 43.3501 56.0215 43.3311C56.013 43.3122 56.01 43.2912 56.0131 43.2706C56.0161 43.2501 56.025 43.2308 56.0386 43.2152L56.3742 42.8268C56.3935 42.8048 56.4207 42.7913 56.4499 42.7892C56.4791 42.7872 56.5079 42.7968 56.53 42.8159C56.5409 42.8252 56.5499 42.8366 56.5563 42.8494C56.5628 42.8622 56.5667 42.8761 56.5677 42.8904C56.5687 42.9047 56.5669 42.9191 56.5623 42.9327C56.5577 42.9463 56.5505 42.9588 56.541 42.9696L56.541 42.9694ZM57.2145 42.1928L56.8767 42.5811C56.8661 42.5928 56.8532 42.6021 56.8389 42.6085C56.8246 42.6149 56.809 42.6183 56.7933 42.6184C56.7725 42.6183 56.7522 42.6122 56.7348 42.6009C56.7174 42.5895 56.7036 42.5734 56.695 42.5545C56.6865 42.5356 56.6835 42.5146 56.6866 42.494C56.6896 42.4734 56.6985 42.4542 56.7121 42.4385L57.0478 42.048C57.0673 42.0264 57.0944 42.0133 57.1235 42.0112C57.1525 42.0092 57.1812 42.0184 57.2035 42.037C57.2256 42.0563 57.2391 42.0835 57.2412 42.1127C57.2433 42.1419 57.2337 42.1708 57.2145 42.1929V42.1928ZM48.9747 24.6751C48.9582 24.6751 48.942 24.6705 48.928 24.6618C48.5801 24.4319 48.1807 24.2918 47.7655 24.254C47.3502 24.2162 46.9321 24.2819 46.5484 24.4452C46.5277 24.4559 46.5035 24.458 46.4812 24.4509C46.4589 24.4439 46.4403 24.4283 46.4294 24.4076C46.4186 24.3868 46.4164 24.3626 46.4233 24.3403C46.4303 24.318 46.4458 24.2993 46.4665 24.2884C46.8765 24.1066 47.326 24.0317 47.7728 24.0707C48.2196 24.1097 48.6493 24.2613 49.0216 24.5114C49.0379 24.5216 49.0505 24.5368 49.0574 24.5547C49.0644 24.5727 49.0652 24.5924 49.0599 24.6109C49.0546 24.6294 49.0434 24.6457 49.0281 24.6573C49.0127 24.6689 48.9939 24.6751 48.9747 24.6751ZM50.2605 31.7777C50.2988 31.316 50.3549 30.8652 50.4008 30.4118C50.453 29.9588 50.4882 29.5071 50.5474 29.0469C50.6217 29.5045 50.6316 29.9703 50.5768 30.4306C50.5328 30.8919 50.4264 31.3451 50.2605 31.7777ZM50.9055 27.1308C50.8981 27.1308 50.8908 27.1299 50.8836 27.1282C50.8609 27.1224 50.8413 27.1078 50.8293 27.0877C50.8173 27.0675 50.8138 27.0434 50.8196 27.0206C51.1039 25.8978 49.9642 24.9409 49.9527 24.9315C49.9346 24.9166 49.9232 24.895 49.921 24.8717C49.9188 24.8483 49.9259 24.825 49.9408 24.8069C49.9558 24.7888 49.9773 24.7774 50.0006 24.7751C50.024 24.7728 50.0473 24.7799 50.0654 24.7948C50.1161 24.8368 51.3028 25.8337 50.9912 27.0639C50.9864 27.083 50.9753 27.1 50.9598 27.1121C50.9443 27.1242 50.9252 27.1308 50.9055 27.1308ZM38.7965 16.7177C38.8956 16.6361 39.0207 16.5928 39.149 16.5958C39.2774 16.5987 39.4004 16.6478 39.4955 16.7339C39.4955 16.7339 39.8916 15.796 42.4725 15.9737C42.4725 15.9737 42.2849 16.6563 42.0558 16.706C41.8267 16.7557 42.7197 17.6652 43.3282 17.4852C43.3282 17.4852 44.7149 18.7912 44.2363 20.4541C43.7645 22.093 43.298 22.6823 42.3077 21.9005C42.2773 21.8762 42.2446 21.8549 42.21 21.8368C41.9443 21.6999 40.7787 21.1436 40.5501 21.7966C40.5026 21.9409 40.5141 22.0983 40.5823 22.2341C40.8904 22.8752 42.1857 25.2015 44.1564 23.7333C44.1564 23.7333 46.497 22.2249 45.4048 20.0918C45.2906 19.8755 45.1494 19.6746 44.9846 19.4938C44.8232 19.3077 44.7015 19.0905 44.6269 18.8557C44.5524 18.6208 44.5266 18.3732 44.5511 18.128C44.5724 17.7815 44.719 17.4545 44.9636 17.2081C45.2022 16.9761 45.5494 16.8202 45.9294 17.2417C46.087 17.4172 46.1962 17.6306 46.2466 17.861C46.282 17.9671 46.2929 18.0798 46.2784 18.1906C46.2639 18.3015 46.2244 18.4076 46.1629 18.501L46.4649 18.8672C46.5294 18.6069 46.6299 18.3569 46.7635 18.1244C46.9932 17.7625 47.0985 17.3355 47.0635 16.9083C46.9984 16.2326 46.6912 15.2694 45.6576 14.2934C45.6576 14.2934 44.1466 12.4148 42.1867 12.8881C40.2267 13.3613 38.646 14.256 38.7965 16.7177Z" fill="#434144"/>
<path d="M42.6922 18.7506C42.3463 18.8441 42.0023 18.9204 41.6645 19.0165C41.4946 19.0611 41.329 19.1165 41.1652 19.1759C40.999 19.2326 40.8431 19.3157 40.7033 19.4221C40.8129 19.2759 40.9577 19.1598 41.1242 19.0846C41.2855 19.0027 41.4548 18.9379 41.6295 18.8912C41.8024 18.8433 41.9785 18.8075 42.1565 18.784C42.3339 18.7584 42.513 18.7473 42.6922 18.7506ZM39.3867 19.4337C39.5256 19.4197 39.6659 19.4392 39.7958 19.4904C39.8643 19.518 39.9261 19.56 39.9769 19.6137C40.0276 19.6673 40.0662 19.7313 40.09 19.8013C40.1233 19.9415 40.1256 20.0873 40.0969 20.2286L40.0338 20.632C39.9789 20.8914 39.9621 21.1574 39.9839 21.4216C39.9891 21.4837 40.0083 21.5438 40.0399 21.5975C40.0715 21.6512 40.1148 21.6971 40.1666 21.7319C40.2855 21.7911 40.4193 21.8136 40.551 21.7966C40.4159 21.8397 40.2704 21.8369 40.1371 21.7885C40.0719 21.7532 40.0155 21.7038 39.972 21.6438C39.9286 21.5839 39.8991 21.5149 39.8858 21.4421C39.8408 21.1663 39.8474 20.8846 39.9054 20.6112L39.9752 20.2105C40.005 20.0858 40.0115 19.9567 39.9944 19.8297C39.9403 19.5803 39.6493 19.459 39.3867 19.4337Z" fill="#434144"/>
<path d="M38.7982 16.7177L39.1163 18.277C39.1764 18.5344 39.2344 18.792 39.303 19.0461C39.3405 19.1719 39.3776 19.298 39.4254 19.419C39.4667 19.5405 39.5228 19.6563 39.5926 19.7639L39.585 19.7568C39.6831 19.8338 39.774 19.9193 39.8569 20.0124C39.8983 20.0591 39.936 20.1091 39.9695 20.1618C40.0063 20.2133 40.0234 20.2763 40.0178 20.3393C40.013 20.2789 39.9881 20.2219 39.9471 20.1772C39.9089 20.1305 39.867 20.0869 39.8218 20.0469C39.731 19.9671 39.6358 19.8924 39.5367 19.8233C39.5338 19.8213 39.5313 19.8189 39.5291 19.8162C39.3713 19.5937 39.2557 19.3441 39.1879 19.0799C39.11 18.8242 39.0464 18.5644 38.9976 18.3016C38.8937 17.779 38.8271 17.2497 38.7982 16.7177ZM41.1468 20.9089C41.2016 20.9366 41.2486 20.9775 41.2834 21.028C41.3183 21.0786 41.3399 21.137 41.3462 21.1981C41.3483 21.262 41.3285 21.3248 41.2901 21.376C41.2717 21.4 41.2509 21.4222 41.228 21.442C41.2032 21.4591 41.1772 21.4738 41.1527 21.4891C41.2306 21.4129 41.2766 21.3099 41.2813 21.2011C41.2789 21.1485 41.2643 21.0972 41.2387 21.0512C41.2128 21.0009 41.182 20.9532 41.1468 20.9089ZM46.1646 18.5009C46.1585 18.63 46.1484 18.7558 46.1489 18.8792C46.1489 18.9395 46.1526 18.9997 46.16 19.0596C46.1634 19.0878 46.1687 19.1157 46.1762 19.1431C46.1889 19.1811 46.1936 19.2213 46.19 19.2613C46.1822 19.3005 46.1666 19.3377 46.1443 19.3708C46.122 19.404 46.0934 19.4324 46.06 19.4544C46.004 19.4942 45.942 19.525 45.8764 19.5456C45.7521 19.5905 45.6186 19.6035 45.488 19.5831C45.6094 19.5544 45.7268 19.5108 45.8375 19.4533C45.9396 19.3983 46.0529 19.3216 46.061 19.244C46.0696 19.2204 46.039 19.139 46.0376 19.0712C46.0338 19.0044 46.0378 18.9374 46.0495 18.8715C46.0688 18.7428 46.1076 18.6179 46.1646 18.5009ZM46.4666 18.8671C46.599 19.0113 46.7323 19.1513 46.8705 19.285C47.0071 19.4186 47.1515 19.5439 47.3032 19.6602C47.452 19.7769 47.6132 19.8769 47.7838 19.9585C47.9579 20.0378 48.1445 20.0858 48.3352 20.1004C48.1382 20.1355 47.9354 20.1187 47.7468 20.0516C47.5582 19.9846 47.3816 19.8874 47.2242 19.7637C47.067 19.6433 46.9239 19.5056 46.7976 19.353C46.6693 19.2041 46.5582 19.0411 46.4666 18.8671ZM45.9512 24.5913C45.7841 24.6089 45.6151 24.5897 45.4562 24.5351C45.2964 24.4843 45.1436 24.4134 45.0015 24.3242C44.8599 24.2364 44.7274 24.1346 44.606 24.0204L44.4318 23.8433C44.3805 23.7777 44.3263 23.7156 44.2785 23.648L44.67 23.9433C44.8033 24.0352 44.9315 24.1325 45.0698 24.2134C45.2053 24.2984 45.3461 24.3747 45.4913 24.4418C45.6382 24.5097 45.7925 24.5599 45.9512 24.5913ZM41.6003 19.8786C41.6509 19.8769 41.6989 19.8555 41.7341 19.8191C41.7693 19.7826 41.789 19.7339 41.789 19.6833C41.789 19.6326 41.7693 19.5839 41.7341 19.5475C41.6989 19.511 41.6509 19.4897 41.6003 19.488C41.5497 19.4897 41.5017 19.511 41.4665 19.5475C41.4313 19.5839 41.4116 19.6326 41.4116 19.6833C41.4116 19.7339 41.4313 19.7826 41.4665 19.8191C41.5017 19.8555 41.5497 19.8769 41.6003 19.8786ZM35.5187 77.0274C35.0667 76.3868 34.0926 76.5733 33.4279 76.8037C33.0996 76.9239 32.7487 76.9699 32.4005 76.9384C32.0523 76.907 31.7153 76.7987 31.4139 76.6216C30.1195 75.823 30.1919 74.397 30.3016 73.7608C30.3585 73.4584 30.3154 73.1457 30.1787 72.87C29.5008 71.5888 27.8796 73.1684 27.8796 73.1684C28.1283 73.3036 28.3488 73.4853 28.5289 73.7037C28.7159 73.9207 28.8623 74.1697 28.9611 74.4386C29.0631 74.7072 29.1173 74.9916 29.1213 75.2789C29.1304 75.5631 29.0757 75.8458 28.9611 76.106C28.9334 75.5774 28.8262 75.056 28.643 74.5593C28.5524 74.3158 28.4416 74.0802 28.3117 73.8551C28.1867 73.6247 28.0287 73.4097 27.8796 73.1684C27.8796 73.1684 27.0832 73.0126 25.9665 72.7888C26.1549 72.9918 26.3164 73.2181 26.4469 73.4624C26.5813 73.7052 26.6908 73.961 26.7738 74.2258C26.8605 74.4973 26.9012 74.7813 26.8945 75.0661C26.8917 75.2123 26.8643 75.3569 26.8133 75.4939C26.7624 75.6315 26.6705 75.7502 26.55 75.834C26.6568 75.5967 26.6852 75.3316 26.6312 75.0771C26.5869 74.8226 26.5261 74.5712 26.4491 74.3246C26.2978 73.8221 26.1091 73.3264 25.9665 72.7888C25.3654 72.6682 24.6699 72.5278 23.9569 72.3829C24.1722 72.5685 24.356 72.7878 24.5009 73.0324C24.6507 73.2757 24.768 73.5375 24.8498 73.8112C24.9301 74.0911 24.9606 74.383 24.9397 74.6734C24.9156 74.9637 24.8099 75.2413 24.6348 75.4742C24.6798 75.209 24.6938 74.9396 24.6764 74.6712C24.6471 74.4121 24.5957 74.1559 24.5229 73.9055C24.4494 73.6491 24.363 73.3964 24.264 73.1487L23.9569 72.3829C22.7634 72.1373 21.5195 71.8806 20.5805 71.6722C18.0421 71.1127 17.8535 72.236 17.8535 72.236C17.952 72.1286 18.0705 72.0414 18.2023 71.9793C18.3389 71.9101 18.497 71.8968 18.6433 71.942C18.7879 71.9944 18.9123 72.0911 18.9987 72.2184C19.094 72.3363 19.1649 72.4721 19.2071 72.6177C19.25 72.7637 19.2699 72.9154 19.2664 73.0675C19.2566 73.2142 19.2368 73.36 19.2071 73.504C19.1716 73.7793 19.1857 74.0587 19.2488 74.329C19.3968 74.8674 19.6879 75.3556 20.0913 75.7418C20.4961 76.1279 20.9488 76.4604 21.4383 76.7312L21.4471 76.7356C22.3926 77.1525 23.3185 77.6045 24.2355 78.0827C24.694 78.3284 25.146 78.5829 25.5913 78.8572L25.9204 79.0678L26.2429 79.2959C26.3482 79.3749 26.4513 79.4626 26.5544 79.546C26.651 79.6359 26.7585 79.7435 26.8418 79.8312C27.199 80.1885 27.5898 80.5103 28.009 80.7921C28.4308 81.0833 28.8672 81.3528 29.3166 81.5995C29.7663 81.8461 30.2292 82.068 30.7031 82.2642C30.9398 82.3613 31.1832 82.4412 31.4314 82.5034C31.6785 82.5748 31.9364 82.6008 32.1927 82.5802C31.6742 82.6321 31.1508 82.5599 30.6658 82.3695C30.172 82.2055 29.6909 82.0054 29.2266 81.7706C28.7607 81.5388 28.3074 81.2824 27.8686 81.0027C27.4172 80.7285 26.9984 80.4039 26.6203 80.0352C26.261 79.683 25.8568 79.3798 25.418 79.1335C24.9814 78.8703 24.5317 78.6224 24.0775 78.381C23.1693 77.9028 22.2413 77.4508 21.3089 77.0186L21.3045 77.0164L21.2957 77.0121C20.7815 76.7186 20.3105 76.3554 19.896 75.9327C19.4756 75.5002 19.1819 74.9606 19.047 74.3728C18.9885 74.0769 18.9848 73.7728 19.036 73.4755C19.0701 73.338 19.0972 73.1989 19.1172 73.0587C19.1296 72.9213 19.12 72.7828 19.0886 72.6484C19.0574 72.5139 19.0008 72.3866 18.9219 72.2732C18.8515 72.1553 18.7466 72.0619 18.6214 72.0056C18.4845 71.9717 18.341 71.9751 18.2059 72.0156C18.0708 72.0561 17.9491 72.1322 17.8535 72.236C16.0128 74.8774 20.5103 77.6154 24.264 79.1402C28.0178 80.6627 28.869 82.1501 28.869 82.1501C30.2073 84.1664 31.4293 84.0369 32.2805 83.4752C32.6056 83.2467 32.8737 82.9463 33.0639 82.5974C33.2542 82.2485 33.3614 81.8605 33.3775 81.4635C33.4455 80.4565 34.3844 79.4407 34.3844 79.4407C34.3844 79.4407 36.2427 78.0542 35.5187 77.0274ZM31.9185 79.614C31.7386 80.0901 31.076 79.7676 29.955 79.8597C28.9897 79.9409 28.4609 78.8572 28.6386 78.3811C28.8185 77.9028 29.6983 77.7931 30.6044 78.1332C31.5083 78.4732 32.0984 79.1358 31.9185 79.614V79.614Z" fill="#434144"/>
<path d="M30.3008 73.7608C30.329 73.7702 30.359 73.7731 30.3885 73.7691C30.418 73.7652 30.4462 73.7545 30.471 73.738C30.5243 73.7099 30.5744 73.6763 30.6206 73.6376C30.7155 73.5618 30.806 73.4807 30.8916 73.3945C31.062 73.219 31.2297 73.0402 31.3906 72.8535C31.7188 72.486 32.0336 72.1049 32.3881 71.7497C32.1443 72.1867 31.8543 72.5961 31.523 72.971C31.3573 73.1604 31.1769 73.3364 30.9833 73.4972C30.8847 73.578 30.7787 73.6495 30.6667 73.7105C30.6095 73.7406 30.5492 73.7646 30.4868 73.7819C30.4565 73.7944 30.4236 73.799 30.3911 73.7953C30.3585 73.7916 30.3275 73.7797 30.3008 73.7608ZM34.5482 76.5889C34.8134 76.1817 35.0992 75.7882 35.4043 75.4099C35.7065 75.0309 36.0129 74.6598 36.3363 74.2923C36.1195 74.7303 35.8533 75.1422 35.5431 75.5198C35.2428 75.9041 34.91 76.2618 34.5482 76.5889ZM100.032 53.9083C98.2308 50.2795 98.5775 48.6013 98.5775 48.6013C98.9109 46.2055 97.9105 45.4925 96.9013 45.35C96.5065 45.3053 96.1067 45.3523 95.7331 45.4874C95.3594 45.6224 95.0219 45.8419 94.747 46.1287C94.0296 46.8374 92.6518 46.9778 92.6518 46.9778C92.6518 46.9778 90.3416 46.7825 90.2034 48.0331C90.1178 48.814 90.9691 49.3164 91.6207 49.5863C91.9462 49.7137 92.2396 49.9116 92.4797 50.1657C92.7198 50.4198 92.9007 50.7239 93.0094 51.0562C93.4503 52.513 92.4499 53.5331 91.9475 53.9368C91.704 54.1248 91.529 54.3876 91.4495 54.6849C91.1073 56.0956 93.367 55.9836 93.367 55.9836C93.2717 55.7179 93.227 55.4366 93.2353 55.1544C93.2406 54.8675 93.2963 54.5839 93.3999 54.3163C93.5006 54.0474 93.6484 53.7985 93.8365 53.5814C94.0179 53.362 94.2467 53.1865 94.5056 53.068C94.1746 53.4818 93.9083 53.9433 93.7158 54.437C93.6243 54.6796 93.5517 54.929 93.4986 55.1829C93.4394 55.4418 93.4152 55.7051 93.367 55.9836C93.367 55.9836 93.8606 56.6287 94.5495 57.5347C94.5423 57.2585 94.5718 56.9826 94.6373 56.7142C94.695 56.4422 94.7826 56.1773 94.8983 55.9245C95.0131 55.6641 95.1702 55.4247 95.3634 55.2158C95.4622 55.1076 95.5786 55.0171 95.7078 54.9482C95.8376 54.8793 95.9854 54.8517 96.1313 54.8692C95.8941 54.976 95.6973 55.1559 95.5697 55.3826C95.4331 55.6024 95.3114 55.831 95.2054 56.0671C94.986 56.5432 94.7996 57.0389 94.5495 57.5347V57.5369C94.9202 58.0262 95.3459 58.59 95.7846 59.1692C95.7477 58.8889 95.7558 58.6045 95.8088 58.3268C95.8567 58.0446 95.9423 57.7701 96.0633 57.5106C96.1888 57.248 96.3588 57.009 96.5657 56.8042C96.7772 56.6032 97.041 56.4656 97.327 56.4071C97.1163 56.5751 96.927 56.7681 96.7631 56.9819C96.6125 57.1951 96.481 57.4212 96.3704 57.6576C96.2519 57.8924 96.162 58.1425 96.0633 58.3948L95.7846 59.1692V59.1714C96.5174 60.1455 97.2787 61.1635 97.8447 61.9401C99.3738 64.0441 100.26 63.3245 100.26 63.3245C103.389 62.5676 101.833 57.537 100.032 53.9083ZM96.2519 51.5784C95.8022 51.8153 95.0695 51.3173 94.6175 50.4617C94.1655 49.6061 94.1634 48.7197 94.6131 48.4806C95.0629 48.2437 95.3459 48.9237 96.2475 49.5973C97.022 50.1765 96.7017 51.3392 96.2519 51.5784ZM100.782 60.9353C100.63 61.1956 100.431 61.4261 100.197 61.6154C100.079 61.6944 99.9657 61.7809 99.8587 61.8743C99.7586 61.9685 99.6742 62.0781 99.6086 62.199C99.5419 62.3197 99.4994 62.4524 99.4835 62.5895C99.4583 62.7244 99.4752 62.8638 99.5318 62.9888C99.6092 63.1029 99.7157 63.1942 99.8403 63.2532C99.965 63.3123 100.103 63.3369 100.24 63.3244C100.102 63.3405 99.9614 63.3278 99.828 63.2871C99.6795 63.2483 99.552 63.153 99.4726 63.0217C99.4008 62.8865 99.3717 62.7327 99.3892 62.5807C99.3981 62.4296 99.4353 62.2815 99.4989 62.1441C99.563 62.0062 99.649 61.8795 99.7534 61.769C99.8566 61.6645 99.9673 61.5677 100.085 61.4794C100.295 61.298 100.47 61.0793 100.6 60.8344C100.849 60.3337 100.954 59.7742 100.905 59.2175C100.859 58.6549 100.739 58.1009 100.548 57.5699C100.118 56.6331 99.7198 55.6824 99.3541 54.7178C99.1742 54.2308 99.0031 53.7393 98.8517 53.2413L98.7442 52.864L98.6543 52.4801C98.6257 52.3506 98.6082 52.2168 98.5863 52.0852C98.5731 51.9535 98.5643 51.8021 98.5599 51.6815C98.5291 51.1776 98.449 50.6779 98.3208 50.1896C98.2005 49.6918 98.0525 49.2011 97.8776 48.7197C97.7046 48.2368 97.5054 47.7637 97.2809 47.3025C97.1674 47.072 97.0376 46.8498 96.8926 46.6377C96.7537 46.4213 96.5777 46.2312 96.3726 46.0761C96.7953 46.3818 97.1397 46.7833 97.3774 47.2476C97.6385 47.6978 97.8665 48.1663 98.0597 48.6495C98.2551 49.1314 98.4243 49.6236 98.5665 50.1238C98.7239 50.6285 98.8225 51.1497 98.8605 51.6771C98.8968 52.1782 98.9986 52.6723 99.1632 53.147C99.3168 53.634 99.4879 54.1188 99.67 54.5993C100.034 55.5602 100.429 56.5124 100.842 57.4536V57.458L100.846 57.4689C101.036 58.0294 101.148 58.6133 101.179 59.2043C101.207 59.8067 101.07 60.4053 100.782 60.9353Z" fill="#434144"/>
<path d="M92.2032 54.2523C91.8277 54.2176 91.4507 54.202 91.0736 54.2056C90.6982 54.2078 90.3233 54.2207 89.9489 54.2444C89.574 54.2639 89.2002 54.3011 88.825 54.3348C88.4502 54.3727 88.0747 54.4129 87.695 54.4466C87.8757 54.3863 88.0596 54.3384 88.243 54.2857C88.4283 54.2437 88.6135 54.1978 88.8011 54.1653C89.1762 54.0961 89.555 54.0494 89.9357 54.0255C90.3171 54.0023 90.6996 54.0056 91.0806 54.0352C91.4623 54.0608 91.8394 54.1337 92.2032 54.2523ZM90.6385 49.0046C90.1737 49.1483 89.6997 49.2608 89.2198 49.3412C88.7424 49.4242 88.2675 49.4954 87.7776 49.54C87.9994 49.4344 88.2305 49.3498 88.468 49.287C88.7031 49.2196 88.9419 49.1702 89.1813 49.1253C89.6616 49.0353 90.1499 48.9948 90.6385 49.0046ZM63.4041 22.7573C63.5119 22.7476 63.6205 22.7614 63.7224 22.7976C63.8244 22.8338 63.9174 22.8916 63.995 22.967C64.0726 23.049 64.1255 23.1513 64.1473 23.2621C64.1697 23.3704 64.1758 23.4815 64.1655 23.5917L64.1624 23.5642C64.2041 23.6085 64.2581 23.6393 64.3175 23.6527C64.3885 23.6717 64.4616 23.682 64.5351 23.6833C64.6847 23.6923 64.841 23.6709 65.002 23.6669C65.1624 23.6616 65.3192 23.6443 65.4828 23.6489C65.567 23.6482 65.6511 23.6557 65.7338 23.6714C65.8279 23.6851 65.9164 23.7242 65.9899 23.7845C66.0301 23.8209 66.0604 23.8671 66.0777 23.9186C66.0951 23.97 66.099 24.0251 66.0891 24.0785C66.0666 24.1755 66.0107 24.2615 65.9311 24.3214C65.7981 24.4237 65.6493 24.5036 65.4905 24.5579C65.3396 24.6162 65.184 24.6616 65.0255 24.6937C64.947 24.7107 64.8671 24.7258 64.7882 24.7375C64.7483 24.743 64.7096 24.7502 64.6659 24.7545L64.6041 24.758L64.5707 24.7581L64.5506 24.7566L64.5359 24.7536C64.529 24.7485 64.5206 24.7566 64.4976 24.7239L64.501 24.7296C64.5044 24.745 64.5395 24.7507 64.5344 24.749C64.5368 24.7493 64.5392 24.749 64.5414 24.748L64.5346 24.7503C64.5269 24.7535 64.5193 24.7572 64.512 24.7612L64.463 24.79L64.364 24.8551L64.1669 24.992L63.777 25.2758C63.8915 25.1625 64.0101 25.0537 64.1306 24.9467L64.314 24.7881C64.3451 24.7619 64.3772 24.737 64.4107 24.7127L64.4633 24.677C64.4733 24.6707 64.4835 24.665 64.494 24.6598L64.5152 24.6513C64.5224 24.6496 64.5298 24.6486 64.5372 24.6484C64.5463 24.6488 64.5552 24.6511 64.5634 24.6553C64.5715 24.6594 64.5787 24.6653 64.5844 24.6724L64.5878 24.6782C64.5676 24.6498 64.5645 24.6592 64.5622 24.6555C64.5607 24.655 64.5609 24.6552 64.5621 24.6551L64.5717 24.655L64.5977 24.6533L64.6542 24.6463L64.7663 24.6231C64.8432 24.6065 64.9182 24.5872 64.9934 24.5657C65.1429 24.523 65.29 24.4726 65.4342 24.4148C65.5749 24.3635 65.7066 24.29 65.824 24.1971C65.8724 24.161 65.907 24.1095 65.9223 24.051C65.927 24.0262 65.925 24.0006 65.9167 23.9767C65.9083 23.9528 65.8939 23.9316 65.8747 23.9151C65.7542 23.8458 65.6163 23.8123 65.4774 23.8187C65.3241 23.8109 65.1644 23.8246 65.008 23.8265C64.8523 23.8267 64.692 23.8458 64.5248 23.8326C64.4398 23.826 64.3561 23.8086 64.2755 23.7808C64.2281 23.7678 64.1838 23.7455 64.1451 23.7152C64.1063 23.685 64.074 23.6473 64.0499 23.6045C64.0464 23.598 64.0451 23.5907 64.046 23.5834L64.0468 23.5769C64.0624 23.4791 64.0634 23.3795 64.0498 23.2813C64.0361 23.1846 63.9981 23.0928 63.9395 23.0147C63.8723 22.9377 63.7902 22.8753 63.6982 22.831C63.6062 22.7867 63.5061 22.7617 63.4041 22.7573ZM77.5386 14.523C79.0433 14.0489 80.5549 13.6018 82.0736 13.1818C83.5907 12.7558 85.1141 12.3548 86.6388 11.9585C88.1656 11.5702 89.6937 11.1872 91.2282 10.829C92.7611 10.4647 94.3011 10.128 95.8482 9.81873C94.3436 10.2933 92.832 10.7406 91.3134 11.1606C89.7963 11.5864 88.2728 11.9875 86.748 12.3832C85.2211 12.771 83.6929 13.154 82.1584 13.5121C80.6254 13.8762 79.0855 14.2132 77.5386 14.523ZM71.2357 20.554C72.7405 20.0798 74.2521 19.6328 75.7707 19.2127C77.2878 18.7868 78.8113 18.3857 80.336 17.9895C81.8627 17.6011 83.3909 17.2182 84.9254 16.8599C86.4583 16.4957 87.9983 16.1589 89.5454 15.8496C88.0408 16.3243 86.5292 16.7716 85.0106 17.1916C83.4934 17.6174 81.97 18.0184 80.4451 18.4142C78.9182 18.802 77.3901 19.1849 75.8556 19.5431C74.3226 19.9071 72.7827 20.2441 71.2357 20.554ZM82.7646 21.0692C83.591 20.7348 84.4295 20.442 85.2722 20.1639C86.1141 19.883 86.9632 19.6269 87.8137 19.3755C88.6665 19.132 89.5208 18.8937 90.3822 18.68C91.2429 18.4637 92.1079 18.2624 92.9851 18.1029C92.1589 18.4378 91.3204 18.7308 90.4777 19.0089C89.6357 19.2896 88.7866 19.5457 87.936 19.7966C87.083 20.0396 86.2287 20.2778 85.3672 20.4914C84.5066 20.7076 83.6416 20.9092 82.7646 21.0692ZM4.40205 14.202C4.40205 14.202 3.50486 7.82807 0.358813 3.54703C-2.78723 -0.734007 18.9004 0.26731 18.9004 0.26731L22.2316 7.7413C22.2316 7.7413 6.40733 8.3532 4.40205 14.202Z" fill="#434144"/>
<path d="M43.919 34.9246C43.9815 34.6579 44.0478 34.3924 44.1151 34.1271C44.183 33.8621 44.246 33.5956 44.318 33.3317L44.7406 31.7457L44.741 31.7444C44.7475 31.7199 44.7622 31.6983 44.7825 31.6833C44.8029 31.6682 44.8278 31.6604 44.8532 31.6613C45.2673 31.676 45.6518 31.7221 46.0481 31.7684C46.4411 31.8179 46.8328 31.8732 47.2241 31.9308C47.6146 31.9928 48.005 32.0547 48.3936 32.1269C48.783 32.1947 49.1698 32.2766 49.5575 32.3523L49.5626 32.3533C49.5881 32.3583 49.6108 32.3729 49.626 32.3941C49.6412 32.4152 49.6478 32.4414 49.6444 32.4672C49.5377 33.2695 49.394 34.0621 49.2476 34.855C49.099 35.647 48.9464 36.4389 48.7432 37.2206C48.645 37.6123 48.535 38.0018 48.4024 38.3855C48.2752 38.7751 48.1088 39.1508 47.9058 39.5069C47.7992 39.6903 47.6693 39.859 47.5192 40.009C47.3547 40.1688 47.1451 40.2741 46.9187 40.3107C46.5006 40.3339 46.0815 40.2933 45.6757 40.1901C44.104 39.8035 42.5652 39.2939 41.0735 38.6659C40.3276 38.3594 39.5858 38.0442 38.8481 37.7201C38.1141 37.3871 37.38 37.0557 36.6576 36.6975L36.6719 36.7013L35.9155 36.5832C35.9135 36.5829 35.9115 36.5822 35.9098 36.5811C35.9081 36.58 35.9065 36.5786 35.9053 36.577C35.9041 36.5753 35.9033 36.5735 35.9028 36.5715C35.9023 36.5695 35.9022 36.5675 35.9025 36.5654C35.9032 36.5616 35.9053 36.5581 35.9084 36.5557C35.9115 36.5532 35.9154 36.5521 35.9194 36.5524L36.6811 36.6097C36.6849 36.61 36.6886 36.6109 36.6922 36.6123L36.6954 36.6136C37.4429 36.9115 38.1874 37.2167 38.9377 37.5064C39.6841 37.8055 40.4337 38.0959 41.1863 38.3775C41.937 38.6633 42.6909 38.9387 43.448 39.2034C44.2056 39.4633 44.9661 39.7209 45.7395 39.9029C46.1134 40.0035 46.4995 40.0514 46.8867 40.0453C47.0603 40.0216 47.2225 39.9451 47.3513 39.8261C47.4895 39.6946 47.6109 39.5466 47.713 39.3854C48.1178 38.6991 48.4255 37.96 48.6272 37.1892C48.8431 36.4153 49.0166 35.6302 49.1471 34.8374C49.2762 34.0444 49.3645 33.2433 49.4341 32.4456L49.521 32.5606L48.3503 32.387L47.1816 32.2069C46.7924 32.1457 46.4031 32.0848 46.0135 32.0309C45.6269 31.9783 45.2278 31.9188 44.8531 31.8957L44.9656 31.8114L44.469 33.3758C44.3878 33.637 44.2976 33.8955 44.2123 34.1555C44.1264 34.4153 44.0395 34.6749 43.9488 34.9333C43.9475 34.9371 43.9448 34.9402 43.9412 34.942C43.9377 34.9439 43.9336 34.9443 43.9297 34.9431C43.9259 34.942 43.9227 34.9395 43.9207 34.936C43.9186 34.9326 43.9181 34.9285 43.919 34.9246Z" fill="#434144"/>
<path d="M35.9319 36.5655L35.932 36.5677L35.9007 36.5682C35.9007 36.5712 35.9018 36.5742 35.9037 36.5766C35.9057 36.579 35.9083 36.5807 35.9113 36.5817C35.9142 36.5826 35.9174 36.5826 35.9204 36.5817C35.9251 36.5798 35.9253 36.5789 35.9253 36.5789L35.912 36.5834C35.4387 36.5405 34.9663 36.4888 34.4946 36.4188C34.0204 36.3482 33.5517 36.2445 33.0919 36.1085C32.8404 36.044 32.6125 35.9092 32.4348 35.7199C32.2653 35.5144 32.1681 35.2588 32.1582 34.9926C32.1485 34.7416 32.1759 34.4905 32.2395 34.2475C32.2983 34.0071 32.3815 33.7734 32.4879 33.5499L32.5174 33.7145C32.0599 33.2879 31.6064 32.8569 31.1612 32.4171L31.1741 32.4275C30.9906 32.2987 30.8435 32.1246 30.7474 31.9221C30.7207 31.8618 30.7093 31.7959 30.7139 31.7302C30.7185 31.6645 30.7392 31.6009 30.774 31.545C30.8088 31.4927 30.854 31.4481 30.9068 31.414C30.9596 31.3799 31.0189 31.357 31.0809 31.3468C31.2003 31.327 31.3229 31.3499 31.427 31.4116L31.686 31.575C31.8569 31.6838 32.0305 31.788 32.2041 31.8922C32.5511 32.1008 32.904 32.3 33.2637 32.4834C33.4412 32.5755 33.6251 32.6548 33.8139 32.7207C33.8561 32.7361 33.9009 32.7435 33.9458 32.7425C33.9936 32.7417 34.0412 32.7372 34.0883 32.7291C34.1074 32.726 34.1259 32.7199 34.143 32.7109C34.157 32.7006 34.1512 32.7049 34.153 32.6997C34.1417 32.6621 34.1224 32.6273 34.0966 32.5976C33.971 32.4424 33.8351 32.2958 33.6898 32.1588C33.6173 32.0901 33.5426 32.0247 33.4653 31.9606C33.4263 31.9278 33.3876 31.8979 33.3451 31.8572C33.3267 31.8424 33.3118 31.8238 33.3014 31.8026C33.291 31.7815 33.2853 31.7583 33.2848 31.7347C33.2877 31.7081 33.2977 31.6828 33.3138 31.6614C33.3298 31.64 33.3513 31.6233 33.376 31.6131C33.4826 31.5711 33.5965 31.5511 33.711 31.5543C33.8165 31.5531 33.922 31.5588 34.0267 31.5713C34.6587 31.6431 35.2515 31.9135 35.72 32.3437C36.0395 32.6172 36.3138 32.9394 36.5329 33.2984L36.4549 33.2354C37.2775 33.5077 38.106 33.7658 38.9319 34.0273C39.7585 34.2805 40.5869 34.5544 41.416 34.7529C41.5146 34.777 41.6145 34.795 41.7153 34.8067C41.8119 34.8059 41.9081 34.7938 42.0019 34.7706C42.2219 34.7304 42.4445 34.7073 42.668 34.7012C43.1183 34.6831 43.5674 34.7586 43.987 34.9228C44.3971 35.0916 44.7794 35.3212 45.1211 35.6038C45.4606 35.8802 45.7778 36.1747 46.1181 36.4432C46.1197 36.4444 46.1211 36.446 46.1221 36.4477C46.1231 36.4495 46.1238 36.4515 46.124 36.4535C46.1243 36.4555 46.1241 36.4576 46.1236 36.4595C46.1231 36.4615 46.1222 36.4634 46.1209 36.465C46.1185 36.468 46.1151 36.47 46.1112 36.4707C46.1074 36.4714 46.1035 36.4706 46.1002 36.4686C45.7331 36.2332 45.3962 35.9548 45.042 35.7093C44.6983 35.4573 44.3196 35.2568 43.918 35.1141C43.5185 34.9832 43.0977 34.9303 42.6783 34.9582C42.4682 34.9708 42.2593 34.9995 42.0535 35.0442L41.8987 35.0764C41.8683 35.0834 41.8376 35.0889 41.8067 35.0927C41.7705 35.0975 41.734 35.0983 41.6976 35.0952C41.5824 35.0863 41.4678 35.0699 41.3546 35.0462C40.9188 34.961 40.5013 34.8394 40.0812 34.7222C39.6621 34.6036 39.2465 34.4747 38.8322 34.343C38.0029 34.0808 37.1823 33.7964 36.3607 33.5115L36.3591 33.511C36.327 33.4999 36.2999 33.4777 36.2827 33.4485C36.0831 33.1112 35.835 32.8052 35.5463 32.5401C35.2634 32.2697 34.9307 32.0568 34.5665 31.9133C34.3835 31.8431 34.1939 31.7915 34.0005 31.7591C33.9046 31.7429 33.8077 31.7329 33.7104 31.7292C33.6219 31.7225 33.533 31.7321 33.448 31.7576C33.4322 31.762 33.435 31.7746 33.4429 31.7439C33.4361 31.7121 33.4406 31.737 33.4562 31.7491C33.4856 31.7799 33.5254 31.8144 33.5626 31.8483C33.6387 31.9168 33.7137 31.9882 33.7853 32.0621C33.9279 32.2106 34.0624 32.3667 34.1882 32.5297C34.2287 32.5772 34.2552 32.635 34.2647 32.6967C34.2647 32.7195 34.2585 32.7418 34.2466 32.7612C34.2348 32.7807 34.2179 32.7965 34.1977 32.8069C34.1699 32.8216 34.1399 32.8316 34.1088 32.8365C34.0559 32.8449 34.0024 32.8493 33.9487 32.8495C33.8921 32.85 33.8358 32.8402 33.7827 32.8206C33.5895 32.7502 33.4017 32.6659 33.2207 32.5684C32.858 32.3835 32.5042 32.1845 32.1486 31.9884L31.6174 31.6906L31.3539 31.5429C31.2798 31.5039 31.1943 31.4922 31.1124 31.51C31.0744 31.5181 31.0384 31.534 31.0067 31.5566C30.9751 31.5792 30.9484 31.6081 30.9284 31.6415C30.9114 31.6732 30.9027 31.7088 30.903 31.7448C30.9034 31.7808 30.9129 31.8162 30.9305 31.8476C31.0208 32.007 31.1491 32.1416 31.3039 32.2396L31.314 32.2475L31.3168 32.25C31.7872 32.6628 32.2493 33.0846 32.7073 33.5106C32.7288 33.5306 32.7434 33.5568 32.7491 33.5855C32.7548 33.6143 32.7512 33.6441 32.739 33.6707L32.7368 33.6753C32.5338 34.0797 32.4258 34.5252 32.4209 34.9777C32.4213 35.1899 32.4919 35.396 32.6217 35.5638C32.7684 35.7235 32.9553 35.8407 33.1629 35.9032C33.6068 36.0579 34.0609 36.1816 34.5219 36.2733C34.9826 36.3813 35.4509 36.4568 35.9163 36.5521L35.9031 36.5565C35.9051 36.5544 35.9077 36.5529 35.9105 36.5519C35.9137 36.5509 35.9171 36.5509 35.9204 36.5519C35.9236 36.5529 35.9264 36.5548 35.9286 36.5574C35.9308 36.5602 35.932 36.5637 35.932 36.5672C35.9323 36.5693 35.9321 36.5714 35.9316 36.5734C35.9311 36.5754 35.9301 36.5772 35.9289 36.5789C35.9276 36.5805 35.926 36.5819 35.9243 36.5829C35.9225 36.5839 35.9205 36.5846 35.9184 36.5849C35.9164 36.5851 35.9143 36.585 35.9123 36.5844C35.9103 36.5839 35.9085 36.583 35.9068 36.5817C35.9052 36.5805 35.9038 36.5789 35.9028 36.5771C35.9018 36.5753 35.9011 36.5733 35.9008 36.5713L35.9008 36.5677L35.9009 36.5656C35.901 36.5616 35.9028 36.5578 35.9057 36.555C35.9086 36.5523 35.9124 36.5507 35.9164 36.5507C35.9204 36.5507 35.9242 36.5523 35.9271 36.555C35.93 36.5578 35.9317 36.5616 35.9319 36.5656L35.9319 36.5655Z" fill="#434144"/>
</g>
<defs>
<clipPath id="clip0_743_55165">
<rect width="102.099" height="84" fill="white"/>
</clipPath>
</defs>
</svg>
