<svg width="49" height="48" viewBox="0 0 49 48" fill="none" xmlns="http://www.w3.org/2000/svg">
<path d="M14.5 36V14.104C14.4999 13.6386 14.6543 13.1864 14.939 12.8184C15.2238 12.4503 15.6227 12.1873 16.0732 12.0705C16.5237 11.9538 17.0002 11.99 17.4278 12.1734C17.8555 12.3569 18.2101 12.6772 18.436 13.084L30.564 34.916C30.7899 35.3228 31.1445 35.6431 31.5722 35.8266C31.9998 36.01 32.4763 36.0462 32.9268 35.9295C33.3773 35.8127 33.7762 35.5497 34.061 35.1816C34.3457 34.8136 34.5001 34.3614 34.5 33.896V12" stroke="#404040" stroke-width="3" stroke-linecap="round" stroke-linejoin="round"/>
<path d="M10.5 20H38.5" stroke="#404040" stroke-width="3" stroke-linecap="round" stroke-linejoin="round"/>
<path d="M10.5 28H38.5" stroke="#404040" stroke-width="3" stroke-linecap="round" stroke-linejoin="round"/>
</svg>
