<svg width="21" height="20" viewBox="0 0 21 20" fill="none" xmlns="http://www.w3.org/2000/svg">
<path d="M10.3333 11.666C10.4982 11.666 10.6593 11.6171 10.7963 11.5256C10.9334 11.434 11.0402 11.3039 11.1032 11.1516C11.1663 10.9993 11.1828 10.8318 11.1507 10.6701C11.1185 10.5085 11.0391 10.36 10.9226 10.2434C10.806 10.1269 10.6576 10.0475 10.4959 10.0154C10.3343 9.98321 10.1667 9.99971 10.0144 10.0628C9.86216 10.1259 9.73201 10.2327 9.64044 10.3697C9.54887 10.5067 9.5 10.6679 9.5 10.8327C9.5 11.0537 9.5878 11.2657 9.74408 11.4219C9.90036 11.5782 10.1123 11.666 10.3333 11.666ZM14.5 11.666C14.6648 11.666 14.8259 11.6171 14.963 11.5256C15.1 11.434 15.2068 11.3039 15.2699 11.1516C15.333 10.9993 15.3495 10.8318 15.3173 10.6701C15.2852 10.5085 15.2058 10.36 15.0893 10.2434C14.9727 10.1269 14.8242 10.0475 14.6626 10.0154C14.5009 9.98321 14.3334 9.99971 14.1811 10.0628C14.0288 10.1259 13.8987 10.2327 13.8071 10.3697C13.7155 10.5067 13.6667 10.6679 13.6667 10.8327C13.6667 11.0537 13.7545 11.2657 13.9107 11.4219C14.067 11.5782 14.279 11.666 14.5 11.666ZM10.3333 14.9993C10.4982 14.9993 10.6593 14.9505 10.7963 14.8589C10.9334 14.7673 11.0402 14.6372 11.1032 14.4849C11.1663 14.3326 11.1828 14.1651 11.1507 14.0034C11.1185 13.8418 11.0391 13.6933 10.9226 13.5768C10.806 13.4602 10.6576 13.3808 10.4959 13.3487C10.3343 13.3165 10.1667 13.333 10.0144 13.3961C9.86216 13.4592 9.73201 13.566 9.64044 13.703C9.54887 13.8401 9.5 14.0012 9.5 14.166C9.5 14.387 9.5878 14.599 9.74408 14.7553C9.90036 14.9116 10.1123 14.9993 10.3333 14.9993ZM14.5 14.9993C14.6648 14.9993 14.8259 14.9505 14.963 14.8589C15.1 14.7673 15.2068 14.6372 15.2699 14.4849C15.333 14.3326 15.3495 14.1651 15.3173 14.0034C15.2852 13.8418 15.2058 13.6933 15.0893 13.5768C14.9727 13.4602 14.8242 13.3808 14.6626 13.3487C14.5009 13.3165 14.3334 13.333 14.1811 13.3961C14.0288 13.4592 13.8987 13.566 13.8071 13.703C13.7155 13.8401 13.6667 14.0012 13.6667 14.166C13.6667 14.387 13.7545 14.599 13.9107 14.7553C14.067 14.9116 14.279 14.9993 14.5 14.9993ZM6.16667 11.666C6.33148 11.666 6.4926 11.6171 6.62964 11.5256C6.76668 11.434 6.87349 11.3039 6.93657 11.1516C6.99964 10.9993 7.01614 10.8318 6.98399 10.6701C6.95183 10.5085 6.87247 10.36 6.75592 10.2434C6.63938 10.1269 6.49089 10.0475 6.32924 10.0154C6.16759 9.98321 6.00004 9.99971 5.84776 10.0628C5.69549 10.1259 5.56534 10.2327 5.47378 10.3697C5.38221 10.5067 5.33333 10.6679 5.33333 10.8327C5.33333 11.0537 5.42113 11.2657 5.57741 11.4219C5.73369 11.5782 5.94565 11.666 6.16667 11.666ZM16.1667 3.33268H15.3333V2.49935C15.3333 2.27834 15.2455 2.06637 15.0893 1.91009C14.933 1.75381 14.721 1.66602 14.5 1.66602C14.279 1.66602 14.067 1.75381 13.9107 1.91009C13.7545 2.06637 13.6667 2.27834 13.6667 2.49935V3.33268H7V2.49935C7 2.27834 6.9122 2.06637 6.75592 1.91009C6.59964 1.75381 6.38768 1.66602 6.16667 1.66602C5.94565 1.66602 5.73369 1.75381 5.57741 1.91009C5.42113 2.06637 5.33333 2.27834 5.33333 2.49935V3.33268H4.5C3.83696 3.33268 3.20107 3.59607 2.73223 4.06492C2.26339 4.53376 2 5.16964 2 5.83268V15.8327C2 16.4957 2.26339 17.1316 2.73223 17.6005C3.20107 18.0693 3.83696 18.3327 4.5 18.3327H16.1667C16.8297 18.3327 17.4656 18.0693 17.9344 17.6005C18.4033 17.1316 18.6667 16.4957 18.6667 15.8327V5.83268C18.6667 5.16964 18.4033 4.53376 17.9344 4.06492C17.4656 3.59607 16.8297 3.33268 16.1667 3.33268ZM17 15.8327C17 16.0537 16.9122 16.2657 16.7559 16.4219C16.5996 16.5782 16.3877 16.666 16.1667 16.666H4.5C4.27899 16.666 4.06702 16.5782 3.91074 16.4219C3.75446 16.2657 3.66667 16.0537 3.66667 15.8327V8.33268H17V15.8327ZM17 6.66602H3.66667V5.83268C3.66667 5.61167 3.75446 5.39971 3.91074 5.24343C4.06702 5.08715 4.27899 4.99935 4.5 4.99935H16.1667C16.3877 4.99935 16.5996 5.08715 16.7559 5.24343C16.9122 5.39971 17 5.61167 17 5.83268V6.66602ZM6.16667 14.9993C6.33148 14.9993 6.4926 14.9505 6.62964 14.8589C6.76668 14.7673 6.87349 14.6372 6.93657 14.4849C6.99964 14.3326 7.01614 14.1651 6.98399 14.0034C6.95183 13.8418 6.87247 13.6933 6.75592 13.5768C6.63938 13.4602 6.49089 13.3808 6.32924 13.3487C6.16759 13.3165 6.00004 13.333 5.84776 13.3961C5.69549 13.4592 5.56534 13.566 5.47378 13.703C5.38221 13.8401 5.33333 14.0012 5.33333 14.166C5.33333 14.387 5.42113 14.599 5.57741 14.7553C5.73369 14.9116 5.94565 14.9993 6.16667 14.9993Z" fill="white"/>
</svg>
