<svg width="14" height="14" viewBox="0 0 14 14" fill="none" xmlns="http://www.w3.org/2000/svg">
<path d="M7.00016 8.33398C7.13202 8.33398 7.26091 8.29489 7.37054 8.22163C7.48018 8.14838 7.56562 8.04426 7.61608 7.92244C7.66654 7.80062 7.67974 7.66658 7.65402 7.53726C7.6283 7.40794 7.5648 7.28915 7.47157 7.19591C7.37833 7.10268 7.25954 7.03918 7.13022 7.01346C7.0009 6.98774 6.86686 7.00094 6.74504 7.0514C6.62322 7.10186 6.5191 7.1873 6.44585 7.29694C6.3726 7.40657 6.3335 7.53546 6.3335 7.66732C6.3335 7.84413 6.40373 8.0137 6.52876 8.13872C6.65378 8.26375 6.82335 8.33398 7.00016 8.33398ZM10.3335 8.33398C10.4654 8.33398 10.5942 8.29489 10.7039 8.22163C10.8135 8.14838 10.899 8.04426 10.9494 7.92244C10.9999 7.80062 11.0131 7.66658 10.9874 7.53726C10.9616 7.40794 10.8981 7.28915 10.8049 7.19591C10.7117 7.10268 10.5929 7.03918 10.4636 7.01346C10.3342 6.98774 10.2002 7.00094 10.0784 7.0514C9.95656 7.10186 9.85244 7.1873 9.77918 7.29694C9.70593 7.40657 9.66683 7.53546 9.66683 7.66732C9.66683 7.84413 9.73707 8.0137 9.86209 8.13872C9.98712 8.26375 10.1567 8.33398 10.3335 8.33398ZM7.00016 11.0007C7.13202 11.0007 7.26091 10.9616 7.37054 10.8883C7.48018 10.815 7.56562 10.7109 7.61608 10.5891C7.66654 10.4673 7.67974 10.3332 7.65402 10.2039C7.6283 10.0746 7.5648 9.95581 7.47157 9.86258C7.37833 9.76934 7.25954 9.70585 7.13022 9.68013C7.0009 9.6544 6.86686 9.66761 6.74504 9.71807C6.62322 9.76852 6.5191 9.85397 6.44585 9.9636C6.3726 10.0732 6.3335 10.2021 6.3335 10.334C6.3335 10.5108 6.40373 10.6804 6.52876 10.8054C6.65378 10.9304 6.82335 11.0007 7.00016 11.0007ZM10.3335 11.0007C10.4654 11.0007 10.5942 10.9616 10.7039 10.8883C10.8135 10.815 10.899 10.7109 10.9494 10.5891C10.9999 10.4673 11.0131 10.3332 10.9874 10.2039C10.9616 10.0746 10.8981 9.95581 10.8049 9.86258C10.7117 9.76934 10.5929 9.70585 10.4636 9.68013C10.3342 9.6544 10.2002 9.66761 10.0784 9.71807C9.95656 9.76852 9.85244 9.85397 9.77918 9.9636C9.70593 10.0732 9.66683 10.2021 9.66683 10.334C9.66683 10.5108 9.73707 10.6804 9.86209 10.8054C9.98712 10.9304 10.1567 11.0007 10.3335 11.0007ZM3.66683 8.33398C3.79868 8.33398 3.92758 8.29489 4.03721 8.22163C4.14684 8.14838 4.23229 8.04426 4.28275 7.92244C4.33321 7.80062 4.34641 7.66658 4.32069 7.53726C4.29496 7.40794 4.23147 7.28915 4.13823 7.19591C4.045 7.10268 3.92621 7.03918 3.79689 7.01346C3.66757 6.98774 3.53352 7.00094 3.41171 7.0514C3.28989 7.10186 3.18577 7.1873 3.11252 7.29694C3.03926 7.40657 3.00016 7.53546 3.00016 7.66732C3.00016 7.84413 3.0704 8.0137 3.19543 8.13872C3.32045 8.26375 3.49002 8.33398 3.66683 8.33398ZM11.6668 1.66732H11.0002V1.00065C11.0002 0.82384 10.9299 0.654271 10.8049 0.529246C10.6799 0.404222 10.5103 0.333984 10.3335 0.333984C10.1567 0.333984 9.98712 0.404222 9.86209 0.529246C9.73707 0.654271 9.66683 0.82384 9.66683 1.00065V1.66732H4.3335V1.00065C4.3335 0.82384 4.26326 0.654271 4.13823 0.529246C4.01321 0.404222 3.84364 0.333984 3.66683 0.333984C3.49002 0.333984 3.32045 0.404222 3.19543 0.529246C3.0704 0.654271 3.00016 0.82384 3.00016 1.00065V1.66732H2.3335C1.80306 1.66732 1.29436 1.87803 0.919283 2.2531C0.54421 2.62818 0.333496 3.13688 0.333496 3.66732V11.6673C0.333496 12.1978 0.54421 12.7065 0.919283 13.0815C1.29436 13.4566 1.80306 13.6673 2.3335 13.6673H11.6668C12.1973 13.6673 12.706 13.4566 13.081 13.0815C13.4561 12.7065 13.6668 12.1978 13.6668 11.6673V3.66732C13.6668 3.13688 13.4561 2.62818 13.081 2.2531C12.706 1.87803 12.1973 1.66732 11.6668 1.66732ZM12.3335 11.6673C12.3335 11.8441 12.2633 12.0137 12.1382 12.1387C12.0132 12.2637 11.8436 12.334 11.6668 12.334H2.3335C2.15669 12.334 1.98712 12.2637 1.86209 12.1387C1.73707 12.0137 1.66683 11.8441 1.66683 11.6673V5.66732H12.3335V11.6673ZM12.3335 4.33398H1.66683V3.66732C1.66683 3.49051 1.73707 3.32094 1.86209 3.19591C1.98712 3.07089 2.15669 3.00065 2.3335 3.00065H11.6668C11.8436 3.00065 12.0132 3.07089 12.1382 3.19591C12.2633 3.32094 12.3335 3.49051 12.3335 3.66732V4.33398ZM3.66683 11.0007C3.79868 11.0007 3.92758 10.9616 4.03721 10.8883C4.14684 10.815 4.23229 10.7109 4.28275 10.5891C4.33321 10.4673 4.34641 10.3332 4.32069 10.2039C4.29496 10.0746 4.23147 9.95581 4.13823 9.86258C4.045 9.76934 3.92621 9.70585 3.79689 9.68013C3.66757 9.6544 3.53352 9.66761 3.41171 9.71807C3.28989 9.76852 3.18577 9.85397 3.11252 9.9636C3.03926 10.0732 3.00016 10.2021 3.00016 10.334C3.00016 10.5108 3.0704 10.6804 3.19543 10.8054C3.32045 10.9304 3.49002 11.0007 3.66683 11.0007Z" fill="#141115" />
</svg>
