<svg width="14" height="13" viewBox="0 0 14 13" fill="none" xmlns="http://www.w3.org/2000/svg">
<path d="M0.333496 0.333984V1.08065C0.334748 1.16857 0.370691 1.25244 0.433496 1.31398L5.28683 6.22065C5.34963 6.28219 5.38558 6.36606 5.38683 6.45398V11.0473C5.3867 11.1098 5.40414 11.171 5.43714 11.2241C5.47015 11.2771 5.5174 11.3198 5.5735 11.3473L8.20683 12.2873C8.2577 12.3122 8.31408 12.3238 8.37066 12.3209C8.42723 12.318 8.48213 12.3007 8.53016 12.2707C8.5782 12.2406 8.61779 12.1989 8.64521 12.1493C8.67262 12.0997 8.68694 12.044 8.68683 11.9873V6.39398C8.69605 6.30388 8.7389 6.22056 8.80683 6.16065L13.5535 1.32732C13.6163 1.26577 13.6522 1.18191 13.6535 1.09398V0.333984H0.333496Z" fill="#5B585B"/>
</svg>
