<svg width="17" height="16" viewBox="0 0 17 16" fill="none" xmlns="http://www.w3.org/2000/svg">
<path d="M13.9239 2.06665C13.4352 1.57798 12.8472 1.33398 12.1593 1.33398H3.83458C3.14658 1.33398 2.55858 1.57798 2.06992 2.06665C1.58125 2.55532 1.33725 3.14332 1.33725 3.83132V12.156C1.33725 12.844 1.58125 13.432 2.06992 13.9207C2.55858 14.4093 3.14658 14.6533 3.83458 14.6533H5.77725C5.90392 14.6533 5.99925 14.6487 6.06325 14.64C6.13771 14.6251 6.20492 14.5853 6.25392 14.5273C6.31725 14.4607 6.34925 14.364 6.34925 14.2373L6.34458 13.6473C6.34192 13.2713 6.34058 12.974 6.34058 12.754L6.14058 12.7887C6.01392 12.812 5.85392 12.822 5.65992 12.8193C5.45771 12.8156 5.25615 12.7953 5.05725 12.7587C4.84552 12.7196 4.6462 12.6304 4.47592 12.4987C4.29758 12.3637 4.16457 12.1777 4.09458 11.9653L4.00792 11.7653C3.93487 11.6076 3.8431 11.4592 3.73458 11.3233C3.61058 11.1613 3.48458 11.052 3.35725 10.994L3.29725 10.9507C3.25541 10.9207 3.21736 10.8858 3.18392 10.8467C3.15198 10.8103 3.12568 10.7694 3.10592 10.7253C3.08858 10.6847 3.10325 10.6513 3.14925 10.6253C3.19592 10.5987 3.27925 10.586 3.40125 10.586L3.57458 10.6127C3.68992 10.6353 3.83325 10.7047 4.00325 10.82C4.17529 10.9373 4.319 11.0915 4.42392 11.2713C4.55725 11.508 4.71725 11.6887 4.90525 11.8133C5.09325 11.9373 5.28258 12 5.47325 12C5.66392 12 5.82858 11.9853 5.96792 11.9567C6.10266 11.9288 6.23359 11.8849 6.35792 11.826C6.40992 11.4393 6.55125 11.1407 6.78258 10.9327C6.48283 10.9033 6.18575 10.8511 5.89392 10.7767C5.60911 10.6984 5.33521 10.5849 5.07858 10.4387C4.81008 10.2925 4.57292 10.095 4.38058 9.85732C4.19592 9.62598 4.04392 9.32265 3.92525 8.94732C3.80725 8.57132 3.74792 8.13732 3.74792 7.64598C3.74792 6.94665 3.97592 6.35132 4.43258 5.85932C4.21925 5.33398 4.23925 4.74398 4.49325 4.09132C4.66125 4.03865 4.90992 4.07798 5.23925 4.20798C5.56858 4.33798 5.80992 4.44932 5.96325 4.54132C6.11658 4.63465 6.23925 4.71265 6.33192 4.77598C6.8739 4.62515 7.434 4.54934 7.99658 4.55065C8.56925 4.55065 9.12392 4.62598 9.66192 4.77598L9.99125 4.56798C10.2446 4.41589 10.5118 4.2882 10.7892 4.18665C11.0959 4.07065 11.3293 4.03932 11.4919 4.09132C11.7519 4.74465 11.7746 5.33398 11.5606 5.85998C12.0172 6.35132 12.2459 6.94665 12.2459 7.64665C12.2459 8.13798 12.1866 8.57332 12.0679 8.95132C11.9499 9.32998 11.7966 9.63332 11.6086 9.86198C11.4129 10.0966 11.1747 10.2922 10.9066 10.4387C10.6266 10.5947 10.3546 10.7073 10.0912 10.7767C9.79943 10.8514 9.50235 10.9037 9.20258 10.9333C9.50258 11.1933 9.65325 11.6033 9.65325 12.164V14.2373C9.65325 14.3353 9.66725 14.4147 9.69658 14.4753C9.71007 14.5045 9.72929 14.5308 9.75311 14.5524C9.77694 14.5741 9.80487 14.5907 9.83525 14.6013C9.89925 14.624 9.95525 14.6387 10.0046 14.644C10.0539 14.6507 10.1246 14.6527 10.2166 14.6527H12.1593C12.8472 14.6527 13.4352 14.4087 13.9239 13.92C14.4119 13.432 14.6566 12.8433 14.6566 12.1553V3.83132C14.6566 3.14332 14.4119 2.55532 13.9233 2.06665H13.9239Z" fill="#434144"/>
</svg>
