<svg width="17" height="16" viewBox="0 0 17 16" fill="none" xmlns="http://www.w3.org/2000/svg">
<path d="M8.00401 5.91687C6.85714 5.91687 5.9212 6.85281 5.9212 7.99968C5.9212 9.14656 6.85714 10.0825 8.00401 10.0825C9.15089 10.0825 10.0868 9.14656 10.0868 7.99968C10.0868 6.85281 9.15089 5.91687 8.00401 5.91687ZM14.2509 7.99968C14.2509 7.13718 14.2587 6.2825 14.2103 5.42156C14.1618 4.42156 13.9337 3.53406 13.2024 2.80281C12.4696 2.07 11.5837 1.84343 10.5837 1.795C9.7212 1.74656 8.86651 1.75437 8.00557 1.75437C7.14307 1.75437 6.28839 1.74656 5.42745 1.795C4.42745 1.84343 3.53995 2.07156 2.8087 2.80281C2.07589 3.53562 1.84932 4.42156 1.80089 5.42156C1.75245 6.28406 1.76026 7.13875 1.76026 7.99968C1.76026 8.86062 1.75245 9.71687 1.80089 10.5778C1.84932 11.5778 2.07745 12.4653 2.8087 13.1966C3.54151 13.9294 4.42745 14.1559 5.42745 14.2044C6.28995 14.2528 7.14464 14.245 8.00557 14.245C8.86807 14.245 9.72276 14.2528 10.5837 14.2044C11.5837 14.1559 12.4712 13.9278 13.2024 13.1966C13.9353 12.4637 14.1618 11.5778 14.2103 10.5778C14.2603 9.71687 14.2509 8.86218 14.2509 7.99968ZM8.00401 11.2044C6.23057 11.2044 4.79932 9.77312 4.79932 7.99968C4.79932 6.22625 6.23057 4.795 8.00401 4.795C9.77745 4.795 11.2087 6.22625 11.2087 7.99968C11.2087 9.77312 9.77745 11.2044 8.00401 11.2044ZM11.3399 5.41218C10.9259 5.41218 10.5915 5.07781 10.5915 4.66375C10.5915 4.24968 10.9259 3.91531 11.3399 3.91531C11.754 3.91531 12.0884 4.24968 12.0884 4.66375C12.0885 4.76207 12.0692 4.85945 12.0317 4.95031C11.9941 5.04117 11.939 5.12372 11.8694 5.19325C11.7999 5.26277 11.7174 5.31789 11.6265 5.35546C11.5356 5.39303 11.4383 5.41231 11.3399 5.41218Z" fill="#434144"/>
</svg>
