<svg width="13" height="12" viewBox="0 0 13 12" fill="none" xmlns="http://www.w3.org/2000/svg">
<g clip-path="url(#clip0_3094_28033)">
<path d="M10.2264 10.2266H8.45153V7.4415C8.45153 6.77737 8.43766 5.92387 7.52341 5.92387C6.59791 5.92387 6.45691 6.64425 6.45691 7.39237V10.2262H4.67978V4.49962H6.38678V5.28075H6.40966C6.64816 4.82963 7.22828 4.35525 8.09378 4.35525C9.89416 4.35525 10.2283 5.54063 10.2283 7.08187V10.2262L10.2264 10.2266ZM2.67203 3.717C2.53638 3.71705 2.40206 3.69034 2.27675 3.63839C2.15145 3.58645 2.03762 3.5103 1.94179 3.41429C1.84596 3.31829 1.77001 3.20432 1.71829 3.07892C1.66658 2.95352 1.64011 2.81915 1.64041 2.6835C1.64063 2.47933 1.70138 2.27981 1.81499 2.11017C1.9286 1.94053 2.08996 1.80838 2.27866 1.73044C2.46737 1.6525 2.67494 1.63226 2.87515 1.67228C3.07536 1.7123 3.2592 1.81079 3.40344 1.95529C3.54768 2.09979 3.64583 2.28381 3.68549 2.48409C3.72515 2.68437 3.70453 2.89191 3.62625 3.08048C3.54796 3.26904 3.41552 3.43016 3.24568 3.54346C3.07583 3.65675 2.8762 3.71715 2.67203 3.717ZM3.56228 10.2266H1.78141V4.5H3.56228V10.2266ZM11.1174 0H0.888906C0.400281 0 0.00390625 0.386625 0.00390625 0.865125V11.1353C0.00390625 11.6138 0.400281 12.0004 0.888906 12.0004H11.1155C11.6034 12.0004 12.0039 11.6138 12.0039 11.1353V0.865125C12.0039 0.386625 11.6034 0 11.1155 0H11.1174Z" fill="#434144"/>
</g>
<defs>
<clipPath id="clip0_3094_28033">
<rect width="12" height="12" fill="white" transform="translate(0.00390625)"/>
</clipPath>
</defs>
</svg>
