<svg width="128" height="18" viewBox="0 0 128 18" fill="none" xmlns="http://www.w3.org/2000/svg">
<path d="M7.452 14.216C10.278 14.216 12.366 12.596 13.05 10.724L11.034 9.752C10.476 11.174 9.198 12.164 7.452 12.164C4.842 12.164 3.042 10.184 3.042 7.286C3.042 4.406 4.842 2.426 7.452 2.426C9.198 2.426 10.476 3.416 11.034 4.838L13.05 3.866C12.366 1.994 10.278 0.373999 7.452 0.373999C3.6 0.373999 0.774 3.29 0.774 7.286C0.774 11.282 3.618 14.216 7.452 14.216ZM19.1507 14.216C21.9767 14.216 24.2447 12.074 24.2447 9.14C24.2447 6.206 21.9947 4.082 19.1507 4.082C16.2887 4.082 14.0567 6.206 14.0567 9.14C14.0567 12.074 16.3067 14.216 19.1507 14.216ZM19.1507 12.218C17.4947 12.218 16.3067 10.94 16.3067 9.158C16.3067 7.376 17.4947 6.08 19.1507 6.08C20.7887 6.08 21.9947 7.376 21.9947 9.158C21.9947 10.94 20.7887 12.218 19.1507 12.218ZM33.2284 0.589999V5.378C32.5444 4.55 31.4284 4.082 30.1324 4.082C27.3964 4.082 25.2364 6.278 25.2364 9.158C25.2364 12.02 27.3604 14.216 30.1504 14.216C31.4464 14.216 32.6164 13.73 33.3364 12.866V14H35.3884V0.589999H33.2284ZM30.3664 12.218C28.6924 12.218 27.4864 10.94 27.4864 9.158C27.4864 7.376 28.6924 6.08 30.3664 6.08C32.0224 6.08 33.2284 7.376 33.2284 9.158C33.2284 10.958 32.0224 12.218 30.3664 12.218ZM46.4119 8.798C46.4119 6.224 44.4679 4.082 41.7319 4.082C38.9959 4.082 36.9259 6.224 36.9259 9.14C36.9259 11.984 38.9599 14.216 41.8939 14.216C43.8739 14.216 45.4579 13.208 46.0519 11.822L44.2699 10.958C43.8379 11.75 43.0639 12.308 41.9119 12.308C40.4179 12.308 39.2839 11.318 39.1759 9.77H46.3039C46.3759 9.482 46.4119 9.14 46.4119 8.798ZM39.2119 8.096C39.4639 6.674 40.4719 5.882 41.7319 5.882C42.9739 5.882 44.0179 6.8 44.0899 8.096H39.2119ZM54.5522 0.589999H51.6722L46.9742 14H49.3862L50.3762 11.048H55.8482L56.8562 14H59.2682L54.5522 0.589999ZM51.0422 9.05L53.1122 2.966L55.1822 9.05H51.0422ZM64.3575 14.108C64.6995 14.108 65.1315 14.072 65.4735 14.018V12.29C65.2395 12.326 65.0055 12.344 64.8255 12.344C63.4575 12.344 63.1155 11.57 63.1155 10.742V6.242H65.4195V4.298H63.1155V1.292H60.9555V2.84C60.9555 3.776 60.4155 4.298 59.4795 4.298H59.1915V6.242H60.9555V10.742C60.9555 12.884 62.1795 14.108 64.3575 14.108ZM78.2471 0.589999L73.7831 6.656L69.3371 0.589999H67.1771V14H69.4451V4.496L73.6571 10.31H73.9091L78.1211 4.64V14H80.4071V0.589999H78.2471ZM89.3372 4.298L86.7272 11.156L84.1172 4.298H81.7592L85.5752 13.964L85.2512 14.72C84.9992 15.314 84.6752 16.034 83.4332 16.034C83.0552 16.034 82.5872 15.962 82.3172 15.89V17.708C82.7132 17.888 83.2172 17.96 83.7392 17.96C86.1872 17.96 86.9432 16.196 87.3752 15.134L91.6952 4.298H89.3372ZM99.2977 14.216C102.124 14.216 104.212 12.596 104.896 10.724L102.88 9.752C102.322 11.174 101.044 12.164 99.2977 12.164C96.6877 12.164 94.8877 10.184 94.8877 7.286C94.8877 4.406 96.6877 2.426 99.2977 2.426C101.044 2.426 102.322 3.416 102.88 4.838L104.896 3.866C104.212 1.994 102.124 0.373999 99.2977 0.373999C95.4457 0.373999 92.6197 3.29 92.6197 7.286C92.6197 11.282 95.4637 14.216 99.2977 14.216ZM111.28 4.19C110.092 4.19 109.156 4.586 108.652 5.648V4.298H106.618V14H108.778V8.51C108.778 6.998 109.678 6.134 111.01 6.134H112.18V4.19H111.28ZM113.454 3.02H115.614V0.589999H113.454V3.02ZM113.454 14H115.614V4.298H113.454V14ZM122.878 4.082C121.564 4.082 120.466 4.55 119.782 5.36V0.589999H117.622V14H119.656V12.848C120.358 13.73 121.528 14.216 122.86 14.216C125.632 14.216 127.774 12.02 127.774 9.158C127.774 6.278 125.614 4.082 122.878 4.082ZM122.644 12.218C120.97 12.218 119.782 10.958 119.782 9.158C119.782 7.376 120.97 6.08 122.644 6.08C124.3 6.08 125.524 7.376 125.524 9.158C125.524 10.94 124.3 12.218 122.644 12.218Z" fill="#141115"/>
</svg>
