<svg width="22" height="22" viewBox="0 0 22 22" fill="none" xmlns="http://www.w3.org/2000/svg">
<path d="M6.4165 16.5V6.46433C6.41644 6.25105 6.48722 6.04378 6.61773 5.87509C6.74824 5.70639 6.93109 5.58582 7.13755 5.53232C7.34402 5.47881 7.56241 5.4954 7.75842 5.57948C7.95444 5.66356 8.11697 5.81036 8.2205 5.99683L13.7792 16.0032C13.8827 16.1896 14.0452 16.3364 14.2413 16.4205C14.4373 16.5046 14.6557 16.5212 14.8621 16.4677C15.0686 16.4142 15.2514 16.2936 15.3819 16.1249C15.5125 15.9562 15.5832 15.749 15.5832 15.5357V5.5" stroke="white" stroke-width="1.5" stroke-linecap="round" stroke-linejoin="round"/>
<path d="M4.5835 9.16602H17.4168" stroke="white" stroke-width="1.5" stroke-linecap="round" stroke-linejoin="round"/>
<path d="M4.5835 12.834H17.4168" stroke="white" stroke-width="1.5" stroke-linecap="round" stroke-linejoin="round"/>
</svg>
