<svg width="102" height="42" viewBox="0 0 102 42" fill="none" xmlns="http://www.w3.org/2000/svg">
<rect width="95" height="32" rx="8" fill="#0559FD"/>
<path d="M18.4165 21.5V11.4643C18.4164 11.251 18.4872 11.0438 18.6177 10.8751C18.7482 10.7064 18.9311 10.5858 19.1376 10.5323C19.344 10.4788 19.5624 10.4954 19.7584 10.5795C19.9544 10.6636 20.117 10.8104 20.2205 10.9968L25.7792 21.0032C25.8827 21.1896 26.0452 21.3364 26.2413 21.4205C26.4373 21.5046 26.6557 21.5212 26.8621 21.4677C27.0686 21.4142 27.2514 21.2936 27.3819 21.1249C27.5125 20.9562 27.5832 20.749 27.5832 20.5357V10.5" stroke="white" stroke-width="1.5" stroke-linecap="round" stroke-linejoin="round"/>
<path d="M16.5835 14.166H29.4168" stroke="white" stroke-width="1.5" stroke-linecap="round" stroke-linejoin="round"/>
<path d="M16.5835 17.834H29.4168" stroke="white" stroke-width="1.5" stroke-linecap="round" stroke-linejoin="round"/>
<path d="M44.064 18.648H42.24V11.08H40.176L34.544 18.648V20.344H40.272V23H42.24V20.344H44.064V18.648ZM36.56 18.648L40.272 13.576V18.648H36.56ZM45.6825 24.872H47.0105L48.1945 20.84H46.3225L45.6825 24.872ZM54.9728 23.192C57.8528 23.192 59.7408 20.712 59.7408 17.032C59.7408 13.352 57.8368 10.888 54.9568 10.888C52.1088 10.888 50.1888 13.336 50.1888 17.032C50.1888 20.728 52.1248 23.192 54.9728 23.192ZM54.9728 21.336C53.2768 21.336 52.2048 19.688 52.2048 17.032C52.2048 14.376 53.2608 12.744 54.9568 12.744C56.6848 12.744 57.7408 14.376 57.7408 17.032C57.7408 19.704 56.6848 21.336 54.9728 21.336ZM65.9571 23.192C68.8371 23.192 70.7251 20.712 70.7251 17.032C70.7251 13.352 68.8211 10.888 65.9411 10.888C63.0931 10.888 61.1731 13.336 61.1731 17.032C61.1731 20.728 63.1091 23.192 65.9571 23.192ZM65.9571 21.336C64.2611 21.336 63.1891 19.688 63.1891 17.032C63.1891 14.376 64.2451 12.744 65.9411 12.744C67.6691 12.744 68.7251 14.376 68.7251 17.032C68.7251 19.704 67.6691 21.336 65.9571 21.336ZM76.9415 23.192C79.8215 23.192 81.7095 20.712 81.7095 17.032C81.7095 13.352 79.8055 10.888 76.9255 10.888C74.0775 10.888 72.1575 13.336 72.1575 17.032C72.1575 20.728 74.0935 23.192 76.9415 23.192ZM76.9415 21.336C75.2455 21.336 74.1735 19.688 74.1735 17.032C74.1735 14.376 75.2295 12.744 76.9255 12.744C78.6535 12.744 79.7095 14.376 79.7095 17.032C79.7095 19.704 78.6535 21.336 76.9415 21.336Z" fill="white"/>
<path d="M44.732 39C43.9622 40.3333 42.0377 40.3333 41.2679 39L37.8038 33C37.034 31.6667 37.9963 30 39.5359 30H46.4641C48.0037 30 48.966 31.6667 48.1962 33L44.732 39Z" fill="#0559FD"/>
</svg>
