<svg width="13" height="12" viewBox="0 0 13 12" fill="none" xmlns="http://www.w3.org/2000/svg">
<g clip-path="url(#clip0_3094_28037)">
<path d="M10.0039 3.76562C9.71224 3.89583 9.39714 3.98438 9.05859 4.03125C9.41276 3.82292 9.65495 3.51823 9.78516 3.11719C9.44661 3.3151 9.09766 3.44792 8.73828 3.51562C8.42057 3.17188 8.02214 3 7.54297 3C7.08984 3 6.70312 3.16016 6.38281 3.48047C6.0625 3.80078 5.90234 4.1875 5.90234 4.64062C5.90234 4.79167 5.91536 4.91667 5.94141 5.01562C5.26953 4.97917 4.63932 4.8099 4.05078 4.50781C3.46224 4.20573 2.96224 3.80208 2.55078 3.29688C2.39974 3.55729 2.32422 3.83333 2.32422 4.125C2.32422 4.71875 2.5612 5.17448 3.03516 5.49219C2.79036 5.48698 2.52995 5.41927 2.25391 5.28906V5.30469C2.25391 5.69531 2.38411 6.04297 2.64453 6.34766C2.90495 6.65234 3.22526 6.84115 3.60547 6.91406C3.45443 6.95573 3.32161 6.97656 3.20703 6.97656C3.13932 6.97656 3.03776 6.96615 2.90234 6.94531C3.01172 7.27344 3.20573 7.54427 3.48438 7.75781C3.76302 7.97135 4.07943 8.08073 4.43359 8.08594C3.82943 8.55469 3.14974 8.78906 2.39453 8.78906C2.25911 8.78906 2.12891 8.78125 2.00391 8.76562C2.77474 9.25521 3.61328 9.5 4.51953 9.5C5.10286 9.5 5.64974 9.40755 6.16016 9.22266C6.67057 9.03776 7.10807 8.79036 7.47266 8.48047C7.83724 8.17057 8.15104 7.8138 8.41406 7.41016C8.67708 7.00651 8.8724 6.58464 9 6.14453C9.1276 5.70443 9.19141 5.26562 9.19141 4.82812C9.19141 4.73438 9.1888 4.66406 9.18359 4.61719C9.51172 4.38281 9.78516 4.09896 10.0039 3.76562ZM12.0039 2.25V9.75C12.0039 10.3698 11.7839 10.8997 11.3438 11.3398C10.9036 11.7799 10.3737 12 9.75391 12H2.25391C1.63411 12 1.10417 11.7799 0.664062 11.3398C0.223958 10.8997 0.00390625 10.3698 0.00390625 9.75V2.25C0.00390625 1.63021 0.223958 1.10026 0.664062 0.660156C1.10417 0.220052 1.63411 0 2.25391 0H9.75391C10.3737 0 10.9036 0.220052 11.3438 0.660156C11.7839 1.10026 12.0039 1.63021 12.0039 2.25Z" fill="#434144"/>
</g>
<defs>
<clipPath id="clip0_3094_28037">
<rect width="12" height="12" fill="white" transform="translate(0.00390625)"/>
</clipPath>
</defs>
</svg>
