<svg width="24" height="24" viewBox="0 0 24 24" fill="none" xmlns="http://www.w3.org/2000/svg">
<path d="M5.61302 21.7333C4.51049 21.7334 3.45212 21.3 2.66635 20.5266L2.57969 20.44C2.18489 20.0547 1.87119 19.5944 1.65709 19.086C1.44298 18.5777 1.33279 18.0316 1.33302 17.48C1.33162 16.8828 1.44876 16.2913 1.67763 15.7397C1.90651 15.1881 2.24257 14.6874 2.66635 14.2666L12.9997 4.04664C14.0496 2.95348 15.4869 2.31647 17.0019 2.27283C18.517 2.22919 19.9886 2.7824 21.0997 3.81331C21.6008 4.31317 21.9974 4.90778 22.2664 5.56248C22.5353 6.21717 22.6713 6.91886 22.6664 7.62664C22.6604 8.41711 22.4983 9.19862 22.1894 9.92625C21.8805 10.6539 21.4309 11.3133 20.8664 11.8666L11.5797 21.0666C11.522 21.1443 11.448 21.2085 11.363 21.2547C11.278 21.3009 11.1839 21.328 11.0874 21.3342C10.9908 21.3404 10.8941 21.3255 10.8038 21.2906C10.7136 21.2556 10.6321 21.2014 10.5649 21.1318C10.4977 21.0622 10.4465 20.9787 10.4148 20.8873C10.3831 20.7959 10.3717 20.6987 10.3813 20.6024C10.391 20.5061 10.4215 20.4131 10.4707 20.3298C10.5199 20.2465 10.5867 20.1749 10.6664 20.12L19.9264 10.92C20.3661 10.4907 20.7168 9.97877 20.9582 9.41361C21.1996 8.84845 21.327 8.24117 21.333 7.62664C21.3378 7.0948 21.2366 6.56735 21.0351 6.07512C20.8336 5.5829 20.536 5.1358 20.1597 4.75997C19.2982 3.97522 18.1631 3.55999 16.9986 3.60362C15.8342 3.64726 14.7333 4.14628 13.933 4.99331L3.63302 15.2133C3.32949 15.508 3.08769 15.8603 2.92173 16.2494C2.75576 16.6386 2.66895 17.0569 2.66635 17.48C2.66493 17.8515 2.73727 18.2195 2.87917 18.5629C3.02108 18.9062 3.22973 19.2179 3.49302 19.48L3.57969 19.5666C4.17619 20.1159 4.96452 20.409 5.77498 20.3828C6.58544 20.3567 7.35322 20.0133 7.91302 19.4266L16.813 10.6266C16.9813 10.4565 17.114 10.2544 17.2033 10.0324C17.2926 9.81028 17.3367 9.57263 17.333 9.33331C17.3345 9.12544 17.2946 8.91936 17.2156 8.72707C17.1366 8.53479 17.0202 8.36014 16.873 8.21331C16.5363 7.90458 16.0918 7.74063 15.6353 7.75684C15.1788 7.77306 14.7469 7.96814 14.433 8.29997L8.29969 14.38C8.17415 14.5046 8.00424 14.5743 7.82733 14.5737C7.65042 14.5731 7.481 14.5022 7.35635 14.3766C7.2317 14.2511 7.16202 14.0812 7.16265 13.9043C7.16327 13.7274 7.23415 13.558 7.35969 13.4333L13.5197 7.33331C14.0843 6.75486 14.8538 6.42157 15.6619 6.40536C16.4701 6.38914 17.2523 6.6913 17.8397 7.24664C18.1098 7.52164 18.3221 7.84796 18.4641 8.20634C18.6061 8.56472 18.6749 8.94792 18.6664 9.33331C18.6656 9.74832 18.5821 10.159 18.4207 10.5414C18.2593 10.9237 18.0233 11.27 17.7264 11.56L8.85302 20.3866C7.99295 21.2454 6.82838 21.7294 5.61302 21.7333Z" fill="#141115"/>
</svg>
