<svg width="24" height="24" viewBox="0 0 24 24" fill="none" xmlns="http://www.w3.org/2000/svg">
<path d="M20.9325 8.8425C21.0645 9.4365 21.141 10.047 21.141 10.674C21.141 15.516 17.031 19.5525 11.619 20.4195C12.7635 20.8815 14.046 21.1515 15.4125 21.1515C16.701 21.1515 17.9175 20.9145 19.0155 20.502C20.406 20.976 21.924 21.099 23.1795 21.099C22.6126 20.4191 22.1324 19.6714 21.75 18.873C23.142 17.631 24 15.9855 24 14.1735C24 12.0315 22.8045 10.122 20.9325 8.8425ZM18.891 10.674C18.891 6.4365 14.6625 3 9.4455 3C4.2285 3 0 6.4365 0 10.674C0 12.885 1.1565 14.871 2.9985 16.272C2.53656 17.4552 1.88559 18.5555 1.071 19.53C2.958 19.53 5.388 19.2825 7.2585 18.1335C7.962 18.27 8.6925 18.3495 9.4455 18.3495C14.6625 18.348 18.891 14.913 18.891 10.674Z" fill="#141115"/>
</svg>
