<svg width="24" height="24" viewBox="0 0 24 24" fill="none" xmlns="http://www.w3.org/2000/svg">
<path d="M20.667 5.33333H14.667V22H22.0003V6.66667C22.0003 6.31304 21.8599 5.97391 21.6098 5.72386C21.3598 5.47381 21.0206 5.33333 20.667 5.33333ZM17.3337 16.6667H16.0003V15.3333H17.3337V16.6667ZM17.3337 13.3333H16.0003V12H17.3337V13.3333ZM17.3337 10H16.0003V8.66667H17.3337V10ZM20.0003 16.6667H18.667V15.3333H20.0003V16.6667ZM20.0003 13.3333H18.667V12H20.0003V13.3333ZM20.0003 10H18.667V8.66667H20.0003V10Z" fill="#141115"/>
<path d="M11.9203 2H4.08033C3.70549 2 3.346 2.1489 3.08095 2.41396C2.8159 2.67901 2.66699 3.03849 2.66699 3.41333V22H6.00033V20H10.0003V22H13.3337V3.41333C13.3337 3.03849 13.1848 2.67901 12.9197 2.41396C12.6547 2.1489 12.2952 2 11.9203 2ZM6.00033 16.6667H4.66699V15.3333H6.00033V16.6667ZM6.00033 13.3333H4.66699V12H6.00033V13.3333ZM6.00033 10H4.66699V8.66667H6.00033V10ZM6.00033 6.66667H4.66699V5.33333H6.00033V6.66667ZM8.66699 16.6667H7.33366V15.3333H8.66699V16.6667ZM8.66699 13.3333H7.33366V12H8.66699V13.3333ZM8.66699 10H7.33366V8.66667H8.66699V10ZM8.66699 6.66667H7.33366V5.33333H8.66699V6.66667ZM11.3337 16.6667H10.0003V15.3333H11.3337V16.6667ZM11.3337 13.3333H10.0003V12H11.3337V13.3333ZM11.3337 10H10.0003V8.66667H11.3337V10ZM11.3337 6.66667H10.0003V5.33333H11.3337V6.66667Z" fill="#141115"/>
</svg>
