<svg width="24" height="24" viewBox="0 0 24 24" fill="none" xmlns="http://www.w3.org/2000/svg">
<path d="M22.656 1.3188C21.7764 0.4392 20.718 0 19.4796 0H4.4952C3.2568 0 2.1984 0.4392 1.3188 1.3188C0.4392 2.1984 0 3.2568 0 4.4952V19.4796C0 20.718 0.4392 21.7764 1.3188 22.656C2.1984 23.5356 3.2568 23.9748 4.4952 23.9748H7.992C8.22 23.9748 8.3916 23.9664 8.5068 23.9508C8.64083 23.9239 8.76181 23.8524 8.85 23.748C8.964 23.628 9.0216 23.454 9.0216 23.226L9.0132 22.164C9.0084 21.4872 9.006 20.952 9.006 20.556L8.646 20.6184C8.418 20.6604 8.13 20.6784 7.7808 20.6736C7.41683 20.6669 7.05401 20.6304 6.696 20.5644C6.31488 20.494 5.95611 20.3336 5.6496 20.0964C5.32859 19.8536 5.08917 19.5187 4.9632 19.1364L4.8072 18.7764C4.67571 18.4924 4.51053 18.2253 4.3152 17.9808C4.092 17.6892 3.8652 17.4924 3.636 17.388L3.528 17.31C3.45269 17.2561 3.38419 17.1932 3.324 17.1228C3.26651 17.0575 3.21918 16.9838 3.1836 16.9044C3.1524 16.8312 3.1788 16.7712 3.2616 16.7244C3.3456 16.6764 3.4956 16.6536 3.7152 16.6536L4.0272 16.7016C4.2348 16.7424 4.4928 16.8672 4.7988 17.0748C5.10847 17.2859 5.36715 17.5635 5.556 17.8872C5.796 18.3132 6.084 18.6384 6.4224 18.8628C6.7608 19.086 7.1016 19.1988 7.4448 19.1988C7.788 19.1988 8.0844 19.1724 8.3352 19.1208C8.57774 19.0707 8.81341 18.9917 9.0372 18.8856C9.1308 18.1896 9.3852 17.652 9.8016 17.2776C9.26205 17.2247 8.72731 17.1308 8.202 16.9968C7.68935 16.856 7.19633 16.6516 6.7344 16.3884C6.25109 16.1253 5.82421 15.7697 5.478 15.342C5.1456 14.9256 4.872 14.3796 4.6584 13.704C4.446 13.0272 4.3392 12.246 4.3392 11.3616C4.3392 10.1028 4.7496 9.0312 5.5716 8.1456C5.1876 7.2 5.2236 6.138 5.6808 4.9632C5.9832 4.8684 6.4308 4.9392 7.0236 5.1732C7.6164 5.4072 8.0508 5.6076 8.3268 5.7732C8.6028 5.9412 8.8236 6.0816 8.9904 6.1956C9.96597 5.9241 10.9742 5.78763 11.9868 5.79C13.0176 5.79 14.016 5.9256 14.9844 6.1956L15.5772 5.8212C16.0332 5.54742 16.5141 5.31759 17.0136 5.1348C17.5656 4.926 17.9856 4.8696 18.2784 4.9632C18.7464 6.1392 18.7872 7.2 18.402 8.1468C19.224 9.0312 19.6356 10.1028 19.6356 11.3628C19.6356 12.2472 19.5288 13.0308 19.3152 13.7112C19.1028 14.3928 18.8268 14.9388 18.4884 15.3504C18.1361 15.7727 17.7074 16.1248 17.2248 16.3884C16.7208 16.6692 16.2312 16.872 15.7572 16.9968C15.2319 17.1313 14.6972 17.2255 14.1576 17.2788C14.6976 17.7468 14.9688 18.4848 14.9688 19.494V23.226C14.9688 23.4024 14.994 23.5452 15.0468 23.6544C15.0711 23.707 15.1057 23.7542 15.1486 23.7932C15.1914 23.8321 15.2417 23.8621 15.2964 23.8812C15.4116 23.922 15.5124 23.9484 15.6012 23.958C15.69 23.97 15.8172 23.9736 15.9828 23.9736H19.4796C20.718 23.9736 21.7764 23.5344 22.656 22.6548C23.5344 21.7764 23.9748 20.7168 23.9748 19.4784V4.4952C23.9748 3.2568 23.5344 2.1984 22.6548 1.3188H22.656Z" fill="#141115"/>
</svg>
