<svg width="32" height="24" viewBox="0 0 32 24" fill="none" xmlns="http://www.w3.org/2000/svg">
<g clip-path="url(#clip0_702_51658)">
<path d="M7.23507 23.8819V11.5822L3.42056 8.09246L0 6.15592V21.7113C0 22.9123 0.973057 23.8819 2.17057 23.8819H7.23507Z" fill="#4285F4"/>
<path d="M24.5986 23.8818H29.6631C30.8643 23.8818 31.8337 22.9087 31.8337 21.7113V6.15604L27.9594 8.37412L24.5986 11.5822V23.8818Z" fill="#34A853"/>
<path d="M7.23487 11.5822L6.71582 6.77631L7.23487 2.17664L15.9169 8.68822L24.5989 2.17664L25.1797 6.52798L24.5989 11.5822L15.9169 18.0937L7.23487 11.5822Z" fill="#EA4335"/>
<path d="M24.5986 2.17663V11.5821L31.8337 6.1559V3.26185C31.8337 0.577707 28.7697 -0.952449 26.6246 0.657292L24.5986 2.17663Z" fill="#FBBC04"/>
<path d="M0 6.15581L3.32754 8.65156L7.23507 11.582V2.17653L5.20912 0.657195C3.06031 -0.95267 0 0.57761 0 3.26163V6.15568V6.15581Z" fill="#C5221F"/>
</g>
<defs>
<clipPath id="clip0_702_51658">
<rect width="31.8342" height="24" fill="white"/>
</clipPath>
</defs>
</svg>
