<svg width="24" height="24" viewBox="0 0 24 24" fill="none" xmlns="http://www.w3.org/2000/svg">
<path d="M12.0003 8.25093C9.93595 8.25093 8.25127 9.93562 8.25127 12C8.25127 14.0644 9.93595 15.7491 12.0003 15.7491C14.0647 15.7491 15.7494 14.0644 15.7494 12C15.7494 9.93562 14.0647 8.25093 12.0003 8.25093ZM23.2447 12C23.2447 10.4475 23.2588 8.90905 23.1716 7.35937C23.0844 5.55937 22.6738 3.96187 21.3575 2.64562C20.0385 1.32655 18.4438 0.91874 16.6438 0.831553C15.0913 0.744365 13.5528 0.758428 12.0031 0.758428C10.4506 0.758428 8.9122 0.744365 7.36252 0.831553C5.56252 0.91874 3.96502 1.32937 2.64877 2.64562C1.3297 3.96468 0.921891 5.55937 0.834704 7.35937C0.747516 8.91187 0.761579 10.4503 0.761579 12C0.761579 13.5497 0.747516 15.0909 0.834704 16.6406C0.921891 18.4406 1.33252 20.0381 2.64877 21.3544C3.96783 22.6734 5.56252 23.0812 7.36252 23.1684C8.91502 23.2556 10.4535 23.2416 12.0031 23.2416C13.5556 23.2416 15.0941 23.2556 16.6438 23.1684C18.4438 23.0812 20.0413 22.6706 21.3575 21.3544C22.6766 20.0353 23.0844 18.4406 23.1716 16.6406C23.2616 15.0909 23.2447 13.5525 23.2447 12ZM12.0003 17.7684C8.80814 17.7684 6.23189 15.1922 6.23189 12C6.23189 8.8078 8.80814 6.23155 12.0003 6.23155C15.1925 6.23155 17.7688 8.8078 17.7688 12C17.7688 15.1922 15.1925 17.7684 12.0003 17.7684ZM18.005 7.34249C17.2597 7.34249 16.6578 6.74062 16.6578 5.9953C16.6578 5.24999 17.2597 4.64812 18.005 4.64812C18.7503 4.64812 19.3522 5.24999 19.3522 5.9953C19.3524 6.17228 19.3177 6.34756 19.2501 6.51111C19.1825 6.67466 19.0833 6.82326 18.9581 6.9484C18.833 7.07355 18.6844 7.17277 18.5208 7.24039C18.3573 7.30802 18.182 7.34271 18.005 7.34249Z" fill="#141115"/>
</svg>
