<svg width="24" height="24" viewBox="0 0 24 24" fill="none" xmlns="http://www.w3.org/2000/svg">
<path d="M10 14C10.3259 14.3326 10.7148 14.5968 11.1441 14.7772C11.5734 14.9576 12.0344 15.0505 12.5 15.0505C12.9656 15.0505 13.4266 14.9576 13.8559 14.7772C14.2852 14.5968 14.6741 14.3326 15 14L19 10C19.663 9.33696 20.0355 8.43768 20.0355 7.5C20.0355 6.56232 19.663 5.66304 19 5C18.337 4.33696 17.4377 3.96447 16.5 3.96447C15.5623 3.96447 14.663 4.33696 14 5L13.5 5.5" stroke="#141115" stroke-width="1.5" stroke-linecap="round" stroke-linejoin="round"/>
<path d="M14.0004 10C13.6745 9.6674 13.2855 9.40317 12.8563 9.22279C12.427 9.0424 11.966 8.94949 11.5004 8.94949C11.0347 8.94949 10.5738 9.0424 10.1445 9.22279C9.71523 9.40317 9.32626 9.6674 9.00038 10L5.00038 14C4.33734 14.663 3.96484 15.5623 3.96484 16.5C3.96484 17.4377 4.33734 18.337 5.00038 19C5.66342 19.663 6.5627 20.0355 7.50038 20.0355C8.43806 20.0355 9.33734 19.663 10.0004 19L10.5004 18.5" stroke="#141115" stroke-width="1.5" stroke-linecap="round" stroke-linejoin="round"/>
</svg>
