<svg width="24" height="24" viewBox="0 0 24 24" fill="none" xmlns="http://www.w3.org/2000/svg">
<path fill-rule="evenodd" clip-rule="evenodd" d="M2.95938 12C2.95938 7.464 6.49538 2.96 11.9994 2.96C16.4442 2.96 18.6426 6.2496 19.5786 8H16.7994C16.5872 8 16.3837 8.08429 16.2337 8.23432C16.0837 8.38435 15.9994 8.58783 15.9994 8.8C15.9994 9.01217 16.0837 9.21566 16.2337 9.36569C16.3837 9.51572 16.5872 9.6 16.7994 9.6H21.5994C21.8116 9.6 22.015 9.51572 22.1651 9.36569C22.3151 9.21566 22.3994 9.01217 22.3994 8.8V4C22.3994 3.78783 22.3151 3.58434 22.1651 3.43432C22.015 3.28429 21.8116 3.2 21.5994 3.2C21.3872 3.2 21.1837 3.28429 21.0337 3.43432C20.8837 3.58434 20.7994 3.78783 20.7994 4V6.9008C19.673 4.9136 17.065 1.36 11.9994 1.36C5.49858 1.36 1.35938 6.696 1.35938 12C1.35938 17.304 5.49858 22.64 11.9994 22.64C15.1098 22.64 17.6986 21.408 19.5418 19.5328C20.5198 18.5352 21.2957 17.3579 21.8266 16.0656C21.8665 15.9684 21.8869 15.8643 21.8866 15.7593C21.8863 15.6542 21.8653 15.5502 21.8248 15.4533C21.7843 15.3564 21.7251 15.2683 21.6506 15.1943C21.5761 15.1202 21.4878 15.0615 21.3906 15.0216C21.2934 14.9817 21.1893 14.9613 21.0842 14.9616C20.9792 14.9619 20.8752 14.9829 20.7783 15.0234C20.6813 15.0639 20.5933 15.1231 20.5192 15.1976C20.4452 15.2721 20.3865 15.3604 20.3466 15.4576C19.8945 16.5583 19.2338 17.5613 18.401 18.4112C16.8474 19.9952 14.6634 21.04 11.9994 21.04C6.49538 21.04 2.95938 16.536 2.95938 12Z" fill="#141115"/>
</svg>
