<svg width="25" height="24" viewBox="0 0 25 24" fill="none" xmlns="http://www.w3.org/2000/svg">
<g clip-path="url(#clip0_707_52693)">
<path d="M19.7155 0H5.95248C3.12561 0 0.833984 2.29163 0.833984 5.1185V18.8815C0.833984 21.7084 3.12561 24 5.95248 24H19.7155C22.5424 24 24.834 21.7084 24.834 18.8815V5.1185C24.834 2.29163 22.5424 0 19.7155 0Z" fill="#0A93E2"/>
<path fill-rule="evenodd" clip-rule="evenodd" d="M20.135 8.35834C19.6181 8.58751 19.0614 8.74296 18.4783 8.81234C19.0741 8.45494 19.5309 7.88987 19.7475 7.2164C19.1897 7.54644 18.5719 7.78689 17.9151 7.91626C17.3888 7.35524 16.6388 7.00531 15.8088 7.00531C14.215 7.00531 12.9241 8.29759 12.9241 9.89002C12.9241 10.1159 12.9491 10.3368 12.9985 10.5479C10.6011 10.4271 8.4749 9.27868 7.05241 7.53271C6.80342 7.95926 6.6617 8.45494 6.6617 8.98341C6.6617 9.9847 7.17103 10.8681 7.9443 11.3851C7.47147 11.3703 7.02717 11.2401 6.63745 11.0236C6.63745 11.0362 6.63745 11.0478 6.63745 11.0605C6.63745 12.4576 7.63226 13.6238 8.95176 13.8887C8.71024 13.9549 8.45501 13.9906 8.19223 13.9906C8.00643 13.9906 7.82568 13.9726 7.64897 13.939C8.01688 15.0852 9.08221 15.9192 10.3449 15.9423C9.35734 16.7166 8.11346 17.1768 6.76143 17.1768C6.528 17.1768 6.29807 17.1642 6.07324 17.137C7.34967 17.9553 8.86572 18.4333 10.495 18.4333C15.8016 18.4333 18.7043 14.0366 18.7043 10.2243C18.7043 10.0993 18.7011 9.97523 18.6959 9.85127C19.2599 9.44462 19.7485 8.93628 20.1351 8.35833L20.135 8.35834Z" fill="white"/>
</g>
<defs>
<clipPath id="clip0_707_52693">
<rect width="24" height="24" fill="white" transform="translate(0.833984)"/>
</clipPath>
</defs>
</svg>
