<svg width="75" height="24" viewBox="0 0 75 24" fill="none" xmlns="http://www.w3.org/2000/svg">
<g clip-path="url(#clip0_309_13082)">
<path d="M38.2835 7.64185C38.2413 10.9718 41.2511 12.8299 43.5184 13.9348C45.8478 15.0683 46.6303 15.7952 46.621 16.809C46.6037 18.3603 44.7629 19.045 43.0404 19.0716C40.0352 19.1182 38.2878 18.2603 36.8987 17.6114L35.8161 22.6771C37.2098 23.3193 39.7906 23.8794 42.4667 23.904C48.7486 23.904 52.8584 20.8031 52.8807 15.9953C52.9053 9.89352 44.4408 9.55578 44.4986 6.82845C44.5186 6.00147 45.3077 5.11896 47.0368 4.89458C47.8927 4.78123 50.2554 4.69448 52.9342 5.92802L53.9855 1.02682C52.545 0.502287 50.6935 2.09808e-05 48.3883 2.09808e-05C42.4757 2.09808e-05 38.317 3.14315 38.2835 7.64185ZM64.0881 0.42219C62.941 0.42219 61.9744 1.0913 61.5429 2.11809L52.5695 23.544H58.8468L60.096 20.0918H67.7667L68.4914 23.544H74.0241L69.196 0.42219H64.0881ZM64.9663 6.66826L66.7778 15.3508H61.8165L64.9663 6.66826ZM30.6726 0.422478L25.7245 23.5437H31.7063L36.652 0.4219H30.6726V0.422478ZM21.8235 0.4219L15.5974 16.1598L13.0788 2.77853C12.7833 1.28474 11.6163 0.42219 10.3203 0.42219H0.142554L0 1.09361C2.08945 1.54701 4.46342 2.27829 5.90169 3.06074C6.78188 3.53872 7.03287 3.95655 7.32202 5.09236L12.0922 23.544H18.4135L28.1049 0.42219H21.8235" fill="url(#paint0_linear_309_13082)"/>
</g>
<defs>
<linearGradient id="paint0_linear_309_13082" x1="34.0318" y1="24.3835" x2="34.7238" y2="-0.166223" gradientUnits="userSpaceOnUse">
<stop stop-color="#222357"/>
<stop offset="1" stop-color="#254AA5"/>
</linearGradient>
<clipPath id="clip0_309_13082">
<rect width="74.0241" height="24" fill="white"/>
</clipPath>
</defs>
</svg>
